<svg width="24" height="24" viewBox="0 0 24 24" fill="none" xmlns="http://www.w3.org/2000/svg">
<g clipPath="url(#clip0_1063_27417)">
<path fillRule="evenodd" clipRule="evenodd" d="M20.8105 0.328929C21.2491 -0.109643 21.9601 -0.109643 22.3987 0.328929L23.6693 1.59954C24.1079 2.03812 24.1079 2.74919 23.6693 3.18776L22.5576 4.29953L19.6987 1.4407L20.8105 0.328929ZM10.3299 10.8116C10.2559 10.8855 10.2002 10.9757 10.1671 11.0749L9.21413 13.9337C9.1334 14.1758 9.19643 14.4428 9.37688 14.6233C9.55738 14.8038 9.8243 14.8668 10.0664 14.786L12.9253 13.8331C13.0245 13.8 13.1147 13.7443 13.1886 13.6703L21.6063 5.25275L18.7475 2.39396L10.3299 10.8116ZM14.1417 14.623C13.9207 14.8438 13.6475 15.0126 13.3515 15.1113L10.4927 16.0642C10.2863 16.1331 10.0712 16.168 9.85347 16.168C9.31347 16.168 8.8058 15.9577 8.42401 15.5759C7.87907 15.0308 7.69201 14.2382 7.93571 13.5072L8.88869 10.6485C8.98729 10.3524 9.1562 10.0791 9.37699 9.85828L15.5517 3.68359H3.4707C2.10836 3.68359 1 4.79195 1 6.1543V20.5293C1 21.8916 2.10836 23 3.4707 23H17.8457C19.208 23 20.3164 21.8916 20.3164 20.5293V8.44828L14.1417 14.623Z" fill="url(#paint0_linear_1063_27417)"/>
</g>
<defs>
<linearGradient id="paint0_linear_1063_27417" x1="14.8958" y1="-3.35417" x2="3.875" y2="26.8333" gradientUnits="userSpaceOnUse">
<stop stopColor="#584F88"/>
<stop offset="1" stopColor="#584F88" stopOpacity="0"/>
</linearGradient>
<clipPath id="clip0_1063_27417">
<rect width="24" height="24" fill="white"/>
</clipPath>
</defs>
</svg>
