<svg width="24" height="24" viewBox="0 0 24 24" fill="none" xmlns="http://www.w3.org/2000/svg">
<g clip-path="url(#clip0_3812_28637)">
<path fill-rule="evenodd" clip-rule="evenodd" d="M20.8104 0.328929C21.249 -0.109643 21.9601 -0.109643 22.3986 0.328929L23.6693 1.59954C24.1078 2.03812 24.1078 2.74919 23.6693 3.18776L22.5575 4.29953L19.6987 1.4407L20.8104 0.328929ZM10.3298 10.8116C10.2558 10.8855 10.2001 10.9757 10.167 11.0749L9.21405 13.9337C9.13333 14.1758 9.19635 14.4428 9.37681 14.6233C9.5573 14.8038 9.82423 14.8668 10.0664 14.786L12.9252 13.8331C13.0245 13.8 13.1146 13.7443 13.1886 13.6703L21.6062 5.25275L18.7474 2.39396L10.3298 10.8116ZM14.1416 14.623C13.9206 14.8438 13.6475 15.0126 13.3515 15.1113L10.4926 16.0642C10.2863 16.1331 10.0711 16.168 9.8534 16.168C9.31339 16.168 8.80573 15.9577 8.42394 15.5759C7.87899 15.0308 7.69194 14.2382 7.93564 13.5072L8.88861 10.6485C8.98721 10.3524 9.15612 10.0791 9.37691 9.85828L15.5516 3.68359H3.47063C2.10828 3.68359 0.999924 4.79195 0.999924 6.1543V20.5293C0.999924 21.8916 2.10828 23 3.47063 23H17.8456C19.208 23 20.3163 21.8916 20.3163 20.5293V8.44828L14.1416 14.623Z" fill="url(#paint0_linear_3812_28637)"/>
</g>
<defs>
<linearGradient id="paint0_linear_3812_28637" x1="14.8958" y1="-3.35417" x2="3.875" y2="26.8333" gradientUnits="userSpaceOnUse">
<stop stop-color="#141226"/>
<stop offset="1" stop-color="#584F88" stop-opacity="0"/>
</linearGradient>
<clipPath id="clip0_3812_28637">
<rect width="24" height="24" fill="white"/>
</clipPath>
</defs>
</svg>
