<svg width="228" height="278" viewBox="0 0 228 278" fill="none" xmlns="http://www.w3.org/2000/svg">
<g clip-path="url(#clip0_3812_30093)">
<path d="M156.29 73.51C166.331 73.51 174.47 65.4019 174.47 55.4C174.47 45.3982 166.331 37.29 156.29 37.29C146.25 37.29 138.11 45.3982 138.11 55.4C138.11 65.4019 146.25 73.51 156.29 73.51Z" fill="url(#paint0_radial_3812_30093)"/>
<path d="M205.77 170.72C227.97 289.92 -29.11 334.05 2.73999 170.95C18.24 91.5501 33 34.6101 106.28 34.6101C169.47 34.6101 190.67 89.6701 205.76 170.72H205.77Z" fill="url(#paint1_radial_3812_30093)"/>
<path d="M43.6201 213.08C46.4501 196.15 84.8001 159.65 136.25 187.6C187.7 215.55 103.1 231.77 71.5901 226.84C40.0801 221.9 43.6201 213.09 43.6201 213.09V213.08Z" fill="url(#paint2_linear_3812_30093)"/>
<path d="M132.09 259.94C164.34 273.74 193.01 272.68 218.85 242.35C244.69 212.02 207.35 180.14 207.35 180.14C207.35 180.14 207.24 201.75 174.46 209.2C141.68 216.66 132.08 259.94 132.08 259.94H132.09Z" fill="url(#paint3_linear_3812_30093)"/>
<path d="M36.5402 211.67C17.1002 216.03 9.81019 251.87 50.7902 268.1C91.7602 284.32 123.62 271.27 142.74 250.11C161.86 228.95 164.77 213.08 174.47 209.2C174.47 209.2 160.71 175.34 119.69 191.92C78.6702 208.49 82.9202 220.84 65.2202 216.96C47.5202 213.08 50.7102 208.5 36.5502 211.67H36.5402Z" fill="url(#paint4_linear_3812_30093)"/>
<path d="M186.28 84.98H55.89C53.6257 84.98 51.79 86.8156 51.79 89.08C51.79 91.3443 53.6257 93.18 55.89 93.18H186.28C188.544 93.18 190.38 91.3443 190.38 89.08C190.38 86.8156 188.544 84.98 186.28 84.98Z" fill="url(#paint5_linear_3812_30093)"/>
<path d="M186.28 86.3301H55.89C53.6257 86.3301 51.79 88.1657 51.79 90.4301C51.79 92.6944 53.6257 94.5301 55.89 94.5301H186.28C188.544 94.5301 190.38 92.6944 190.38 90.4301C190.38 88.1657 188.544 86.3301 186.28 86.3301Z" fill="url(#paint6_linear_3812_30093)"/>
<path d="M113.98 84.0001C113.98 96.1301 104.14 105.97 92.01 105.97C79.88 105.97 70.04 96.1301 70.04 84.0001C70.04 71.8701 113.98 71.8701 113.98 84.0001Z" fill="url(#paint7_linear_3812_30093)"/>
<path d="M117.98 84.0001C117.98 96.1301 108.14 105.97 96.01 105.97C83.88 105.97 74.04 96.1301 74.04 84.0001C74.04 71.8701 117.98 71.8701 117.98 84.0001Z" fill="url(#paint8_linear_3812_30093)"/>
<path d="M179.94 84.0001C179.94 96.1301 170.1 105.97 157.97 105.97C145.84 105.97 136 96.1301 136 84.0001C136 71.8701 179.94 71.8701 179.94 84.0001Z" fill="url(#paint9_linear_3812_30093)"/>
<path d="M183.94 84.0001C183.94 96.1301 174.1 105.97 161.97 105.97C149.84 105.97 140 96.1301 140 84.0001C140 71.8701 183.94 71.8701 183.94 84.0001Z" fill="url(#paint10_linear_3812_30093)"/>
<path d="M108.627 69.8797C150.077 71.0397 168.387 62.0997 178.057 50.0797C187.737 38.0497 193.927 29.2697 173.007 34.1397C152.087 39.0097 94.7367 35.2497 59.8067 32.7697C24.8767 30.2897 20.0367 35.1197 34.9767 51.3297C49.9167 67.5397 81.4767 69.1297 108.617 69.8897L108.627 69.8797Z" fill="url(#paint11_linear_3812_30093)"/>
<path d="M108.627 65.7399C150.077 66.7699 168.387 58.8199 178.057 48.1099C187.737 37.3999 193.927 29.5799 173.007 33.9199C152.087 38.2599 94.7367 34.8999 59.8067 32.6999C24.8767 30.4999 20.0367 34.7899 34.9767 49.2199C49.9167 63.6599 81.4767 65.0699 108.617 65.7399H108.627Z" fill="url(#paint12_linear_3812_30093)"/>
<path d="M58.7363 51.9799C58.7363 51.9799 69.1263 29.7599 74.4563 17.0699C79.7963 4.37992 88.4963 4.24992 115.576 3.02992C142.656 1.80992 152.226 38.2499 155.206 48.3699C158.186 58.4899 82.3263 63.0499 58.7463 51.9799H58.7363Z" fill="url(#paint13_linear_3812_30093)"/>
<path d="M52.73 81.07C65.1674 81.07 75.25 71.0277 75.25 58.64C75.25 46.2522 65.1674 36.21 52.73 36.21C40.2925 36.21 30.21 46.2522 30.21 58.64C30.21 71.0277 40.2925 81.07 52.73 81.07Z" fill="url(#paint14_radial_3812_30093)"/>
<path d="M162.95 125.3C168.12 143.67 170.16 161.95 131.99 161.95C85.72 161.95 93.54 144.14 99.76 125.34C104.76 110.23 109.18 99.3501 131.99 99.3501C151.66 99.3501 158.6 109.81 162.95 125.3Z" fill="url(#paint15_radial_3812_30093)"/>
<path d="M135 113.68C143.212 113.68 149.87 111.697 149.87 109.25C149.87 106.803 143.212 104.82 135 104.82C126.787 104.82 120.13 106.803 120.13 109.25C120.13 111.697 126.787 113.68 135 113.68Z" fill="url(#paint16_linear_3812_30093)"/>
</g>
<defs>
<radialGradient id="paint0_radial_3812_30093" cx="0" cy="0" r="1" gradientUnits="userSpaceOnUse" gradientTransform="translate(154.127 64.935) scale(21.3778 30.025)">
<stop offset="0.72" stop-color="#141225"/>
<stop offset="1" stop-color="#5B47A8"/>
</radialGradient>
<radialGradient id="paint1_radial_3812_30093" cx="0" cy="0" r="1" gradientUnits="userSpaceOnUse" gradientTransform="translate(87.6791 176.268) scale(109.497 169.781)">
<stop stop-color="#141225"/>
<stop offset="0.85" stop-color="#141225"/>
<stop offset="1" stop-color="#5B47A8"/>
</radialGradient>
<linearGradient id="paint2_linear_3812_30093" x1="96.3901" y1="221.3" x2="105.38" y2="154.1" gradientUnits="userSpaceOnUse">
<stop offset="0.39" stop-color="#141225"/>
<stop offset="1" stop-color="#5B47A8"/>
</linearGradient>
<linearGradient id="paint3_linear_3812_30093" x1="170.13" y1="266.96" x2="206.14" y2="174.83" gradientUnits="userSpaceOnUse">
<stop offset="0.39" stop-color="#141225"/>
<stop offset="1" stop-color="#5B47A8"/>
</linearGradient>
<linearGradient id="paint4_linear_3812_30093" x1="94.1902" y1="271.24" x2="102.12" y2="157.49" gradientUnits="userSpaceOnUse">
<stop offset="0.39" stop-color="#141225"/>
<stop offset="1" stop-color="#5B47A8"/>
</linearGradient>
<linearGradient id="paint5_linear_3812_30093" x1="51.79" y1="89.08" x2="190.38" y2="89.08" gradientUnits="userSpaceOnUse">
<stop stop-color="#FF5DAB"/>
<stop offset="0.7" stop-color="#3FA9F5"/>
<stop offset="1" stop-color="#0071BC"/>
</linearGradient>
<linearGradient id="paint6_linear_3812_30093" x1="51.79" y1="90.4301" x2="190.38" y2="90.4301" gradientUnits="userSpaceOnUse">
<stop stop-color="#0071BC"/>
<stop offset="0.3" stop-color="#3FA9F5"/>
<stop offset="1" stop-color="#FF5DAB"/>
</linearGradient>
<linearGradient id="paint7_linear_3812_30093" x1="102.38" y1="104.26" x2="84.43" y2="73.1701" gradientUnits="userSpaceOnUse">
<stop stop-color="#FF5DAB"/>
<stop offset="0.54" stop-color="#00FFFF"/>
<stop offset="0.7" stop-color="#3FA9F5"/>
<stop offset="1" stop-color="#0071BC"/>
</linearGradient>
<linearGradient id="paint8_linear_3812_30093" x1="74.06" y1="80.5801" x2="113.88" y2="96.5601" gradientUnits="userSpaceOnUse">
<stop stop-color="#FF5DAB"/>
<stop offset="0.54" stop-color="#00FFFF"/>
<stop offset="0.7" stop-color="#3FA9F5"/>
<stop offset="1" stop-color="#0071BC"/>
</linearGradient>
<linearGradient id="paint9_linear_3812_30093" x1="168.34" y1="8.96572e-05" x2="150.39" y2="73.1701" gradientUnits="userSpaceOnUse">
<stop stop-color="#FF5DAB"/>
<stop offset="0.54" stop-color="#00FFFF"/>
<stop offset="0.7" stop-color="#3FA9F5"/>
<stop offset="1" stop-color="#0071BC"/>
</linearGradient>
<linearGradient id="paint10_linear_3812_30093" x1="140.02" y1="80.5801" x2="179.84" y2="96.5601" gradientUnits="userSpaceOnUse">
<stop stop-color="#FF5DAB"/>
<stop offset="0.54" stop-color="#00FFFF"/>
<stop offset="0.7" stop-color="#3FA9F5"/>
<stop offset="1" stop-color="#0071BC"/>
</linearGradient>
<linearGradient id="paint11_linear_3812_30093" x1="107.137" y1="43.8397" x2="107.917" y2="85.0597" gradientUnits="userSpaceOnUse">
<stop stop-color="#5B47A8"/>
<stop offset="0.61" stop-color="#110E24"/>
</linearGradient>
<linearGradient id="paint12_linear_3812_30093" x1="104.547" y1="64.6199" x2="109.497" y2="8.00994" gradientUnits="userSpaceOnUse">
<stop offset="0.39" stop-color="#110E24"/>
<stop offset="1" stop-color="#5B47A8"/>
</linearGradient>
<linearGradient id="paint13_linear_3812_30093" x1="86.9247" y1="52.1718" x2="149.197" y2="6.48266" gradientUnits="userSpaceOnUse">
<stop offset="0.39" stop-color="#110E24"/>
<stop offset="1" stop-color="#5B47A8"/>
</linearGradient>
<radialGradient id="paint14_radial_3812_30093" cx="0" cy="0" r="1" gradientUnits="userSpaceOnUse" gradientTransform="translate(50.7975 81.6744) scale(27.7146 47.0214)">
<stop offset="0.85" stop-color="#141225"/>
<stop offset="1" stop-color="#5B47A8"/>
</radialGradient>
<radialGradient id="paint15_radial_3812_30093" cx="0" cy="0" r="1" gradientUnits="userSpaceOnUse" gradientTransform="translate(91.6218 155.983) scale(75.5165)">
<stop offset="0.85" stop-color="#141225"/>
<stop offset="1" stop-color="#5B47A8"/>
</radialGradient>
<linearGradient id="paint16_linear_3812_30093" x1="134.73" y1="112.28" x2="135.35" y2="105.31" gradientUnits="userSpaceOnUse">
<stop stop-color="#110E24"/>
<stop offset="0.74" stop-color="#5B47A8"/>
<stop offset="1" stop-color="#9D3DDA"/>
</linearGradient>
<clipPath id="clip0_3812_30093">
<rect width="227.96" height="277.34" fill="white"/>
</clipPath>
</defs>
</svg>
