<svg width="228" height="275" viewBox="0 0 228 275" fill="none" xmlns="http://www.w3.org/2000/svg">
<path d="M156.289 71.1497C166.33 71.1497 174.469 63.0416 174.469 53.0397C174.469 43.0378 166.33 34.9297 156.289 34.9297C146.249 34.9297 138.109 43.0378 138.109 53.0397C138.109 63.0416 146.249 71.1497 156.289 71.1497Z" fill="url(#paint0_radial_3812_30062)"/>
<path d="M205.771 168.35C227.971 287.55 -29.109 331.68 2.74097 168.58C18.241 89.19 33.001 32.25 106.281 32.25C169.471 32.25 190.671 87.31 205.761 168.36L205.771 168.35Z" fill="url(#paint1_radial_3812_30062)"/>
<path d="M43.6192 210.721C46.4492 193.791 84.7992 157.291 136.249 185.241C187.699 213.191 103.099 229.411 71.5892 224.481C40.0792 219.541 43.6192 210.731 43.6192 210.731V210.721Z" fill="url(#paint2_linear_3812_30062)"/>
<path d="M132.088 257.579C164.338 271.379 193.008 270.319 218.848 239.989C244.688 209.659 207.348 177.779 207.348 177.779C207.348 177.779 207.238 199.389 174.458 206.839C141.678 214.299 132.078 257.579 132.078 257.579H132.088Z" fill="url(#paint3_linear_3812_30062)"/>
<path d="M36.5382 209.31C17.0982 213.67 9.80824 249.51 50.7882 265.74C91.7582 281.96 123.618 268.91 142.738 247.75C161.858 226.59 164.768 210.72 174.468 206.84C174.468 206.84 160.708 172.98 119.688 189.56C78.6682 206.13 82.9182 218.48 65.2182 214.6C47.5182 210.72 50.7082 206.14 36.5482 209.31H36.5382Z" fill="url(#paint4_linear_3812_30062)"/>
<path d="M186.459 82.6201H56.0687C53.8044 82.6201 51.9688 84.4557 51.9688 86.7201C51.9688 88.9845 53.8044 90.8201 56.0687 90.8201H186.459C188.723 90.8201 190.559 88.9845 190.559 86.7201C190.559 84.4557 188.723 82.6201 186.459 82.6201Z" fill="url(#paint5_linear_3812_30062)"/>
<path d="M186.459 83.9707H56.0687C53.8044 83.9707 51.9688 85.8063 51.9688 88.0707C51.9688 90.3351 53.8044 92.1707 56.0687 92.1707H186.459C188.723 92.1707 190.559 90.3351 190.559 88.0707C190.559 85.8063 188.723 83.9707 186.459 83.9707Z" fill="url(#paint6_linear_3812_30062)"/>
<path d="M171.41 71.4197L185.32 73.5297C187.06 73.7897 187.74 75.9297 186.47 77.1497L176.33 86.8697C175.83 87.3497 175.59 88.0497 175.71 88.7397L178 102.57C178.29 104.3 176.46 105.61 174.9 104.78L162.49 98.1797C161.87 97.8497 161.13 97.8497 160.51 98.1697L148.01 104.61C146.45 105.42 144.63 104.09 144.94 102.36L147.41 88.5597C147.53 87.8697 147.31 87.1697 146.81 86.6797L136.8 76.8297C135.55 75.5997 136.26 73.4697 138 73.2297L151.94 71.2997C152.63 71.1997 153.23 70.7797 153.55 70.1497L159.86 57.6197C160.65 56.0497 162.9 56.0697 163.67 57.6397L169.82 70.2497C170.13 70.8797 170.72 71.3097 171.41 71.4197Z" fill="url(#paint7_linear_3812_30062)"/>
<path d="M174 71.2498L187.91 73.3598C189.65 73.6198 190.33 75.7598 189.06 76.9798L178.92 86.6998C178.42 87.1798 178.18 87.8798 178.3 88.5698L180.59 102.4C180.88 104.13 179.05 105.44 177.49 104.61L165.08 98.0098C164.46 97.6798 163.72 97.6798 163.1 97.9998L150.6 104.44C149.04 105.25 147.22 103.92 147.53 102.19L150 88.3898C150.12 87.6998 149.9 86.9998 149.4 86.5098L139.39 76.6598C138.14 75.4298 138.85 73.2998 140.59 73.0598L154.53 71.1298C155.22 71.0298 155.82 70.6098 156.14 69.9798L162.45 57.4498C163.24 55.8798 165.49 55.8998 166.26 57.4698L172.41 70.0798C172.72 70.7098 173.31 71.1398 174 71.2498Z" fill="url(#paint8_linear_3812_30062)"/>
<path d="M68.2351 59.1467C68.2351 59.1467 60.4643 43.2924 65.9748 33.8598C71.4853 24.4273 70.6218 20.1391 70.6218 20.1391C70.6218 20.1391 76.371 26.1397 74.616 30.6034C74.616 30.6034 79.9229 26.9188 80.2669 23.1429C80.6108 19.3671 81.734 10.2784 91.2878 7.96236C91.2878 7.96236 87.1532 22.5393 100.715 13.6191C116.25 3.40047 118.84 -5.67418 135.891 4.35496C135.891 4.35496 118.321 10.6574 124.954 19.7882C130.809 27.8522 150.253 -9.37282 176.184 25.6204C176.184 25.6204 161.204 20.9883 160.074 30.2524C160.074 30.2524 182.74 35.6706 183 65C183 65 179.804 46.2482 162.5 55C162.5 55 131.532 48.1912 128.303 61.6102C128.303 61.6102 98.9042 31.242 68.2422 59.1467H68.2351Z" fill="url(#paint9_linear_3812_30062)"/>
<path d="M52.7309 78.7096C65.1684 78.7096 75.2509 68.6674 75.2509 56.2796C75.2509 43.8919 65.1684 33.8496 52.7309 33.8496C40.2935 33.8496 30.2109 43.8919 30.2109 56.2796C30.2109 68.6674 40.2935 78.7096 52.7309 78.7096Z" fill="url(#paint10_radial_3812_30062)"/>
<path d="M98.2616 71.4197L112.172 73.5297C113.912 73.7897 114.592 75.9297 113.322 77.1497L103.182 86.8697C102.682 87.3497 102.442 88.0497 102.562 88.7397L104.852 102.57C105.142 104.3 103.312 105.61 101.752 104.78L89.3416 98.1797C88.7216 97.8497 87.9816 97.8497 87.3616 98.1697L74.8616 104.61C73.3016 105.42 71.4816 104.09 71.7916 102.36L74.2616 88.5597C74.3816 87.8697 74.1616 87.1697 73.6616 86.6797L63.6516 76.8297C62.4016 75.5997 63.1116 73.4697 64.8516 73.2297L78.7916 71.2997C79.4816 71.1997 80.0816 70.7797 80.4016 70.1497L86.7116 57.6197C87.5016 56.0497 89.7516 56.0697 90.5216 57.6397L96.6716 70.2497C96.9816 70.8797 97.5716 71.3097 98.2616 71.4197Z" fill="url(#paint11_linear_3812_30062)"/>
<path d="M100.851 71.2498L114.761 73.3598C116.501 73.6198 117.181 75.7598 115.911 76.9798L105.771 86.6998C105.271 87.1798 105.031 87.8798 105.151 88.5698L107.441 102.4C107.731 104.13 105.901 105.44 104.341 104.61L91.9315 98.0098C91.3115 97.6798 90.5715 97.6798 89.9515 97.9998L77.4515 104.44C75.8915 105.25 74.0715 103.92 74.3815 102.19L76.8515 88.3898C76.9715 87.6998 76.7515 86.9998 76.2515 86.5098L66.2415 76.6598C64.9915 75.4298 65.7015 73.2998 67.4415 73.0598L81.3815 71.1298C82.0715 71.0298 82.6715 70.6098 82.9915 69.9798L89.3015 57.4498C90.0915 55.8798 92.3415 55.8998 93.1115 57.4698L99.2615 70.0798C99.5715 70.7098 100.161 71.1398 100.851 71.2498Z" fill="url(#paint12_linear_3812_30062)"/>
<path d="M162.952 122.93C168.122 141.3 170.162 159.58 131.992 159.58C85.7219 159.58 93.5419 141.77 99.7619 122.97C104.762 107.86 109.182 96.9805 131.992 96.9805C151.662 96.9805 158.602 107.44 162.952 122.93Z" fill="url(#paint13_radial_3812_30062)"/>
<path d="M134.999 111.31C143.211 111.31 149.869 109.327 149.869 106.88C149.869 104.434 143.211 102.45 134.999 102.45C126.786 102.45 120.129 104.434 120.129 106.88C120.129 109.327 126.786 111.31 134.999 111.31Z" fill="url(#paint14_linear_3812_30062)"/>
<defs>
<radialGradient id="paint0_radial_3812_30062" cx="0" cy="0" r="1" gradientUnits="userSpaceOnUse" gradientTransform="translate(154.441 62.4647) scale(21.3778 30.025)">
<stop offset="0.72" stop-color="#141225"/>
<stop offset="1" stop-color="#5B47A8"/>
</radialGradient>
<radialGradient id="paint1_radial_3812_30062" cx="0" cy="0" r="1" gradientUnits="userSpaceOnUse" gradientTransform="translate(87.9956 174.011) scale(109.497 169.781)">
<stop stop-color="#141225"/>
<stop offset="0.85" stop-color="#141225"/>
<stop offset="1" stop-color="#5B47A8"/>
</radialGradient>
<linearGradient id="paint2_linear_3812_30062" x1="96.3892" y1="218.941" x2="105.379" y2="151.731" gradientUnits="userSpaceOnUse">
<stop offset="0.39" stop-color="#141225"/>
<stop offset="1" stop-color="#5B47A8"/>
</linearGradient>
<linearGradient id="paint3_linear_3812_30062" x1="170.128" y1="264.599" x2="206.138" y2="172.469" gradientUnits="userSpaceOnUse">
<stop offset="0.39" stop-color="#141225"/>
<stop offset="1" stop-color="#5B47A8"/>
</linearGradient>
<linearGradient id="paint4_linear_3812_30062" x1="94.1882" y1="268.88" x2="102.118" y2="155.12" gradientUnits="userSpaceOnUse">
<stop offset="0.39" stop-color="#141225"/>
<stop offset="1" stop-color="#5B47A8"/>
</linearGradient>
<linearGradient id="paint5_linear_3812_30062" x1="51.9688" y1="86.7201" x2="190.559" y2="86.7201" gradientUnits="userSpaceOnUse">
<stop stop-color="#FF5DAB"/>
<stop offset="0.7" stop-color="#3FA9F5"/>
<stop offset="1" stop-color="#0071BC"/>
</linearGradient>
<linearGradient id="paint6_linear_3812_30062" x1="51.9688" y1="88.0707" x2="190.559" y2="88.0707" gradientUnits="userSpaceOnUse">
<stop stop-color="#0071BC"/>
<stop offset="0.3" stop-color="#3FA9F5"/>
<stop offset="1" stop-color="#FF5DAB"/>
</linearGradient>
<linearGradient id="paint7_linear_3812_30062" x1="135.1" y1="80.7397" x2="186.29" y2="80.7397" gradientUnits="userSpaceOnUse">
<stop stop-color="#FF5DAB"/>
<stop offset="0.54" stop-color="#00FFFF"/>
<stop offset="0.7" stop-color="#3FA9F5"/>
<stop offset="1" stop-color="#0071BC"/>
</linearGradient>
<linearGradient id="paint8_linear_3812_30062" x1="145.57" y1="65.9598" x2="181.33" y2="101.72" gradientUnits="userSpaceOnUse">
<stop stop-color="#0071BC"/>
<stop offset="0.3" stop-color="#3FA9F5"/>
<stop offset="0.46" stop-color="#00FFFF"/>
<stop offset="1" stop-color="#FF5DAB"/>
</linearGradient>
<linearGradient id="paint9_linear_3812_30062" x1="69.8216" y1="17.6616" x2="182.98" y2="63.0855" gradientUnits="userSpaceOnUse">
<stop stop-color="#FF5DAB"/>
<stop offset="0.54" stop-color="#00FFFF"/>
<stop offset="0.7" stop-color="#3FA9F5"/>
<stop offset="1" stop-color="#0071BC"/>
</linearGradient>
<radialGradient id="paint10_radial_3812_30062" cx="0" cy="0" r="1" gradientUnits="userSpaceOnUse" gradientTransform="translate(51.1228 79.3253) scale(27.7146 47.0214)">
<stop offset="0.85" stop-color="#141225"/>
<stop offset="1" stop-color="#5B47A8"/>
</radialGradient>
<linearGradient id="paint11_linear_3812_30062" x1="61.9516" y1="-28.0003" x2="113.132" y2="-28.0003" gradientUnits="userSpaceOnUse">
<stop stop-color="#FF5DAB"/>
<stop offset="0.54" stop-color="#00FFFF"/>
<stop offset="0.7" stop-color="#3FA9F5"/>
<stop offset="1" stop-color="#0071BC"/>
</linearGradient>
<linearGradient id="paint12_linear_3812_30062" x1="72.4215" y1="65.9598" x2="108.181" y2="101.72" gradientUnits="userSpaceOnUse">
<stop stop-color="#0071BC"/>
<stop offset="0.3" stop-color="#3FA9F5"/>
<stop offset="0.46" stop-color="#00FFFF"/>
<stop offset="1" stop-color="#FF5DAB"/>
</linearGradient>
<radialGradient id="paint13_radial_3812_30062" cx="0" cy="0" r="1" gradientUnits="userSpaceOnUse" gradientTransform="translate(91.9392 153.603) scale(75.5165)">
<stop offset="0.85" stop-color="#141225"/>
<stop offset="1" stop-color="#5B47A8"/>
</radialGradient>
<linearGradient id="paint14_linear_3812_30062" x1="134.729" y1="109.92" x2="135.349" y2="102.95" gradientUnits="userSpaceOnUse">
<stop stop-color="#110E24"/>
<stop offset="0.74" stop-color="#5B47A8"/>
<stop offset="1" stop-color="#9D3DDA"/>
</linearGradient>
</defs>
</svg>
