<svg width="24" height="24" viewBox="0 0 24 24" fill="none" xmlns="http://www.w3.org/2000/svg">
<path fillRule="evenodd" clipRule="evenodd" d="M12 23C18.0751 23 23 18.0751 23 12C23 5.92487 18.0751 1 12 1C5.92487 1 1 5.92487 1 12C1 18.0751 5.92487 23 12 23ZM17.4883 6L13.1171 11.0812L17.871 18H14.3745L11.1731 13.3409L7.16491 18H6.12901L10.7132 12.6716L6.12901 6H9.62546L12.6569 10.4119L16.4525 6H17.4883ZM11.2338 12.066L11.6983 12.7304L14.8619 17.2557H16.4529L12.5761 11.7103L12.1117 11.046L9.12924 6.7798H7.53816L11.2338 12.066Z" fill="#584F88"/>
</svg>
