<svg width="16" height="16" viewBox="0 0 16 16" fill="none" xmlns="http://www.w3.org/2000/svg">
<path d="M3.99682 2.00196C3.90112 2.00207 3.80747 2.02965 3.72697 2.08141C3.64648 2.13316 3.58253 2.20693 3.54272 2.29395L1.04464 7.79297C1.01521 7.85785 1 7.92827 1 7.99952C1 8.07076 1.01521 8.14118 1.04464 8.20606L3.54272 13.71C3.58268 13.7968 3.64666 13.8704 3.72715 13.9219C3.80763 13.9735 3.90123 14.001 3.99682 14.001H13.4978C13.5638 14.0012 13.6291 13.9884 13.6902 13.9633C13.7512 13.9381 13.8066 13.9012 13.8533 13.8545C13.8999 13.8079 13.9369 13.7524 13.962 13.6914C13.9872 13.6304 14 13.565 13.9997 13.499V4.00293V2.5C13.9992 2.3674 13.946 2.24044 13.8519 2.14704C13.7577 2.05364 13.6304 2.00145 13.4978 2.00196H3.99682ZM5.53588 4.00196C5.60183 4.00676 5.66616 4.0246 5.72516 4.05444C5.78416 4.08428 5.83664 4.12552 5.8796 4.17578L8.49873 7.23243L11.1208 4.17578C11.2066 4.07577 11.3284 4.01365 11.4597 4.00293C11.5254 3.99733 11.5917 4.0048 11.6545 4.02492C11.7174 4.04503 11.7756 4.07739 11.8259 4.12012C11.9261 4.20691 11.9878 4.32993 11.9973 4.46215C12.0068 4.59436 11.9634 4.72495 11.8767 4.8252L9.15699 8.00001L11.8767 11.1738C11.9634 11.2741 12.0068 11.4047 11.9973 11.5369C11.9878 11.6691 11.9261 11.7921 11.8259 11.8789C11.7255 11.9655 11.5949 12.0087 11.4627 11.999C11.3305 11.9893 11.2075 11.9275 11.1208 11.8272L8.49873 8.76856L5.8796 11.8272C5.79295 11.9275 5.67001 11.9893 5.53779 11.999C5.40556 12.0087 5.27489 11.9655 5.17452 11.8789C5.12455 11.8363 5.08348 11.7842 5.05364 11.7257C5.0238 11.6672 5.00581 11.6034 5.00064 11.5379C4.99547 11.4724 5.00324 11.4066 5.02353 11.3441C5.04382 11.2816 5.07621 11.2238 5.11886 11.1738L7.84053 8.00001L5.11886 4.8252C5.07621 4.77526 5.04382 4.7174 5.02353 4.65493C5.00324 4.59246 4.99547 4.52661 5.00064 4.46113C5.00581 4.39565 5.0238 4.33184 5.05364 4.27333C5.08348 4.21481 5.12455 4.16276 5.17452 4.12012C5.27486 4.03505 5.40471 3.99196 5.53588 4.00196Z" fill="#E9E2E2"/>
</svg>
