<svg width="220" height="264" viewBox="0 0 220 264" fill="none" xmlns="http://www.w3.org/2000/svg">
<g clip-path="url(#clip0_5671_1504)">
<path d="M150.834 64.7881C160.524 64.7881 168.379 56.8637 168.379 47.0884C168.379 37.3131 160.524 29.3887 150.834 29.3887C141.144 29.3887 133.289 37.3131 133.289 47.0884C133.289 56.8637 141.144 64.7881 150.834 64.7881Z" fill="url(#paint0_radial_5671_1504)"/>
<path d="M198.582 159.795C220.007 276.295 -28.0964 319.425 2.64149 160.02C17.6003 82.4185 31.8449 26.7684 102.566 26.7684C163.55 26.7684 184.009 80.5811 198.572 159.795H198.582Z" fill="url(#paint1_radial_5671_1504)"/>
<path d="M42.0955 201.196C44.8266 184.649 81.8375 148.976 131.491 176.293C181.144 203.61 99.4985 219.462 69.0888 214.644C38.6791 209.816 42.0955 201.205 42.0955 201.205V201.196Z" fill="url(#paint2_linear_5671_1504)"/>
<path d="M127.478 246.994C158.602 260.482 186.271 259.446 211.209 229.803C236.147 200.16 200.11 169.002 200.11 169.002C200.11 169.002 200.004 190.122 168.369 197.404C136.734 204.695 127.469 246.994 127.469 246.994H127.478Z" fill="url(#paint3_linear_5671_1504)"/>
<path d="M35.2666 199.817C16.5055 204.079 9.47002 239.107 49.0191 254.969C88.5585 270.822 119.306 258.067 137.758 237.387C156.211 216.706 159.019 201.196 168.38 197.403C168.38 197.403 155.101 164.311 115.513 180.515C75.9255 196.71 80.0271 208.78 62.9452 204.988C45.8632 201.196 48.9419 196.719 35.2763 199.817H35.2666Z" fill="url(#paint4_linear_5671_1504)"/>
<path d="M51 91.0867C51 91.0867 53.6328 87.2487 56.117 83.7796C58.6012 80.3105 57.5433 75.9429 100.084 75.9429H169.671" stroke="url(#paint5_linear_5671_1504)" stroke-width="7" stroke-miterlimit="10" stroke-linecap="round"/>
<path d="M148.719 98.2033C157.901 98.2033 165.347 90.7712 165.347 81.6017C165.347 72.4321 157.901 65 148.719 65C139.537 65 132.09 72.4321 132.09 81.6017C132.09 90.7712 139.537 98.2033 148.719 98.2033Z" fill="url(#paint6_linear_5671_1504)"/>
<path d="M150.289 99.8697C159.471 99.8697 166.918 92.4376 166.918 83.268C166.918 74.0984 159.471 66.6664 150.289 66.6664C141.107 66.6664 133.66 74.0984 133.66 83.268C133.66 92.4376 141.107 99.8697 150.289 99.8697Z" fill="url(#paint7_linear_5671_1504)"/>
<path d="M98.5037 98.2033C107.686 98.2033 115.132 90.7712 115.132 81.6017C115.132 72.4321 107.686 65 98.5037 65C89.3217 65 81.875 72.4321 81.875 81.6017C81.875 90.7712 89.3217 98.2033 98.5037 98.2033Z" fill="url(#paint8_linear_5671_1504)"/>
<path d="M100.086 99.8697C109.268 99.8697 116.715 92.4376 116.715 83.268C116.715 74.0984 109.268 66.6664 100.086 66.6664C90.9037 66.6664 83.457 74.0984 83.457 83.268C83.457 92.4376 90.9037 99.8697 100.086 99.8697Z" fill="url(#paint9_linear_5671_1504)"/>
<path d="M50.8899 72.1766C62.893 72.1766 72.6235 62.3619 72.6235 50.2547C72.6235 38.1476 62.893 28.3329 50.8899 28.3329C38.8867 28.3329 29.1562 38.1476 29.1562 50.2547C29.1562 62.3619 38.8867 72.1766 50.8899 72.1766Z" fill="url(#paint10_radial_5671_1504)"/>
<path d="M157.259 115.404C162.249 133.358 164.218 151.224 127.381 151.224C82.7263 151.224 90.2732 133.817 96.276 115.443C101.101 100.676 105.367 90.042 127.381 90.042C146.364 90.042 153.061 100.265 157.259 115.404Z" fill="url(#paint11_radial_5671_1504)"/>
<path d="M130.284 104.048C138.21 104.048 144.635 102.11 144.635 99.7183C144.635 97.3271 138.21 95.3887 130.284 95.3887C122.359 95.3887 115.934 97.3271 115.934 99.7183C115.934 102.11 122.359 104.048 130.284 104.048Z" fill="url(#paint12_linear_5671_1504)"/>
</g>
<defs>
<radialGradient id="paint0_radial_5671_1504" cx="0" cy="0" r="1" gradientUnits="userSpaceOnUse" gradientTransform="translate(148.746 56.4074) scale(20.6313 29.3448)">
<stop offset="0.72" stop-color="#141225"/>
<stop offset="1" stop-color="#5B47A8"/>
</radialGradient>
<radialGradient id="paint1_radial_5671_1504" cx="0" cy="0" r="1" gradientUnits="userSpaceOnUse" gradientTransform="translate(84.6146 165.217) scale(105.673 165.935)">
<stop stop-color="#141225"/>
<stop offset="0.85" stop-color="#141225"/>
<stop offset="1" stop-color="#5B47A8"/>
</radialGradient>
<linearGradient id="paint2_linear_5671_1504" x1="93.0228" y1="209.229" x2="101.917" y2="143.581" gradientUnits="userSpaceOnUse">
<stop offset="0.39" stop-color="#141225"/>
<stop offset="1" stop-color="#5B47A8"/>
</linearGradient>
<linearGradient id="paint3_linear_5671_1504" x1="164.19" y1="253.855" x2="199.711" y2="164.116" gradientUnits="userSpaceOnUse">
<stop offset="0.39" stop-color="#141225"/>
<stop offset="1" stop-color="#5B47A8"/>
</linearGradient>
<linearGradient id="paint4_linear_5671_1504" x1="90.9036" y1="258.038" x2="98.7515" y2="146.879" gradientUnits="userSpaceOnUse">
<stop offset="0.39" stop-color="#141225"/>
<stop offset="1" stop-color="#5B47A8"/>
</linearGradient>
<linearGradient id="paint5_linear_5671_1504" x1="48.9199" y1="83.5177" x2="171.751" y2="83.5177" gradientUnits="userSpaceOnUse">
<stop stop-color="#FF5DAB"/>
<stop offset="0.54" stop-color="#00FFFF"/>
<stop offset="0.7" stop-color="#3FA9F5"/>
<stop offset="1" stop-color="#0071BC"/>
</linearGradient>
<linearGradient id="paint6_linear_5671_1504" x1="136.999" y1="93.3775" x2="160.473" y2="69.8607" gradientUnits="userSpaceOnUse">
<stop stop-color="#0071BC"/>
<stop offset="0.3" stop-color="#3FA9F5"/>
<stop offset="0.46" stop-color="#00FFFF"/>
<stop offset="1" stop-color="#FF5DAB"/>
</linearGradient>
<linearGradient id="paint7_linear_5671_1504" x1="138.569" y1="71.4981" x2="162.044" y2="95.009" gradientUnits="userSpaceOnUse">
<stop stop-color="#0071BC"/>
<stop offset="0.3" stop-color="#3FA9F5"/>
<stop offset="0.46" stop-color="#00FFFF"/>
<stop offset="1" stop-color="#FF5DAB"/>
</linearGradient>
<linearGradient id="paint8_linear_5671_1504" x1="86.784" y1="93.3775" x2="110.264" y2="69.8607" gradientUnits="userSpaceOnUse">
<stop stop-color="#0071BC"/>
<stop offset="0.3" stop-color="#3FA9F5"/>
<stop offset="0.46" stop-color="#00FFFF"/>
<stop offset="1" stop-color="#FF5DAB"/>
</linearGradient>
<linearGradient id="paint9_linear_5671_1504" x1="88.366" y1="71.4981" x2="111.84" y2="95.009" gradientUnits="userSpaceOnUse">
<stop stop-color="#0071BC"/>
<stop offset="0.3" stop-color="#3FA9F5"/>
<stop offset="0.46" stop-color="#00FFFF"/>
<stop offset="1" stop-color="#FF5DAB"/>
</linearGradient>
<radialGradient id="paint10_radial_5671_1504" cx="0" cy="0" r="1" gradientUnits="userSpaceOnUse" gradientTransform="translate(49.0249 72.7673) scale(26.7468 45.9562)">
<stop offset="0.85" stop-color="#141225"/>
<stop offset="1" stop-color="#5B47A8"/>
</radialGradient>
<radialGradient id="paint11_radial_5671_1504" cx="0" cy="0" r="1" gradientUnits="userSpaceOnUse" gradientTransform="translate(88.422 145.392) scale(72.8796 73.8057)">
<stop offset="0.85" stop-color="#141225"/>
<stop offset="1" stop-color="#5B47A8"/>
</radialGradient>
<linearGradient id="paint12_linear_5671_1504" x1="130.024" y1="102.68" x2="130.637" y2="95.8689" gradientUnits="userSpaceOnUse">
<stop stop-color="#110E24"/>
<stop offset="0.74" stop-color="#5B47A8"/>
<stop offset="1" stop-color="#9D3DDA"/>
</linearGradient>
<clipPath id="clip0_5671_1504">
<rect width="220" height="264" fill="white"/>
</clipPath>
</defs>
</svg>
