<svg width="214" height="45" viewBox="0 0 214 45" fill="none" xmlns="http://www.w3.org/2000/svg">
<path d="M2.86719 9.69922C3.42578 8.45312 3.94141 7.47917 4.41406 6.77734C4.92969 5.98958 5.51693 5.23763 6.17578 4.52148C6.84896 3.80534 7.40755 3.28255 7.85156 2.95312C8.85417 2.19401 9.84961 1.71419 10.8379 1.51367C11.4108 1.39909 12.0697 1.32031 12.8145 1.27734C13.0436 1.26302 13.237 1.26302 13.3945 1.27734C16.5599 1.53516 18.1426 2.88867 18.1426 5.33789V5.72461C18.1426 5.83919 18.1283 6.00391 18.0996 6.21875C17.8561 8.05208 16.5169 11.4967 14.082 16.5527C13.9818 16.7533 13.8385 17.0469 13.6523 17.4336L13.1582 18.4004C12.0553 20.4772 10.5156 23.571 8.53906 27.6816C10.1432 26.1061 11.5397 24.7168 12.7285 23.5137L18.6152 17.4766C21.6087 14.4115 23.3346 12.6283 23.793 12.127C26.0846 9.64909 27.5599 7.73698 28.2188 6.39062C28.2617 6.29036 28.3763 6.17578 28.5625 6.04688C28.8633 5.83203 29.1497 5.66732 29.4219 5.55273C29.694 5.42383 30.0378 5.30924 30.4531 5.20898L31.1621 5.03711C31.3913 5.00846 31.6133 4.99414 31.8281 4.99414C32.0859 4.99414 32.3008 5.02995 32.4727 5.10156C32.6589 5.17318 32.752 5.30924 32.752 5.50977C32.752 5.58138 32.7376 5.65299 32.709 5.72461C32.6803 5.85352 32.6374 5.97526 32.5801 6.08984C32.1934 6.83464 31.5488 8.08073 30.6465 9.82812C29.6152 11.819 28.806 13.416 28.2188 14.6191C26.3138 18.5723 24.8457 22.153 23.8145 25.3613C23.1413 27.4668 22.8047 29.2285 22.8047 30.6465V31.0332C22.8047 31.4915 21.9954 31.8138 20.377 32C19.6322 32.0859 18.9876 32.1289 18.4434 32.1289C18.429 32.1003 18.4076 31.9355 18.3789 31.6348C18.3646 31.334 18.3574 31.1478 18.3574 31.0762V30.9043C18.3574 28.8848 19.1953 25.9056 20.8711 21.9668C21.1003 21.4082 21.4655 20.5846 21.9668 19.4961C20.5059 21.0716 18.2643 23.3776 15.2422 26.4141C13.151 28.3906 11.0957 30.0736 9.07617 31.4629C8.94727 31.5632 8.73958 31.6849 8.45312 31.8281C8.2526 31.9427 8.06641 32.0143 7.89453 32.043C7.66536 32.1003 7.45768 32.1432 7.27148 32.1719C6.99935 32.2292 6.79167 32.2578 6.64844 32.2578C5.90365 32.2578 5.24479 32.0072 4.67188 31.5059C4.09896 31.0046 3.80534 30.3171 3.79102 29.4434C3.77669 29.0996 3.81966 28.7344 3.91992 28.3477C3.96289 28.1615 4.11328 27.7533 4.37109 27.123C6.08984 22.9121 7.58659 19.4316 8.86133 16.6816C9.04753 16.2806 9.23372 15.901 9.41992 15.543L11.1387 12.1055C11.7116 11.1172 12.4206 9.67057 13.2656 7.76562C13.4089 7.29297 13.4805 6.84896 13.4805 6.43359C13.4805 5.71745 13.1152 5.32357 12.3848 5.25195C12.1986 5.25195 12.0195 5.26628 11.8477 5.29492C11.4323 5.43815 11.0384 5.61003 10.666 5.81055C10.4082 5.95378 10.2005 6.08984 10.043 6.21875C8.92578 7.13542 7.98763 8.4388 7.22852 10.1289C6.79883 11.0885 6.41927 12.1341 6.08984 13.2656C5.83203 14.168 5.58138 14.7982 5.33789 15.1562C5.06576 15.4284 4.62174 15.7793 4.00586 16.209C3.73372 16.4095 3.41146 16.5957 3.03906 16.7676C2.39453 17.1829 1.8431 17.3906 1.38477 17.3906C0.998047 17.3906 0.776042 17.1973 0.71875 16.8105V16.7676C0.71875 15.9512 1.02669 14.6335 1.64258 12.8145C1.8431 12.2129 2.17969 11.332 2.65234 10.1719C2.69531 10.0573 2.76693 9.89974 2.86719 9.69922ZM33.9551 17.9707C33.6973 17.6986 33.5254 17.4193 33.4395 17.1328C33.3105 16.832 33.2461 16.5384 33.2461 16.252C33.2461 15.2064 33.6471 14.3971 34.4492 13.8242C34.5352 13.7956 34.6139 13.7598 34.6855 13.7168C34.7572 13.6738 34.8216 13.6523 34.8789 13.6523C35.0221 13.6237 35.1725 13.5951 35.3301 13.5664H35.6738C36.3184 13.5664 36.834 13.7096 37.2207 13.9961C37.5645 14.2539 37.8294 14.7552 38.0156 15.5V15.8438C38.0443 16.1016 38.0872 16.2806 38.1445 16.3809C38.1875 16.5384 38.2448 16.653 38.3164 16.7246H38.3594H38.4023C38.4023 16.7533 38.4167 16.7676 38.4453 16.7676C38.6315 16.7676 38.9251 16.7103 39.3262 16.5957C39.8418 16.5098 40.25 16.4668 40.5508 16.4668C40.7943 16.4668 41.0234 16.4883 41.2383 16.5312C41.4674 16.5599 41.6966 16.653 41.9258 16.8105C42.6992 17.3118 43.1074 18.0065 43.1504 18.8945C43.1504 18.8945 43.1504 19.0234 43.1504 19.2812C43.1217 19.4245 43.0859 19.5605 43.043 19.6895C43 19.8184 42.8926 20.0905 42.7207 20.5059C42.4056 21.265 41.8757 22.3678 41.1309 23.8145C41.1022 23.8717 41.0736 23.9219 41.0449 23.9648C41.0163 24.0078 41.002 24.0579 41.002 24.1152C40.6439 24.7454 40.0853 25.8483 39.3262 27.4238V27.4668L39.2832 27.5098C39.2832 27.6243 39.3262 27.7246 39.4121 27.8105C39.498 27.9395 39.6198 28.0039 39.7773 28.0039H39.8633C39.8776 28.0182 39.8919 28.0254 39.9062 28.0254C39.9206 28.0254 39.9349 28.0182 39.9492 28.0039C40.0208 28.0039 40.3717 27.8249 41.002 27.4668C41.2598 27.3236 41.668 27.0729 42.2266 26.7148C42.3555 26.5859 42.5488 26.457 42.8066 26.3281C43.6087 25.7695 44.1816 25.2969 44.5254 24.9102C44.6686 24.7096 44.7832 24.5736 44.8691 24.502C44.9551 24.4303 45.0267 24.3802 45.084 24.3516H45.1699C45.2129 24.3802 45.2487 24.4089 45.2773 24.4375L45.4492 24.6094C45.6497 24.8099 45.75 25.3685 45.75 26.2852C45.75 26.6003 45.7285 26.901 45.6855 27.1875C45.6426 27.474 45.5495 27.6816 45.4062 27.8105C45.2201 27.9824 44.9264 28.2331 44.5254 28.5625C43.2793 29.5508 42.0332 30.36 40.7871 30.9902C39.7272 31.5345 38.6816 31.8997 37.6504 32.0859C37.5358 32.1289 37.3854 32.1576 37.1992 32.1719C37.0273 32.2005 36.8555 32.2148 36.6836 32.2148C35.1081 32.2148 34.2917 31.513 34.2344 30.1094C34.2344 29.9805 34.263 29.8158 34.3203 29.6152L34.4062 29.1855C34.5495 28.8132 34.8288 28.14 35.2441 27.166C35.9173 25.5905 36.5905 24.151 37.2637 22.8477C37.679 22.0312 38.1016 21.1361 38.5312 20.1621C38.5599 20.1335 38.5742 20.1048 38.5742 20.0762V19.9902C38.5742 19.7611 38.3451 19.6465 37.8867 19.6465H37.6934C37.6504 19.6465 37.5788 19.6608 37.4785 19.6895C37.2493 19.7324 37.0703 19.7754 36.9414 19.8184C36.9414 19.8184 36.7266 20.0332 36.2969 20.4629C36.0534 20.8926 35.4805 21.6016 34.5781 22.5898C34.4206 22.7617 34.1842 23.0267 33.8691 23.3848C33.6686 23.5996 33.11 24.151 32.1934 25.0391C31.1764 26.0273 29.9017 27.1302 28.3691 28.3477C28.2546 28.3477 28.1758 28.1901 28.1328 27.875C28.0898 27.5456 28.0684 27.1445 28.0684 26.6719V26.5C28.0684 25.4974 28.1829 24.8815 28.4121 24.6523C28.8848 24.2656 29.5293 23.6354 30.3457 22.7617C31.4772 21.5443 32.3581 20.4414 32.9883 19.4531L33.9551 17.9707ZM47.125 22.5469C49.431 20.2839 51.2214 18.1426 52.4961 16.123V15.9297V15.8867V15.8008C52.4961 15.3281 52.582 14.7552 52.7539 14.082C53.2409 12.2057 54.1361 11.2676 55.4395 11.2676C56.5423 11.2676 57.1296 11.9766 57.2012 13.3945C57.2012 13.4089 57.2012 13.4375 57.2012 13.4805V13.5664C57.1725 13.6237 57.1582 13.6667 57.1582 13.6953C57.1582 13.7526 57.1582 13.7812 57.1582 13.7812C57.1296 14.1393 57.0723 14.4329 56.9863 14.6621C56.8574 14.8913 56.75 15.0846 56.6641 15.2422C56.5781 15.3281 56.4779 15.4714 56.3633 15.6719C56.306 15.7292 56.263 15.7865 56.2344 15.8438C56.2057 15.944 56.1771 16.0371 56.1484 16.123V21.043C56.1484 21.5729 56.1341 21.9811 56.1055 22.2676C56.0911 22.4395 56.0625 22.8118 56.0195 23.3848C55.9049 24.0723 55.6829 25.0677 55.3535 26.3711C55.1673 26.9154 54.931 27.3809 54.6445 27.7676H54.7305C55.1458 27.7676 55.8835 27.3737 56.9434 26.5859C57.0579 26.5143 57.2155 26.3997 57.416 26.2422C57.8027 25.9414 58.1536 25.6621 58.4688 25.4043L59.1777 24.8242L59.3496 24.6523C59.4069 24.6237 59.4642 24.5879 59.5215 24.5449C59.5788 24.502 59.6361 24.4661 59.6934 24.4375C59.765 24.4089 59.8294 24.3945 59.8867 24.3945C59.9727 24.3945 60.0586 24.4089 60.1445 24.4375C60.2448 24.5091 60.3164 24.7454 60.3594 25.1465C60.388 25.2467 60.4023 25.3757 60.4023 25.5332V26.0059C60.4023 26.8079 60.2161 27.474 59.8438 28.0039C59.3424 28.4049 58.6621 28.9421 57.8027 29.6152C57.3014 29.9876 56.8574 30.2812 56.4707 30.4961C56.0983 30.7109 55.7116 30.89 55.3105 31.0332C53.9642 31.5059 52.8757 31.7422 52.0449 31.7422H51.3789C51.1497 31.7565 50.8132 31.7852 50.3691 31.8281C50.1973 31.8854 50.054 31.9427 49.9395 32H49.8965C49.7676 32.0573 49.6315 32.1003 49.4883 32.1289C49.3021 32.1862 49.1159 32.2148 48.9297 32.2148C48.4857 32.2148 47.8268 32.1003 46.9531 31.8711C46.4948 31.7565 46.0938 31.3483 45.75 30.6465C45.6354 30.3314 45.5781 30.0664 45.5781 29.8516V29.7227C45.5781 29.7083 45.5781 29.6868 45.5781 29.6582C45.6068 29.3145 45.7285 29.0853 45.9434 28.9707C46.1152 28.8418 46.3158 28.7773 46.5449 28.7773H46.9961C47.1107 28.8203 47.2253 28.8561 47.3398 28.8848C48.6719 29.0566 49.2305 29.1426 49.0156 29.1426H49.1875C49.3307 29.1139 49.5527 29.028 49.8535 28.8848C50.541 28.4837 51.1283 27.3092 51.6152 25.3613C51.873 24.3301 52.002 23.3776 52.002 22.5039C52.002 22.0026 51.9447 21.752 51.8301 21.752C51.5723 21.752 50.3262 22.9264 48.0918 25.2754C48.0345 25.304 47.9844 25.347 47.9414 25.4043C47.8984 25.4616 47.8483 25.5046 47.791 25.5332C46.5306 26.8509 45.528 27.7891 44.7832 28.3477H44.7402C44.597 28.3477 44.5254 27.875 44.5254 26.9297V26.457C44.5254 25.5977 44.5684 25.0391 44.6543 24.7812C44.6543 24.7812 44.9766 24.459 45.6211 23.8145L45.6641 23.7715H45.707L46.2441 23.2773C46.3587 23.2057 46.5091 23.084 46.6953 22.9121C46.8815 22.7402 47.0247 22.6185 47.125 22.5469ZM79.2871 16.5957C79.8457 16.5957 80.2754 16.6172 80.5762 16.6602C80.8913 16.7031 81.0488 16.832 81.0488 17.0469V17.1758C81.0488 17.2617 81.0202 17.3333 80.9629 17.3906C80.3613 18.6654 79.4518 20.5703 78.2344 23.1055C78.1771 23.263 78.1198 23.3991 78.0625 23.5137L77.8691 23.9004C77.7116 24.2441 77.4681 24.7598 77.1387 25.4473C76.9668 25.8053 76.7018 26.3353 76.3438 27.0371C76.2292 27.2663 76.1719 27.4525 76.1719 27.5957C76.1719 27.7103 76.2005 27.7819 76.2578 27.8105C76.3151 27.8822 76.3867 27.918 76.4727 27.918C76.5872 27.918 76.7161 27.8822 76.8594 27.8105C77.0169 27.7819 77.1816 27.7246 77.3535 27.6387C77.3965 27.61 77.4323 27.5885 77.4609 27.5742C77.5039 27.5599 77.5397 27.5384 77.5684 27.5098C77.7689 27.3952 77.9766 27.2806 78.1914 27.166C78.306 27.0801 78.4779 26.9583 78.707 26.8008C79.8529 26.056 80.8698 25.2682 81.7578 24.4375C81.8151 24.3802 81.8724 24.3516 81.9297 24.3516C82.0443 24.3516 82.1445 24.4518 82.2305 24.6523C82.3164 24.9818 82.3594 25.3757 82.3594 25.834V26.0703C82.3594 26.4141 82.3236 26.7507 82.252 27.0801C82.1803 27.3952 82.0729 27.6387 81.9297 27.8105L81.0488 28.5625C79.6165 29.7943 77.7116 30.8542 75.334 31.7422C74.5892 32.0286 73.9733 32.1719 73.4863 32.1719C72.7415 32.1719 72.1615 32.0286 71.7461 31.7422C71.3307 31.4414 71.1159 31.0404 71.1016 30.5391C71.0872 30.181 71.2018 29.7012 71.4453 29.0996C72.0182 27.6816 72.4479 26.5931 72.7344 25.834L72.7773 25.791C72.7773 25.7624 72.7917 25.7337 72.8203 25.7051V25.6621L72.6484 25.4902C70.0417 28.0254 67.0625 30.138 63.7109 31.8281C63.2526 32.0573 62.6224 32.1719 61.8203 32.1719C60.5885 32.1719 59.9727 31.6921 59.9727 30.7324V30.5391C59.9727 29.8229 60.2663 28.8418 60.8535 27.5957C60.8535 27.5957 60.9108 27.4811 61.0254 27.252C61.0827 27.166 61.14 27.0586 61.1973 26.9297L61.1113 26.8008L60.8105 27.123C60.5671 27.3236 60.3021 27.5384 60.0156 27.7676C59.987 27.8105 59.9154 27.8822 59.8008 27.9824C59.6862 28.0827 59.5215 28.2044 59.3066 28.3477H59.2207C59.1348 28.0898 59.0918 27.5599 59.0918 26.7578V26.543C59.0918 25.5547 59.2064 24.9245 59.4355 24.6523C59.7793 24.3372 60.3092 23.8789 61.0254 23.2773L61.1113 23.1914C61.14 23.1628 61.1686 23.1484 61.1973 23.1484C61.7272 22.7188 62.1712 22.3105 62.5293 21.9238C62.8014 21.6517 63.181 21.2292 63.668 20.6562L64.291 19.9902C64.4629 19.7611 64.6348 19.5391 64.8066 19.3242C65.0072 19.0378 65.2721 18.5866 65.6016 17.9707C65.6732 17.7415 65.8021 17.3906 65.9883 16.918C66.1602 16.7031 66.4538 16.5957 66.8691 16.5957H69.168C69.4115 16.6243 69.569 16.6387 69.6406 16.6387C69.8555 16.6673 69.9772 16.7604 70.0059 16.918V17.0898C70.0059 17.1758 69.9915 17.2617 69.9629 17.3477L69.791 17.6914C69.7624 17.7487 69.7266 17.8132 69.6836 17.8848C69.6549 17.9421 69.6263 17.985 69.5977 18.0137C69.3112 18.5579 68.9889 19.2168 68.6309 19.9902L67.4922 22.418C67.1198 23.263 66.5326 24.5091 65.7305 26.1562C65.5299 26.5286 65.401 26.8223 65.3438 27.0371C65.3438 27.0658 65.3509 27.0944 65.3652 27.123C65.3796 27.1517 65.401 27.166 65.4297 27.166C65.5443 27.166 65.6732 27.123 65.8164 27.0371C65.9453 26.9941 66.1816 26.8581 66.5254 26.6289C68.5879 25.2539 71.7676 22.3822 76.0645 18.0137L76.8164 17.2617C77.2031 16.8607 77.554 16.6387 77.8691 16.5957H79.2871ZM83.7773 22.5469C86.0833 20.2839 87.8737 18.1426 89.1484 16.123V15.9297V15.8867V15.8008C89.1484 15.3281 89.2344 14.7552 89.4062 14.082C89.8932 12.2057 90.7884 11.2676 92.0918 11.2676C93.1947 11.2676 93.7819 11.9766 93.8535 13.3945C93.8535 13.4089 93.8535 13.4375 93.8535 13.4805V13.5664C93.8249 13.6237 93.8105 13.6667 93.8105 13.6953C93.8105 13.7526 93.8105 13.7812 93.8105 13.7812C93.7819 14.1393 93.7246 14.4329 93.6387 14.6621C93.5098 14.8913 93.4023 15.0846 93.3164 15.2422C93.2305 15.3281 93.1302 15.4714 93.0156 15.6719C92.9583 15.7292 92.9154 15.7865 92.8867 15.8438C92.8581 15.944 92.8294 16.0371 92.8008 16.123V21.043C92.8008 21.5729 92.7865 21.9811 92.7578 22.2676C92.7435 22.4395 92.7148 22.8118 92.6719 23.3848C92.5573 24.0723 92.3353 25.0677 92.0059 26.3711C91.8197 26.9154 91.5833 27.3809 91.2969 27.7676H91.3828C91.7982 27.7676 92.5358 27.3737 93.5957 26.5859C93.7103 26.5143 93.8678 26.3997 94.0684 26.2422C94.4551 25.9414 94.806 25.6621 95.1211 25.4043L95.8301 24.8242L96.002 24.6523C96.0592 24.6237 96.1165 24.5879 96.1738 24.5449C96.2311 24.502 96.2884 24.4661 96.3457 24.4375C96.4173 24.4089 96.4818 24.3945 96.5391 24.3945C96.625 24.3945 96.7109 24.4089 96.7969 24.4375C96.8971 24.5091 96.9688 24.7454 97.0117 25.1465C97.0404 25.2467 97.0547 25.3757 97.0547 25.5332V26.0059C97.0547 26.8079 96.8685 27.474 96.4961 28.0039C95.9948 28.4049 95.3145 28.9421 94.4551 29.6152C93.9538 29.9876 93.5098 30.2812 93.123 30.4961C92.7507 30.7109 92.3639 30.89 91.9629 31.0332C90.6165 31.5059 89.528 31.7422 88.6973 31.7422H88.0312C87.8021 31.7565 87.4655 31.7852 87.0215 31.8281C86.8496 31.8854 86.7064 31.9427 86.5918 32H86.5488C86.4199 32.0573 86.2839 32.1003 86.1406 32.1289C85.9544 32.1862 85.7682 32.2148 85.582 32.2148C85.138 32.2148 84.4792 32.1003 83.6055 31.8711C83.1471 31.7565 82.7461 31.3483 82.4023 30.6465C82.2878 30.3314 82.2305 30.0664 82.2305 29.8516V29.7227C82.2305 29.7083 82.2305 29.6868 82.2305 29.6582C82.2591 29.3145 82.3809 29.0853 82.5957 28.9707C82.7676 28.8418 82.9681 28.7773 83.1973 28.7773H83.6484C83.763 28.8203 83.8776 28.8561 83.9922 28.8848C85.3242 29.0566 85.8828 29.1426 85.668 29.1426H85.8398C85.9831 29.1139 86.2051 29.028 86.5059 28.8848C87.1934 28.4837 87.7806 27.3092 88.2676 25.3613C88.5254 24.3301 88.6543 23.3776 88.6543 22.5039C88.6543 22.0026 88.597 21.752 88.4824 21.752C88.2246 21.752 86.9785 22.9264 84.7441 25.2754C84.6868 25.304 84.6367 25.347 84.5938 25.4043C84.5508 25.4616 84.5007 25.5046 84.4434 25.5332C83.1829 26.8509 82.1803 27.7891 81.4355 28.3477H81.3926C81.2493 28.3477 81.1777 27.875 81.1777 26.9297V26.457C81.1777 25.5977 81.2207 25.0391 81.3066 24.7812C81.3066 24.7812 81.6289 24.459 82.2734 23.8145L82.3164 23.7715H82.3594L82.8965 23.2773C83.0111 23.2057 83.1615 23.084 83.3477 22.9121C83.5339 22.7402 83.6771 22.6185 83.7773 22.5469ZM117.787 16.6387C117.758 16.7533 117.73 16.875 117.701 17.0039L117.529 17.4336C117.501 17.6055 117.4 17.8991 117.229 18.3145C116.699 19.6465 116.434 20.3984 116.434 20.5703V20.6133C116.835 20.1406 117.465 19.446 118.324 18.5293C119.57 17.3118 121.081 16.5957 122.857 16.3809C122.958 16.3522 123.072 16.3379 123.201 16.3379H123.523C124.755 16.3379 125.722 16.7031 126.424 17.4336C127.126 18.1641 127.477 19.2669 127.477 20.7422V21.2578C127.262 23.5781 126.116 25.8125 124.039 27.9609C123.781 28.2331 123.566 28.4479 123.395 28.6055C125.214 28.2617 126.782 27.5456 128.1 26.457C128.572 26.0703 129.274 25.4688 130.205 24.6523C130.363 24.5091 130.492 24.4375 130.592 24.4375C130.979 24.4375 131.172 24.903 131.172 25.834V26.1133C131.172 26.2279 131.158 26.3424 131.129 26.457C131.043 27.1589 130.807 27.6888 130.42 28.0469C129.002 29.3646 127.362 30.403 125.5 31.1621C124.426 31.6061 123.294 31.8281 122.105 31.8281C121.891 31.8281 121.654 31.8138 121.396 31.7852C121.024 31.7565 120.645 31.6992 120.258 31.6133C120.1 31.5703 119.971 31.5345 119.871 31.5059C119.312 31.8066 118.639 32.0143 117.852 32.1289C117.708 32.1576 117.615 32.1719 117.572 32.1719H117.314C116.226 32.1719 115.402 31.8353 114.844 31.1621C114.758 31.0618 114.679 30.9258 114.607 30.7539C114.536 30.5677 114.486 30.3815 114.457 30.1953V29.9375C114.457 29.2786 114.779 28.9277 115.424 28.8848C115.424 28.8848 115.51 28.8848 115.682 28.8848C115.768 28.9134 115.875 28.9421 116.004 28.9707C116.076 28.9707 116.169 28.985 116.283 29.0137C116.412 29.0423 116.505 29.0566 116.562 29.0566C116.863 29.0996 117.143 29.1569 117.4 29.2285H117.486L117.529 29.1855H117.615H117.658C118.245 29.0137 119.005 28.4193 119.936 27.4023C120.867 26.3711 121.712 25.1465 122.471 23.7285C122.757 23.1842 123.015 22.4824 123.244 21.623C123.316 21.3652 123.352 21.1576 123.352 21C123.352 20.3555 123.087 20.0046 122.557 19.9473C122.285 19.9473 121.991 20.0046 121.676 20.1191C121.418 20.2194 121.017 20.4557 120.473 20.8281C118.711 22.0456 117.143 23.5853 115.768 25.4473C114.822 26.722 114.106 27.8965 113.619 28.9707C112.903 30.5462 112.344 31.8926 111.943 33.0098C111.571 34.0124 111.163 35.3301 110.719 36.9629C110.561 37.4928 110.339 38.2878 110.053 39.3477L109.43 41.8184C109.315 42.291 109.201 42.7637 109.086 43.2363C108.914 43.7376 108.613 44.1172 108.184 44.375C107.94 44.5326 107.668 44.6471 107.367 44.7188C107.31 44.7474 107.253 44.7617 107.195 44.7617H107.023C106.092 44.7617 105.577 44.2461 105.477 43.2148V43.1289C105.477 43.0859 105.462 43.043 105.434 43V42.7852C105.434 41.1953 106.214 38.1875 107.775 33.7617C107.89 33.4753 108.062 33.0527 108.291 32.4941C108.391 32.222 108.542 31.8066 108.742 31.248C109.401 29.5436 110.06 27.9466 110.719 26.457L111.943 23.6855L111.857 23.5996C111.385 24.0579 110.669 24.7454 109.709 25.6621C109.652 25.6908 109.602 25.7194 109.559 25.748C108.456 26.8509 107.475 27.7461 106.615 28.4336H106.572C106.472 28.4336 106.4 28.1973 106.357 27.7246C106.329 27.5241 106.314 27.3236 106.314 27.123V26.4141C106.314 26.3281 106.3 26.2422 106.271 26.1562V25.7051C106.271 25.3184 106.343 25.0534 106.486 24.9102C106.715 24.6667 107.124 24.2585 107.711 23.6855C107.883 23.5137 108.441 23.0267 109.387 22.2246C109.43 22.1816 109.465 22.153 109.494 22.1387C109.537 22.11 109.58 22.0814 109.623 22.0527C110.282 21.5228 111.234 20.6992 112.48 19.582C112.552 19.4818 112.86 19.1953 113.404 18.7227C113.447 18.694 113.505 18.6439 113.576 18.5723L113.748 18.4004C113.92 18.2572 114.085 18.0996 114.242 17.9277C114.357 17.7415 114.428 17.5911 114.457 17.4766C114.486 17.4193 114.507 17.3548 114.521 17.2832C114.536 17.2116 114.557 17.1615 114.586 17.1328C114.686 16.8034 114.829 16.6387 115.016 16.6387H117.787ZM135.641 18.5293C135.913 17.7702 136.314 16.6315 136.844 15.1133L137.832 12.3848C137.975 12.0124 138.176 11.4538 138.434 10.709C138.434 10.6517 138.441 10.6087 138.455 10.5801C138.469 10.5514 138.491 10.5228 138.52 10.4941C139.264 8.23112 140.382 5.18034 141.871 1.3418C142.215 0.625651 142.73 0.210286 143.418 0.0957031C143.461 0.0670573 143.504 0.0527344 143.547 0.0527344H143.633C144.535 0.0527344 145.015 0.511068 145.072 1.42773C145.072 1.44206 145.072 1.49935 145.072 1.59961V1.81445C145.072 3.04622 144.764 4.76497 144.148 6.9707C143.991 7.5293 143.597 8.66797 142.967 10.3867C142.924 10.5013 142.867 10.666 142.795 10.8809L142.58 11.3535C142.122 12.2988 141.449 13.724 140.561 15.6289C140.518 15.6862 140.496 15.7435 140.496 15.8008C140.396 16.0013 140.324 16.166 140.281 16.2949C139.522 17.8132 138.656 19.9258 137.682 22.6328C137.123 24.1654 136.715 25.5404 136.457 26.7578C136.428 26.8867 136.407 27.0013 136.393 27.1016C136.378 27.2018 136.371 27.2949 136.371 27.3809C136.371 27.61 136.443 27.7676 136.586 27.8535C136.643 27.9251 136.701 27.9609 136.758 27.9609C136.887 27.9609 137.051 27.8965 137.252 27.7676C137.782 27.4238 138.792 26.6934 140.281 25.5762C140.654 25.304 141.212 24.8815 141.957 24.3086C142.014 24.2799 142.057 24.2656 142.086 24.2656C142.201 24.2656 142.308 24.3659 142.408 24.5664C142.494 24.8815 142.537 25.2754 142.537 25.748V26.3711C142.465 27.0872 142.258 27.6315 141.914 28.0039C141.441 28.5195 140.854 29.0137 140.152 29.4863C139.723 29.7728 139.078 30.1738 138.219 30.6895C137.703 30.9616 136.679 31.3841 135.146 31.957C134.874 32.0143 134.652 32.0573 134.48 32.0859C134.18 32.1432 133.958 32.1719 133.814 32.1719C132.411 32.1719 131.709 31.5703 131.709 30.3672V30.1094C131.709 30.0378 131.723 29.9805 131.752 29.9375C131.867 29.3646 132.203 28.1758 132.762 26.3711V26.3281C132.733 26.3281 132.719 26.3138 132.719 26.2852C132.461 26.4857 132.21 26.6719 131.967 26.8438L131.215 27.3809L131.129 27.4668C131.086 27.4954 131.036 27.5312 130.979 27.5742C130.936 27.6172 130.842 27.696 130.699 27.8105C130.513 27.9681 130.363 28.0898 130.248 28.1758H130.205C130.076 28.1758 129.976 27.8535 129.904 27.209V27.0371C129.876 26.9655 129.861 26.901 129.861 26.8438V26.6289C129.89 26.6003 129.904 26.5716 129.904 26.543V26.457C129.904 26.3711 129.919 26.2852 129.947 26.1992V25.748C129.99 25.4329 130.148 25.0104 130.42 24.4805C131.093 23.8932 132.167 22.8978 133.643 21.4941C133.857 21.2363 134.18 20.8639 134.609 20.377C134.667 20.3197 134.724 20.248 134.781 20.1621C134.867 20.1335 134.91 20.0905 134.91 20.0332C135.01 19.9473 135.089 19.8685 135.146 19.7969C135.204 19.7109 135.368 19.2884 135.641 18.5293ZM155.02 28.1328H155.062V28.1758H155.105H155.148H155.191C155.435 28.1758 155.908 27.9538 156.609 27.5098C157.068 27.2233 158.077 26.4928 159.639 25.3184L160.262 24.7383C160.262 24.7383 160.305 24.6953 160.391 24.6094C160.734 24.4375 160.878 24.3516 160.82 24.3516C160.935 24.3516 161.042 24.4375 161.143 24.6094C161.257 24.9245 161.314 25.3327 161.314 25.834V26.3281C161.286 26.5573 161.25 26.7793 161.207 26.9941C161.164 27.1947 161.107 27.3665 161.035 27.5098C160.892 27.8965 160.247 28.498 159.102 29.3145C158.643 29.6582 158.163 29.9661 157.662 30.2383C157.318 30.4531 156.817 30.7611 156.158 31.1621C155.356 31.6348 154.547 31.9427 153.73 32.0859C153.544 32.1146 153.415 32.1289 153.344 32.1289C153.201 32.1576 153.057 32.1719 152.914 32.1719C152.757 32.1719 152.613 32.1647 152.484 32.1504C152.355 32.1361 152.241 32.1217 152.141 32.1074C152.055 32.0931 151.99 32.0716 151.947 32.043C151.847 32.043 151.768 32.0286 151.711 32C151.281 31.9427 151.066 31.3984 151.066 30.3672V30.0234C150.895 30.1953 150.63 30.446 150.271 30.7754C149.226 31.6634 147.858 32.1289 146.168 32.1719C146.168 32.1719 146.139 32.1719 146.082 32.1719H145.996C145.051 32.1719 144.163 31.8496 143.332 31.2051C142.516 30.5462 142.007 29.5794 141.807 28.3047C141.692 27.5742 141.635 26.8581 141.635 26.1562C141.635 25.4831 141.714 24.8672 141.871 24.3086C141.957 23.9935 142.1 23.5352 142.301 22.9336C142.516 22.4466 142.938 21.7305 143.568 20.7852C144.643 19.6107 146.218 18.5221 148.295 17.5195C149.77 16.8034 151.453 16.3379 153.344 16.123H155.492C155.879 16.1374 156.438 16.166 157.168 16.209C157.569 16.252 157.82 16.3236 157.92 16.4238C157.949 16.4811 157.984 16.6172 158.027 16.832C158.07 17.0326 158.106 17.2474 158.135 17.4766C158.135 17.6484 158.149 17.8275 158.178 18.0137V18.6152C158.178 18.7155 158.192 18.7943 158.221 18.8516V19.2812C158.221 19.6393 158.149 19.8184 158.006 19.8184H157.92C157.848 19.804 157.748 19.7611 157.619 19.6895C157.404 19.6035 157.189 19.5247 156.975 19.4531C156.774 19.3815 156.459 19.2812 156.029 19.1523C155.643 19.0951 155.234 19.0664 154.805 19.0664H154.568C153.637 19.0664 152.57 19.3027 151.367 19.7754C148.202 21.0215 146.426 22.6901 146.039 24.7812C145.953 25.8555 145.91 26.4427 145.91 26.543V26.8008C145.91 27.9753 146.275 28.5625 147.006 28.5625C147.163 28.5625 147.414 28.5195 147.758 28.4336C147.901 28.3763 148.044 28.3047 148.188 28.2188C148.316 28.1758 148.624 27.9824 149.111 27.6387C150.128 26.9225 151.074 25.9414 151.947 24.6953C152.377 24.0794 153.064 22.9479 154.01 21.3008H154.096L154.182 21.3867C154.697 21.5156 155.005 21.5801 155.105 21.5801C155.163 21.6087 155.234 21.623 155.32 21.623H157.748C156.846 23.4421 155.922 25.5404 154.977 27.918C154.977 27.9323 154.977 27.9609 154.977 28.0039C154.977 28.0612 154.991 28.1042 155.02 28.1328ZM166.406 18.2715L166.492 18.0137C166.521 17.9564 166.549 17.8776 166.578 17.7773C166.621 17.7201 166.693 17.5482 166.793 17.2617C166.879 17.0326 166.986 16.8392 167.115 16.6816C167.173 16.5671 167.244 16.5098 167.33 16.5098C167.359 16.5098 167.387 16.5241 167.416 16.5527H171.111C170.825 17.1543 170.402 18.0566 169.844 19.2598L169.607 19.7754C169.378 20.291 169.042 21.0215 168.598 21.9668L168.125 22.9766V23.0195V23.0625C168.139 23.0911 168.182 23.1055 168.254 23.1055H168.383C168.526 23.0768 168.863 22.8477 169.393 22.418C170.581 21.444 171.756 20.5488 172.916 19.7324C172.945 19.7038 173.002 19.6608 173.088 19.6035C173.174 19.5319 173.231 19.4818 173.26 19.4531C174.176 18.7656 175.53 17.8561 177.32 16.7246C177.908 16.4382 178.509 16.2949 179.125 16.2949C179.354 16.2949 179.605 16.3092 179.877 16.3379C180.063 16.3809 180.307 16.4811 180.607 16.6387C180.794 16.7389 180.923 16.875 180.994 17.0469C181.066 17.2188 181.102 17.4193 181.102 17.6484C181.102 18.1927 180.937 18.8587 180.607 19.6465C180.45 19.9473 180.249 20.4128 180.006 21.043C179.949 21.1576 179.884 21.2578 179.812 21.3438C179.512 21.9167 179.075 22.7832 178.502 23.9434C178.258 24.3158 177.908 25.0247 177.449 26.0703C177.32 26.3854 177.141 26.8366 176.912 27.4238V27.5098C176.883 27.5384 176.869 27.5671 176.869 27.5957V27.6816C176.869 27.8535 176.962 27.9609 177.148 28.0039C177.335 28.0039 177.8 27.8105 178.545 27.4238C178.588 27.3952 178.631 27.3665 178.674 27.3379C178.817 27.252 179.025 27.1159 179.297 26.9297C180.414 26.1419 181.281 25.5117 181.896 25.0391L182.777 24.3516H182.906C183.035 24.3516 183.15 24.5521 183.25 24.9531C183.307 25.1966 183.336 25.5475 183.336 26.0059C183.336 27.2233 182.971 28.0612 182.24 28.5195C181.166 29.2357 179.497 30.2168 177.234 31.4629C176.232 31.9069 175.294 32.1289 174.42 32.1289C172.844 32.1289 172.035 31.6133 171.992 30.582C171.978 30.2956 172.121 29.651 172.422 28.6484L172.83 27.7246C173.016 27.3236 173.16 26.987 173.26 26.7148C173.317 26.6146 173.396 26.457 173.496 26.2422C173.826 25.5833 174.305 24.5951 174.936 23.2773C175.107 22.8763 175.193 22.6042 175.193 22.4609C175.193 22.3607 175.165 22.3105 175.107 22.3105C175.064 22.3105 175.007 22.3249 174.936 22.3535C174.52 22.597 174.04 22.9551 173.496 23.4277H173.453C173.41 23.4564 173.389 23.485 173.389 23.5137L173.217 23.5996L173.045 23.7715C171.742 24.8743 169.779 26.5286 167.158 28.7344C167.101 28.763 167.029 28.8132 166.943 28.8848C166.872 28.9421 166.807 28.9993 166.75 29.0566C166.005 29.6582 164.895 30.5677 163.42 31.7852C163.32 31.8711 163.219 31.9355 163.119 31.9785C163.019 32.0215 162.911 32.0645 162.797 32.1074C162.682 32.1504 162.582 32.1719 162.496 32.1719C162.367 32.2005 162.26 32.2148 162.174 32.2148C161.329 32.2148 160.906 31.7493 160.906 30.8184C160.906 30.6608 160.913 30.5176 160.928 30.3887C160.942 30.2598 160.978 30.1237 161.035 29.9805C161.035 29.8659 161.064 29.7441 161.121 29.6152C161.135 29.5579 161.164 29.4577 161.207 29.3145C161.465 28.498 161.787 27.6745 162.174 26.8438H162.088C161.902 27.0299 161.637 27.2806 161.293 27.5957C161.264 27.6243 161.236 27.6387 161.207 27.6387C161.092 27.7676 160.906 27.9466 160.648 28.1758C160.462 28.2904 160.326 28.3477 160.24 28.3477C160.183 28.319 160.147 28.2188 160.133 28.0469C160.118 27.8607 160.097 27.653 160.068 27.4238V26.6719C160.068 25.6263 160.183 24.9531 160.412 24.6523C160.455 24.6094 160.52 24.5521 160.605 24.4805C160.677 24.4089 160.734 24.3516 160.777 24.3086C161.035 24.1224 161.329 23.8861 161.658 23.5996L162.625 22.7617C162.854 22.5612 163.083 22.3392 163.312 22.0957L163.936 21.4297C165.311 19.9258 166.134 18.873 166.406 18.2715ZM198.311 24.4375H198.396C198.654 24.4375 198.783 24.9316 198.783 25.9199V26.3711C198.712 27.1589 198.554 27.6888 198.311 27.9609C196.835 29.3503 195.045 30.4746 192.939 31.334C191.493 31.9355 190.039 32.2435 188.578 32.2578C188.105 32.2578 187.604 32.2148 187.074 32.1289C186.745 32.0716 186.251 31.957 185.592 31.7852C184.288 31.3268 183.508 30.5892 183.25 29.5723C182.992 28.6126 182.849 27.3952 182.82 25.9199C182.792 25.8053 182.777 25.6764 182.777 25.5332V25.0391C182.777 21.6016 184.962 18.9089 189.33 16.9609C190.146 16.6029 190.87 16.3522 191.5 16.209C192.13 16.0658 192.782 15.9941 193.455 15.9941C196.105 15.9941 197.43 17.1328 197.43 19.4102V19.9473C197.43 20.1191 197.401 20.3053 197.344 20.5059C197.158 21.4941 196.671 22.375 195.883 23.1484C194.995 24.0078 194.114 24.6882 193.24 25.1895C193.111 25.2611 192.746 25.4329 192.145 25.7051C191.543 25.9772 190.605 26.2995 189.33 26.6719C188.757 26.7148 188.02 26.8652 187.117 27.123C187.003 27.1803 186.945 27.2663 186.945 27.3809V27.4668C187.031 27.8678 187.461 28.2474 188.234 28.6055C188.664 28.8203 189.158 28.9277 189.717 28.9277H189.889C189.917 28.9277 189.953 28.9134 189.996 28.8848H190.168C190.225 28.8848 190.254 28.8848 190.254 28.8848C191.342 28.7988 193.025 28.0755 195.303 26.7148C196.449 26.0273 197.451 25.2682 198.311 24.4375ZM186.773 24.1582C188.062 23.972 189.301 23.6211 190.49 23.1055C192.008 22.418 192.954 21.6159 193.326 20.6992C193.355 20.5703 193.369 20.4486 193.369 20.334C193.369 19.5462 192.947 19.1523 192.102 19.1523C191.514 19.1523 190.855 19.3887 190.125 19.8613C188.607 20.8496 187.533 22.1243 186.902 23.6855C186.874 23.7572 186.859 23.8288 186.859 23.9004L186.773 24.1582ZM207.076 10.623C207.62 8.36003 208.222 6.52669 208.881 5.12305C209.239 4.34961 209.64 3.66927 210.084 3.08203C210.127 3.02474 210.199 2.92448 210.299 2.78125L210.557 2.52344C210.829 2.19401 211.18 1.92904 211.609 1.72852C211.724 1.67122 211.817 1.62826 211.889 1.59961H212.189H212.232C212.548 1.62826 212.812 1.77148 213.027 2.0293C213.228 2.33008 213.328 2.7168 213.328 3.18945V3.5332C213.271 3.9056 213.142 4.47852 212.941 5.25195C212.927 5.30924 212.734 5.81771 212.361 6.77734C212.304 6.90625 212.261 7.04232 212.232 7.18555L211.352 9.37695C211.223 9.69206 211.058 10.1074 210.857 10.623H212.898C213.214 10.623 213.4 11.0026 213.457 11.7617C213.457 11.7617 213.457 11.8333 213.457 11.9766C213.457 12.0625 213.443 12.1341 213.414 12.1914C213.357 12.6211 213.235 12.9863 213.049 13.2871C212.877 13.5879 212.605 13.7383 212.232 13.7383H209.805C208.602 16.5312 207.212 19.8757 205.637 23.7715C205.436 24.2728 205.085 25.168 204.584 26.457C204.455 26.7005 204.376 26.9368 204.348 27.166C204.29 27.3379 204.262 27.5241 204.262 27.7246C204.262 27.9395 204.298 28.097 204.369 28.1973C204.441 28.2975 204.541 28.3477 204.67 28.3477C204.856 28.3477 205.164 28.2331 205.594 28.0039C205.809 27.8893 206.117 27.7103 206.518 27.4668C207.334 26.7363 208.594 25.7266 210.299 24.4375L210.342 24.3945H210.385L210.428 24.3516H210.471C210.857 24.3516 211.051 24.8314 211.051 25.791V26.0703C211.022 26.2708 210.993 26.5286 210.965 26.8438C210.922 27.0872 210.829 27.3236 210.686 27.5527C210.614 27.7533 210.528 27.9036 210.428 28.0039C209.84 28.5911 208.902 29.2643 207.613 30.0234C207.284 30.224 206.783 30.5033 206.109 30.8613C204.978 31.4629 204.025 31.8639 203.252 32.0645C202.837 32.1647 202.543 32.2148 202.371 32.2148H202.07C201.268 32.2148 200.66 32.0286 200.244 31.6562C199.843 31.2695 199.628 30.8542 199.6 30.4102C199.6 30.3958 199.6 30.3529 199.6 30.2812C199.6 30.2383 199.607 30.1953 199.621 30.1523C199.635 30.1094 199.657 30.0664 199.686 30.0234V29.9375C200.044 28.9922 200.502 27.5671 201.061 25.6621H200.932C200.33 26.235 199.829 26.6934 199.428 27.0371L197.967 28.3047C197.938 28.3333 197.91 28.3477 197.881 28.3477C197.594 28.3477 197.451 27.8177 197.451 26.7578V26.5859C197.451 26.4857 197.451 26.4284 197.451 26.4141C197.508 25.3828 197.68 24.7812 197.967 24.6094C198.396 24.3516 199.428 23.3704 201.061 21.666C201.189 21.5371 201.376 21.3294 201.619 21.043C202.335 20.2982 203.202 19.2311 204.219 17.8418C204.477 17.2832 204.727 16.6172 204.971 15.8438L205.014 15.8008V15.7578C205.214 15.2995 205.465 14.6263 205.766 13.7383H203.252C203.023 13.7383 202.908 13.459 202.908 12.9004C202.908 12.7858 202.923 12.6712 202.951 12.5566C202.951 12.0697 203.109 11.5827 203.424 11.0957C203.624 10.7806 203.889 10.623 204.219 10.623H207.076Z" fill="url(#paint0_linear_1063_27133)"/>
<defs>
<linearGradient id="paint0_linear_1063_27133" x1="195.39" y1="5480.01" x2="58.9343" y2="5479.81" gradientUnits="userSpaceOnUse">
<stop stop-color="#2548A9"/>
<stop offset="0.484375" stop-color="#41B4D8"/>
<stop offset="1" stop-color="#BA89C2"/>
</linearGradient>
</defs>
</svg>
