<svg width="360" height="48" viewBox="0 0 360 48" fill="none" xmlns="http://www.w3.org/2000/svg">
<g clip-path="url(#clip0_1063_14563)">
<path d="M305.17 2.18437L305.167 4.09891C305.167 4.13365 305.161 4.16805 305.147 4.20015C305.134 4.23225 305.114 4.26141 305.09 4.28598C305.065 4.31054 305.036 4.33003 305.003 4.34332C304.971 4.35662 304.936 4.36346 304.902 4.36346H303.114C303.078 4.36346 303.043 4.37783 303.017 4.4034C302.992 4.42897 302.977 4.46366 302.977 4.49982V6.27255C302.977 6.34488 302.948 6.41425 302.897 6.4654C302.845 6.51654 302.776 6.54528 302.703 6.54528H300.924C300.889 6.54528 300.856 6.559 300.832 6.58347C300.807 6.60794 300.793 6.64123 300.792 6.67619L300.784 8.72982H281.191C281.094 8.72982 281.046 8.778 281.046 8.87437V10.7044C281.046 10.7586 281.024 10.8106 280.986 10.849C280.947 10.8874 280.895 10.9089 280.84 10.9089H254.901C254.786 10.9089 254.728 10.8516 254.728 10.7371V9.068C254.728 9.02324 254.72 8.9789 254.702 8.93754C254.685 8.89618 254.66 8.8586 254.628 8.82695C254.596 8.79529 254.558 8.77018 254.517 8.75305C254.475 8.73591 254.431 8.7271 254.386 8.7271H228.616C228.479 8.7271 228.411 8.79528 228.411 8.93164V10.7044C228.411 10.7586 228.389 10.8106 228.351 10.849C228.312 10.8874 228.26 10.9089 228.205 10.9089H202.266C202.151 10.9089 202.093 10.8516 202.093 10.7371V9.068C202.093 8.97759 202.057 8.89088 201.993 8.82695C201.929 8.76301 201.842 8.7271 201.751 8.7271H175.981C175.844 8.7271 175.776 8.79528 175.776 8.93164V10.7044C175.776 10.7586 175.754 10.8106 175.716 10.849C175.677 10.8874 175.625 10.9089 175.57 10.9089H149.664C149.527 10.9089 149.458 10.8407 149.458 10.7044V9.068C149.458 8.97759 149.422 8.89088 149.358 8.82695C149.294 8.76301 149.207 8.7271 149.116 8.7271H123.346C123.209 8.7271 123.141 8.79528 123.141 8.93164V10.7044C123.141 10.7586 123.119 10.8106 123.081 10.849C123.042 10.8874 122.99 10.9089 122.935 10.9089H96.9961C96.881 10.9089 96.8234 10.8516 96.8234 10.7371V9.068C96.8234 8.97759 96.7873 8.89088 96.723 8.82695C96.6588 8.76301 96.5716 8.7271 96.4807 8.7271H70.7115C70.5744 8.7271 70.5059 8.79528 70.5059 8.93164V10.7044C70.5059 10.7586 70.4842 10.8106 70.4457 10.849C70.4071 10.8874 70.3548 10.9089 70.3003 10.9089H44.394C44.2569 10.9089 44.1884 10.8407 44.1884 10.7044V9.068C44.1884 9.02324 44.1795 8.9789 44.1623 8.93754C44.1451 8.89618 44.1199 8.8586 44.088 8.82695C44.0562 8.79529 44.0184 8.77018 43.9769 8.75305C43.9353 8.73591 43.8907 8.7271 43.8457 8.7271H18.0765C17.9394 8.7271 17.8709 8.79528 17.8709 8.93164V10.7044C17.8709 10.7586 17.8492 10.8106 17.8107 10.849C17.7721 10.8874 17.7198 10.9089 17.6653 10.9089H-8.27388C-8.38902 10.9089 -8.44659 10.8516 -8.44659 10.7371V9.068C-8.44659 8.97759 -8.4827 8.89088 -8.54695 8.82695C-8.61122 8.76301 -8.69839 8.7271 -8.78928 8.7271H-34.5585C-34.6956 8.7271 -34.7641 8.79528 -34.7641 8.93164V10.7044C-34.7641 10.7586 -34.7858 10.8106 -34.8243 10.849C-34.8629 10.8874 -34.9152 10.9089 -34.9697 10.9089H-60.9089C-61.024 10.9089 -61.0816 10.8516 -61.0816 10.7371V9.068C-61.0816 9.02324 -61.0904 8.9789 -61.1077 8.93754C-61.1249 8.89618 -61.1501 8.8586 -61.182 8.82695C-61.2138 8.79529 -61.2515 8.77018 -61.2931 8.75305C-61.3347 8.73591 -61.3793 8.7271 -61.4243 8.7271H-87.1935C-87.3305 8.7271 -87.3991 8.79528 -87.3991 8.93164V10.7044C-87.3991 10.7586 -87.4207 10.8106 -87.4593 10.849C-87.4979 10.8874 -87.5502 10.9089 -87.6047 10.9089H-113.511C-113.648 10.9089 -113.717 10.8407 -113.717 10.7044V9.068C-113.717 9.02324 -113.725 8.9789 -113.743 8.93754C-113.76 8.89618 -113.785 8.8586 -113.817 8.82695C-113.849 8.79529 -113.887 8.77018 -113.928 8.75305C-113.97 8.73591 -114.014 8.7271 -114.059 8.7271H-139.828C-139.966 8.7271 -140.034 8.79528 -140.034 8.93164V10.7098C-140.034 10.7619 -140.055 10.8118 -140.092 10.8487C-140.129 10.8855 -140.179 10.9062 -140.231 10.9062H-166.352V4.37164H-140.248C-140.191 4.37164 -140.137 4.34923 -140.097 4.30933C-140.057 4.26944 -140.034 4.21533 -140.034 4.15891V2.38619C-140.034 2.24982 -139.966 2.18164 -139.828 2.18164H-113.922C-113.868 2.18164 -113.815 2.20319 -113.777 2.24155C-113.738 2.27991 -113.717 2.33194 -113.717 2.38619V4.2271C-113.717 4.318 -113.671 4.36346 -113.58 4.36346H-87.6047C-87.5502 4.36346 -87.4979 4.34191 -87.4593 4.30355C-87.4207 4.26519 -87.3991 4.21316 -87.3991 4.15891V2.38619C-87.3991 2.24982 -87.3305 2.18164 -87.1935 2.18164H-61.2872C-61.2327 2.18164 -61.1804 2.20319 -61.1418 2.24155C-61.1032 2.27991 -61.0816 2.33194 -61.0816 2.38619V4.2271C-61.0816 4.318 -61.0359 4.36346 -60.9445 4.36346H-34.9697C-34.9152 4.36346 -34.8629 4.34191 -34.8243 4.30355C-34.7858 4.26519 -34.7641 4.21316 -34.7641 4.15891V2.38619C-34.7641 2.24982 -34.6956 2.18164 -34.5585 2.18164H-8.65221C-8.59767 2.18164 -8.54538 2.20319 -8.50682 2.24155C-8.46826 2.27991 -8.44659 2.33194 -8.44659 2.38619V4.2271C-8.44659 4.318 -8.40091 4.36346 -8.30952 4.36346H17.6653C17.7198 4.36346 17.7721 4.34191 17.8107 4.30355C17.8492 4.26519 17.8709 4.21316 17.8709 4.15891V2.38619C17.8709 2.24982 17.9394 2.18164 18.0765 2.18164H43.9828C44.0373 2.18164 44.0896 2.20319 44.1282 2.24155C44.1667 2.27991 44.1884 2.33194 44.1884 2.38619V4.2271C44.1884 4.318 44.2341 4.36346 44.3255 4.36346H70.3003C70.3548 4.36346 70.4071 4.34191 70.4457 4.30355C70.4842 4.26519 70.5059 4.21316 70.5059 4.15891V2.38619C70.5059 2.24982 70.5744 2.18164 70.7115 2.18164H96.6178C96.6723 2.18164 96.7246 2.20319 96.7632 2.24155C96.8017 2.27991 96.8234 2.33194 96.8234 2.38619V4.2271C96.8234 4.318 96.8691 4.36346 96.9604 4.36346H122.935C122.99 4.36346 123.042 4.34191 123.081 4.30355C123.119 4.26519 123.141 4.21316 123.141 4.15891V2.38619C123.141 2.24982 123.209 2.18164 123.346 2.18164H149.253C149.307 2.18164 149.36 2.20319 149.398 2.24155C149.437 2.27991 149.458 2.33194 149.458 2.38619V4.2271C149.458 4.318 149.504 4.36346 149.595 4.36346H175.57C175.625 4.36346 175.677 4.34191 175.716 4.30355C175.754 4.26519 175.776 4.21316 175.776 4.15891V2.38619C175.776 2.24982 175.844 2.18164 175.981 2.18164H201.888C201.942 2.18164 201.995 2.20319 202.033 2.24155C202.072 2.27991 202.093 2.33194 202.093 2.38619V4.2271C202.093 4.318 202.139 4.36346 202.23 4.36346H228.205C228.26 4.36346 228.312 4.34191 228.351 4.30355C228.389 4.26519 228.411 4.21316 228.411 4.15891V2.38619C228.411 2.24982 228.479 2.18164 228.616 2.18164H254.523C254.577 2.18164 254.63 2.20319 254.668 2.24155C254.707 2.27991 254.728 2.33194 254.728 2.38619V4.2271C254.728 4.318 254.774 4.36346 254.865 4.36346H280.84C280.895 4.36346 280.947 4.34191 280.986 4.30355C281.024 4.26519 281.046 4.21316 281.046 4.15891V2.37255C281.046 2.2471 281.109 2.18437 281.235 2.18437H305.17Z" fill="#5843DB"/>
<path d="M305.17 2.18457H342.247C342.299 2.18457 342.349 2.20488 342.386 2.24112C342.423 2.27735 342.444 2.3266 342.445 2.37821L342.456 4.16184C342.457 4.29639 342.526 4.36366 342.661 4.36366H344.303C344.394 4.36366 344.481 4.39958 344.546 4.46351C344.61 4.52744 344.646 4.61416 344.646 4.70457V6.40912C344.646 6.50003 344.692 6.54548 344.783 6.54548H346.565C346.638 6.54548 346.707 6.57421 346.759 6.62536C346.81 6.67651 346.839 6.74588 346.839 6.81821V12.9491C346.839 13.0382 346.884 13.0837 346.973 13.0855L348.876 13.1264C348.896 13.1268 348.917 13.1231 348.936 13.1156C348.954 13.108 348.972 13.0969 348.986 13.0826C349.001 13.0684 349.012 13.0515 349.02 13.0327C349.028 13.014 349.032 12.994 349.032 12.9737V11.1137C349.032 10.9773 349.101 10.9091 349.238 10.9091H355.269C355.36 10.9091 355.447 10.945 355.511 11.009C355.576 11.0729 355.612 11.1596 355.612 11.25V12.9546C355.612 12.9907 355.626 13.0254 355.652 13.051C355.677 13.0766 355.712 13.0909 355.749 13.0909H357.462C357.553 13.0909 357.64 13.1269 357.704 13.1908C357.769 13.2547 357.805 13.3414 357.805 13.4318V17.2418C357.805 17.3017 357.828 17.3591 357.87 17.4019C357.912 17.4447 357.969 17.4695 358.03 17.4709L359.998 17.5173V32.6864L358.079 32.7218C358.009 32.7226 357.941 32.7507 357.892 32.8001C357.842 32.8496 357.814 32.9165 357.813 32.9864L357.788 34.7482C357.788 34.7911 357.77 34.8321 357.739 34.8622C357.708 34.8923 357.667 34.9091 357.624 34.9091H355.749C355.712 34.9091 355.677 34.9235 355.652 34.9491C355.626 34.9746 355.612 35.0093 355.612 35.0455V36.9546C355.612 36.9907 355.597 37.0254 355.571 37.051C355.546 37.0766 355.511 37.0909 355.475 37.0909H353.556C353.464 37.0909 353.418 37.1364 353.418 37.2273V39.0682C353.418 39.1225 353.397 39.1745 353.358 39.2128C353.32 39.2512 353.267 39.2728 353.213 39.2728H344.852C344.715 39.2728 344.646 39.3409 344.646 39.4773V41.3182C344.646 41.4091 344.692 41.4546 344.783 41.4546H346.702C346.734 41.4546 346.765 41.4672 346.787 41.4897C346.81 41.5122 346.823 41.5428 346.823 41.5746L346.812 48H340.29L340.262 45.96C340.261 45.8655 340.213 45.8182 340.12 45.8182H338.409C338.318 45.8182 338.231 45.7823 338.167 45.7184C338.103 45.6544 338.067 45.5677 338.067 45.4773V43.9091C338.067 43.8368 338.038 43.7674 337.986 43.7163C337.935 43.6651 337.865 43.6364 337.792 43.6364H336.011C335.974 43.6364 335.939 43.6508 335.914 43.6763C335.888 43.7019 335.873 43.7366 335.873 43.7728V45.5455C335.873 45.6178 335.845 45.6872 335.793 45.7383C335.742 45.7895 335.672 45.8182 335.599 45.8182H333.82C333.725 45.8182 333.677 45.8664 333.675 45.9628L333.639 48H329.327L329.297 45.9573C329.295 45.8646 329.248 45.8182 329.154 45.8182H327.238C327.202 45.8182 327.167 45.8038 327.141 45.7783C327.115 45.7527 327.101 45.718 327.101 45.6819V43.7728C327.101 43.6819 327.055 43.6364 326.964 43.6364H314.148C314.011 43.6364 313.942 43.7046 313.942 43.8409V45.6819C313.942 45.718 313.928 45.7527 313.902 45.7783C313.876 45.8038 313.842 45.8182 313.805 45.8182H311.889C311.794 45.8182 311.745 45.8655 311.744 45.96L311.7 48H307.44L307.374 45.9655C307.372 45.8673 307.322 45.8182 307.223 45.8182H305.444C305.371 45.8182 305.301 45.7895 305.25 45.7383C305.199 45.6872 305.17 45.6178 305.17 45.5455V43.8164C305.17 43.7694 305.151 43.7243 305.118 43.691C305.084 43.6578 305.039 43.6391 304.992 43.6391L303.182 43.6364C303.045 43.6346 302.977 43.7028 302.977 43.8409V45.4773C302.977 45.5677 302.941 45.6544 302.876 45.7184C302.812 45.7823 302.725 45.8182 302.634 45.8182H300.986C300.939 45.8182 300.894 45.8363 300.859 45.8688C300.825 45.9013 300.805 45.9457 300.803 45.9928L300.712 48H294.366C294.165 45.8691 294.12 43.6864 294.232 41.4519L296.241 41.4137C296.345 41.4118 296.397 41.3591 296.397 41.2555V39.4091C296.397 39.373 296.412 39.3383 296.437 39.3127C296.463 39.2871 296.498 39.2728 296.534 39.2728H298.409C298.457 39.2728 298.502 39.2541 298.535 39.2208C298.569 39.1876 298.588 39.1425 298.588 39.0955L298.59 37.2273C298.59 37.1911 298.605 37.1565 298.631 37.1309C298.656 37.1053 298.691 37.0909 298.727 37.0909H300.644C300.677 37.0909 300.709 37.0777 300.733 37.0542C300.757 37.0307 300.77 36.9988 300.77 36.9655L300.778 34.9091L300.781 28.6418C300.781 28.5659 300.751 28.4931 300.697 28.4394C300.644 28.3857 300.571 28.3555 300.496 28.3555L296.351 28.3582L296.373 26.3591C296.374 26.2409 296.316 26.1818 296.197 26.1818H294.344C294.253 26.1818 294.207 26.1364 294.207 26.0455L294.196 21.8209L296.203 21.8182C296.254 21.8182 296.304 21.7978 296.34 21.7615C296.377 21.7252 296.397 21.6759 296.397 21.6246V19.7728C296.397 19.6818 296.443 19.6364 296.534 19.6364H300.644C300.68 19.6364 300.715 19.6217 300.741 19.5957C300.766 19.5696 300.781 19.5342 300.781 19.4973V15.2646L300.783 8.73003L300.792 6.67639C300.792 6.64143 300.807 6.60815 300.831 6.58367C300.856 6.5592 300.889 6.54549 300.923 6.54548H302.702C302.775 6.54548 302.845 6.51675 302.896 6.4656C302.948 6.41445 302.977 6.34508 302.977 6.27275V4.50003C302.977 4.46386 302.991 4.42917 303.017 4.4036C303.042 4.37803 303.077 4.36366 303.114 4.36366H304.901C304.936 4.36366 304.971 4.35682 305.003 4.34352C305.035 4.33023 305.064 4.31074 305.089 4.28618C305.114 4.26161 305.133 4.23245 305.147 4.20035C305.16 4.16826 305.167 4.13386 305.167 4.09912L305.17 2.18457ZM335.873 13.1018L329.423 13.1046C329.337 13.1046 329.294 13.1473 329.294 13.2328V19.4564C329.294 19.5034 329.275 19.5485 329.242 19.5817C329.208 19.615 329.163 19.6337 329.116 19.6337L327.282 19.6364C327.234 19.6371 327.189 19.6561 327.156 19.6893C327.122 19.7224 327.104 19.7671 327.104 19.8137L327.101 21.6764C327.101 21.7764 327.15 21.8264 327.249 21.8264L335.879 21.8318L335.871 23.9973L333.817 24.0109C333.726 24.0128 333.68 24.0582 333.68 24.1473V26.01C333.68 26.1246 333.738 26.1818 333.853 26.1818H335.725C335.815 26.1818 335.86 26.1373 335.86 26.0482L335.871 23.9973L337.88 23.9837C337.992 23.9818 338.047 23.9255 338.047 23.8146L338.056 21.8209L351.245 21.8264V23.8282C351.245 23.9428 351.302 24 351.417 24H353.224C353.346 24 353.408 23.9391 353.408 23.8173L353.405 21.8346L357.646 21.8237C357.752 21.8237 357.805 21.7709 357.805 21.6655V19.8055C357.805 19.6928 357.747 19.6364 357.632 19.6364H355.817C355.763 19.6364 355.71 19.6148 355.672 19.5765C355.633 19.5381 355.612 19.4861 355.612 19.4318V13.2709C355.612 13.2232 355.593 13.1774 355.559 13.1437C355.526 13.1099 355.481 13.0909 355.433 13.0909H349.213C349.166 13.0909 349.121 13.1096 349.087 13.1429C349.054 13.1761 349.035 13.2212 349.035 13.2682L349.032 15.1364C349.032 15.1726 349.018 15.2072 348.992 15.2328C348.966 15.2584 348.932 15.2728 348.895 15.2728H346.976C346.94 15.2728 346.905 15.2871 346.879 15.3127C346.854 15.3383 346.839 15.373 346.839 15.4091V17.3182C346.839 17.4091 346.793 17.4546 346.702 17.4546H338.261C338.141 17.4546 338.08 17.3946 338.08 17.2746L338.067 15.2618L344.514 15.2591C344.602 15.2591 344.646 15.2155 344.646 15.1282V6.75003C344.646 6.61366 344.577 6.54548 344.44 6.54548H342.59C342.554 6.54548 342.519 6.53111 342.493 6.50554C342.467 6.47997 342.453 6.44528 342.453 6.40912V4.56821C342.453 4.51396 342.431 4.46193 342.393 4.42357C342.354 4.38521 342.302 4.36366 342.247 4.36366H305.351C305.303 4.36366 305.258 4.38234 305.225 4.41558C305.191 4.44883 305.172 4.49392 305.172 4.54093L305.17 6.36548C305.169 6.41274 305.15 6.45782 305.117 6.49099C305.083 6.52415 305.038 6.54275 304.992 6.54275L303.319 6.54548C303.228 6.5462 303.141 6.58243 303.077 6.64629C303.013 6.71014 302.977 6.79644 302.977 6.88639V39C302.977 39.0724 303.005 39.1417 303.057 39.1929C303.108 39.244 303.178 39.2728 303.251 39.2728H305.033C305.069 39.2728 305.104 39.2871 305.13 39.3127C305.155 39.3383 305.17 39.373 305.17 39.4091V41.25C305.17 41.3043 305.191 41.3563 305.23 41.3947C305.269 41.433 305.321 41.4546 305.375 41.4546H342.272C342.319 41.4546 342.364 41.4359 342.398 41.4027C342.431 41.3694 342.45 41.3243 342.45 41.2773L342.453 39.4091C342.453 39.3182 342.407 39.2728 342.316 39.2728H331.693C331.556 39.2728 331.487 39.2046 331.487 39.0682V37.2273C331.487 37.1364 331.442 37.0909 331.35 37.0909H329.464C329.419 37.0909 329.376 37.0731 329.344 37.0414C329.312 37.0097 329.294 36.9667 329.294 36.9218V35.0455C329.294 34.9546 329.248 34.9091 329.157 34.9091H327.307C327.252 34.9091 327.2 34.8876 327.161 34.8492C327.123 34.8108 327.101 34.7588 327.101 34.7046V32.8991C327.101 32.7846 327.044 32.7273 326.931 32.7273H325.113C324.976 32.7273 324.908 32.6591 324.908 32.5228V17.6591C324.908 17.5228 324.976 17.4546 325.113 17.4546H326.895C326.95 17.4546 327.002 17.433 327.041 17.3947C327.079 17.3563 327.101 17.3043 327.101 17.25V13.2955C327.101 13.1591 327.17 13.0909 327.307 13.0909H328.951C328.996 13.0909 329.041 13.0821 329.083 13.065C329.124 13.0479 329.162 13.0227 329.194 12.9911C329.226 12.9594 329.251 12.9218 329.268 12.8805C329.285 12.8391 329.294 12.7948 329.294 12.75V11.0455C329.294 10.9546 329.248 10.9091 329.157 10.9091H327.238C327.147 10.9091 327.101 10.8637 327.101 10.7728V8.93184C327.101 8.79548 327.17 8.7273 327.307 8.7273H329.089C329.224 8.7273 329.292 8.79548 329.294 8.93184L329.297 10.7318C329.297 10.7789 329.316 10.8239 329.349 10.8572C329.382 10.8904 329.428 10.9091 329.475 10.9091H335.676C335.724 10.9091 335.77 10.9281 335.804 10.9618C335.838 10.9956 335.857 11.0414 335.857 11.0891L335.873 13.1018ZM300.787 21.9938C300.787 21.9713 300.783 21.9489 300.774 21.9281C300.765 21.9072 300.753 21.8882 300.737 21.8723C300.721 21.8563 300.702 21.8436 300.681 21.8349C300.66 21.8263 300.637 21.8218 300.615 21.8217L296.574 21.8147C296.551 21.8147 296.529 21.8191 296.508 21.8277C296.487 21.8363 296.468 21.8489 296.452 21.8648C296.436 21.8807 296.423 21.8996 296.414 21.9205C296.405 21.9413 296.401 21.9636 296.401 21.9862L296.394 26.0062C296.394 26.0288 296.398 26.0511 296.407 26.072C296.415 26.0928 296.428 26.1118 296.444 26.1278C296.46 26.1438 296.479 26.1565 296.5 26.1651C296.521 26.1738 296.543 26.1783 296.566 26.1783L300.607 26.1854C300.63 26.1854 300.652 26.181 300.673 26.1724C300.694 26.1638 300.713 26.1512 300.729 26.1353C300.745 26.1193 300.758 26.1004 300.767 26.0796C300.775 26.0587 300.78 26.0364 300.78 26.0138L300.787 21.9938ZM335.873 35.0891C335.873 35.0414 335.893 34.9956 335.926 34.9618C335.96 34.9281 336.006 34.9091 336.054 34.9091H337.886C337.909 34.9091 337.933 34.9045 337.955 34.8954C337.977 34.8864 337.997 34.8731 338.014 34.8564C338.03 34.8397 338.044 34.8198 338.053 34.798C338.062 34.7762 338.067 34.7528 338.067 34.7291V32.9073C338.067 32.8596 338.086 32.8138 338.12 32.78C338.154 32.7463 338.2 32.7273 338.248 32.7273H342.272C342.32 32.7273 342.366 32.7083 342.4 32.6746C342.434 32.6408 342.453 32.595 342.453 32.5473V28.5437C342.453 28.4959 342.434 28.4501 342.4 28.4164C342.366 28.3826 342.32 28.3637 342.272 28.3637H340.441C340.393 28.3637 340.347 28.3447 340.313 28.3109C340.279 28.2772 340.26 28.2314 340.26 28.1837V26.3618C340.26 26.3141 340.241 26.2683 340.207 26.2346C340.173 26.2008 340.127 26.1818 340.079 26.1818H338.248C338.2 26.1818 338.154 26.2008 338.12 26.2346C338.086 26.2683 338.067 26.3141 338.067 26.3618V28.1837C338.067 28.2073 338.062 28.2307 338.053 28.2525C338.044 28.2744 338.03 28.2942 338.014 28.3109C337.997 28.3277 337.977 28.3409 337.955 28.35C337.933 28.359 337.909 28.3637 337.886 28.3637H333.861C333.813 28.3637 333.767 28.3447 333.733 28.3109C333.699 28.2772 333.68 28.2314 333.68 28.1837V26.3618C333.68 26.3141 333.661 26.2683 333.627 26.2346C333.593 26.2008 333.547 26.1818 333.499 26.1818H331.668C331.62 26.1818 331.574 26.1629 331.54 26.1291C331.506 26.0954 331.487 26.0496 331.487 26.0018V24.18C331.487 24.1323 331.468 24.0865 331.434 24.0527C331.4 24.019 331.354 24 331.306 24H327.282C327.258 24 327.235 24.0047 327.213 24.0137C327.191 24.0228 327.171 24.036 327.154 24.0527C327.137 24.0695 327.124 24.0893 327.115 24.1111C327.106 24.133 327.101 24.1564 327.101 24.18V32.5473C327.101 32.5709 327.106 32.5943 327.115 32.6162C327.124 32.638 327.137 32.6579 327.154 32.6746C327.171 32.6913 327.191 32.7046 327.213 32.7136C327.235 32.7226 327.258 32.7273 327.282 32.7273H329.11C329.134 32.7273 329.158 32.732 329.18 32.741C329.202 32.75 329.222 32.7633 329.238 32.78C329.255 32.7967 329.269 32.8166 329.278 32.8384C329.287 32.8603 329.291 32.8837 329.291 32.9073L329.297 34.7291C329.297 34.7769 329.316 34.8226 329.35 34.8564C329.384 34.8902 329.43 34.9091 329.478 34.9091H331.304C331.352 34.9091 331.398 34.9281 331.431 34.9618C331.465 34.9956 331.484 35.0414 331.484 35.0891L331.49 36.9109C331.49 36.9587 331.509 37.0045 331.543 37.0382C331.577 37.072 331.623 37.0909 331.671 37.0909H335.693C335.741 37.0909 335.787 37.072 335.82 37.0382C335.854 37.0045 335.873 36.9587 335.873 36.9109V35.0891ZM346.841 24.243C346.841 24.1794 346.815 24.1183 346.77 24.0732C346.725 24.0281 346.664 24.0027 346.6 24.0026L340.503 23.992C340.471 23.992 340.44 23.9981 340.411 24.0101C340.381 24.0221 340.355 24.0398 340.332 24.062C340.31 24.0843 340.292 24.1107 340.28 24.1398C340.268 24.1689 340.261 24.2001 340.261 24.2316L340.258 25.9334C340.258 25.9971 340.283 26.0582 340.329 26.1032C340.374 26.1483 340.435 26.1737 340.499 26.1738L346.596 26.1844C346.628 26.1845 346.659 26.1783 346.688 26.1663C346.718 26.1543 346.744 26.1367 346.767 26.1144C346.789 26.0922 346.807 26.0657 346.819 26.0366C346.831 26.0075 346.838 25.9763 346.838 25.9448L346.841 24.243ZM351.222 24.1353C351.222 24.1171 351.218 24.099 351.211 24.0821C351.204 24.0653 351.194 24.05 351.181 24.0371C351.168 24.0242 351.152 24.014 351.135 24.0071C351.118 24.0002 351.1 23.9966 351.082 23.9967L349.168 24.0034C349.15 24.0034 349.132 24.0071 349.115 24.0141C349.098 24.0212 349.082 24.0315 349.07 24.0444C349.057 24.0574 349.046 24.0728 349.039 24.0897C349.032 24.1066 349.029 24.1247 349.029 24.1429L349.036 26.0465C349.036 26.0648 349.039 26.0829 349.046 26.0997C349.053 26.1166 349.064 26.1319 349.077 26.1448C349.09 26.1576 349.105 26.1678 349.122 26.1748C349.139 26.1817 349.158 26.1852 349.176 26.1852L351.089 26.1785C351.108 26.1785 351.126 26.1748 351.143 26.1678C351.16 26.1607 351.175 26.1504 351.188 26.1374C351.201 26.1245 351.211 26.1091 351.218 26.0922C351.225 26.0753 351.229 26.0572 351.229 26.0389L351.222 24.1353ZM349.021 34.9091H338.22C338.118 34.9091 338.067 34.96 338.067 35.0618V36.8864C338.067 37.0228 338.135 37.0909 338.272 37.0909H348.84C348.957 37.0909 349.017 37.0318 349.019 36.9137L349.021 34.9091L351.097 34.92C351.182 34.92 351.225 34.9628 351.225 35.0482V36.9546C351.225 36.9907 351.24 37.0254 351.266 37.051C351.291 37.0766 351.326 37.0909 351.362 37.0909H353.249C353.362 37.0909 353.418 37.0337 353.418 36.9191V35.0455C353.418 35.0093 353.433 34.9746 353.459 34.9491C353.484 34.9235 353.519 34.9091 353.556 34.9091H355.475C355.511 34.9091 355.546 34.8948 355.571 34.8692C355.597 34.8436 355.612 34.8089 355.612 34.7728V32.8637C355.612 32.8275 355.626 32.7928 355.652 32.7672C355.677 32.7417 355.712 32.7273 355.749 32.7273H357.668C357.759 32.7273 357.805 32.6818 357.805 32.5909V24.2046C357.805 24.0682 357.736 24 357.599 24H355.817C355.763 24 355.71 24.0216 355.672 24.0599C355.633 24.0983 355.612 24.1503 355.612 24.2046V26.0455C355.612 26.0816 355.597 26.1163 355.571 26.1419C355.546 26.1675 355.511 26.1818 355.475 26.1818H353.599C353.552 26.1818 353.507 26.2005 353.473 26.2338C353.44 26.267 353.421 26.3121 353.421 26.3591L353.418 28.1591C353.417 28.2955 353.348 28.3637 353.213 28.3637H349.238C349.101 28.3637 349.032 28.2955 349.032 28.1591V26.43C349.032 26.3649 349.006 26.3025 348.96 26.2565C348.914 26.2104 348.851 26.1846 348.786 26.1846L347.02 26.1818C346.997 26.1815 346.974 26.1858 346.952 26.1945C346.93 26.2033 346.911 26.2163 346.894 26.2328C346.878 26.2493 346.864 26.269 346.855 26.2906C346.846 26.3123 346.842 26.3356 346.842 26.3591L346.839 28.2273C346.839 28.2635 346.825 28.2982 346.799 28.3237C346.773 28.3493 346.738 28.3637 346.702 28.3637H344.852C344.715 28.3637 344.646 28.4318 344.646 28.5682V32.5909C344.646 32.6271 344.66 32.6618 344.686 32.6874C344.712 32.7129 344.747 32.7273 344.783 32.7273H348.835C348.957 32.7273 349.019 32.7882 349.019 32.91L349.021 34.9091ZM298.59 41.2719C298.59 41.2958 298.586 41.3196 298.576 41.3418C298.567 41.3639 298.554 41.3841 298.537 41.4011C298.52 41.418 298.499 41.4315 298.477 41.4407C298.455 41.4499 298.431 41.4546 298.407 41.4546H296.581C296.557 41.4546 296.533 41.4593 296.511 41.4685C296.488 41.4777 296.468 41.4911 296.451 41.5081C296.434 41.5251 296.42 41.5452 296.411 41.5674C296.402 41.5895 296.397 41.6133 296.397 41.6373V45.6355C296.397 45.6595 296.402 45.6832 296.411 45.7054C296.42 45.7276 296.434 45.7477 296.451 45.7647C296.468 45.7817 296.488 45.7951 296.511 45.8043C296.533 45.8135 296.557 45.8182 296.581 45.8182H300.6C300.649 45.8182 300.695 45.799 300.73 45.7647C300.764 45.7304 300.783 45.6839 300.783 45.6355V43.8191C300.783 43.7707 300.803 43.7242 300.837 43.6899C300.872 43.6556 300.918 43.6364 300.967 43.6364H302.793C302.842 43.6364 302.888 43.6171 302.923 43.5829C302.957 43.5486 302.977 43.5021 302.977 43.4537V39.4555C302.977 39.407 302.957 39.3605 302.923 39.3263C302.888 39.292 302.842 39.2728 302.793 39.2728H298.774C298.725 39.2728 298.679 39.292 298.644 39.3263C298.61 39.3605 298.59 39.407 298.59 39.4555V41.2719ZM342.453 43.4509C342.453 43.5001 342.433 43.5473 342.398 43.5821C342.363 43.6169 342.316 43.6364 342.266 43.6364H340.446C340.397 43.6364 340.349 43.6559 340.314 43.6907C340.279 43.7255 340.26 43.7727 340.26 43.8218V45.6328C340.26 45.6819 340.279 45.7291 340.314 45.7639C340.349 45.7987 340.397 45.8182 340.446 45.8182H344.46C344.509 45.8182 344.556 45.7987 344.591 45.7639C344.626 45.7291 344.646 45.6819 344.646 45.6328V41.6428C344.646 41.6184 344.641 41.5943 344.632 41.5718C344.622 41.5493 344.609 41.5288 344.591 41.5116C344.574 41.4944 344.554 41.4807 344.531 41.4714C344.508 41.4621 344.484 41.4573 344.46 41.4573L342.639 41.4519C342.615 41.4519 342.591 41.4566 342.568 41.466C342.545 41.4753 342.525 41.4889 342.507 41.5062C342.49 41.5234 342.476 41.5438 342.467 41.5663C342.458 41.5888 342.453 41.6129 342.453 41.6373V43.4509ZM311.748 43.8071C311.747 43.7608 311.729 43.7165 311.696 43.6838C311.663 43.6511 311.618 43.6328 311.572 43.6329L307.536 43.6399C307.513 43.6399 307.491 43.6445 307.469 43.6533C307.448 43.6621 307.429 43.675 307.412 43.6912C307.396 43.7075 307.383 43.7267 307.374 43.7479C307.366 43.7691 307.361 43.7918 307.361 43.8148L307.364 45.6475C307.365 45.6938 307.383 45.7381 307.416 45.7708C307.449 45.8035 307.494 45.8218 307.54 45.8217L311.576 45.8147C311.599 45.8147 311.621 45.8101 311.643 45.8013C311.664 45.7925 311.683 45.7796 311.7 45.7634C311.716 45.7471 311.729 45.7279 311.738 45.7067C311.746 45.6855 311.751 45.6628 311.751 45.6398L311.748 43.8071ZM333.685 43.8311C333.685 43.8061 333.68 43.7812 333.67 43.758C333.661 43.7349 333.647 43.7138 333.629 43.696C333.611 43.6783 333.59 43.6642 333.567 43.6545C333.543 43.6449 333.518 43.6399 333.493 43.6399L329.491 43.6329C329.44 43.6328 329.391 43.6529 329.355 43.6886C329.319 43.7243 329.299 43.7729 329.298 43.8235L329.295 45.6235C329.295 45.6486 329.3 45.6734 329.31 45.6966C329.319 45.7197 329.333 45.7408 329.351 45.7586C329.369 45.7763 329.39 45.7904 329.413 45.8001C329.437 45.8097 329.462 45.8147 329.487 45.8148L333.489 45.8217C333.54 45.8218 333.589 45.8017 333.625 45.766C333.661 45.7303 333.681 45.6818 333.682 45.6311L333.685 43.8311Z" fill="#1E1A44"/>
<path d="M338.067 15.2615L338.05 13.276C338.048 13.1651 337.992 13.1096 337.88 13.1096L335.873 13.1015L335.857 11.0887C335.857 11.041 335.838 10.9952 335.804 10.9615C335.77 10.9277 335.724 10.9087 335.676 10.9087H329.475C329.428 10.9087 329.382 10.8901 329.349 10.8568C329.316 10.8236 329.297 10.7785 329.297 10.7315L329.294 8.93146C329.292 8.7951 329.224 8.72692 329.088 8.72692H327.307C327.169 8.72692 327.101 8.7951 327.101 8.93146V10.7724C327.101 10.8633 327.147 10.9087 327.238 10.9087H329.157C329.248 10.9087 329.294 10.9542 329.294 11.0451V12.7496C329.294 12.7944 329.285 12.8387 329.268 12.8801C329.251 12.9215 329.226 12.959 329.194 12.9907C329.162 13.0224 329.124 13.0475 329.083 13.0646C329.041 13.0817 328.996 13.0906 328.951 13.0906H327.307C327.169 13.0906 327.101 13.1587 327.101 13.2951V17.2496C327.101 17.3039 327.079 17.3559 327.041 17.3943C327.002 17.4326 326.95 17.4542 326.895 17.4542H325.113C324.976 17.4542 324.908 17.5224 324.908 17.6587V32.5224C324.908 32.6587 324.976 32.7269 325.113 32.7269H326.931C327.044 32.7269 327.101 32.7842 327.101 32.8987V34.7042C327.101 34.7584 327.123 34.8105 327.161 34.8488C327.2 34.8872 327.252 34.9087 327.307 34.9087H329.157C329.248 34.9087 329.294 34.9542 329.294 35.0451V36.9215C329.294 36.9663 329.312 37.0093 329.344 37.041C329.376 37.0727 329.419 37.0905 329.464 37.0906H331.35C331.441 37.0906 331.487 37.136 331.487 37.2269V39.0678C331.487 39.2042 331.556 39.2724 331.693 39.2724H342.316C342.407 39.2724 342.453 39.3178 342.453 39.4087L342.45 41.2769C342.45 41.3239 342.431 41.369 342.398 41.4023C342.364 41.4355 342.319 41.4542 342.272 41.4542H305.375C305.321 41.4542 305.268 41.4326 305.23 41.3943C305.191 41.3559 305.17 41.3039 305.17 41.2496V39.4087C305.17 39.3726 305.155 39.3379 305.13 39.3123C305.104 39.2867 305.069 39.2724 305.033 39.2724H303.251C303.178 39.2724 303.108 39.2436 303.057 39.1925C303.005 39.1413 302.977 39.072 302.977 38.9996V6.88601C302.977 6.79606 303.013 6.70976 303.077 6.64591C303.141 6.58205 303.228 6.54582 303.319 6.5451L304.991 6.54237C305.038 6.54237 305.083 6.52377 305.117 6.49061C305.15 6.45744 305.169 6.41236 305.17 6.3651L305.172 4.54055C305.172 4.49354 305.191 4.44845 305.225 4.4152C305.258 4.38196 305.303 4.36328 305.351 4.36328H342.247C342.302 4.36328 342.354 4.38483 342.393 4.42319C342.431 4.46155 342.453 4.51358 342.453 4.56783V6.40874C342.453 6.4449 342.467 6.47959 342.493 6.50516C342.519 6.53073 342.554 6.5451 342.59 6.5451H344.44C344.577 6.5451 344.646 6.61328 344.646 6.74964V15.1278C344.646 15.2151 344.602 15.2587 344.514 15.2587L338.067 15.2615ZM322.711 8.88676C322.711 8.86527 322.707 8.84401 322.699 8.82418C322.69 8.80436 322.678 8.78636 322.663 8.77122C322.648 8.75608 322.629 8.74409 322.609 8.73594C322.589 8.72778 322.568 8.72362 322.546 8.7237L320.682 8.73016C320.661 8.73024 320.639 8.73455 320.619 8.74284C320.599 8.75113 320.581 8.76325 320.566 8.7785C320.551 8.79374 320.539 8.81182 320.531 8.83171C320.522 8.85159 320.518 8.87288 320.518 8.89437L320.525 10.7489C320.525 10.7704 320.529 10.7916 320.538 10.8115C320.546 10.8313 320.558 10.8493 320.573 10.8644C320.589 10.8796 320.607 10.8916 320.627 10.8997C320.647 10.9079 320.668 10.912 320.69 10.912L322.554 10.9055C322.576 10.9054 322.597 10.9011 322.617 10.8928C322.637 10.8845 322.655 10.8724 322.67 10.8572C322.685 10.8419 322.697 10.8238 322.706 10.8039C322.714 10.7841 322.718 10.7628 322.718 10.7413L322.711 8.88676ZM311.746 11.0686C311.746 11.0471 311.741 11.0258 311.733 11.006C311.725 10.9862 311.713 10.9682 311.697 10.953C311.682 10.9379 311.664 10.9259 311.644 10.9178C311.624 10.9096 311.602 10.9054 311.581 10.9055L309.717 10.912C309.695 10.9121 309.674 10.9164 309.654 10.9247C309.634 10.9329 309.616 10.9451 309.6 10.9603C309.585 10.9756 309.573 10.9936 309.565 11.0135C309.557 11.0334 309.553 11.0547 309.553 11.0762L309.559 12.9307C309.559 12.9522 309.564 12.9735 309.572 12.9933C309.58 13.0131 309.592 13.0311 309.608 13.0462C309.623 13.0614 309.641 13.0734 309.661 13.0815C309.681 13.0897 309.703 13.0938 309.724 13.0938L311.588 13.0873C311.61 13.0872 311.631 13.0829 311.651 13.0746C311.671 13.0663 311.689 13.0542 311.705 13.039C311.72 13.0237 311.732 13.0056 311.74 12.9858C311.748 12.9659 311.752 12.9446 311.752 12.9231L311.746 11.0686ZM320.518 19.7959C320.518 19.7744 320.514 19.7531 320.506 19.7333C320.497 19.7135 320.485 19.6955 320.47 19.6803C320.454 19.6652 320.436 19.6532 320.416 19.645C320.396 19.6369 320.375 19.6327 320.353 19.6328L318.489 19.6393C318.467 19.6393 318.446 19.6436 318.426 19.6519C318.406 19.6602 318.388 19.6723 318.373 19.6876C318.358 19.7028 318.346 19.7209 318.338 19.7408C318.329 19.7607 318.325 19.782 318.325 19.8035L318.332 21.658C318.332 21.6795 318.336 21.7007 318.344 21.7206C318.353 21.7404 318.365 21.7584 318.38 21.7735C318.396 21.7887 318.414 21.8007 318.434 21.8088C318.454 21.817 318.475 21.8211 318.497 21.821L320.361 21.8146C320.382 21.8145 320.404 21.8102 320.424 21.8019C320.444 21.7936 320.462 21.7815 320.477 21.7662C320.492 21.751 320.504 21.7329 320.512 21.713C320.521 21.6932 320.525 21.6719 320.525 21.6504L320.518 19.7959ZM313.939 24.1595C313.939 24.138 313.935 24.1167 313.926 24.0969C313.918 24.0771 313.906 24.0591 313.89 24.0439C313.875 24.0288 313.857 24.0168 313.837 24.0087C313.817 24.0005 313.795 23.9963 313.774 23.9964L311.91 24.0029C311.888 24.003 311.867 24.0073 311.847 24.0156C311.827 24.0239 311.809 24.036 311.794 24.0512C311.778 24.0665 311.766 24.0846 311.758 24.1044C311.75 24.1243 311.746 24.1456 311.746 24.1671L311.752 26.0216C311.752 26.0431 311.757 26.0644 311.765 26.0842C311.773 26.104 311.786 26.122 311.801 26.1372C311.816 26.1523 311.834 26.1643 311.854 26.1724C311.874 26.1806 311.896 26.1848 311.917 26.1847L313.782 26.1782C313.803 26.1781 313.824 26.1738 313.844 26.1655C313.864 26.1572 313.882 26.1451 313.898 26.1299C313.913 26.1146 313.925 26.0966 313.933 26.0767C313.941 26.0568 313.946 26.0355 313.945 26.014L313.939 24.1595ZM322.711 26.3413C322.711 26.3198 322.707 26.2986 322.699 26.2787C322.69 26.2589 322.678 26.2409 322.663 26.2258C322.648 26.2106 322.629 26.1986 322.609 26.1905C322.589 26.1823 322.568 26.1782 322.546 26.1782L320.682 26.1847C320.661 26.1848 320.639 26.1891 320.619 26.1974C320.599 26.2057 320.581 26.2178 320.566 26.233C320.551 26.2483 320.539 26.2664 320.531 26.2863C320.522 26.3061 320.518 26.3274 320.518 26.3489L320.525 28.2034C320.525 28.2249 320.529 28.2462 320.538 28.266C320.546 28.2858 320.558 28.3038 320.573 28.319C320.589 28.3341 320.607 28.3461 320.627 28.3543C320.647 28.3624 320.668 28.3666 320.69 28.3665L322.554 28.36C322.576 28.36 322.597 28.3557 322.617 28.3474C322.637 28.3391 322.655 28.327 322.67 28.3117C322.685 28.2965 322.697 28.2784 322.706 28.2585C322.714 28.2386 322.718 28.2173 322.718 28.1958L322.711 26.3413ZM309.553 28.5231C309.553 28.5016 309.548 28.4804 309.54 28.4605C309.532 28.4407 309.519 28.4227 309.504 28.4076C309.489 28.3924 309.471 28.3805 309.451 28.3723C309.431 28.3641 309.409 28.36 309.388 28.3601L307.523 28.3665C307.502 28.3666 307.481 28.3709 307.461 28.3792C307.441 28.3875 307.423 28.3996 307.407 28.4149C307.392 28.4301 307.38 28.4482 307.372 28.4681C307.364 28.488 307.359 28.5092 307.36 28.5307L307.366 30.3853C307.366 30.4067 307.37 30.428 307.379 30.4478C307.387 30.4677 307.399 30.4857 307.415 30.5008C307.43 30.5159 307.448 30.5279 307.468 30.5361C307.488 30.5442 307.51 30.5484 307.531 30.5483L309.395 30.5419C309.417 30.5418 309.438 30.5375 309.458 30.5292C309.478 30.5209 309.496 30.5088 309.511 30.4935C309.527 30.4783 309.539 30.4602 309.547 30.4403C309.555 30.4204 309.559 30.3991 309.559 30.3776L309.553 28.5231ZM318.325 32.8868C318.325 32.8653 318.321 32.844 318.312 32.8242C318.304 32.8044 318.292 32.7864 318.277 32.7712C318.261 32.7561 318.243 32.7441 318.223 32.7359C318.203 32.7278 318.182 32.7236 318.16 32.7237L316.296 32.7302C316.274 32.7302 316.253 32.7345 316.233 32.7428C316.213 32.7511 316.195 32.7632 316.18 32.7785C316.165 32.7937 316.153 32.8118 316.144 32.8317C316.136 32.8516 316.132 32.8729 316.132 32.8944L316.139 34.7489C316.139 34.7704 316.143 34.7916 316.151 34.8115C316.16 34.8313 316.172 34.8493 316.187 34.8644C316.202 34.8796 316.221 34.8916 316.241 34.8997C316.261 34.9079 316.282 34.912 316.304 34.912L318.168 34.9055C318.189 34.9054 318.211 34.9011 318.231 34.8928C318.251 34.8845 318.269 34.8724 318.284 34.8572C318.299 34.8419 318.311 34.8238 318.319 34.8039C318.328 34.7841 318.332 34.7628 318.332 34.7413L318.325 32.8868ZM311.746 35.0686C311.746 35.0471 311.741 35.0258 311.733 35.006C311.725 34.9862 311.713 34.9682 311.697 34.953C311.682 34.9379 311.664 34.9259 311.644 34.9178C311.624 34.9096 311.602 34.9054 311.581 34.9055L309.717 34.912C309.695 34.9121 309.674 34.9164 309.654 34.9247C309.634 34.9329 309.616 34.9451 309.6 34.9603C309.585 34.9756 309.573 34.9936 309.565 35.0135C309.557 35.0334 309.553 35.0547 309.553 35.0762L309.559 36.9307C309.559 36.9522 309.564 36.9735 309.572 36.9933C309.58 37.0131 309.592 37.0311 309.608 37.0462C309.623 37.0614 309.641 37.0734 309.661 37.0815C309.681 37.0897 309.703 37.0938 309.724 37.0938L311.588 37.0873C311.61 37.0872 311.631 37.0829 311.651 37.0746C311.671 37.0663 311.689 37.0542 311.705 37.039C311.72 37.0237 311.732 37.0056 311.74 36.9858C311.748 36.9659 311.752 36.9446 311.752 36.9231L311.746 35.0686Z" fill="#4A30B6"/>
<path d="M300.784 8.73027L300.781 15.2648L281.194 15.273C281.095 15.2748 281.046 15.3239 281.046 15.4203V17.2503C281.046 17.3045 281.024 17.3565 280.986 17.3949C280.947 17.4333 280.895 17.4548 280.84 17.4548H254.934C254.797 17.4548 254.728 17.3866 254.728 17.2503V15.4775C254.728 15.4233 254.707 15.3713 254.668 15.3329C254.63 15.2945 254.577 15.273 254.523 15.273H228.616C228.479 15.273 228.411 15.3412 228.411 15.4775V17.2503C228.411 17.3045 228.389 17.3565 228.351 17.3949C228.312 17.4333 228.26 17.4548 228.205 17.4548H202.299C202.162 17.4548 202.093 17.3866 202.093 17.2503V15.4775C202.093 15.4233 202.072 15.3713 202.033 15.3329C201.995 15.2945 201.942 15.273 201.888 15.273H175.981C175.844 15.273 175.776 15.3412 175.776 15.4775V17.2503C175.776 17.3045 175.754 17.3565 175.716 17.3949C175.677 17.4333 175.625 17.4548 175.57 17.4548H149.664C149.527 17.4548 149.458 17.3866 149.458 17.2503V15.4775C149.458 15.4233 149.437 15.3713 149.398 15.3329C149.36 15.2945 149.307 15.273 149.253 15.273H123.346C123.209 15.273 123.141 15.3412 123.141 15.4775V17.2503C123.141 17.3045 123.119 17.3565 123.081 17.3949C123.042 17.4333 122.99 17.4548 122.935 17.4548H97.029C96.8919 17.4548 96.8234 17.3866 96.8234 17.2503V15.4775C96.8234 15.4233 96.8017 15.3713 96.7631 15.3329C96.7246 15.2945 96.6723 15.273 96.6177 15.273H70.7115C70.5744 15.273 70.5059 15.3412 70.5059 15.4775V17.2503C70.5059 17.3045 70.4842 17.3565 70.4456 17.3949C70.4071 17.4333 70.3548 17.4548 70.3003 17.4548H44.394C44.2569 17.4548 44.1884 17.3866 44.1884 17.2503V15.4775C44.1884 15.4233 44.1667 15.3713 44.1281 15.3329C44.0896 15.2945 44.0373 15.273 43.9828 15.273H18.0765C17.9394 15.273 17.8709 15.3412 17.8709 15.4775V17.2503C17.8709 17.3045 17.8492 17.3565 17.8107 17.3949C17.7721 17.4333 17.7198 17.4548 17.6653 17.4548H-8.24101C-8.37808 17.4548 -8.44661 17.3866 -8.44661 17.2503V15.4775C-8.44661 15.4233 -8.46828 15.3713 -8.50684 15.3329C-8.54539 15.2945 -8.59769 15.273 -8.65222 15.273H-34.5585C-34.6956 15.273 -34.7641 15.3412 -34.7641 15.4775V17.2503C-34.7641 17.3045 -34.7858 17.3565 -34.8243 17.3949C-34.8629 17.4333 -34.9152 17.4548 -34.9697 17.4548H-60.876C-61.0131 17.4548 -61.0816 17.3866 -61.0816 17.2503V15.4775C-61.0816 15.4233 -61.1033 15.3713 -61.1418 15.3329C-61.1804 15.2945 -61.2327 15.273 -61.2872 15.273H-87.1935C-87.3306 15.273 -87.3991 15.3412 -87.3991 15.4775V17.2503C-87.3991 17.3045 -87.4207 17.3565 -87.4593 17.3949C-87.4979 17.4333 -87.5502 17.4548 -87.6047 17.4548H-113.511C-113.648 17.4548 -113.717 17.3866 -113.717 17.2503V15.4775C-113.717 15.4233 -113.738 15.3713 -113.777 15.3329C-113.815 15.2945 -113.868 15.273 -113.922 15.273H-139.828C-139.966 15.273 -140.034 15.3412 -140.034 15.4775V17.2557C-140.034 17.3078 -140.055 17.3577 -140.092 17.3946C-140.129 17.4314 -140.179 17.4521 -140.231 17.4521H-166.352V10.9066H-140.231C-140.179 10.9066 -140.129 10.8859 -140.092 10.8491C-140.055 10.8123 -140.034 10.7623 -140.034 10.7103V8.93208C-140.034 8.79572 -139.966 8.72754 -139.828 8.72754H-114.059C-114.014 8.72754 -113.97 8.73636 -113.928 8.75349C-113.887 8.77062 -113.849 8.79573 -113.817 8.82739C-113.785 8.85905 -113.76 8.89663 -113.743 8.93799C-113.725 8.97935 -113.717 9.02368 -113.717 9.06845V10.7048C-113.717 10.8412 -113.648 10.9094 -113.511 10.9094H-87.6047C-87.5502 10.9094 -87.4979 10.8878 -87.4593 10.8494C-87.4207 10.8111 -87.3991 10.7591 -87.3991 10.7048V8.93208C-87.3991 8.79572 -87.3306 8.72754 -87.1935 8.72754H-61.4243C-61.3793 8.72754 -61.3347 8.73636 -61.2931 8.75349C-61.2516 8.77062 -61.2138 8.79573 -61.182 8.82739C-61.1501 8.85905 -61.1249 8.89663 -61.1077 8.93799C-61.0905 8.97935 -61.0816 9.02368 -61.0816 9.06845V10.7375C-61.0816 10.8521 -61.024 10.9094 -60.9089 10.9094H-34.9697C-34.9152 10.9094 -34.8629 10.8878 -34.8243 10.8494C-34.7858 10.8111 -34.7641 10.7591 -34.7641 10.7048V8.93208C-34.7641 8.79572 -34.6956 8.72754 -34.5585 8.72754H-8.78929C-8.69841 8.72754 -8.61124 8.76346 -8.54697 8.82739C-8.48271 8.89132 -8.44661 8.97803 -8.44661 9.06845V10.7375C-8.44661 10.8521 -8.38904 10.9094 -8.27391 10.9094H17.6653C17.7198 10.9094 17.7721 10.8878 17.8107 10.8494C17.8492 10.8111 17.8709 10.7591 17.8709 10.7048V8.93208C17.8709 8.79572 17.9394 8.72754 18.0765 8.72754H43.8457C43.8907 8.72754 43.9352 8.73636 43.9768 8.75349C44.0184 8.77062 44.0562 8.79573 44.088 8.82739C44.1198 8.85905 44.1451 8.89663 44.1623 8.93799C44.1795 8.97935 44.1884 9.02368 44.1884 9.06845V10.7048C44.1884 10.8412 44.2569 10.9094 44.394 10.9094H70.3003C70.3548 10.9094 70.4071 10.8878 70.4456 10.8494C70.4842 10.8111 70.5059 10.7591 70.5059 10.7048V8.93208C70.5059 8.79572 70.5744 8.72754 70.7115 8.72754H96.4807C96.5716 8.72754 96.6587 8.76346 96.723 8.82739C96.7873 8.89132 96.8234 8.97803 96.8234 9.06845V10.7375C96.8234 10.8521 96.8809 10.9094 96.9961 10.9094H122.935C122.99 10.9094 123.042 10.8878 123.081 10.8494C123.119 10.8111 123.141 10.7591 123.141 10.7048V8.93208C123.141 8.79572 123.209 8.72754 123.346 8.72754H149.116C149.207 8.72754 149.294 8.76346 149.358 8.82739C149.422 8.89132 149.458 8.97803 149.458 9.06845V10.7048C149.458 10.8412 149.527 10.9094 149.664 10.9094H175.57C175.625 10.9094 175.677 10.8878 175.716 10.8494C175.754 10.8111 175.776 10.7591 175.776 10.7048V8.93208C175.776 8.79572 175.844 8.72754 175.981 8.72754H201.751C201.842 8.72754 201.929 8.76346 201.993 8.82739C202.057 8.89132 202.093 8.97803 202.093 9.06845V10.7375C202.093 10.8521 202.151 10.9094 202.266 10.9094H228.205C228.26 10.9094 228.312 10.8878 228.351 10.8494C228.389 10.8111 228.411 10.7591 228.411 10.7048V8.93208C228.411 8.79572 228.479 8.72754 228.616 8.72754H254.386C254.431 8.72754 254.475 8.73636 254.517 8.75349C254.558 8.77062 254.596 8.79573 254.628 8.82739C254.66 8.85905 254.685 8.89663 254.702 8.93799C254.719 8.97935 254.728 9.02368 254.728 9.06845V10.7375C254.728 10.8521 254.786 10.9094 254.901 10.9094H280.84C280.895 10.9094 280.947 10.8878 280.986 10.8494C281.024 10.8111 281.046 10.7591 281.046 10.7048V8.87481C281.046 8.77845 281.094 8.73027 281.191 8.73027H300.784Z" fill="#DF95F3"/>
<path d="M322.552 8.7244L320.688 8.73087C320.597 8.73119 320.524 8.80471 320.524 8.89508L320.531 10.7496C320.531 10.84 320.605 10.913 320.696 10.9127L322.56 10.9062C322.651 10.9059 322.724 10.8324 322.724 10.742L322.717 8.88746C322.717 8.79709 322.643 8.72409 322.552 8.7244Z" fill="#1E1A44"/>
<path d="M311.583 10.906L309.719 10.9125C309.628 10.9128 309.555 10.9863 309.555 11.0767L309.562 12.9313C309.562 13.0216 309.636 13.0946 309.727 13.0943L311.591 13.0878C311.682 13.0875 311.755 13.014 311.755 12.9236L311.748 11.0691C311.748 10.9787 311.674 10.9057 311.583 10.906Z" fill="#1E1A44"/>
<path d="M335.874 13.1017L335.891 15.0872C335.892 15.1981 335.949 15.2535 336.06 15.2535L338.067 15.2617L338.081 17.2745C338.081 17.3945 338.141 17.4545 338.262 17.4545H346.703C346.794 17.4545 346.84 17.409 346.84 17.3181V15.409C346.84 15.3728 346.854 15.3382 346.88 15.3126C346.906 15.287 346.94 15.2726 346.977 15.2726H348.896C348.932 15.2726 348.967 15.2583 348.993 15.2327C349.018 15.2071 349.033 15.1724 349.033 15.1363L349.036 13.2681C349.036 13.2211 349.054 13.176 349.088 13.1427C349.121 13.1095 349.166 13.0908 349.214 13.0908H355.434C355.481 13.0908 355.527 13.1098 355.56 13.1435C355.593 13.1773 355.612 13.2231 355.612 13.2708V19.4317C355.612 19.486 355.634 19.538 355.672 19.5764C355.711 19.6147 355.763 19.6363 355.818 19.6363H357.633C357.748 19.6363 357.805 19.6926 357.805 19.8054V21.6654C357.805 21.7708 357.752 21.8235 357.646 21.8235L353.405 21.8345L351.245 21.8263L338.056 21.8208L335.88 21.8317L327.25 21.8263C327.151 21.8263 327.102 21.7763 327.102 21.6763L327.104 19.8135C327.104 19.767 327.123 19.7223 327.156 19.6892C327.19 19.656 327.235 19.637 327.283 19.6363L329.116 19.6335C329.164 19.6335 329.209 19.6149 329.242 19.5816C329.276 19.5484 329.295 19.5033 329.295 19.4563V13.2326C329.295 13.1472 329.338 13.1045 329.424 13.1045L335.874 13.1017ZM335.878 15.4837C335.878 15.4295 335.856 15.3774 335.818 15.339C335.779 15.3006 335.727 15.2789 335.672 15.2788L331.697 15.2719C331.643 15.2718 331.59 15.2933 331.552 15.3316C331.513 15.3699 331.491 15.4218 331.491 15.4761L331.484 19.4306C331.484 19.4849 331.506 19.5369 331.544 19.5754C331.583 19.6138 331.635 19.6354 331.69 19.6355L335.665 19.6424C335.719 19.6425 335.771 19.6211 335.81 19.5828C335.849 19.5445 335.87 19.4925 335.871 19.4383L335.878 15.4837ZM353.416 15.457C353.415 15.4071 353.395 15.3593 353.36 15.3241C353.324 15.2888 353.276 15.2691 353.226 15.2692L349.218 15.2761C349.168 15.2762 349.12 15.2961 349.084 15.3315C349.049 15.3668 349.029 15.4147 349.029 15.4646L349.036 19.4519C349.036 19.5018 349.056 19.5496 349.092 19.5849C349.128 19.6201 349.176 19.6398 349.226 19.6397L353.234 19.6328C353.284 19.6327 353.332 19.6128 353.367 19.5774C353.403 19.5421 353.423 19.4942 353.423 19.4443L353.416 15.457Z" fill="#4A30B6"/>
<rect x="346.844" y="19.6367" width="9.04664" height="2.18182" fill="#36D6DA"/>
<rect x="324.906" y="21.8186" width="35.09" height="2.18182" fill="#36D6DA"/>
<rect x="331.484" y="19.6367" width="9.04664" height="2.18182" fill="#36D6DA"/>
<rect x="327.102" y="24" width="30.7037" height="4.36364" fill="#36D6DA"/>
<path d="M335.875 13.1016L337.882 13.1097C337.993 13.1097 338.05 13.1652 338.052 13.2761L338.068 15.2616L336.061 15.2534C335.95 15.2534 335.893 15.1979 335.891 15.087L335.875 13.1016Z" fill="#1E1A44"/>
<path d="M300.781 15.2646V19.4974C300.781 19.5343 300.767 19.5696 300.741 19.5957C300.715 19.6218 300.681 19.6365 300.644 19.6365H296.535C296.443 19.6365 296.398 19.6819 296.398 19.7728V21.6246C296.398 21.676 296.377 21.7253 296.341 21.7616C296.304 21.7979 296.255 21.8183 296.203 21.8183L294.196 21.821H281.232C281.108 21.821 281.046 21.8837 281.046 22.0092V23.7956C281.046 23.8498 281.024 23.9018 280.986 23.9402C280.947 23.9786 280.895 24.0001 280.84 24.0001H254.934C254.797 24.0001 254.728 23.9319 254.728 23.7956V22.0228C254.728 21.9686 254.707 21.9166 254.668 21.8782C254.63 21.8398 254.577 21.8183 254.523 21.8183H228.617C228.479 21.8183 228.411 21.8865 228.411 22.0228V23.7956C228.411 23.8498 228.389 23.9018 228.351 23.9402C228.312 23.9786 228.26 24.0001 228.205 24.0001H202.299C202.162 24.0001 202.093 23.9319 202.093 23.7956V22.0228C202.093 21.9686 202.072 21.9166 202.033 21.8782C201.995 21.8398 201.942 21.8183 201.888 21.8183H175.982C175.844 21.8183 175.776 21.8865 175.776 22.0228V23.7956C175.776 23.8498 175.754 23.9018 175.716 23.9402C175.677 23.9786 175.625 24.0001 175.57 24.0001H149.664C149.527 24.0001 149.458 23.9319 149.458 23.7956V22.0228C149.458 21.9686 149.437 21.9166 149.398 21.8782C149.36 21.8398 149.307 21.8183 149.253 21.8183H123.347C123.209 21.8183 123.141 21.8865 123.141 22.0228V23.7956C123.141 23.8498 123.119 23.9018 123.081 23.9402C123.042 23.9786 122.99 24.0001 122.935 24.0001H97.029C96.8919 24.0001 96.8234 23.9319 96.8234 23.7956V22.0228C96.8234 21.9686 96.8018 21.9166 96.7632 21.8782C96.7246 21.8398 96.6723 21.8183 96.6178 21.8183H70.7115C70.5744 21.8183 70.5059 21.8865 70.5059 22.0228V23.7956C70.5059 23.8498 70.4843 23.9018 70.4457 23.9402C70.4071 23.9786 70.3548 24.0001 70.3003 24.0001H44.394C44.257 24.0001 44.1884 23.9319 44.1884 23.7956V22.0228C44.1884 21.9686 44.1667 21.9166 44.1282 21.8782C44.0896 21.8398 44.0373 21.8183 43.9828 21.8183H18.0765C17.9395 21.8183 17.8709 21.8865 17.8709 22.0228V23.7956C17.8709 23.8498 17.8493 23.9018 17.8107 23.9402C17.7721 23.9786 17.7198 24.0001 17.6653 24.0001H-8.24097C-8.37804 24.0001 -8.44658 23.9319 -8.44658 23.7956V22.0228C-8.44658 21.9686 -8.46825 21.9166 -8.50681 21.8782C-8.54535 21.8398 -8.59766 21.8183 -8.65219 21.8183H-34.5585C-34.6955 21.8183 -34.7641 21.8865 -34.7641 22.0228V23.7956C-34.7641 23.8498 -34.7857 23.9018 -34.8243 23.9402C-34.8629 23.9786 -34.9151 24.0001 -34.9697 24.0001H-60.876C-61.013 24.0001 -61.0816 23.9319 -61.0816 23.7956V22.0228C-61.0816 21.9686 -61.1032 21.9166 -61.1418 21.8782C-61.1804 21.8398 -61.2327 21.8183 -61.2872 21.8183H-87.1935C-87.3305 21.8183 -87.3991 21.8865 -87.3991 22.0228V23.7956C-87.3991 23.8498 -87.4207 23.9018 -87.4593 23.9402C-87.4978 23.9786 -87.5501 24.0001 -87.6047 24.0001H-113.511C-113.648 24.0001 -113.717 23.9319 -113.717 23.7956V22.0228C-113.717 21.9686 -113.738 21.9166 -113.777 21.8782C-113.815 21.8398 -113.868 21.8183 -113.922 21.8183H-139.828C-139.966 21.8183 -140.034 21.8865 -140.034 22.0228V23.7983C-140.034 23.8518 -140.055 23.9031 -140.093 23.941C-140.132 23.9788 -140.183 24.0001 -140.237 24.0001L-166.352 23.9946V17.4519H-140.231C-140.179 17.4519 -140.129 17.4312 -140.092 17.3944C-140.055 17.3576 -140.034 17.3076 -140.034 17.2556V15.4774C-140.034 15.341 -139.966 15.2728 -139.828 15.2728H-113.922C-113.868 15.2728 -113.815 15.2944 -113.777 15.3327C-113.738 15.3711 -113.717 15.4231 -113.717 15.4774V17.2501C-113.717 17.3865 -113.648 17.4546 -113.511 17.4546H-87.6047C-87.5501 17.4546 -87.4978 17.4331 -87.4593 17.3947C-87.4207 17.3564 -87.3991 17.3044 -87.3991 17.2501V15.4774C-87.3991 15.341 -87.3305 15.2728 -87.1935 15.2728H-61.2872C-61.2327 15.2728 -61.1804 15.2944 -61.1418 15.3327C-61.1032 15.3711 -61.0816 15.4231 -61.0816 15.4774V17.2501C-61.0816 17.3865 -61.013 17.4546 -60.876 17.4546H-34.9697C-34.9151 17.4546 -34.8629 17.4331 -34.8243 17.3947C-34.7857 17.3564 -34.7641 17.3044 -34.7641 17.2501V15.4774C-34.7641 15.341 -34.6955 15.2728 -34.5585 15.2728H-8.65219C-8.59766 15.2728 -8.54535 15.2944 -8.50681 15.3327C-8.46825 15.3711 -8.44658 15.4231 -8.44658 15.4774V17.2501C-8.44658 17.3865 -8.37804 17.4546 -8.24097 17.4546H17.6653C17.7198 17.4546 17.7721 17.4331 17.8107 17.3947C17.8493 17.3564 17.8709 17.3044 17.8709 17.2501V15.4774C17.8709 15.341 17.9395 15.2728 18.0765 15.2728H43.9828C44.0373 15.2728 44.0896 15.2944 44.1282 15.3327C44.1667 15.3711 44.1884 15.4231 44.1884 15.4774V17.2501C44.1884 17.3865 44.257 17.4546 44.394 17.4546H70.3003C70.3548 17.4546 70.4071 17.4331 70.4457 17.3947C70.4843 17.3564 70.5059 17.3044 70.5059 17.2501V15.4774C70.5059 15.341 70.5744 15.2728 70.7115 15.2728H96.6178C96.6723 15.2728 96.7246 15.2944 96.7632 15.3327C96.8018 15.3711 96.8234 15.4231 96.8234 15.4774V17.2501C96.8234 17.3865 96.8919 17.4546 97.029 17.4546H122.935C122.99 17.4546 123.042 17.4331 123.081 17.3947C123.119 17.3564 123.141 17.3044 123.141 17.2501V15.4774C123.141 15.341 123.209 15.2728 123.347 15.2728H149.253C149.307 15.2728 149.36 15.2944 149.398 15.3327C149.437 15.3711 149.458 15.4231 149.458 15.4774V17.2501C149.458 17.3865 149.527 17.4546 149.664 17.4546H175.57C175.625 17.4546 175.677 17.4331 175.716 17.3947C175.754 17.3564 175.776 17.3044 175.776 17.2501V15.4774C175.776 15.341 175.844 15.2728 175.982 15.2728H201.888C201.942 15.2728 201.995 15.2944 202.033 15.3327C202.072 15.3711 202.093 15.4231 202.093 15.4774V17.2501C202.093 17.3865 202.162 17.4546 202.299 17.4546H228.205C228.26 17.4546 228.312 17.4331 228.351 17.3947C228.389 17.3564 228.411 17.3044 228.411 17.2501V15.4774C228.411 15.341 228.479 15.2728 228.617 15.2728H254.523C254.577 15.2728 254.63 15.2944 254.668 15.3327C254.707 15.3711 254.728 15.4231 254.728 15.4774V17.2501C254.728 17.3865 254.797 17.4546 254.934 17.4546H280.84C280.895 17.4546 280.947 17.4331 280.986 17.3947C281.024 17.3564 281.046 17.3044 281.046 17.2501V15.4201C281.046 15.3237 281.095 15.2746 281.194 15.2728L300.781 15.2646Z" fill="#AA63BC"/>
<path d="M335.673 15.2787L331.698 15.2718C331.584 15.2716 331.492 15.3631 331.492 15.476L331.485 19.4306C331.485 19.5435 331.577 19.6353 331.69 19.6355L335.665 19.6424C335.779 19.6426 335.871 19.5512 335.871 19.4382L335.878 15.4836C335.878 15.3707 335.786 15.2789 335.673 15.2787Z" fill="#5637D3"/>
<path d="M353.228 15.2691L349.22 15.276C349.116 15.2762 349.031 15.3606 349.032 15.4645L349.039 19.4518C349.039 19.5557 349.124 19.6399 349.228 19.6397L353.236 19.6327C353.34 19.6325 353.425 19.5481 353.425 19.4442L353.418 15.4569C353.418 15.353 353.333 15.2689 353.228 15.2691Z" fill="#5637D3"/>
<path d="M320.357 19.6336L318.493 19.6401C318.402 19.6404 318.328 19.7139 318.329 19.8043L318.335 21.6588C318.336 21.7492 318.409 21.8222 318.5 21.8219L320.364 21.8154C320.455 21.8151 320.529 21.7416 320.528 21.6512L320.522 19.7966C320.521 19.7063 320.448 19.6333 320.357 19.6336Z" fill="#1E1A44"/>
<path d="M294.196 21.8211L294.207 26.0456C294.207 26.1365 294.253 26.182 294.344 26.182H296.198C296.316 26.182 296.375 26.2411 296.373 26.3593L296.351 28.3584L281.194 28.3665C281.095 28.3665 281.046 28.4156 281.046 28.5138V30.3411C281.046 30.3953 281.024 30.4474 280.986 30.4857C280.947 30.5241 280.895 30.5456 280.84 30.5456H254.898C254.785 30.5456 254.728 30.4884 254.728 30.3738V28.6011C254.728 28.5382 254.703 28.4778 254.658 28.4333C254.614 28.3888 254.553 28.3638 254.49 28.3638H228.616C228.479 28.3638 228.411 28.432 228.411 28.5684V30.3411C228.411 30.3953 228.389 30.4474 228.351 30.4857C228.312 30.5241 228.26 30.5456 228.205 30.5456H202.263C202.15 30.5456 202.093 30.4884 202.093 30.3738V28.6365C202.093 28.5642 202.064 28.4948 202.013 28.4437C201.962 28.3925 201.892 28.3638 201.819 28.3638H175.981C175.844 28.3638 175.776 28.432 175.776 28.5684V30.3411C175.776 30.3953 175.754 30.4474 175.716 30.4857C175.677 30.5241 175.625 30.5456 175.57 30.5456H149.628C149.515 30.5456 149.458 30.4884 149.458 30.3738V28.6011C149.458 28.5382 149.433 28.4778 149.388 28.4333C149.344 28.3888 149.283 28.3638 149.22 28.3638H123.346C123.209 28.3638 123.141 28.432 123.141 28.5684V30.3411C123.141 30.3953 123.119 30.4474 123.081 30.4857C123.042 30.5241 122.99 30.5456 122.935 30.5456H96.9933C96.88 30.5456 96.8234 30.4884 96.8234 30.3738V28.6011C96.8234 28.5382 96.7979 28.4778 96.7527 28.4333C96.7075 28.3888 96.6461 28.3638 96.5821 28.3638H70.7115C70.5744 28.3638 70.5059 28.432 70.5059 28.5684V30.3411C70.5059 30.3953 70.4842 30.4474 70.4456 30.4857C70.4071 30.5241 70.3548 30.5456 70.3003 30.5456H44.3583C44.245 30.5456 44.1884 30.4884 44.1884 30.3738V28.6365C44.1884 28.5642 44.1595 28.4948 44.1081 28.4437C44.0567 28.3925 43.9869 28.3638 43.9142 28.3638H18.0765C17.9394 28.3638 17.8709 28.432 17.8709 28.5684V30.3411C17.8709 30.3953 17.8492 30.4474 17.8107 30.4857C17.7721 30.5241 17.7198 30.5456 17.6653 30.5456H-8.27664C-8.38995 30.5456 -8.44661 30.4884 -8.44661 30.3738V28.6365C-8.44661 28.5642 -8.47549 28.4948 -8.52692 28.4437C-8.57832 28.3925 -8.64804 28.3638 -8.72075 28.3638H-34.5585C-34.6956 28.3638 -34.7641 28.432 -34.7641 28.5684V30.3411C-34.7641 30.3953 -34.7858 30.4474 -34.8243 30.4857C-34.8629 30.5241 -34.9152 30.5456 -34.9697 30.5456H-60.9116C-61.0249 30.5456 -61.0816 30.4884 -61.0816 30.3738V28.6011C-61.0816 28.5382 -61.107 28.4778 -61.1523 28.4333C-61.1975 28.3888 -61.2589 28.3638 -61.3228 28.3638H-87.1935C-87.3306 28.3638 -87.3991 28.432 -87.3991 28.5684V30.3411C-87.3991 30.3953 -87.4207 30.4474 -87.4593 30.4857C-87.4979 30.5241 -87.5502 30.5456 -87.6047 30.5456H-113.547C-113.66 30.5456 -113.717 30.4884 -113.717 30.3738V28.6365C-113.717 28.5642 -113.745 28.4948 -113.797 28.4437C-113.848 28.3925 -113.918 28.3638 -113.991 28.3638H-139.828C-139.966 28.3638 -140.034 28.432 -140.034 28.5684V30.3465C-140.034 30.3986 -140.055 30.4486 -140.092 30.4854C-140.129 30.5222 -140.179 30.5429 -140.231 30.5429H-166.352V23.9947L-140.237 24.0002C-140.183 24.0002 -140.132 23.9789 -140.093 23.9411C-140.055 23.9032 -140.034 23.8519 -140.034 23.7984V22.0229C-140.034 21.8865 -139.966 21.8184 -139.828 21.8184H-113.922C-113.868 21.8184 -113.815 21.8399 -113.777 21.8783C-113.738 21.9166 -113.717 21.9687 -113.717 22.0229V23.7956C-113.717 23.932 -113.648 24.0002 -113.511 24.0002H-87.6047C-87.5502 24.0002 -87.4979 23.9786 -87.4593 23.9403C-87.4207 23.9019 -87.3991 23.8499 -87.3991 23.7956V22.0229C-87.3991 21.8865 -87.3306 21.8184 -87.1935 21.8184H-61.2872C-61.2327 21.8184 -61.1804 21.8399 -61.1418 21.8783C-61.1033 21.9166 -61.0816 21.9687 -61.0816 22.0229V23.7956C-61.0816 23.932 -61.0131 24.0002 -60.876 24.0002H-34.9697C-34.9152 24.0002 -34.8629 23.9786 -34.8243 23.9403C-34.7858 23.9019 -34.7641 23.8499 -34.7641 23.7956V22.0229C-34.7641 21.8865 -34.6956 21.8184 -34.5585 21.8184H-8.65222C-8.59769 21.8184 -8.54539 21.8399 -8.50684 21.8783C-8.46828 21.9166 -8.44661 21.9687 -8.44661 22.0229V23.7956C-8.44661 23.932 -8.37808 24.0002 -8.24101 24.0002H17.6653C17.7198 24.0002 17.7721 23.9786 17.8107 23.9403C17.8492 23.9019 17.8709 23.8499 17.8709 23.7956V22.0229C17.8709 21.8865 17.9394 21.8184 18.0765 21.8184H43.9828C44.0373 21.8184 44.0896 21.8399 44.1281 21.8783C44.1667 21.9166 44.1884 21.9687 44.1884 22.0229V23.7956C44.1884 23.932 44.2569 24.0002 44.394 24.0002H70.3003C70.3548 24.0002 70.4071 23.9786 70.4456 23.9403C70.4842 23.9019 70.5059 23.8499 70.5059 23.7956V22.0229C70.5059 21.8865 70.5744 21.8184 70.7115 21.8184H96.6177C96.6723 21.8184 96.7246 21.8399 96.7631 21.8783C96.8017 21.9166 96.8234 21.9687 96.8234 22.0229V23.7956C96.8234 23.932 96.8919 24.0002 97.029 24.0002H122.935C122.99 24.0002 123.042 23.9786 123.081 23.9403C123.119 23.9019 123.141 23.8499 123.141 23.7956V22.0229C123.141 21.8865 123.209 21.8184 123.346 21.8184H149.253C149.307 21.8184 149.36 21.8399 149.398 21.8783C149.437 21.9166 149.458 21.9687 149.458 22.0229V23.7956C149.458 23.932 149.527 24.0002 149.664 24.0002H175.57C175.625 24.0002 175.677 23.9786 175.716 23.9403C175.754 23.9019 175.776 23.8499 175.776 23.7956V22.0229C175.776 21.8865 175.844 21.8184 175.981 21.8184H201.888C201.942 21.8184 201.995 21.8399 202.033 21.8783C202.072 21.9166 202.093 21.9687 202.093 22.0229V23.7956C202.093 23.932 202.162 24.0002 202.299 24.0002H228.205C228.26 24.0002 228.312 23.9786 228.351 23.9403C228.389 23.9019 228.411 23.8499 228.411 23.7956V22.0229C228.411 21.8865 228.479 21.8184 228.616 21.8184H254.523C254.577 21.8184 254.63 21.8399 254.668 21.8783C254.707 21.9166 254.728 21.9687 254.728 22.0229V23.7956C254.728 23.932 254.797 24.0002 254.934 24.0002H280.84C280.895 24.0002 280.947 23.9786 280.986 23.9403C281.024 23.9019 281.046 23.8499 281.046 23.7956V22.0093C281.046 21.8838 281.108 21.8211 281.232 21.8211H294.196Z" fill="#36D6DA"/>
<path d="M300.62 21.8218L296.579 21.8148C296.484 21.8146 296.406 21.8914 296.406 21.9863L296.399 26.0063C296.399 26.1012 296.476 26.1782 296.571 26.1784L300.612 26.1854C300.708 26.1856 300.785 26.1088 300.785 26.0139L300.792 21.9939C300.792 21.899 300.715 21.8219 300.62 21.8218Z" fill="#4A30B6"/>
<path d="M338.06 21.8213L338.052 23.8149C338.052 23.9258 337.996 23.9822 337.884 23.984L335.875 23.9977L335.883 21.8322L338.06 21.8213Z" fill="#F262B0"/>
<path d="M353.402 21.8344L353.405 23.8171C353.405 23.9389 353.344 23.9998 353.222 23.9998H351.415C351.3 23.9998 351.242 23.9425 351.242 23.828V21.8262L353.402 21.8344Z" fill="#F262B0"/>
<path d="M313.779 23.9969L311.914 24.0033C311.824 24.0037 311.75 24.0772 311.751 24.1675L311.757 26.0221C311.757 26.1124 311.831 26.1855 311.922 26.1851L313.786 26.1787C313.877 26.1784 313.951 26.1048 313.95 26.0145L313.944 24.1599C313.943 24.0696 313.869 23.9965 313.779 23.9969Z" fill="#1E1A44"/>
<path d="M335.874 35.0891V36.9109C335.874 36.9586 335.855 37.0044 335.821 37.0382C335.787 37.0719 335.741 37.0909 335.693 37.0909H331.671C331.624 37.0909 331.577 37.0719 331.544 37.0382C331.51 37.0044 331.491 36.9586 331.491 36.9109L331.485 35.0891C331.485 35.0414 331.466 34.9956 331.432 34.9618C331.398 34.9281 331.352 34.9091 331.304 34.9091H329.478C329.43 34.9091 329.384 34.8901 329.35 34.8564C329.317 34.8226 329.297 34.7768 329.297 34.7291L329.292 32.9073C329.292 32.8836 329.287 32.8602 329.278 32.8384C329.269 32.8166 329.256 32.7967 329.239 32.78C329.222 32.7633 329.202 32.75 329.18 32.741C329.158 32.7319 329.135 32.7273 329.111 32.7273H327.283C327.259 32.7273 327.235 32.7226 327.213 32.7136C327.191 32.7045 327.171 32.6913 327.155 32.6746C327.138 32.6578 327.124 32.638 327.115 32.6162C327.106 32.5943 327.102 32.5709 327.102 32.5473V24.18C327.102 24.1564 327.106 24.133 327.115 24.1111C327.124 24.0893 327.138 24.0694 327.155 24.0527C327.171 24.036 327.191 24.0227 327.213 24.0137C327.235 24.0047 327.259 24 327.283 24H331.307C331.355 24 331.401 24.019 331.435 24.0527C331.469 24.0865 331.488 24.1323 331.488 24.18V26.0018C331.488 26.0496 331.507 26.0953 331.541 26.1291C331.575 26.1629 331.621 26.1818 331.669 26.1818H333.5C333.548 26.1818 333.594 26.2008 333.628 26.2345C333.662 26.2683 333.681 26.3141 333.681 26.3618V28.1836C333.681 28.2314 333.7 28.2772 333.734 28.3109C333.768 28.3447 333.814 28.3636 333.862 28.3636H337.886C337.91 28.3636 337.934 28.359 337.955 28.3499C337.977 28.3409 337.997 28.3276 338.014 28.3109C338.031 28.2942 338.044 28.2744 338.053 28.2525C338.062 28.2307 338.067 28.2073 338.067 28.1836V26.3618C338.067 26.3141 338.086 26.2683 338.12 26.2345C338.154 26.2008 338.2 26.1818 338.248 26.1818H340.079C340.127 26.1818 340.173 26.2008 340.207 26.2345C340.241 26.2683 340.26 26.3141 340.26 26.3618V28.1836C340.26 28.2314 340.279 28.2772 340.313 28.3109C340.347 28.3447 340.393 28.3636 340.441 28.3636H342.272C342.32 28.3636 342.366 28.3826 342.4 28.4164C342.434 28.4501 342.453 28.4959 342.453 28.5436V32.5473C342.453 32.595 342.434 32.6408 342.4 32.6746C342.366 32.7083 342.32 32.7273 342.272 32.7273H338.248C338.2 32.7273 338.154 32.7462 338.12 32.78C338.086 32.8138 338.067 32.8595 338.067 32.9073V34.7291C338.067 34.7527 338.062 34.7761 338.053 34.798C338.044 34.8198 338.031 34.8397 338.014 34.8564C337.997 34.8731 337.977 34.8863 337.955 34.8954C337.934 34.9044 337.91 34.9091 337.886 34.9091H336.055C336.007 34.9091 335.961 34.9281 335.927 34.9618C335.893 34.9956 335.874 35.0414 335.874 35.0891Z" fill="#4A30B6"/>
<path d="M335.87 23.9971L335.859 26.048C335.859 26.1371 335.814 26.1816 335.725 26.1816H333.852C333.737 26.1816 333.68 26.1243 333.68 26.0098V24.1471C333.68 24.058 333.725 24.0125 333.817 24.0107L335.87 23.9971Z" fill="#F262B0"/>
<path d="M346.596 24.0022L340.499 23.9916C340.366 23.9914 340.258 24.0987 340.257 24.2312L340.254 25.933C340.254 26.0656 340.362 26.1732 340.495 26.1734L346.592 26.184C346.725 26.1843 346.834 26.077 346.834 25.9445L346.837 24.2426C346.837 24.1101 346.729 24.0024 346.596 24.0022Z" fill="#4A30B6"/>
<path d="M351.085 23.9968L349.171 24.0034C349.094 24.0037 349.031 24.0662 349.032 24.143L349.038 26.0466C349.039 26.1234 349.102 26.1855 349.179 26.1852L351.092 26.1786C351.169 26.1783 351.232 26.1158 351.232 26.039L351.225 24.1354C351.225 24.0586 351.162 23.9965 351.085 23.9968Z" fill="#F262B0"/>
<path d="M349.024 34.9091L349.021 32.91C349.021 32.7882 348.96 32.7273 348.837 32.7273H344.786C344.749 32.7273 344.714 32.7129 344.689 32.6873C344.663 32.6618 344.648 32.6271 344.648 32.5909V28.5682C344.648 28.4318 344.717 28.3636 344.854 28.3636H346.704C346.741 28.3636 346.776 28.3493 346.801 28.3237C346.827 28.2981 346.842 28.2634 346.842 28.2273L346.844 26.3591C346.844 26.3356 346.849 26.3123 346.858 26.2906C346.867 26.2689 346.88 26.2493 346.897 26.2328C346.913 26.2163 346.933 26.2033 346.955 26.1945C346.976 26.1858 346.999 26.1815 347.023 26.1818L348.788 26.1845C348.853 26.1845 348.916 26.2104 348.962 26.2564C349.009 26.3025 349.035 26.3649 349.035 26.43V28.1591C349.035 28.2955 349.103 28.3636 349.24 28.3636H353.215C353.351 28.3636 353.419 28.2955 353.421 28.1591L353.424 26.3591C353.424 26.3121 353.442 26.267 353.476 26.2337C353.509 26.2005 353.555 26.1818 353.602 26.1818H355.477C355.513 26.1818 355.548 26.1675 355.574 26.1419C355.6 26.1163 355.614 26.0816 355.614 26.0455V24.2045C355.614 24.1503 355.636 24.0983 355.674 24.0599C355.713 24.0216 355.765 24 355.82 24H357.602C357.739 24 357.807 24.0682 357.807 24.2045V32.5909C357.807 32.6818 357.761 32.7273 357.67 32.7273H355.751C355.715 32.7273 355.68 32.7416 355.654 32.7672C355.629 32.7928 355.614 32.8275 355.614 32.8636V34.7727C355.614 34.8089 355.6 34.8436 355.574 34.8692C355.548 34.8947 355.513 34.9091 355.477 34.9091H353.558C353.522 34.9091 353.487 34.9235 353.461 34.949C353.435 34.9746 353.421 35.0093 353.421 35.0455V36.9191C353.421 37.0336 353.364 37.0909 353.251 37.0909H351.365C351.329 37.0909 351.294 37.0765 351.268 37.051C351.242 37.0254 351.228 36.9907 351.228 36.9545V35.0482C351.228 34.9627 351.185 34.92 351.099 34.92L349.024 34.9091Z" fill="#4A30B6"/>
<path d="M322.552 26.1785L320.688 26.185C320.597 26.1853 320.524 26.2588 320.524 26.3492L320.531 28.2037C320.531 28.2941 320.605 28.3671 320.696 28.3668L322.56 28.3603C322.651 28.36 322.724 28.2865 322.724 28.1961L322.717 26.3416C322.717 26.2512 322.643 26.1782 322.552 26.1785Z" fill="#1E1A44"/>
<path d="M296.351 28.3582L300.496 28.3555C300.572 28.3555 300.644 28.3856 300.698 28.4393C300.751 28.493 300.781 28.5659 300.781 28.6418L300.779 34.9091H281.315C281.243 34.9091 281.175 34.9373 281.125 34.9874C281.074 35.0375 281.046 35.1055 281.046 35.1764V36.9191C281.046 37.0336 280.988 37.0909 280.873 37.0909H254.934C254.797 37.0909 254.728 37.0227 254.728 36.8864V35.1136C254.728 35.0594 254.707 35.0074 254.668 34.969C254.63 34.9307 254.577 34.9091 254.523 34.9091H228.685C228.612 34.9091 228.543 34.9378 228.491 34.989C228.44 35.0401 228.411 35.1095 228.411 35.1818V36.9191C228.411 37.0336 228.353 37.0909 228.238 37.0909H202.299C202.162 37.0909 202.093 37.0227 202.093 36.8864V35.1136C202.093 35.0594 202.072 35.0074 202.033 34.969C201.995 34.9307 201.942 34.9091 201.888 34.9091H176.05C175.977 34.9091 175.908 34.9378 175.856 34.989C175.805 35.0401 175.776 35.1095 175.776 35.1818V36.9191C175.776 37.0336 175.718 37.0909 175.603 37.0909H149.664C149.527 37.0909 149.458 37.0227 149.458 36.8864V35.1136C149.458 35.0594 149.437 35.0074 149.398 34.969C149.36 34.9307 149.307 34.9091 149.253 34.9091H123.415C123.342 34.9091 123.273 34.9378 123.221 34.989C123.17 35.0401 123.141 35.1095 123.141 35.1818V36.9191C123.141 37.0336 123.083 37.0909 122.968 37.0909H97.029C96.8919 37.0909 96.8234 37.0227 96.8234 36.8864V35.1136C96.8234 35.0594 96.8018 35.0074 96.7632 34.969C96.7246 34.9307 96.6723 34.9091 96.6178 34.9091H70.7801C70.7074 34.9091 70.6376 34.9378 70.5862 34.989C70.5348 35.0401 70.5059 35.1095 70.5059 35.1818V36.9191C70.5059 37.0336 70.4483 37.0909 70.3332 37.0909H44.394C44.257 37.0909 44.1884 37.0227 44.1884 36.8864V35.1136C44.1884 35.0594 44.1667 35.0074 44.1282 34.969C44.0896 34.9307 44.0373 34.9091 43.9828 34.9091H18.1451C18.0724 34.9091 18.0026 34.9378 17.9512 34.989C17.8998 35.0401 17.8709 35.1095 17.8709 35.1818V36.9191C17.8709 37.0336 17.8134 37.0909 17.6982 37.0909H-8.24097C-8.37804 37.0909 -8.44658 37.0227 -8.44658 36.8864V35.1136C-8.44658 35.0594 -8.46825 35.0074 -8.50681 34.969C-8.54535 34.9307 -8.59766 34.9091 -8.65219 34.9091H-34.4899C-34.5626 34.9091 -34.6324 34.9378 -34.6838 34.989C-34.7352 35.0401 -34.7641 35.1095 -34.7641 35.1818V36.9191C-34.7641 37.0336 -34.8216 37.0909 -34.9368 37.0909H-60.876C-61.013 37.0909 -61.0816 37.0227 -61.0816 36.8864V35.1136C-61.0816 35.0594 -61.1032 35.0074 -61.1418 34.969C-61.1804 34.9307 -61.2327 34.9091 -61.2872 34.9091H-87.1249C-87.1976 34.9091 -87.2674 34.9378 -87.3188 34.989C-87.3702 35.0401 -87.3991 35.1095 -87.3991 35.1818V36.9191C-87.3991 37.0336 -87.4566 37.0909 -87.5718 37.0909H-113.511C-113.648 37.0909 -113.717 37.0227 -113.717 36.8864V35.1136C-113.717 35.0594 -113.738 35.0074 -113.777 34.969C-113.815 34.9307 -113.868 34.9091 -113.922 34.9091H-139.76C-139.833 34.9091 -139.902 34.9378 -139.954 34.989C-140.005 35.0401 -140.034 35.1095 -140.034 35.1818V36.8918C-140.034 36.9439 -140.055 36.9939 -140.091 37.0307C-140.128 37.0675 -140.177 37.0882 -140.229 37.0882H-166.352V30.5427H-140.231C-140.179 30.5427 -140.129 30.5221 -140.092 30.4852C-140.055 30.4484 -140.034 30.3985 -140.034 30.3464V28.5682C-140.034 28.4318 -139.966 28.3637 -139.828 28.3637H-113.991C-113.918 28.3637 -113.848 28.3924 -113.797 28.4435C-113.745 28.4947 -113.717 28.564 -113.717 28.6364V30.3737C-113.717 30.4882 -113.66 30.5455 -113.547 30.5455H-87.6047C-87.5501 30.5455 -87.4978 30.5239 -87.4593 30.4856C-87.4207 30.4472 -87.3991 30.3952 -87.3991 30.3409V28.5682C-87.3991 28.4318 -87.3305 28.3637 -87.1935 28.3637H-61.3228C-61.2588 28.3637 -61.1975 28.3886 -61.1522 28.4331C-61.107 28.4776 -61.0816 28.538 -61.0816 28.6009V30.3737C-61.0816 30.4882 -61.0249 30.5455 -60.9116 30.5455H-34.9697C-34.9151 30.5455 -34.8629 30.5239 -34.8243 30.4856C-34.7857 30.4472 -34.7641 30.3952 -34.7641 30.3409V28.5682C-34.7641 28.4318 -34.6955 28.3637 -34.5585 28.3637H-8.72072C-8.64801 28.3637 -8.57829 28.3924 -8.52687 28.4435C-8.47546 28.4947 -8.44658 28.564 -8.44658 28.6364V30.3737C-8.44658 30.4882 -8.38992 30.5455 -8.27661 30.5455H17.6653C17.7198 30.5455 17.7721 30.5239 17.8107 30.4856C17.8493 30.4472 17.8709 30.3952 17.8709 30.3409V28.5682C17.8709 28.4318 17.9395 28.3637 18.0765 28.3637H43.9143C43.987 28.3637 44.0567 28.3924 44.1081 28.4435C44.1595 28.4947 44.1884 28.564 44.1884 28.6364V30.3737C44.1884 30.4882 44.2451 30.5455 44.3584 30.5455H70.3003C70.3548 30.5455 70.4071 30.5239 70.4457 30.4856C70.4843 30.4472 70.5059 30.3952 70.5059 30.3409V28.5682C70.5059 28.4318 70.5744 28.3637 70.7115 28.3637H96.5822C96.6461 28.3637 96.7075 28.3886 96.7527 28.4331C96.798 28.4776 96.8234 28.538 96.8234 28.6009V30.3737C96.8234 30.4882 96.8801 30.5455 96.9934 30.5455H122.935C122.99 30.5455 123.042 30.5239 123.081 30.4856C123.119 30.4472 123.141 30.3952 123.141 30.3409V28.5682C123.141 28.4318 123.209 28.3637 123.347 28.3637H149.22C149.283 28.3637 149.344 28.3886 149.389 28.4331C149.433 28.4776 149.458 28.538 149.458 28.6009V30.3737C149.458 30.4882 149.515 30.5455 149.628 30.5455H175.57C175.625 30.5455 175.677 30.5239 175.716 30.4856C175.754 30.4472 175.776 30.3952 175.776 30.3409V28.5682C175.776 28.4318 175.844 28.3637 175.982 28.3637H201.819C201.892 28.3637 201.962 28.3924 202.013 28.4435C202.065 28.4947 202.093 28.564 202.093 28.6364V30.3737C202.093 30.4882 202.15 30.5455 202.263 30.5455H228.205C228.26 30.5455 228.312 30.5239 228.351 30.4856C228.389 30.4472 228.411 30.3952 228.411 30.3409V28.5682C228.411 28.4318 228.479 28.3637 228.617 28.3637H254.49C254.553 28.3637 254.614 28.3886 254.659 28.4331C254.703 28.4776 254.728 28.538 254.728 28.6009V30.3737C254.728 30.4882 254.785 30.5455 254.898 30.5455H280.84C280.895 30.5455 280.947 30.5239 280.986 30.4856C281.024 30.4472 281.046 30.3952 281.046 30.3409V28.5137C281.046 28.4155 281.095 28.3664 281.194 28.3664L296.351 28.3582Z" fill="#0099FF"/>
<path d="M309.388 28.3601L307.524 28.3666C307.433 28.3669 307.36 28.4404 307.36 28.5308L307.366 30.3854C307.367 30.4757 307.441 30.5487 307.532 30.5484L309.396 30.5419C309.487 30.5416 309.56 30.4681 309.56 30.3777L309.553 28.5232C309.553 28.4328 309.479 28.3598 309.388 28.3601Z" fill="#1E1A44"/>
<path d="M318.161 32.7244L316.297 32.7309C316.206 32.7312 316.133 32.8047 316.133 32.8951L316.14 34.7496C316.14 34.84 316.214 34.913 316.305 34.9127L318.169 34.9062C318.26 34.9059 318.333 34.8324 318.333 34.742L318.326 32.8875C318.326 32.7971 318.252 32.7241 318.161 32.7244Z" fill="#1E1A44"/>
<path d="M300.778 34.9092L300.77 36.9655C300.77 36.9988 300.757 37.0307 300.733 37.0543C300.71 37.0778 300.678 37.091 300.644 37.091H298.728C298.691 37.091 298.657 37.1054 298.631 37.1309C298.605 37.1565 298.591 37.1912 298.591 37.2274L298.588 39.0955C298.588 39.1426 298.569 39.1876 298.536 39.2209C298.502 39.2541 298.457 39.2728 298.41 39.2728H296.535C296.498 39.2728 296.464 39.2872 296.438 39.3128C296.412 39.3383 296.398 39.373 296.398 39.4092V41.2555C296.398 41.3592 296.346 41.4119 296.241 41.4137L294.232 41.4519L281.186 41.4574C281.092 41.4574 281.046 41.5037 281.046 41.5965V43.5001C281.046 43.5363 281.031 43.5709 281.006 43.5965C280.98 43.6221 280.945 43.6365 280.909 43.6365H254.934C254.797 43.6365 254.728 43.5683 254.728 43.4319V41.6592C254.728 41.6049 254.707 41.5529 254.668 41.5145C254.63 41.4762 254.577 41.4546 254.523 41.4546H228.548C228.457 41.4546 228.411 41.5001 228.411 41.591V43.4319C228.411 43.4862 228.389 43.5382 228.351 43.5765C228.312 43.6149 228.26 43.6365 228.205 43.6365H202.299C202.162 43.6365 202.093 43.5683 202.093 43.4319V41.6592C202.093 41.6049 202.072 41.5529 202.033 41.5145C201.995 41.4762 201.942 41.4546 201.888 41.4546H175.913C175.822 41.4546 175.776 41.5001 175.776 41.591V43.4319C175.776 43.4862 175.754 43.5382 175.716 43.5765C175.677 43.6149 175.625 43.6365 175.57 43.6365H149.664C149.527 43.6365 149.458 43.5683 149.458 43.4319V41.6592C149.458 41.6049 149.437 41.5529 149.398 41.5145C149.36 41.4762 149.307 41.4546 149.253 41.4546H123.278C123.187 41.4546 123.141 41.5001 123.141 41.591V43.4319C123.141 43.4862 123.119 43.5382 123.081 43.5765C123.042 43.6149 122.99 43.6365 122.935 43.6365H97.029C96.8919 43.6365 96.8234 43.5683 96.8234 43.4319V41.6592C96.8234 41.6049 96.8017 41.5529 96.7631 41.5145C96.7246 41.4762 96.6723 41.4546 96.6177 41.4546H70.6429C70.5515 41.4546 70.5059 41.5001 70.5059 41.591V43.4319C70.5059 43.4862 70.4842 43.5382 70.4456 43.5765C70.4071 43.6149 70.3548 43.6365 70.3003 43.6365H44.394C44.2569 43.6365 44.1884 43.5683 44.1884 43.4319V41.6592C44.1884 41.6049 44.1667 41.5529 44.1281 41.5145C44.0896 41.4762 44.0373 41.4546 43.9828 41.4546H18.0079C17.9166 41.4546 17.8709 41.5001 17.8709 41.591V43.4319C17.8709 43.4862 17.8492 43.5382 17.8107 43.5765C17.7721 43.6149 17.7198 43.6365 17.6653 43.6365H-8.24101C-8.37808 43.6365 -8.44661 43.5683 -8.44661 43.4319V41.6592C-8.44661 41.6049 -8.46828 41.5529 -8.50684 41.5145C-8.54539 41.4762 -8.59769 41.4546 -8.65222 41.4546H-34.627C-34.7184 41.4546 -34.7641 41.5001 -34.7641 41.591V43.4319C-34.7641 43.4862 -34.7858 43.5382 -34.8243 43.5765C-34.8629 43.6149 -34.9152 43.6365 -34.9697 43.6365H-60.876C-61.0131 43.6365 -61.0816 43.5683 -61.0816 43.4319V41.6592C-61.0816 41.6049 -61.1033 41.5529 -61.1418 41.5145C-61.1804 41.4762 -61.2327 41.4546 -61.2872 41.4546H-87.262C-87.3534 41.4546 -87.3991 41.5001 -87.3991 41.591V43.4319C-87.3991 43.4862 -87.4207 43.5382 -87.4593 43.5765C-87.4979 43.6149 -87.5502 43.6365 -87.6047 43.6365H-113.511C-113.648 43.6365 -113.717 43.5683 -113.717 43.4319V41.6592C-113.717 41.6049 -113.738 41.5529 -113.777 41.5145C-113.815 41.4762 -113.868 41.4546 -113.922 41.4546H-139.897C-139.988 41.4546 -140.034 41.5001 -140.034 41.591V43.4401C-140.034 43.4922 -140.055 43.5421 -140.091 43.5789C-140.128 43.6158 -140.177 43.6365 -140.229 43.6365L-166.352 43.631V37.0883H-140.229C-140.177 37.0883 -140.128 37.0676 -140.091 37.0308C-140.055 36.9939 -140.034 36.944 -140.034 36.8919V35.1819C-140.034 35.1096 -140.005 35.0402 -139.954 34.9891C-139.902 34.9379 -139.833 34.9092 -139.76 34.9092H-113.922C-113.868 34.9092 -113.815 34.9307 -113.777 34.9691C-113.738 35.0074 -113.717 35.0595 -113.717 35.1137V36.8865C-113.717 37.0228 -113.648 37.091 -113.511 37.091H-87.5718C-87.4567 37.091 -87.3991 37.0337 -87.3991 36.9192V35.1819C-87.3991 35.1096 -87.3702 35.0402 -87.3188 34.9891C-87.2674 34.9379 -87.1977 34.9092 -87.1249 34.9092H-61.2872C-61.2327 34.9092 -61.1804 34.9307 -61.1418 34.9691C-61.1033 35.0074 -61.0816 35.0595 -61.0816 35.1137V36.8865C-61.0816 37.0228 -61.0131 37.091 -60.876 37.091H-34.9368C-34.8217 37.091 -34.7641 37.0337 -34.7641 36.9192V35.1819C-34.7641 35.1096 -34.7352 35.0402 -34.6838 34.9891C-34.6324 34.9379 -34.5627 34.9092 -34.49 34.9092H-8.65222C-8.59769 34.9092 -8.54539 34.9307 -8.50684 34.9691C-8.46828 35.0074 -8.44661 35.0595 -8.44661 35.1137V36.8865C-8.44661 37.0228 -8.37808 37.091 -8.24101 37.091H17.6982C17.8133 37.091 17.8709 37.0337 17.8709 36.9192V35.1819C17.8709 35.1096 17.8998 35.0402 17.9512 34.9891C18.0026 34.9379 18.0723 34.9092 18.145 34.9092H43.9828C44.0373 34.9092 44.0896 34.9307 44.1281 34.9691C44.1667 35.0074 44.1884 35.0595 44.1884 35.1137V36.8865C44.1884 37.0228 44.2569 37.091 44.394 37.091H70.3331C70.4483 37.091 70.5059 37.0337 70.5059 36.9192V35.1819C70.5059 35.1096 70.5347 35.0402 70.5862 34.9891C70.6376 34.9379 70.7073 34.9092 70.78 34.9092H96.6177C96.6723 34.9092 96.7246 34.9307 96.7631 34.9691C96.8017 35.0074 96.8234 35.0595 96.8234 35.1137V36.8865C96.8234 37.0228 96.8919 37.091 97.029 37.091H122.968C123.083 37.091 123.141 37.0337 123.141 36.9192V35.1819C123.141 35.1096 123.17 35.0402 123.221 34.9891C123.273 34.9379 123.342 34.9092 123.415 34.9092H149.253C149.307 34.9092 149.36 34.9307 149.398 34.9691C149.437 35.0074 149.458 35.0595 149.458 35.1137V36.8865C149.458 37.0228 149.527 37.091 149.664 37.091H175.603C175.718 37.091 175.776 37.0337 175.776 36.9192V35.1819C175.776 35.1096 175.805 35.0402 175.856 34.9891C175.908 34.9379 175.977 34.9092 176.05 34.9092H201.888C201.942 34.9092 201.995 34.9307 202.033 34.9691C202.072 35.0074 202.093 35.0595 202.093 35.1137V36.8865C202.093 37.0228 202.162 37.091 202.299 37.091H228.238C228.353 37.091 228.411 37.0337 228.411 36.9192V35.1819C228.411 35.1096 228.44 35.0402 228.491 34.9891C228.543 34.9379 228.612 34.9092 228.685 34.9092H254.523C254.577 34.9092 254.63 34.9307 254.668 34.9691C254.707 35.0074 254.728 35.0595 254.728 35.1137V36.8865C254.728 37.0228 254.797 37.091 254.934 37.091H280.873C280.988 37.091 281.046 37.0337 281.046 36.9192V35.1765C281.046 35.1056 281.074 35.0376 281.124 34.9875C281.175 34.9373 281.243 34.9092 281.314 34.9092H300.778Z" fill="#762CFF"/>
<path d="M311.583 34.906L309.719 34.9125C309.628 34.9128 309.555 34.9863 309.555 35.0767L309.562 36.9313C309.562 37.0216 309.636 37.0946 309.727 37.0943L311.591 37.0878C311.682 37.0875 311.755 37.014 311.755 36.9236L311.748 35.0691C311.748 34.9787 311.674 34.9057 311.583 34.906Z" fill="#1E1A44"/>
<path d="M349.025 34.9092L349.022 36.9137C349.02 37.0319 348.961 37.091 348.844 37.091H338.276C338.139 37.091 338.07 37.0228 338.07 36.8865V35.0619C338.07 34.9601 338.122 34.9092 338.224 34.9092H349.025Z" fill="#4A30B6"/>
<path d="M298.592 41.2716V39.4552C298.592 39.4067 298.611 39.3602 298.645 39.326C298.68 39.2917 298.727 39.2725 298.775 39.2725H302.794C302.843 39.2725 302.89 39.2917 302.924 39.326C302.958 39.3602 302.978 39.4067 302.978 39.4552V43.4534C302.978 43.5018 302.958 43.5483 302.924 43.5826C302.89 43.6168 302.843 43.6361 302.794 43.6361H300.968C300.92 43.6361 300.873 43.6554 300.838 43.6896C300.804 43.7239 300.785 43.7704 300.785 43.8188V45.6352C300.785 45.6837 300.765 45.7301 300.731 45.7644C300.696 45.7987 300.65 45.8179 300.601 45.8179H296.582C296.558 45.8179 296.534 45.8132 296.512 45.804C296.49 45.7948 296.469 45.7814 296.452 45.7644C296.435 45.7474 296.422 45.7273 296.412 45.7051C296.403 45.6829 296.398 45.6592 296.398 45.6352V41.637C296.398 41.613 296.403 41.5893 296.412 41.5671C296.422 41.5449 296.435 41.5248 296.452 41.5078C296.469 41.4908 296.49 41.4774 296.512 41.4682C296.534 41.459 296.558 41.4543 296.582 41.4543H298.408C298.432 41.4543 298.456 41.4496 298.478 41.4404C298.5 41.4312 298.521 41.4177 298.538 41.4008C298.555 41.3838 298.568 41.3636 298.578 41.3415C298.587 41.3193 298.592 41.2955 298.592 41.2716Z" fill="#4A30B6"/>
<path d="M342.451 43.4512V41.6376C342.451 41.6132 342.456 41.5891 342.465 41.5666C342.474 41.5441 342.488 41.5237 342.506 41.5065C342.523 41.4892 342.543 41.4756 342.566 41.4663C342.589 41.4569 342.613 41.4521 342.637 41.4521L344.458 41.4576C344.482 41.4576 344.506 41.4624 344.529 41.4717C344.552 41.481 344.572 41.4947 344.589 41.5119C344.607 41.5291 344.621 41.5496 344.63 41.5721C344.639 41.5946 344.644 41.6187 344.644 41.6431V45.6331C344.644 45.6822 344.624 45.7294 344.589 45.7642C344.554 45.799 344.507 45.8185 344.458 45.8185H340.444C340.395 45.8185 340.347 45.799 340.312 45.7642C340.277 45.7294 340.258 45.6822 340.258 45.6331V43.8221C340.258 43.773 340.277 43.7258 340.312 43.691C340.347 43.6562 340.395 43.6367 340.444 43.6367H342.265C342.314 43.6367 342.361 43.6172 342.396 43.5824C342.431 43.5476 342.451 43.5004 342.451 43.4512Z" fill="#4A30B6"/>
<path d="M311.57 43.6333L307.535 43.6403C307.438 43.6405 307.36 43.7188 307.36 43.8152L307.363 45.6479C307.363 45.7443 307.442 45.8223 307.539 45.8221L311.574 45.8151C311.671 45.815 311.749 45.7367 311.749 45.6403L311.746 43.8076C311.746 43.7112 311.667 43.6331 311.57 43.6333Z" fill="#4A30B6"/>
<path d="M333.499 43.6401L329.497 43.6331C329.391 43.633 329.305 43.7183 329.304 43.8237L329.301 45.6237C329.301 45.7292 329.387 45.8148 329.493 45.815L333.495 45.8219C333.601 45.8221 333.687 45.7368 333.687 45.6313L333.691 43.8313C333.691 43.7259 333.605 43.6403 333.499 43.6401Z" fill="#4A30B6"/>
</g>
<defs>
<clipPath id="clip0_1063_14563">
<rect width="360" height="48" fill="white"/>
</clipPath>
</defs>
</svg>
