<svg width="225" height="259" viewBox="0 0 225 259" fill="none" xmlns="http://www.w3.org/2000/svg">
<path d="M152.5 60.3197C162.165 60.3197 170 52.1921 170 42.1662C170 32.1403 162.165 24.0127 152.5 24.0127C142.835 24.0127 135 32.1403 135 42.1662C135 52.1921 142.835 60.3197 152.5 60.3197Z" fill="url(#paint0_radial_3904_6503)"/>
<path d="M200.679 154.889C222.222 271.281 -27.2515 314.371 3.65607 155.114C18.7072 77.5945 33.0304 21.9961 104.132 21.9961C165.453 21.9961 186.026 75.7588 200.669 154.899L200.679 154.889Z" fill="url(#paint1_radial_3904_6503)"/>
<path d="M52 67.3792C64.1503 67.3792 74 57.4454 74 45.1915C74 32.9376 64.1503 23.0039 52 23.0039C39.8497 23.0039 30 32.9376 30 45.1915C30 57.4454 39.8497 67.3792 52 67.3792Z" fill="url(#paint2_radial_3904_6503)"/>
<path d="M43.1159 196.217C45.8688 179.592 83.1735 143.75 133.221 171.196C183.269 198.643 100.975 214.57 70.3236 209.729C39.6724 204.878 43.1159 196.227 43.1159 196.227V196.217Z" fill="url(#paint3_linear_3904_6503)"/>
<path d="M129.01 241.662C160.291 255.058 188.1 254.029 213.164 224.587C238.227 195.145 202.009 164.198 202.009 164.198C202.009 164.198 201.902 185.176 170.107 192.407C138.312 199.649 129 241.662 129 241.662H129.01Z" fill="url(#paint4_linear_3904_6503)"/>
<path d="M36.1472 194.942C17.2818 199.188 10.2073 234.091 49.9759 249.896C89.7349 265.692 120.653 252.983 139.208 232.377C157.763 211.77 160.587 196.315 170 192.537C170 192.537 156.647 159.563 116.839 175.709C77.0318 191.846 81.1562 203.873 63.9794 200.094C46.8026 196.315 49.8983 191.855 36.1569 194.942H36.1472Z" fill="url(#paint5_linear_3904_6503)"/>
<path d="M158.302 110.618C163.272 128.375 165.233 146.045 128.541 146.045C84.0624 146.045 91.5796 128.829 97.5587 110.656C102.365 96.0503 106.614 85.5332 128.541 85.5332C147.449 85.5332 154.12 95.6443 158.302 110.618Z" fill="url(#paint6_radial_3904_6503)"/>
<path d="M131.5 98.6437C139.508 98.6437 146 96.8375 146 94.6096C146 92.3816 139.508 90.5754 131.5 90.5754C123.492 90.5754 117 92.3816 117 94.6096C117 96.8375 123.492 98.6437 131.5 98.6437Z" fill="url(#paint7_linear_3904_6503)"/>
<path fill-rule="evenodd" clip-rule="evenodd" d="M182.259 38.6962C183.687 35.1025 188.694 20.2157 180.841 0.324657C180.841 0.324657 168.704 -3.51057 141.374 15.1825C129.97 12.0622 117.603 10.3813 105.495 10.3813C93.3588 10.4102 81.2804 12.0332 69.5879 15.1825C42.2667 -3.50091 30.1593 0.334318 30.1593 0.334318C22.3063 20.2253 27.2747 35.1122 28.7218 38.7059C19.7016 48.7721 14 61.7076 14 77.5508C14 124.829 38.1955 140.933 65.0247 146.759C72.2505 148.324 79.6404 149 87.0302 149H123.43C130.916 149 138.393 148.304 145.705 146.71C172.718 140.808 197 124.897 197 77.5605C197 61.7269 191.54 48.7818 182.259 38.7155V38.6962ZM179.316 105.286C179.316 122.018 163.572 135.591 144.152 135.591H91.0435C71.6234 135.591 55.879 122.028 55.879 105.286V99.6058C55.879 82.8738 71.6234 69.3007 91.0435 69.3007H144.152C163.572 69.3007 179.316 82.8641 179.316 99.6058V105.286Z" fill="url(#paint8_radial_3904_6503)"/>
<defs>
<radialGradient id="paint0_radial_3904_6503" cx="0" cy="0" r="1" gradientUnits="userSpaceOnUse" gradientTransform="translate(150.752 51.7893) scale(20.5782 30.0971)">
<stop offset="0.72" stop-color="#141225"/>
<stop offset="1" stop-color="#5B47A8"/>
</radialGradient>
<radialGradient id="paint1_radial_3904_6503" cx="0" cy="0" r="1" gradientUnits="userSpaceOnUse" gradientTransform="translate(86.419 160.243) scale(106.257 165.781)">
<stop stop-color="#141225"/>
<stop offset="0.85" stop-color="#141225"/>
<stop offset="1" stop-color="#5B47A8"/>
</radialGradient>
<radialGradient id="paint2_radial_3904_6503" cx="0" cy="0" r="1" gradientUnits="userSpaceOnUse" gradientTransform="translate(50.4601 67.961) scale(27.0747 46.5133)">
<stop offset="0.85" stop-color="#141225"/>
<stop offset="1" stop-color="#5B47A8"/>
</radialGradient>
<linearGradient id="paint3_linear_3904_6503" x1="94.4476" y1="204.279" x2="103.366" y2="138.313" gradientUnits="userSpaceOnUse">
<stop offset="0.39" stop-color="#141225"/>
<stop offset="1" stop-color="#5B47A8"/>
</linearGradient>
<linearGradient id="paint4_linear_3904_6503" x1="165.907" y1="248.476" x2="200.883" y2="159.062" gradientUnits="userSpaceOnUse">
<stop offset="0.39" stop-color="#141225"/>
<stop offset="1" stop-color="#5B47A8"/>
</linearGradient>
<linearGradient id="paint5_linear_3904_6503" x1="92.093" y1="252.954" x2="99.8424" y2="142.183" gradientUnits="userSpaceOnUse">
<stop offset="0.39" stop-color="#141225"/>
<stop offset="1" stop-color="#5B47A8"/>
</linearGradient>
<radialGradient id="paint6_radial_3904_6503" cx="0" cy="0" r="1" gradientUnits="userSpaceOnUse" gradientTransform="translate(90.0695 140.295) scale(72.5923 72.9973)">
<stop offset="0.85" stop-color="#141225"/>
<stop offset="1" stop-color="#5B47A8"/>
</radialGradient>
<linearGradient id="paint7_linear_3904_6503" x1="131.237" y1="97.3688" x2="131.765" y2="91.0153" gradientUnits="userSpaceOnUse">
<stop stop-color="#110E24"/>
<stop offset="0.74" stop-color="#5B47A8"/>
<stop offset="1" stop-color="#9D3DDA"/>
</linearGradient>
<radialGradient id="paint8_radial_3904_6503" cx="0" cy="0" r="1" gradientUnits="userSpaceOnUse" gradientTransform="translate(110.145 91.2975) rotate(-2.23397) scale(102.349 63.5428)">
<stop stop-color="#0071BC"/>
<stop offset="0.3" stop-color="#3FA9F5"/>
<stop offset="0.46" stop-color="#00FFFF"/>
<stop offset="1" stop-color="#FF5DAB"/>
</radialGradient>
</defs>
</svg>
