<svg width="224" height="263" viewBox="0 0 224 263" fill="none" xmlns="http://www.w3.org/2000/svg">
<path d="M153.529 61.1316C163.391 61.1316 171.385 53.1252 171.385 43.2489C171.385 33.3726 163.391 25.3662 153.529 25.3662C143.667 25.3662 135.672 33.3726 135.672 43.2489C135.672 53.1252 143.667 61.1316 153.529 61.1316Z" fill="url(#paint0_radial_3904_6452)"/>
<path d="M202.132 157.111C223.938 274.814 -28.5719 318.39 2.71184 157.338C17.9363 78.9441 32.4339 22.7189 104.411 22.7189C166.478 22.7189 187.301 77.0877 202.123 157.12L202.132 157.111Z" fill="url(#paint1_radial_3904_6452)"/>
<path d="M42.8631 198.95C45.6428 182.232 83.311 146.19 133.846 173.789C184.382 201.389 101.286 217.405 70.3359 212.537C39.3861 207.659 42.8631 198.959 42.8631 198.959V198.95Z" fill="url(#paint2_linear_3904_6452)"/>
<path d="M129.76 245.22C161.436 258.847 189.597 257.8 214.977 227.851C240.358 197.902 203.682 166.422 203.682 166.422C203.682 166.422 203.574 187.76 171.377 195.117C139.179 202.483 129.75 245.22 129.75 245.22H129.76Z" fill="url(#paint3_linear_3904_6452)"/>
<path d="M35.9092 197.557C16.8148 201.863 9.65439 237.253 49.9059 253.279C90.1475 269.295 121.441 256.409 140.221 235.515C159.001 214.621 161.86 198.95 171.387 195.118C171.387 195.118 157.872 161.683 117.581 178.055C77.2902 194.417 81.4647 206.612 64.0793 202.781C46.694 198.95 49.8273 194.427 35.919 197.557H35.9092Z" fill="url(#paint4_linear_3904_6452)"/>
<path d="M183.165 72.457H55.0935C52.8694 72.457 51.0664 74.2696 51.0664 76.5056C51.0664 78.7415 52.8694 80.5541 55.0935 80.5541H183.165C185.39 80.5541 187.193 78.7415 187.193 76.5056C187.193 74.2696 185.39 72.457 183.165 72.457Z" fill="url(#paint5_linear_3904_6452)"/>
<path d="M183.162 73.791H55.0896C52.8655 73.791 51.0625 75.6036 51.0625 77.8395C51.0625 80.0755 52.8655 81.8881 55.0896 81.8881H183.162C185.386 81.8881 187.189 80.0755 187.189 77.8395C187.189 75.6036 185.386 73.791 183.162 73.791Z" fill="url(#paint6_linear_3904_6452)"/>
<path d="M168.381 61.3969L182.044 63.4804C183.753 63.7371 184.421 65.8502 183.173 67.0549L173.214 76.6529C172.723 77.1269 172.487 77.8181 172.605 78.4994L174.854 92.1559C175.139 93.8641 173.341 95.1577 171.809 94.3381L159.62 87.821C159.011 87.4951 158.284 87.4951 157.675 87.8111L145.397 94.1702C143.865 94.9701 142.077 93.6568 142.382 91.9485L144.808 78.3217C144.926 77.6404 144.71 76.9492 144.219 76.4653L134.386 66.739C133.159 65.5244 133.856 63.4211 135.565 63.1841L149.257 61.2784C149.935 61.1796 150.524 60.7649 150.839 60.1428L157.037 47.7701C157.812 46.2198 160.022 46.2395 160.779 47.7898L166.819 60.2415C167.124 60.8636 167.703 61.2882 168.381 61.3969Z" fill="url(#paint7_linear_3904_6452)"/>
<path d="M170.924 61.229L184.587 63.3125C186.296 63.5693 186.964 65.6824 185.716 66.8871L175.757 76.4851C175.266 76.9591 175.03 77.6503 175.148 78.3316L177.397 91.988C177.682 93.6963 175.884 94.9898 174.352 94.1703L162.163 87.6531C161.554 87.3273 160.827 87.3273 160.218 87.6432L147.94 94.0024C146.408 94.8022 144.62 93.4889 144.925 91.7806L147.351 78.1539C147.469 77.4725 147.253 76.7813 146.762 76.2975L136.929 66.5711C135.702 65.3565 136.399 63.2533 138.108 63.0163L151.8 61.1105C152.478 61.0118 153.067 60.597 153.382 59.975L159.58 47.6022C160.355 46.0519 162.565 46.0717 163.322 47.622L169.362 60.0737C169.667 60.6958 170.246 61.1204 170.924 61.229Z" fill="url(#paint8_linear_3904_6452)"/>
<path d="M67.164 50.0472C67.164 50.0472 59.5238 36.6321 64.9416 28.6506C70.3595 20.6692 69.5105 17.0408 69.5105 17.0408C69.5105 17.0408 75.163 22.1182 73.4376 25.8952C73.4376 25.8952 78.6553 22.7774 78.9935 19.5825C79.3317 16.3875 80.4359 8.6971 89.8292 6.73738C89.8292 6.73738 85.7641 19.0718 99.0982 11.5239C114.372 2.87732 116.918 -4.80123 133.683 3.68496C133.683 3.68496 116.408 9.01778 122.93 16.7438C128.686 23.5672 147.804 -7.93085 173.298 21.6788C173.298 21.6788 158.57 17.7593 157.459 25.5982C157.459 25.5982 179.745 30.1828 180 55C180 55 177.013 38.0946 160 45.5C160 45.5 129.397 40.7772 126.222 52.1317C126.222 52.1317 97.3175 26.4356 67.1709 50.0472H67.164Z" fill="url(#paint9_linear_3904_6452)"/>
<path d="M51.815 68.5956C64.0313 68.5956 73.9346 58.6794 73.9346 46.4472C73.9346 34.2149 64.0313 24.2987 51.815 24.2987C39.5986 24.2987 29.6953 34.2149 29.6953 46.4472C29.6953 58.6794 39.5986 68.5956 51.815 68.5956Z" fill="url(#paint10_radial_3904_6452)"/>
<path d="M96.5335 61.3969L110.196 63.4804C111.905 63.7371 112.573 65.8502 111.326 67.0549L101.366 76.6529C100.875 77.1269 100.639 77.8181 100.757 78.4994L103.006 92.1559C103.291 93.8641 101.494 95.1577 99.9615 94.3381L87.7721 87.821C87.1631 87.4951 86.4363 87.4951 85.8273 87.8111L73.5495 94.1702C72.0173 94.9701 70.2296 93.6568 70.5341 91.9485L72.9602 78.3217C73.0781 77.6404 72.862 76.9492 72.3709 76.4653L62.5388 66.739C61.3111 65.5244 62.0084 63.4211 63.7175 63.1841L77.4097 61.2784C78.0874 61.1796 78.6767 60.7649 78.9911 60.1428L85.1889 47.7701C85.9648 46.2198 88.1748 46.2395 88.9311 47.7898L94.9718 60.2415C95.2763 60.8636 95.8558 61.2882 96.5335 61.3969Z" fill="url(#paint11_linear_3904_6452)"/>
<path d="M99.0765 61.229L112.739 63.3125C114.448 63.5693 115.116 65.6824 113.869 66.8871L103.909 76.4851C103.418 76.9591 103.182 77.6503 103.3 78.3316L105.549 91.988C105.834 93.6963 104.037 94.9898 102.504 94.1703L90.3151 87.6531C89.7061 87.3273 88.9793 87.3273 88.3703 87.6432L76.0925 94.0024C74.5602 94.8022 72.7726 93.4889 73.0771 91.7806L75.5032 78.1539C75.621 77.4725 75.405 76.7813 74.9138 76.2975L65.0818 66.5711C63.854 65.3565 64.5514 63.2533 66.2605 63.0163L79.9526 61.1105C80.6304 61.0118 81.2197 60.597 81.534 59.975L87.7319 47.6022C88.5078 46.0519 90.7178 46.0717 91.4741 47.622L97.5148 60.0737C97.8193 60.6958 98.3988 61.1204 99.0765 61.229Z" fill="url(#paint12_linear_3904_6452)"/>
<path d="M160.076 112.261C165.154 130.4 167.158 148.451 129.667 148.451C84.2192 148.451 91.9002 130.864 98.0096 112.3C102.921 97.3801 107.262 86.6367 129.667 86.6367C148.987 86.6367 155.804 96.9654 160.076 112.261Z" fill="url(#paint13_radial_3904_6452)"/>
<path d="M132.617 100.787C140.684 100.787 147.223 98.8284 147.223 96.4125C147.223 93.9966 140.684 92.0381 132.617 92.0381C124.551 92.0381 118.012 93.9966 118.012 96.4125C118.012 98.8284 124.551 100.787 132.617 100.787Z" fill="url(#paint14_linear_3904_6452)"/>
<defs>
<radialGradient id="paint0_radial_3904_6452" cx="0" cy="0" r="1" gradientUnits="userSpaceOnUse" gradientTransform="translate(151.714 52.5556) scale(20.9977 29.6481)">
<stop offset="0.72" stop-color="#141225"/>
<stop offset="1" stop-color="#5B47A8"/>
</radialGradient>
<radialGradient id="paint1_radial_3904_6452" cx="0" cy="0" r="1" gradientUnits="userSpaceOnUse" gradientTransform="translate(86.4508 162.701) scale(107.55 167.65)">
<stop stop-color="#141225"/>
<stop offset="0.85" stop-color="#141225"/>
<stop offset="1" stop-color="#5B47A8"/>
</radialGradient>
<linearGradient id="paint2_linear_3904_6452" x1="94.695" y1="207.066" x2="103.618" y2="140.712" gradientUnits="userSpaceOnUse">
<stop offset="0.39" stop-color="#141225"/>
<stop offset="1" stop-color="#5B47A8"/>
</linearGradient>
<linearGradient id="paint3_linear_3904_6452" x1="167.124" y1="252.152" x2="202.82" y2="161.307" gradientUnits="userSpaceOnUse">
<stop offset="0.39" stop-color="#141225"/>
<stop offset="1" stop-color="#5B47A8"/>
</linearGradient>
<linearGradient id="paint4_linear_3904_6452" x1="92.5343" y1="256.38" x2="100.406" y2="144.063" gradientUnits="userSpaceOnUse">
<stop offset="0.39" stop-color="#141225"/>
<stop offset="1" stop-color="#5B47A8"/>
</linearGradient>
<linearGradient id="paint5_linear_3904_6452" x1="51.0664" y1="76.5056" x2="187.193" y2="76.5056" gradientUnits="userSpaceOnUse">
<stop stop-color="#FF5DAB"/>
<stop offset="0.7" stop-color="#3FA9F5"/>
<stop offset="1" stop-color="#0071BC"/>
</linearGradient>
<linearGradient id="paint6_linear_3904_6452" x1="51.0625" y1="77.8395" x2="187.189" y2="77.8395" gradientUnits="userSpaceOnUse">
<stop stop-color="#0071BC"/>
<stop offset="0.3" stop-color="#3FA9F5"/>
<stop offset="1" stop-color="#FF5DAB"/>
</linearGradient>
<linearGradient id="paint7_linear_3904_6452" x1="132.717" y1="70.5999" x2="182.997" y2="70.5999" gradientUnits="userSpaceOnUse">
<stop stop-color="#FF5DAB"/>
<stop offset="0.54" stop-color="#00FFFF"/>
<stop offset="0.7" stop-color="#3FA9F5"/>
<stop offset="1" stop-color="#0071BC"/>
</linearGradient>
<linearGradient id="paint8_linear_3904_6452" x1="143" y1="56.0054" x2="178.31" y2="91.1292" gradientUnits="userSpaceOnUse">
<stop stop-color="#0071BC"/>
<stop offset="0.3" stop-color="#3FA9F5"/>
<stop offset="0.46" stop-color="#00FFFF"/>
<stop offset="1" stop-color="#FF5DAB"/>
</linearGradient>
<linearGradient id="paint9_linear_3904_6452" x1="68.7237" y1="14.9445" x2="174.824" y2="64.4332" gradientUnits="userSpaceOnUse">
<stop stop-color="#FF5DAB"/>
<stop offset="0.54" stop-color="#00FFFF"/>
<stop offset="0.7" stop-color="#3FA9F5"/>
<stop offset="1" stop-color="#0071BC"/>
</linearGradient>
<radialGradient id="paint10_radial_3904_6452" cx="0" cy="0" r="1" gradientUnits="userSpaceOnUse" gradientTransform="translate(50.2354 69.2036) scale(27.2219 46.4312)">
<stop offset="0.85" stop-color="#141225"/>
<stop offset="1" stop-color="#5B47A8"/>
</radialGradient>
<linearGradient id="paint11_linear_3904_6452" x1="60.8691" y1="-36.7752" x2="111.139" y2="-36.7752" gradientUnits="userSpaceOnUse">
<stop stop-color="#FF5DAB"/>
<stop offset="0.54" stop-color="#00FFFF"/>
<stop offset="0.7" stop-color="#3FA9F5"/>
<stop offset="1" stop-color="#0071BC"/>
</linearGradient>
<linearGradient id="paint12_linear_3904_6452" x1="71.1519" y1="56.0054" x2="106.463" y2="91.1292" gradientUnits="userSpaceOnUse">
<stop stop-color="#0071BC"/>
<stop offset="0.3" stop-color="#3FA9F5"/>
<stop offset="0.46" stop-color="#00FFFF"/>
<stop offset="1" stop-color="#FF5DAB"/>
</linearGradient>
<radialGradient id="paint13_radial_3904_6452" cx="0" cy="0" r="1" gradientUnits="userSpaceOnUse" gradientTransform="translate(90.326 142.549) scale(74.174 74.5686)">
<stop offset="0.85" stop-color="#141225"/>
<stop offset="1" stop-color="#5B47A8"/>
</radialGradient>
<linearGradient id="paint14_linear_3904_6452" x1="132.352" y1="99.4143" x2="132.968" y2="92.5324" gradientUnits="userSpaceOnUse">
<stop stop-color="#110E24"/>
<stop offset="0.74" stop-color="#5B47A8"/>
<stop offset="1" stop-color="#9D3DDA"/>
</linearGradient>
</defs>
</svg>
