<svg width="215" height="257" viewBox="0 0 215 257" fill="none" xmlns="http://www.w3.org/2000/svg">
<g clip-path="url(#clip0_3904_6543)">
<path d="M104 30.1172L93.9882 4.01562L76 17.069" stroke="url(#paint0_linear_3904_6543)" stroke-width="7" stroke-linecap="round" stroke-linejoin="round"/>
<path d="M148.298 63.6663C157.691 63.6663 165.31 55.9758 165.31 46.4869C165.31 36.998 157.691 29.3074 148.298 29.3074C138.905 29.3074 131.285 36.998 131.285 46.4869C131.285 55.9758 138.905 63.6663 148.298 63.6663Z" fill="url(#paint1_radial_3904_6543)"/>
<path d="M192.573 155.865C213.341 268.928 -27.2486 310.793 2.56211 156.083C17.073 80.7777 30.8894 26.7598 99.4655 26.7598C158.601 26.7598 178.446 78.993 192.573 155.865Z" fill="url(#paint2_radial_3904_6543)"/>
<path d="M142.46 39.7295C130.984 31.3237 116.938 26.7598 99.4669 26.7598C80.2494 26.7598 65.3339 31.0035 53.5 38.7622C87.0666 23.4765 100.789 59.3681 142.46 39.7295Z" fill="url(#paint3_linear_3904_6543)"/>
<path d="M42.8658 196.053C45.5158 179.991 81.402 145.373 129.554 171.885C177.699 198.397 98.5224 213.785 69.0354 209.098C39.5483 204.412 42.8658 196.053 42.8658 196.053Z" fill="url(#paint4_linear_3904_6543)"/>
<path d="M125.656 240.502C155.838 253.595 182.668 252.587 206.855 223.813C231.042 195.047 193.639 166.056 193.639 166.056C193.639 166.056 195.992 185.292 165.318 192.37C134.638 199.447 125.656 240.502 125.656 240.502Z" fill="url(#paint5_linear_3904_6543)"/>
<path d="M34.1999 194.713C16.0006 198.847 9.1834 232.845 47.5375 248.233C85.8848 263.621 115.702 251.244 133.591 231.17C151.481 211.102 154.211 196.041 163.281 192.369C163.281 192.369 150.402 160.258 112.014 175.98C73.6261 191.702 77.6044 203.411 61.0369 199.733C44.4694 196.055 47.4498 191.702 34.1999 194.713Z" fill="url(#paint6_linear_3904_6543)"/>
<path d="M51.3882 70.8329C63.0266 70.8329 72.46 61.31 72.46 49.5595C72.46 37.8091 63.0266 28.2861 51.3882 28.2861C39.7498 28.2861 30.3164 37.8091 30.3164 49.5595C30.3164 61.31 39.7498 70.8329 51.3882 70.8329Z" fill="url(#paint7_radial_3904_6543)"/>
<path d="M171.995 73.8975H53.1834C51.0998 73.8975 49.4141 75.6004 49.4141 77.6985C49.4141 79.8033 51.0998 81.4995 53.1834 81.4995H171.995C174.078 81.4995 175.764 79.7965 175.764 77.6985C175.764 75.5936 174.078 73.8975 171.995 73.8975Z" fill="url(#paint8_linear_3904_6543)"/>
<path d="M171.995 75.1436H53.1834C51.0998 75.1436 49.4141 76.8465 49.4141 78.9446C49.4141 81.0494 51.0998 82.7456 53.1834 82.7456H171.995C174.078 82.7456 175.764 81.0426 175.764 78.9446C175.764 76.8397 174.078 75.1436 171.995 75.1436Z" fill="url(#paint9_linear_3904_6543)"/>
<path d="M146.55 96.3158C156.968 96.3158 165.417 87.8078 165.417 77.3107C165.417 66.8137 156.968 58.3057 146.55 58.3057C136.133 58.3057 127.684 66.8137 127.684 77.3107C127.684 87.8078 136.133 96.3158 146.55 96.3158Z" fill="url(#paint10_linear_3904_6543)"/>
<path d="M148.34 98.216C158.757 98.216 167.206 89.708 167.206 79.211C167.206 68.7139 158.757 60.2059 148.34 60.2059C137.922 60.2059 129.473 68.7139 129.473 79.211C129.473 89.708 137.922 98.216 148.34 98.216Z" fill="url(#paint11_linear_3904_6543)"/>
<path d="M89.5817 96.3158C99.9996 96.3158 108.449 87.8078 108.449 77.3107C108.449 66.8137 99.9996 58.3057 89.5817 58.3057C79.1638 58.3057 70.7148 66.8137 70.7148 77.3107C70.7148 87.8078 79.1638 96.3158 89.5817 96.3158Z" fill="url(#paint12_linear_3904_6543)"/>
<path d="M91.3747 98.216C101.793 98.216 110.242 89.708 110.242 79.211C110.242 68.7139 101.793 60.2059 91.3747 60.2059C80.9568 60.2059 72.5078 68.7139 72.5078 79.211C72.5078 89.708 80.9568 98.216 91.3747 98.216Z" fill="url(#paint13_linear_3904_6543)"/>
<path d="M152.5 112.786C157.335 130.204 159.25 147.547 123.519 147.547C80.209 147.547 87.5386 130.66 93.3578 112.82C98.0442 98.4811 102.178 88.168 123.519 88.168C141.927 88.168 148.421 98.0928 152.5 112.779V112.786Z" fill="url(#paint14_radial_3904_6543)"/>
<path d="M126.335 101.757C134.022 101.757 140.253 99.8773 140.253 97.5545C140.253 95.2316 134.022 93.3584 126.335 93.3584C118.648 93.3584 112.418 95.2385 112.418 97.5545C112.418 99.8705 118.648 101.757 126.335 101.757Z" fill="url(#paint15_linear_3904_6543)"/>
<path d="M75.5 23.0898C79.0899 23.0898 82 20.1683 82 16.5645C82 12.9606 79.0899 10.0391 75.5 10.0391C71.9102 10.0391 69 12.9606 69 16.5645C69 20.1683 71.9102 23.0898 75.5 23.0898Z" fill="url(#paint16_radial_3904_6543)"/>
</g>
<defs>
<linearGradient id="paint0_linear_3904_6543" x1="74.3039" y1="17.069" x2="105.696" y2="17.069" gradientUnits="userSpaceOnUse">
<stop stop-color="#0071BC"/>
<stop offset="0.3" stop-color="#3FA9F5"/>
<stop offset="0.46" stop-color="#00FFFF"/>
<stop offset="1" stop-color="#FF5DAB"/>
</linearGradient>
<radialGradient id="paint1_radial_3904_6543" cx="0" cy="0" r="1" gradientUnits="userSpaceOnUse" gradientTransform="translate(146.864 55.4892) scale(20.005 28.4823)">
<stop offset="0.72" stop-color="#141225"/>
<stop offset="1" stop-color="#5B47A8"/>
</radialGradient>
<radialGradient id="paint2_radial_3904_6543" cx="0" cy="0" r="1" gradientUnits="userSpaceOnUse" gradientTransform="translate(82.3787 161.062) scale(102.475 161.051)">
<stop stop-color="#141225"/>
<stop offset="0.85" stop-color="#141225"/>
<stop offset="1" stop-color="#5B47A8"/>
</radialGradient>
<linearGradient id="paint3_linear_3904_6543" x1="53.5" y1="36.2691" x2="142.46" y2="36.2691" gradientUnits="userSpaceOnUse">
<stop stop-color="#0071BC"/>
<stop offset="0.3" stop-color="#3FA9F5"/>
<stop offset="0.46" stop-color="#00FFFF"/>
<stop offset="1" stop-color="#FF5DAB"/>
</linearGradient>
<linearGradient id="paint4_linear_3904_6543" x1="92.2491" y1="203.837" x2="100.896" y2="140.131" gradientUnits="userSpaceOnUse">
<stop offset="0.39" stop-color="#141225"/>
<stop offset="1" stop-color="#5B47A8"/>
</linearGradient>
<linearGradient id="paint5_linear_3904_6543" x1="161.111" y1="247.183" x2="194.83" y2="161.158" gradientUnits="userSpaceOnUse">
<stop offset="0.39" stop-color="#141225"/>
<stop offset="1" stop-color="#5B47A8"/>
</linearGradient>
<linearGradient id="paint6_linear_3904_6543" x1="88.1497" y1="251.214" x2="95.7714" y2="143.34" gradientUnits="userSpaceOnUse">
<stop offset="0.39" stop-color="#141225"/>
<stop offset="1" stop-color="#5B47A8"/>
</linearGradient>
<radialGradient id="paint7_radial_3904_6543" cx="0" cy="0" r="1" gradientUnits="userSpaceOnUse" gradientTransform="translate(49.58 71.4062) scale(25.9324 44.5968)">
<stop offset="0.85" stop-color="#141225"/>
<stop offset="1" stop-color="#5B47A8"/>
</radialGradient>
<linearGradient id="paint8_linear_3904_6543" x1="49.4208" y1="77.6917" x2="175.771" y2="77.6917" gradientUnits="userSpaceOnUse">
<stop stop-color="#FF5DAB"/>
<stop offset="0.7" stop-color="#3FA9F5"/>
<stop offset="1" stop-color="#0071BC"/>
</linearGradient>
<linearGradient id="paint9_linear_3904_6543" x1="49.4208" y1="78.9446" x2="175.771" y2="78.9446" gradientUnits="userSpaceOnUse">
<stop stop-color="#0071BC"/>
<stop offset="0.3" stop-color="#3FA9F5"/>
<stop offset="1" stop-color="#FF5DAB"/>
</linearGradient>
<linearGradient id="paint10_linear_3904_6543" x1="133.253" y1="90.7846" x2="160.125" y2="64.1031" gradientUnits="userSpaceOnUse">
<stop stop-color="#0071BC"/>
<stop offset="0.3" stop-color="#3FA9F5"/>
<stop offset="0.46" stop-color="#00FFFF"/>
<stop offset="1" stop-color="#FF5DAB"/>
</linearGradient>
<linearGradient id="paint11_linear_3904_6543" x1="135.042" y1="65.7372" x2="161.915" y2="92.4186" gradientUnits="userSpaceOnUse">
<stop stop-color="#0071BC"/>
<stop offset="0.3" stop-color="#3FA9F5"/>
<stop offset="0.46" stop-color="#00FFFF"/>
<stop offset="1" stop-color="#FF5DAB"/>
</linearGradient>
<linearGradient id="paint12_linear_3904_6543" x1="76.2845" y1="90.7846" x2="103.163" y2="64.11" gradientUnits="userSpaceOnUse">
<stop stop-color="#0071BC"/>
<stop offset="0.3" stop-color="#3FA9F5"/>
<stop offset="0.46" stop-color="#00FFFF"/>
<stop offset="1" stop-color="#FF5DAB"/>
</linearGradient>
<linearGradient id="paint13_linear_3904_6543" x1="78.0775" y1="65.7372" x2="104.95" y2="92.4118" gradientUnits="userSpaceOnUse">
<stop stop-color="#0071BC"/>
<stop offset="0.3" stop-color="#3FA9F5"/>
<stop offset="0.46" stop-color="#00FFFF"/>
<stop offset="1" stop-color="#FF5DAB"/>
</linearGradient>
<radialGradient id="paint14_radial_3904_6543" cx="0" cy="0" r="1" gradientUnits="userSpaceOnUse" gradientTransform="translate(85.7397 141.887) scale(70.6792 71.6307)">
<stop offset="0.85" stop-color="#141225"/>
<stop offset="1" stop-color="#5B47A8"/>
</radialGradient>
<linearGradient id="paint15_linear_3904_6543" x1="126.086" y1="100.429" x2="126.678" y2="93.8295" gradientUnits="userSpaceOnUse">
<stop stop-color="#080714"/>
<stop offset="0.74" stop-color="#3A2E6E"/>
<stop offset="1" stop-color="#533468"/>
</linearGradient>
<radialGradient id="paint16_radial_3904_6543" cx="0" cy="0" r="1" gradientUnits="userSpaceOnUse" gradientTransform="translate(75.5 16.5645) scale(6.5 6.52539)">
<stop stop-color="#00FFFF"/>
<stop offset="1" stop-color="#FF5DAB"/>
</radialGradient>
<clipPath id="clip0_3904_6543">
<rect width="215" height="257" fill="white"/>
</clipPath>
</defs>
</svg>
