<svg width="221" height="236" viewBox="0 0 221 236" fill="none" xmlns="http://www.w3.org/2000/svg">
<path d="M151.516 37.8212C161.25 37.8212 169.14 29.9379 169.14 20.2133C169.14 10.4888 161.25 2.60547 151.516 2.60547C141.782 2.60547 133.891 10.4888 133.891 20.2133C133.891 29.9379 141.782 37.8212 151.516 37.8212Z" fill="url(#paint0_radial_3904_6430)"/>
<path d="M199.489 132.336C221.011 248.231 -28.2202 291.138 2.6574 132.56C17.6842 55.3613 31.9935 0 103.036 0C164.297 0 184.85 53.5334 199.479 132.336H199.489Z" fill="url(#paint1_radial_3904_6430)"/>
<path d="M51.1215 45.1728C63.1792 45.1728 72.9539 35.409 72.9539 23.3647C72.9539 11.3205 63.1792 1.55664 51.1215 1.55664C39.0638 1.55664 29.2891 11.3205 29.2891 23.3647C29.2891 35.409 39.0638 45.1728 51.1215 45.1728Z" fill="url(#paint2_radial_3904_6430)"/>
<path d="M42.2874 173.522C45.031 157.062 82.2101 121.574 132.089 148.749C181.968 175.924 99.9514 191.694 69.4034 186.901C38.8555 182.098 42.2874 173.532 42.2874 173.532V173.522Z" fill="url(#paint3_linear_3904_6430)"/>
<path d="M157.975 88.1758C162.988 106.036 164.965 123.81 127.961 123.81C83.1034 123.81 90.6847 106.493 96.7148 88.2147C101.562 73.5237 105.847 62.9453 127.961 62.9453C147.03 62.9453 153.758 73.1153 157.975 88.1758Z" fill="url(#paint4_radial_3904_6430)"/>
<path d="M130.877 76.878C138.839 76.878 145.293 74.9496 145.293 72.5708C145.293 70.1921 138.839 68.2637 130.877 68.2637C122.915 68.2637 116.461 70.1921 116.461 72.5708C116.461 74.9496 122.915 76.878 130.877 76.878Z" fill="url(#paint5_linear_3904_6430)"/>
<path d="M128.057 219.084C159.322 232.501 187.117 231.47 212.168 201.981C237.219 172.492 201.019 141.496 201.019 141.496C201.019 141.496 200.912 162.507 169.133 169.75C137.354 177.004 128.047 219.084 128.047 219.084H128.057Z" fill="url(#paint6_linear_3904_6430)"/>
<path d="M35.425 172.151C16.5785 176.39 9.51108 211.237 49.2399 227.017C88.959 242.787 119.846 230.099 138.382 209.525C156.919 188.952 159.74 173.522 169.144 169.75C169.144 169.75 155.804 136.829 116.036 152.949C76.2687 169.059 80.3889 181.067 63.2293 177.295C46.0697 173.522 49.1623 169.069 35.4347 172.151H35.425Z" fill="url(#paint7_linear_3904_6430)"/>
<path fill-rule="evenodd" clip-rule="evenodd" d="M103.762 37.8086C91.061 40.7004 94.8498 62.03 107.414 59.3128C112.226 58.2745 115.947 52.9081 115.051 46.7169C114.32 41.6417 109.801 36.4403 103.762 37.8086ZM136.907 37.8086C124.206 40.7004 127.995 62.03 140.56 59.3128C145.371 58.2745 149.092 52.9081 148.196 46.7169C147.465 41.6417 142.946 36.4403 136.907 37.8086ZM84.3988 17.8278C85.6943 17.362 87.0773 16.5275 88.402 15.9064C105.622 7.73559 124.304 5.52306 142.741 10.7924C151.118 13.1893 157.254 16.9642 159.543 17.6726C156.368 12.6362 142.06 6.59051 136.245 5.53277L137.365 3.05822C141.446 2.88355 149.141 5.51336 152.403 7.0369C156.377 8.89038 158.247 9.99665 161.666 12.2383C166.721 15.5377 172.848 36.0424 174.503 42.9614C175.76 48.2016 176.714 53.7136 177.357 59.2546C178.585 69.7738 179.364 68.3958 173.52 73.374C167.608 78.4105 155.861 83.8447 145.186 83.9806C144.387 83.3595 141.787 79.7011 141.008 78.5657C142.537 77.5856 145.41 76.5764 147.173 75.8098C150.29 74.3638 160.682 67.474 162.231 64.3395C159.699 65.7466 158.033 67.1925 154.001 69.308C144.436 74.3347 132.797 76.4987 121.606 76.392C104.814 76.227 92.1421 71.637 81.5937 64.0387C82.0612 64.4172 83.0645 65.7078 83.6294 66.29C92.4538 74.6938 102.34 77.8088 103.187 78.556C102.087 80.361 100.178 82.2436 99.2426 84C89.0935 83.476 71.7758 77.7506 66 68.6481C66.9156 53.2769 70.0421 37.7309 75.3991 24.8051C76.8114 21.3892 79.636 14.1791 82.5872 12.1315C88.9669 7.71619 99.1841 3.2426 106.801 3L108.028 5.39691C100.82 7.83263 89.1227 11.4426 84.3988 17.7987V17.8278Z" fill="url(#paint8_linear_3904_6430)"/>
<path fill-rule="evenodd" clip-rule="evenodd" d="M106.539 37.8086C93.8383 40.7004 97.6272 62.03 110.192 59.3128C115.003 58.2745 118.724 52.9081 117.828 46.7169C117.097 41.6417 112.578 36.4403 106.539 37.8086ZM139.684 37.8086C126.984 40.7004 130.772 62.03 143.337 59.3128C148.149 58.2745 151.869 52.9081 150.973 46.7169C150.243 41.6417 145.723 36.4403 139.684 37.8086ZM87.1762 17.8278C88.4716 17.362 89.8547 16.5275 91.1793 15.9064C108.4 7.73559 127.081 5.52306 145.519 10.7924C153.895 13.1893 160.031 16.9642 162.32 17.6726C159.145 12.6362 144.837 6.59051 139.022 5.53277L140.142 3.05822C144.223 2.88355 151.918 5.51336 155.181 7.0369C159.155 8.89038 161.025 9.99665 164.444 12.2383C169.499 15.5377 175.625 36.0424 177.281 42.9614C178.537 48.2016 179.492 53.7136 180.135 59.2546C181.362 69.7738 182.141 68.3958 176.297 73.374C170.385 78.4105 158.638 83.8447 147.963 83.9806C147.165 83.3595 144.564 79.7011 143.785 78.5657C145.314 77.5856 148.187 76.5764 149.95 75.8098C153.067 74.3638 163.46 67.474 165.008 64.3395C162.476 65.7466 160.811 67.1925 156.778 69.308C147.213 74.3347 135.574 76.4987 124.383 76.392C107.591 76.227 94.9195 71.637 84.3711 64.0387C84.8386 64.4172 85.8418 65.7078 86.4067 66.29C95.2312 74.6938 105.117 77.8088 105.965 78.556C104.864 80.361 102.955 82.2436 102.02 84C91.8709 83.476 74.5532 77.7506 68.7773 68.6481C69.6929 53.2769 72.8194 37.7309 78.1764 24.8051C79.5887 21.3892 82.4133 14.1791 85.3645 12.1315C91.7442 7.71619 101.961 3.2426 109.578 3L110.805 5.39691C103.598 7.83263 91.9001 11.4426 87.1762 17.7987V17.8278Z" fill="url(#paint9_linear_3904_6430)"/>
<defs>
<radialGradient id="paint0_radial_3904_6430" cx="0" cy="0" r="1" gradientUnits="userSpaceOnUse" gradientTransform="translate(150.03 29.4402) scale(20.7251 29.1925)">
<stop offset="0.72" stop-color="#141225"/>
<stop offset="1" stop-color="#5B47A8"/>
</radialGradient>
<radialGradient id="paint1_radial_3904_6430" cx="0" cy="0" r="1" gradientUnits="userSpaceOnUse" gradientTransform="translate(85.6155 137.762) scale(106.154 165.074)">
<stop stop-color="#141225"/>
<stop offset="0.85" stop-color="#141225"/>
<stop offset="1" stop-color="#5B47A8"/>
</radialGradient>
<radialGradient id="paint2_radial_3904_6430" cx="0" cy="0" r="1" gradientUnits="userSpaceOnUse" gradientTransform="translate(49.8603 45.77) scale(26.8684 45.7177)">
<stop offset="0.85" stop-color="#141225"/>
<stop offset="1" stop-color="#5B47A8"/>
</radialGradient>
<linearGradient id="paint3_linear_3904_6430" x1="93.4462" y1="181.514" x2="102.211" y2="116.184" gradientUnits="userSpaceOnUse">
<stop offset="0.39" stop-color="#141225"/>
<stop offset="1" stop-color="#5B47A8"/>
</linearGradient>
<radialGradient id="paint4_radial_3904_6430" cx="0" cy="0" r="1" gradientUnits="userSpaceOnUse" gradientTransform="translate(89.4374 118.001) scale(73.2109 73.4227)">
<stop offset="0.85" stop-color="#141225"/>
<stop offset="1" stop-color="#5B47A8"/>
</radialGradient>
<linearGradient id="paint5_linear_3904_6430" x1="130.615" y1="75.5168" x2="131.22" y2="68.7404" gradientUnits="userSpaceOnUse">
<stop stop-color="#110E24"/>
<stop offset="0.74" stop-color="#5B47A8"/>
<stop offset="1" stop-color="#9D3DDA"/>
</linearGradient>
<linearGradient id="paint6_linear_3904_6430" x1="164.935" y1="225.909" x2="200.021" y2="136.402" gradientUnits="userSpaceOnUse">
<stop offset="0.39" stop-color="#141225"/>
<stop offset="1" stop-color="#5B47A8"/>
</linearGradient>
<linearGradient id="paint7_linear_3904_6430" x1="91.3148" y1="230.07" x2="99.047" y2="119.477" gradientUnits="userSpaceOnUse">
<stop offset="0.39" stop-color="#141225"/>
<stop offset="1" stop-color="#5B47A8"/>
</linearGradient>
<linearGradient id="paint8_linear_3904_6430" x1="83.8144" y1="86.9889" x2="160.049" y2="10.4623" gradientUnits="userSpaceOnUse">
<stop stop-color="#FF5DAB"/>
<stop offset="0.54" stop-color="#00FFFF"/>
<stop offset="0.7" stop-color="#3FA9F5"/>
<stop offset="1" stop-color="#0071BC"/>
</linearGradient>
<linearGradient id="paint9_linear_3904_6430" x1="86.621" y1="10.7827" x2="162.788" y2="87.2313" gradientUnits="userSpaceOnUse">
<stop stop-color="#0071BC"/>
<stop offset="0.3" stop-color="#3FA9F5"/>
<stop offset="0.46" stop-color="#00FFFF"/>
<stop offset="1" stop-color="#FF5DAB"/>
</linearGradient>
</defs>
</svg>
