<svg width="220" height="264" viewBox="0 0 220 264" fill="none" xmlns="http://www.w3.org/2000/svg">
<g clip-path="url(#clip0_3904_6478)">
<path d="M150.834 64.7881C160.524 64.7881 168.379 56.8637 168.379 47.0884C168.379 37.3131 160.524 29.3887 150.834 29.3887C141.144 29.3887 133.289 37.3131 133.289 47.0884C133.289 56.8637 141.144 64.7881 150.834 64.7881Z" fill="url(#paint0_radial_3904_6478)"/>
<path d="M198.582 159.795C220.007 276.295 -28.0964 319.425 2.64149 160.02C17.6003 82.4185 31.8449 26.7684 102.566 26.7684C163.55 26.7684 184.009 80.5811 198.572 159.795H198.582Z" fill="url(#paint1_radial_3904_6478)"/>
<path d="M42.0955 201.196C44.8266 184.649 81.8375 148.976 131.491 176.293C181.144 203.61 99.4985 219.462 69.0888 214.644C38.6791 209.816 42.0955 201.205 42.0955 201.205V201.196Z" fill="url(#paint2_linear_3904_6478)"/>
<path d="M127.478 246.994C158.602 260.482 186.271 259.446 211.209 229.803C236.147 200.16 200.11 169.002 200.11 169.002C200.11 169.002 200.004 190.122 168.369 197.404C136.734 204.695 127.469 246.994 127.469 246.994H127.478Z" fill="url(#paint3_linear_3904_6478)"/>
<path d="M35.2666 199.817C16.5055 204.079 9.47002 239.107 49.0191 254.969C88.5585 270.822 119.306 258.067 137.758 237.387C156.211 216.706 159.019 201.196 168.38 197.403C168.38 197.403 155.101 164.311 115.513 180.515C75.9255 196.71 80.0271 208.78 62.9452 204.988C45.8632 201.196 48.9419 196.719 35.2763 199.817H35.2666Z" fill="url(#paint4_linear_3904_6478)"/>
<path d="M179.774 75.9978H53.9373C51.752 75.9978 49.9805 77.7918 49.9805 80.0049C49.9805 82.218 51.752 84.012 53.9373 84.012H179.774C181.96 84.012 183.731 82.218 183.731 80.0049C183.731 77.7918 181.96 75.9978 179.774 75.9978Z" fill="url(#paint5_linear_3904_6478)"/>
<path d="M179.774 77.3173H53.9373C51.752 77.3173 49.9805 79.1113 49.9805 81.3244C49.9805 83.5374 51.752 85.3315 53.9373 85.3315H179.774C181.96 85.3315 183.731 83.5374 183.731 81.3244C183.731 79.1113 181.96 77.3173 179.774 77.3173Z" fill="url(#paint6_linear_3904_6478)"/>
<path d="M109.999 75.0398C109.999 86.895 100.503 96.5121 88.7966 96.5121C77.0902 96.5121 67.5938 86.895 67.5938 75.0398C67.5938 63.1846 109.999 63.1846 109.999 75.0398Z" fill="url(#paint7_linear_3904_6478)"/>
<path d="M113.859 75.0398C113.859 86.895 104.362 96.5121 92.656 96.5121C80.9495 96.5121 71.4531 86.895 71.4531 75.0398C71.4531 63.1846 113.859 63.1846 113.859 75.0398Z" fill="url(#paint8_linear_3904_6478)"/>
<path d="M173.656 75.0398C173.656 86.895 164.159 96.5121 152.453 96.5121C140.746 96.5121 131.25 86.895 131.25 75.0398C131.25 63.1846 173.656 63.1846 173.656 75.0398Z" fill="url(#paint9_linear_3904_6478)"/>
<path d="M177.515 75.0398C177.515 86.895 168.019 96.5121 156.312 96.5121C144.606 96.5121 135.109 86.895 135.109 75.0398C135.109 63.1846 177.515 63.1846 177.515 75.0398Z" fill="url(#paint10_linear_3904_6478)"/>
<path d="M104.45 62.6247C143.141 63.7413 160.232 55.1353 169.258 43.5644C178.293 31.9838 184.071 23.5318 164.544 28.2199C145.017 32.908 91.4849 29.2884 58.8804 26.9011C26.2759 24.5137 21.7581 29.1633 35.7035 44.7677C49.6488 60.3721 79.1077 61.9027 104.441 62.6343L104.45 62.6247Z" fill="url(#paint11_linear_3904_6478)"/>
<path d="M104.52 58.1349C143.377 59.1174 160.541 51.5336 169.606 41.3169C178.681 31.1001 184.483 23.6403 164.872 27.7804C145.261 31.9205 91.4989 28.7153 58.7543 26.6166C26.0096 24.5179 21.4724 28.6103 35.4777 42.3757C49.483 56.1507 79.0685 57.4957 104.511 58.1349H104.52Z" fill="url(#paint12_linear_3904_6478)"/>
<path d="M58.5312 46.4994C58.5312 46.4994 68.1961 25.4083 73.1541 13.3629C78.1214 1.31763 86.2142 1.19423 111.404 0.0362117C136.594 -1.12181 145.496 33.4669 148.268 43.0728C151.04 52.6787 80.4748 57.007 58.5406 46.4994H58.5312Z" fill="url(#paint13_linear_3904_6478)"/>
<path d="M50.8899 72.1766C62.893 72.1766 72.6235 62.3619 72.6235 50.2547C72.6235 38.1476 62.893 28.3329 50.8899 28.3329C38.8867 28.3329 29.1562 38.1476 29.1562 50.2547C29.1562 62.3619 38.8867 72.1766 50.8899 72.1766Z" fill="url(#paint14_radial_3904_6478)"/>
<path d="M157.259 115.404C162.249 133.358 164.218 151.224 127.381 151.224C82.7263 151.224 90.2732 133.817 96.276 115.443C101.101 100.676 105.367 90.042 127.381 90.042C146.364 90.042 153.061 100.265 157.259 115.404Z" fill="url(#paint15_radial_3904_6478)"/>
<path d="M130.284 104.048C138.21 104.048 144.635 102.11 144.635 99.7183C144.635 97.3271 138.21 95.3887 130.284 95.3887C122.359 95.3887 115.934 97.3271 115.934 99.7183C115.934 102.11 122.359 104.048 130.284 104.048Z" fill="url(#paint16_linear_3904_6478)"/>
</g>
<defs>
<radialGradient id="paint0_radial_3904_6478" cx="0" cy="0" r="1" gradientUnits="userSpaceOnUse" gradientTransform="translate(148.746 56.4074) scale(20.6313 29.3448)">
<stop offset="0.72" stop-color="#141225"/>
<stop offset="1" stop-color="#5B47A8"/>
</radialGradient>
<radialGradient id="paint1_radial_3904_6478" cx="0" cy="0" r="1" gradientUnits="userSpaceOnUse" gradientTransform="translate(84.6146 165.217) scale(105.673 165.935)">
<stop stop-color="#141225"/>
<stop offset="0.85" stop-color="#141225"/>
<stop offset="1" stop-color="#5B47A8"/>
</radialGradient>
<linearGradient id="paint2_linear_3904_6478" x1="93.0228" y1="209.229" x2="101.917" y2="143.581" gradientUnits="userSpaceOnUse">
<stop offset="0.39" stop-color="#141225"/>
<stop offset="1" stop-color="#5B47A8"/>
</linearGradient>
<linearGradient id="paint3_linear_3904_6478" x1="164.19" y1="253.855" x2="199.711" y2="164.116" gradientUnits="userSpaceOnUse">
<stop offset="0.39" stop-color="#141225"/>
<stop offset="1" stop-color="#5B47A8"/>
</linearGradient>
<linearGradient id="paint4_linear_3904_6478" x1="90.9036" y1="258.038" x2="98.7515" y2="146.879" gradientUnits="userSpaceOnUse">
<stop offset="0.39" stop-color="#141225"/>
<stop offset="1" stop-color="#5B47A8"/>
</linearGradient>
<linearGradient id="paint5_linear_3904_6478" x1="49.9805" y1="80.0049" x2="183.731" y2="80.0049" gradientUnits="userSpaceOnUse">
<stop stop-color="#FF5DAB"/>
<stop offset="0.7" stop-color="#3FA9F5"/>
<stop offset="1" stop-color="#0071BC"/>
</linearGradient>
<linearGradient id="paint6_linear_3904_6478" x1="49.9805" y1="81.3244" x2="183.731" y2="81.3244" gradientUnits="userSpaceOnUse">
<stop stop-color="#0071BC"/>
<stop offset="0.3" stop-color="#3FA9F5"/>
<stop offset="1" stop-color="#FF5DAB"/>
</linearGradient>
<linearGradient id="paint7_linear_3904_6478" x1="98.8045" y1="94.8409" x2="81.1511" y2="64.6482" gradientUnits="userSpaceOnUse">
<stop stop-color="#FF5DAB"/>
<stop offset="0.54" stop-color="#00FFFF"/>
<stop offset="0.7" stop-color="#3FA9F5"/>
<stop offset="1" stop-color="#0071BC"/>
</linearGradient>
<linearGradient id="paint8_linear_3904_6478" x1="71.4724" y1="71.6973" x2="110.035" y2="86.9787" gradientUnits="userSpaceOnUse">
<stop stop-color="#FF5DAB"/>
<stop offset="0.54" stop-color="#00FFFF"/>
<stop offset="0.7" stop-color="#3FA9F5"/>
<stop offset="1" stop-color="#0071BC"/>
</linearGradient>
<linearGradient id="paint9_linear_3904_6478" x1="162.461" y1="-7.05719" x2="144.72" y2="64.3515" gradientUnits="userSpaceOnUse">
<stop stop-color="#FF5DAB"/>
<stop offset="0.54" stop-color="#00FFFF"/>
<stop offset="0.7" stop-color="#3FA9F5"/>
<stop offset="1" stop-color="#0071BC"/>
</linearGradient>
<linearGradient id="paint10_linear_3904_6478" x1="135.129" y1="71.6973" x2="173.692" y2="86.9787" gradientUnits="userSpaceOnUse">
<stop stop-color="#FF5DAB"/>
<stop offset="0.54" stop-color="#00FFFF"/>
<stop offset="0.7" stop-color="#3FA9F5"/>
<stop offset="1" stop-color="#0071BC"/>
</linearGradient>
<linearGradient id="paint11_linear_3904_6478" x1="103.059" y1="37.5575" x2="103.834" y2="77.2366" gradientUnits="userSpaceOnUse">
<stop stop-color="#5B47A8"/>
<stop offset="0.61" stop-color="#110E24"/>
</linearGradient>
<linearGradient id="paint12_linear_3904_6478" x1="100.695" y1="57.0665" x2="105.499" y2="3.07829" gradientUnits="userSpaceOnUse">
<stop offset="0.39" stop-color="#110E24"/>
<stop offset="1" stop-color="#5B47A8"/>
</linearGradient>
<linearGradient id="paint13_linear_3904_6478" x1="84.7523" y1="46.6815" x2="143.493" y2="4.446" gradientUnits="userSpaceOnUse">
<stop offset="0.39" stop-color="#110E24"/>
<stop offset="1" stop-color="#5B47A8"/>
</linearGradient>
<radialGradient id="paint14_radial_3904_6478" cx="0" cy="0" r="1" gradientUnits="userSpaceOnUse" gradientTransform="translate(49.0249 72.7673) scale(26.7468 45.9562)">
<stop offset="0.85" stop-color="#141225"/>
<stop offset="1" stop-color="#5B47A8"/>
</radialGradient>
<radialGradient id="paint15_radial_3904_6478" cx="0" cy="0" r="1" gradientUnits="userSpaceOnUse" gradientTransform="translate(88.422 145.392) scale(72.8796 73.8057)">
<stop offset="0.85" stop-color="#141225"/>
<stop offset="1" stop-color="#5B47A8"/>
</radialGradient>
<linearGradient id="paint16_linear_3904_6478" x1="130.024" y1="102.68" x2="130.637" y2="95.8689" gradientUnits="userSpaceOnUse">
<stop stop-color="#110E24"/>
<stop offset="0.74" stop-color="#5B47A8"/>
<stop offset="1" stop-color="#9D3DDA"/>
</linearGradient>
<clipPath id="clip0_3904_6478">
<rect width="220" height="264" fill="white"/>
</clipPath>
</defs>
</svg>
