<svg width="440" height="336" viewBox="0 0 440 336" fill="none" xmlns="http://www.w3.org/2000/svg">
<g clip-path="url(#clip0_12628_615)">
<path d="M139.685 132.547C139.685 132.547 95.0865 142.994 85.7803 167.901C76.4741 192.809 66.385 225.774 43.5111 251.762C20.6372 277.75 5.89003 312.57 0.468873 323.284C-4.95229 333.998 61.7468 332.056 75.3146 314.601C88.8823 297.147 114.095 349.896 138.139 326.237C162.182 302.579 193.985 333.998 196.701 283.965C199.417 233.932 139.695 132.557 139.695 132.557L139.685 132.547Z" fill="url(#paint0_linear_12628_615)"/>
<path d="M423.031 32.1526C477.539 55.7717 382.03 180.429 351.941 227.3C321.852 274.172 294.855 167.346 336.857 92.0577C378.849 16.77 399.195 21.8248 423.031 32.1526Z" fill="url(#paint1_linear_12628_615)"/>
<path d="M301.747 53.6909C315.553 53.6909 326.752 42.5008 326.752 28.6941C326.752 14.8874 315.553 3.69727 301.747 3.69727C287.941 3.69727 276.742 14.8874 276.742 28.6941C276.742 42.5008 287.941 53.6909 301.747 53.6909Z" fill="url(#paint2_radial_12628_615)"/>
<path d="M366.807 187.853C411.93 365.407 46.6115 403.795 87.5329 188.17C108.871 78.5883 129.178 0 229.97 0C316.887 0 346.054 76.0014 366.817 187.853H366.807Z" fill="url(#paint3_radial_12628_615)"/>
<path d="M124.917 204.375C98.0189 199.062 68.8615 240.264 111.369 283.528C153.876 326.792 192.369 328.229 236.026 318.09C282.19 304.451 290.753 281.219 283.052 261.416C283.052 261.416 264.023 208.904 228.523 229.917C177.433 248.61 178.147 241.731 158.038 226.993C137.929 212.254 144.5 208.24 124.907 204.375H124.917Z" fill="url(#paint4_linear_12628_615)"/>
<path d="M159.307 64.1275C176.413 64.1275 190.278 50.2712 190.278 33.1738C190.278 16.0765 176.413 2.22021 159.307 2.22021C142.201 2.22021 128.336 16.0765 128.336 33.1738C128.336 50.2712 142.201 64.1275 159.307 64.1275Z" fill="url(#paint5_radial_12628_615)"/>
<path d="M307.909 125.162C315.015 150.506 317.83 175.741 265.313 175.741C201.657 175.741 212.43 151.17 220.983 125.212C227.871 104.348 233.946 89.3423 265.313 89.3423C292.369 89.3423 301.913 103.783 307.909 125.153V125.162Z" fill="url(#paint6_radial_12628_615)"/>
<path d="M269.464 109.126C280.762 109.126 289.919 106.39 289.919 103.01C289.919 99.6305 280.762 96.9048 269.464 96.9048C258.165 96.9048 249.008 99.6404 249.008 103.01C249.008 106.38 258.165 109.126 269.464 109.126Z" fill="url(#paint7_linear_12628_615)"/>
<path d="M340.038 95.0311C337.957 76.7642 319.097 69.4793 319.265 59.4587C319.434 49.4382 325.797 22.2311 314.221 33.8771C303.567 44.6113 282.586 45.1564 266.441 45.1763C265.718 45.1763 264.994 45.1763 264.251 45.1763C263.627 45.1763 263.002 45.1763 262.398 45.1763C241.169 45.1763 213.102 44.7798 198.959 33.8771C183.836 22.2212 192.151 49.4382 192.369 59.4587C192.587 69.4793 167.939 76.7741 165.223 95.0311C162.508 113.288 178.018 89.6492 198.573 86.0117C219.128 82.3741 198.533 112.654 224.727 94.6446C248.176 78.5285 261.684 76.9922 264.261 76.8435C266.233 76.9922 276.57 78.5285 294.508 94.6446C314.558 112.644 298.8 82.3642 314.528 86.0117C330.256 89.6492 342.129 113.298 340.048 95.0311H340.038ZM203.023 58.9731C203.023 58.9731 211.744 57.7837 221.06 62.7989C230.366 67.8042 242.388 64.246 242.388 64.246C220.862 88.3607 203.023 58.9731 203.023 58.9731ZM277.759 64.246C277.759 64.246 287.293 67.8042 294.677 62.7989C302.06 57.7936 308.978 58.9731 308.978 58.9731C308.978 58.9731 294.826 88.3607 277.759 64.246Z" fill="url(#paint8_linear_12628_615)"/>
<path d="M342.823 95.0311C340.742 76.7642 321.882 69.4793 322.051 59.4587C322.219 49.4382 328.582 22.2311 317.006 33.8771C306.352 44.6113 285.371 45.1564 269.226 45.1763C268.503 45.1763 267.78 45.1763 267.036 45.1763C266.412 45.1763 265.787 45.1763 265.183 45.1763C243.954 45.1763 215.887 44.7798 201.744 33.8771C186.621 22.2212 194.936 49.4382 195.154 59.4587C195.372 69.4793 170.724 76.7741 168.008 95.0311C165.293 113.288 180.803 89.6492 201.358 86.0117C221.913 82.3741 201.318 112.654 227.512 94.6446C250.961 78.5285 264.469 76.9922 267.046 76.8435C269.018 76.9922 279.355 78.5285 297.294 94.6446C317.343 112.644 301.585 82.3642 317.313 86.0117C333.042 89.6492 344.915 113.298 342.833 95.0311H342.823ZM205.808 58.9731C205.808 58.9731 214.529 57.7837 223.845 62.7989C233.151 67.8042 245.173 64.246 245.173 64.246C223.647 88.3607 205.808 58.9731 205.808 58.9731ZM280.545 64.246C280.545 64.246 290.079 67.8042 297.462 62.7989C304.846 57.7936 311.763 58.9731 311.763 58.9731C311.763 58.9731 297.611 88.3607 280.545 64.246Z" fill="url(#paint9_linear_12628_615)"/>
<path d="M139.685 132.547C139.685 143.172 110.28 124.548 86.2071 184.285C62.134 244.022 43.5117 251.772 43.5117 251.772C43.5117 251.772 71.4302 204.276 79.1903 167.911C86.9504 131.546 139.685 132.557 139.685 132.557V132.547Z" fill="url(#paint10_linear_12628_615)"/>
</g>
<defs>
<linearGradient id="paint0_linear_12628_615" x1="98.466" y1="332.452" x2="98.466" y2="171.658" gradientUnits="userSpaceOnUse">
<stop offset="0.19" stop-color="#080713"/>
<stop offset="0.32" stop-color="#080815"/>
<stop offset="0.4" stop-color="#0A0E1E"/>
<stop offset="0.46" stop-color="#0E192C"/>
<stop offset="0.52" stop-color="#132841"/>
<stop offset="0.58" stop-color="#193B5C"/>
<stop offset="0.63" stop-color="#21527C"/>
<stop offset="0.68" stop-color="#2B6EA3"/>
<stop offset="0.72" stop-color="#358ECF"/>
<stop offset="0.76" stop-color="#3FA9F5"/>
<stop offset="1" stop-color="#0071BC"/>
</linearGradient>
<linearGradient id="paint1_linear_12628_615" x1="393.12" y1="171.915" x2="347.058" y2="44.5146" gradientUnits="userSpaceOnUse">
<stop offset="0.39" stop-color="#080713"/>
<stop offset="1" stop-color="#3A2E6E"/>
</linearGradient>
<radialGradient id="paint2_radial_12628_615" cx="0" cy="0" r="1" gradientUnits="userSpaceOnUse" gradientTransform="translate(300.585 41.8188) scale(29.5439 41.6382)">
<stop offset="0.64" stop-color="#080814"/>
<stop offset="0.72" stop-color="#090814"/>
<stop offset="1" stop-color="#3A2E6E"/>
</radialGradient>
<radialGradient id="paint3_radial_12628_615" cx="0" cy="0" r="1" gradientUnits="userSpaceOnUse" gradientTransform="translate(217.592 245.086) scale(164.957 252.306)">
<stop stop-color="#090814"/>
<stop offset="0.85" stop-color="#090814"/>
<stop offset="1" stop-color="#3A2E6E"/>
</radialGradient>
<linearGradient id="paint4_linear_12628_615" x1="158.902" y1="309.858" x2="231.218" y2="172.872" gradientUnits="userSpaceOnUse">
<stop offset="0.39" stop-color="#080713"/>
<stop offset="1" stop-color="#3A2E6E"/>
</linearGradient>
<radialGradient id="paint5_radial_12628_615" cx="0" cy="0" r="1" gradientUnits="userSpaceOnUse" gradientTransform="translate(157.87 65.3355) scale(38.3049 64.7122)">
<stop offset="0.85" stop-color="#080714"/>
<stop offset="1" stop-color="#3A2E6E"/>
</radialGradient>
<radialGradient id="paint6_radial_12628_615" cx="0" cy="0" r="1" gradientUnits="userSpaceOnUse" gradientTransform="translate(212.079 166.592) scale(104.37 104.328)">
<stop offset="0.85" stop-color="#090814"/>
<stop offset="1" stop-color="#3A2E6E"/>
</radialGradient>
<linearGradient id="paint7_linear_12628_615" x1="269.097" y1="107.203" x2="269.949" y2="97.5887" gradientUnits="userSpaceOnUse">
<stop stop-color="#080714"/>
<stop offset="0.74" stop-color="#3A2E6E"/>
<stop offset="1" stop-color="#533468"/>
</linearGradient>
<linearGradient id="paint8_linear_12628_615" x1="164.906" y1="66.4563" x2="340.276" y2="66.4563" gradientUnits="userSpaceOnUse">
<stop stop-color="#FF5DAB"/>
<stop offset="0.54" stop-color="#00FFFF"/>
<stop offset="0.7" stop-color="#3FA9F5"/>
<stop offset="1" stop-color="#0071BC"/>
</linearGradient>
<linearGradient id="paint9_linear_12628_615" x1="167.691" y1="66.4563" x2="343.061" y2="66.4563" gradientUnits="userSpaceOnUse">
<stop stop-color="#0071BC"/>
<stop offset="0.3" stop-color="#3FA9F5"/>
<stop offset="0.46" stop-color="#00FFFF"/>
<stop offset="1" stop-color="#FF5DAB"/>
</linearGradient>
<linearGradient id="paint10_linear_12628_615" x1="43.5117" y1="192.155" x2="139.685" y2="192.155" gradientUnits="userSpaceOnUse">
<stop stop-color="#0071BC"/>
<stop offset="0.3" stop-color="#3FA9F5"/>
<stop offset="0.46" stop-color="#00FFFF"/>
<stop offset="1" stop-color="#FF5DAB"/>
</linearGradient>
<clipPath id="clip0_12628_615">
<rect width="440" height="336" fill="white"/>
</clipPath>
</defs>
</svg>
