<svg width="209" height="35" viewBox="0 0 209 35" fill="none" xmlns="http://www.w3.org/2000/svg">
<path d="M2.86719 9.69922C3.42578 8.45312 3.94141 7.47917 4.41406 6.77734C4.92969 5.98958 5.51693 5.23763 6.17578 4.52148C6.84896 3.80534 7.40755 3.28255 7.85156 2.95312C8.85417 2.19401 9.84961 1.71419 10.8379 1.51367C11.4108 1.39909 12.0697 1.32031 12.8145 1.27734C13.0436 1.26302 13.237 1.26302 13.3945 1.27734C16.5599 1.53516 18.1426 2.88867 18.1426 5.33789V5.72461C18.1426 5.83919 18.1283 6.00391 18.0996 6.21875C17.8561 8.05208 16.5169 11.4967 14.082 16.5527C13.9818 16.7533 13.8385 17.0469 13.6523 17.4336L13.1582 18.4004C12.0553 20.4772 10.5156 23.571 8.53906 27.6816C10.1432 26.1061 11.5397 24.7168 12.7285 23.5137L18.6152 17.4766C21.6087 14.4115 23.3346 12.6283 23.793 12.127C26.0846 9.64909 27.5599 7.73698 28.2188 6.39062C28.2617 6.29036 28.3763 6.17578 28.5625 6.04688C28.8633 5.83203 29.1497 5.66732 29.4219 5.55273C29.694 5.42383 30.0378 5.30924 30.4531 5.20898L31.1621 5.03711C31.3913 5.00846 31.6133 4.99414 31.8281 4.99414C32.0859 4.99414 32.3008 5.02995 32.4727 5.10156C32.6589 5.17318 32.752 5.30924 32.752 5.50977C32.752 5.58138 32.7376 5.65299 32.709 5.72461C32.6803 5.85352 32.6374 5.97526 32.5801 6.08984C32.1934 6.83464 31.5488 8.08073 30.6465 9.82812C29.6152 11.819 28.806 13.416 28.2188 14.6191C26.3138 18.5723 24.8457 22.153 23.8145 25.3613C23.1413 27.4668 22.8047 29.2285 22.8047 30.6465V31.0332C22.8047 31.4915 21.9954 31.8138 20.377 32C19.6322 32.0859 18.9876 32.1289 18.4434 32.1289C18.429 32.1003 18.4076 31.9355 18.3789 31.6348C18.3646 31.334 18.3574 31.1478 18.3574 31.0762V30.9043C18.3574 28.8848 19.1953 25.9056 20.8711 21.9668C21.1003 21.4082 21.4655 20.5846 21.9668 19.4961C20.5059 21.0716 18.2643 23.3776 15.2422 26.4141C13.151 28.3906 11.0957 30.0736 9.07617 31.4629C8.94727 31.5632 8.73958 31.6849 8.45312 31.8281C8.2526 31.9427 8.06641 32.0143 7.89453 32.043C7.66536 32.1003 7.45768 32.1432 7.27148 32.1719C6.99935 32.2292 6.79167 32.2578 6.64844 32.2578C5.90365 32.2578 5.24479 32.0072 4.67188 31.5059C4.09896 31.0046 3.80534 30.3171 3.79102 29.4434C3.77669 29.0996 3.81966 28.7344 3.91992 28.3477C3.96289 28.1615 4.11328 27.7533 4.37109 27.123C6.08984 22.9121 7.58659 19.4316 8.86133 16.6816C9.04753 16.2806 9.23372 15.901 9.41992 15.543L11.1387 12.1055C11.7116 11.1172 12.4206 9.67057 13.2656 7.76562C13.4089 7.29297 13.4805 6.84896 13.4805 6.43359C13.4805 5.71745 13.1152 5.32357 12.3848 5.25195C12.1986 5.25195 12.0195 5.26628 11.8477 5.29492C11.4323 5.43815 11.0384 5.61003 10.666 5.81055C10.4082 5.95378 10.2005 6.08984 10.043 6.21875C8.92578 7.13542 7.98763 8.4388 7.22852 10.1289C6.79883 11.0885 6.41927 12.1341 6.08984 13.2656C5.83203 14.168 5.58138 14.7982 5.33789 15.1562C5.06576 15.4284 4.62174 15.7793 4.00586 16.209C3.73372 16.4095 3.41146 16.5957 3.03906 16.7676C2.39453 17.1829 1.8431 17.3906 1.38477 17.3906C0.998047 17.3906 0.776042 17.1973 0.71875 16.8105V16.7676C0.71875 15.9512 1.02669 14.6335 1.64258 12.8145C1.8431 12.2129 2.17969 11.332 2.65234 10.1719C2.69531 10.0573 2.76693 9.89974 2.86719 9.69922ZM33.9551 17.9707C33.6973 17.6986 33.5254 17.4193 33.4395 17.1328C33.3105 16.832 33.2461 16.5384 33.2461 16.252C33.2461 15.2064 33.6471 14.3971 34.4492 13.8242C34.5352 13.7956 34.6139 13.7598 34.6855 13.7168C34.7572 13.6738 34.8216 13.6523 34.8789 13.6523C35.0221 13.6237 35.1725 13.5951 35.3301 13.5664H35.6738C36.3184 13.5664 36.834 13.7096 37.2207 13.9961C37.5645 14.2539 37.8294 14.7552 38.0156 15.5V15.8438C38.0443 16.1016 38.0872 16.2806 38.1445 16.3809C38.1875 16.5384 38.2448 16.653 38.3164 16.7246H38.3594H38.4023C38.4023 16.7533 38.4167 16.7676 38.4453 16.7676C38.6315 16.7676 38.9251 16.7103 39.3262 16.5957C39.8418 16.5098 40.25 16.4668 40.5508 16.4668C40.7943 16.4668 41.0234 16.4883 41.2383 16.5312C41.4674 16.5599 41.6966 16.653 41.9258 16.8105C42.6992 17.3118 43.1074 18.0065 43.1504 18.8945C43.1504 18.8945 43.1504 19.0234 43.1504 19.2812C43.1217 19.4245 43.0859 19.5605 43.043 19.6895C43 19.8184 42.8926 20.0905 42.7207 20.5059C42.4056 21.265 41.8757 22.3678 41.1309 23.8145C41.1022 23.8717 41.0736 23.9219 41.0449 23.9648C41.0163 24.0078 41.002 24.0579 41.002 24.1152C40.6439 24.7454 40.0853 25.8483 39.3262 27.4238V27.4668L39.2832 27.5098C39.2832 27.6243 39.3262 27.7246 39.4121 27.8105C39.498 27.9395 39.6198 28.0039 39.7773 28.0039H39.8633C39.8776 28.0182 39.8919 28.0254 39.9062 28.0254C39.9206 28.0254 39.9349 28.0182 39.9492 28.0039C40.0208 28.0039 40.3717 27.8249 41.002 27.4668C41.2598 27.3236 41.668 27.0729 42.2266 26.7148C42.3555 26.5859 42.5488 26.457 42.8066 26.3281C43.6087 25.7695 44.1816 25.2969 44.5254 24.9102C44.6686 24.7096 44.7832 24.5736 44.8691 24.502C44.9551 24.4303 45.0267 24.3802 45.084 24.3516H45.1699C45.2129 24.3802 45.2487 24.4089 45.2773 24.4375L45.4492 24.6094C45.6497 24.8099 45.75 25.3685 45.75 26.2852C45.75 26.6003 45.7285 26.901 45.6855 27.1875C45.6426 27.474 45.5495 27.6816 45.4062 27.8105C45.2201 27.9824 44.9264 28.2331 44.5254 28.5625C43.2793 29.5508 42.0332 30.36 40.7871 30.9902C39.7272 31.5345 38.6816 31.8997 37.6504 32.0859C37.5358 32.1289 37.3854 32.1576 37.1992 32.1719C37.0273 32.2005 36.8555 32.2148 36.6836 32.2148C35.1081 32.2148 34.2917 31.513 34.2344 30.1094C34.2344 29.9805 34.263 29.8158 34.3203 29.6152L34.4062 29.1855C34.5495 28.8132 34.8288 28.14 35.2441 27.166C35.9173 25.5905 36.5905 24.151 37.2637 22.8477C37.679 22.0312 38.1016 21.1361 38.5312 20.1621C38.5599 20.1335 38.5742 20.1048 38.5742 20.0762V19.9902C38.5742 19.7611 38.3451 19.6465 37.8867 19.6465H37.6934C37.6504 19.6465 37.5788 19.6608 37.4785 19.6895C37.2493 19.7324 37.0703 19.7754 36.9414 19.8184C36.9414 19.8184 36.7266 20.0332 36.2969 20.4629C36.0534 20.8926 35.4805 21.6016 34.5781 22.5898C34.4206 22.7617 34.1842 23.0267 33.8691 23.3848C33.6686 23.5996 33.11 24.151 32.1934 25.0391C31.1764 26.0273 29.9017 27.1302 28.3691 28.3477C28.2546 28.3477 28.1758 28.1901 28.1328 27.875C28.0898 27.5456 28.0684 27.1445 28.0684 26.6719V26.5C28.0684 25.4974 28.1829 24.8815 28.4121 24.6523C28.8848 24.2656 29.5293 23.6354 30.3457 22.7617C31.4772 21.5443 32.3581 20.4414 32.9883 19.4531L33.9551 17.9707ZM47.125 22.5469C49.431 20.2839 51.2214 18.1426 52.4961 16.123V15.9297V15.8867V15.8008C52.4961 15.3281 52.582 14.7552 52.7539 14.082C53.2409 12.2057 54.1361 11.2676 55.4395 11.2676C56.5423 11.2676 57.1296 11.9766 57.2012 13.3945C57.2012 13.4089 57.2012 13.4375 57.2012 13.4805V13.5664C57.1725 13.6237 57.1582 13.6667 57.1582 13.6953C57.1582 13.7526 57.1582 13.7812 57.1582 13.7812C57.1296 14.1393 57.0723 14.4329 56.9863 14.6621C56.8574 14.8913 56.75 15.0846 56.6641 15.2422C56.5781 15.3281 56.4779 15.4714 56.3633 15.6719C56.306 15.7292 56.263 15.7865 56.2344 15.8438C56.2057 15.944 56.1771 16.0371 56.1484 16.123V21.043C56.1484 21.5729 56.1341 21.9811 56.1055 22.2676C56.0911 22.4395 56.0625 22.8118 56.0195 23.3848C55.9049 24.0723 55.6829 25.0677 55.3535 26.3711C55.1673 26.9154 54.931 27.3809 54.6445 27.7676H54.7305C55.1458 27.7676 55.8835 27.3737 56.9434 26.5859C57.0579 26.5143 57.2155 26.3997 57.416 26.2422C57.8027 25.9414 58.1536 25.6621 58.4688 25.4043L59.1777 24.8242L59.3496 24.6523C59.4069 24.6237 59.4642 24.5879 59.5215 24.5449C59.5788 24.502 59.6361 24.4661 59.6934 24.4375C59.765 24.4089 59.8294 24.3945 59.8867 24.3945C59.9727 24.3945 60.0586 24.4089 60.1445 24.4375C60.2448 24.5091 60.3164 24.7454 60.3594 25.1465C60.388 25.2467 60.4023 25.3757 60.4023 25.5332V26.0059C60.4023 26.8079 60.2161 27.474 59.8438 28.0039C59.3424 28.4049 58.6621 28.9421 57.8027 29.6152C57.3014 29.9876 56.8574 30.2812 56.4707 30.4961C56.0983 30.7109 55.7116 30.89 55.3105 31.0332C53.9642 31.5059 52.8757 31.7422 52.0449 31.7422H51.3789C51.1497 31.7565 50.8132 31.7852 50.3691 31.8281C50.1973 31.8854 50.054 31.9427 49.9395 32H49.8965C49.7676 32.0573 49.6315 32.1003 49.4883 32.1289C49.3021 32.1862 49.1159 32.2148 48.9297 32.2148C48.4857 32.2148 47.8268 32.1003 46.9531 31.8711C46.4948 31.7565 46.0938 31.3483 45.75 30.6465C45.6354 30.3314 45.5781 30.0664 45.5781 29.8516V29.7227C45.5781 29.7083 45.5781 29.6868 45.5781 29.6582C45.6068 29.3145 45.7285 29.0853 45.9434 28.9707C46.1152 28.8418 46.3158 28.7773 46.5449 28.7773H46.9961C47.1107 28.8203 47.2253 28.8561 47.3398 28.8848C48.6719 29.0566 49.2305 29.1426 49.0156 29.1426H49.1875C49.3307 29.1139 49.5527 29.028 49.8535 28.8848C50.541 28.4837 51.1283 27.3092 51.6152 25.3613C51.873 24.3301 52.002 23.3776 52.002 22.5039C52.002 22.0026 51.9447 21.752 51.8301 21.752C51.5723 21.752 50.3262 22.9264 48.0918 25.2754C48.0345 25.304 47.9844 25.347 47.9414 25.4043C47.8984 25.4616 47.8483 25.5046 47.791 25.5332C46.5306 26.8509 45.528 27.7891 44.7832 28.3477H44.7402C44.597 28.3477 44.5254 27.875 44.5254 26.9297V26.457C44.5254 25.5977 44.5684 25.0391 44.6543 24.7812C44.6543 24.7812 44.9766 24.459 45.6211 23.8145L45.6641 23.7715H45.707L46.2441 23.2773C46.3587 23.2057 46.5091 23.084 46.6953 22.9121C46.8815 22.7402 47.0247 22.6185 47.125 22.5469ZM72.7773 28.1328H72.8203V28.1758H72.8633H72.9062H72.9492C73.1927 28.1758 73.6654 27.9538 74.3672 27.5098C74.8255 27.2233 75.8353 26.4928 77.3965 25.3184L78.0195 24.7383C78.0195 24.7383 78.0625 24.6953 78.1484 24.6094C78.4922 24.4375 78.6354 24.3516 78.5781 24.3516C78.6927 24.3516 78.8001 24.4375 78.9004 24.6094C79.015 24.9245 79.0723 25.3327 79.0723 25.834V26.3281C79.0436 26.5573 79.0078 26.7793 78.9648 26.9941C78.9219 27.1947 78.8646 27.3665 78.793 27.5098C78.6497 27.8965 78.0052 28.498 76.8594 29.3145C76.401 29.6582 75.9212 29.9661 75.4199 30.2383C75.0762 30.4531 74.5749 30.7611 73.916 31.1621C73.1139 31.6348 72.3047 31.9427 71.4883 32.0859C71.3021 32.1146 71.1732 32.1289 71.1016 32.1289C70.9583 32.1576 70.8151 32.1719 70.6719 32.1719C70.5143 32.1719 70.3711 32.1647 70.2422 32.1504C70.1133 32.1361 69.9987 32.1217 69.8984 32.1074C69.8125 32.0931 69.748 32.0716 69.7051 32.043C69.6048 32.043 69.526 32.0286 69.4688 32C69.0391 31.9427 68.8242 31.3984 68.8242 30.3672V30.0234C68.6523 30.1953 68.3874 30.446 68.0293 30.7754C66.9837 31.6634 65.6159 32.1289 63.9258 32.1719C63.9258 32.1719 63.8971 32.1719 63.8398 32.1719H63.7539C62.8086 32.1719 61.9206 31.8496 61.0898 31.2051C60.2734 30.5462 59.765 29.5794 59.5645 28.3047C59.4499 27.5742 59.3926 26.8581 59.3926 26.1562C59.3926 25.4831 59.4714 24.8672 59.6289 24.3086C59.7148 23.9935 59.8581 23.5352 60.0586 22.9336C60.2734 22.4466 60.696 21.7305 61.3262 20.7852C62.4004 19.6107 63.9759 18.5221 66.0527 17.5195C67.528 16.8034 69.2109 16.3379 71.1016 16.123H73.25C73.6367 16.1374 74.1953 16.166 74.9258 16.209C75.3268 16.252 75.5775 16.3236 75.6777 16.4238C75.7064 16.4811 75.7422 16.6172 75.7852 16.832C75.8281 17.0326 75.8639 17.2474 75.8926 17.4766C75.8926 17.6484 75.9069 17.8275 75.9355 18.0137V18.6152C75.9355 18.7155 75.9499 18.7943 75.9785 18.8516V19.2812C75.9785 19.6393 75.9069 19.8184 75.7637 19.8184H75.6777C75.6061 19.804 75.5059 19.7611 75.377 19.6895C75.1621 19.6035 74.9473 19.5247 74.7324 19.4531C74.5319 19.3815 74.2168 19.2812 73.7871 19.1523C73.4004 19.0951 72.9922 19.0664 72.5625 19.0664H72.3262C71.3952 19.0664 70.3281 19.3027 69.125 19.7754C65.9596 21.0215 64.1836 22.6901 63.7969 24.7812C63.7109 25.8555 63.668 26.4427 63.668 26.543V26.8008C63.668 27.9753 64.0332 28.5625 64.7637 28.5625C64.9212 28.5625 65.1719 28.5195 65.5156 28.4336C65.6589 28.3763 65.8021 28.3047 65.9453 28.2188C66.0742 28.1758 66.3822 27.9824 66.8691 27.6387C67.8861 26.9225 68.8314 25.9414 69.7051 24.6953C70.1348 24.0794 70.8223 22.9479 71.7676 21.3008H71.8535L71.9395 21.3867C72.4551 21.5156 72.763 21.5801 72.8633 21.5801C72.9206 21.6087 72.9922 21.623 73.0781 21.623H75.5059C74.6035 23.4421 73.6797 25.5404 72.7344 27.918C72.7344 27.9323 72.7344 27.9609 72.7344 28.0039C72.7344 28.0612 72.7487 28.1042 72.7773 28.1328ZM80.4688 22.5469C82.7747 20.2839 84.5651 18.1426 85.8398 16.123V15.9297V15.8867V15.8008C85.8398 15.3281 85.9258 14.7552 86.0977 14.082C86.5846 12.2057 87.4798 11.2676 88.7832 11.2676C89.8861 11.2676 90.4733 11.9766 90.5449 13.3945C90.5449 13.4089 90.5449 13.4375 90.5449 13.4805V13.5664C90.5163 13.6237 90.502 13.6667 90.502 13.6953C90.502 13.7526 90.502 13.7812 90.502 13.7812C90.4733 14.1393 90.416 14.4329 90.3301 14.6621C90.2012 14.8913 90.0938 15.0846 90.0078 15.2422C89.9219 15.3281 89.8216 15.4714 89.707 15.6719C89.6497 15.7292 89.6068 15.7865 89.5781 15.8438C89.5495 15.944 89.5208 16.0371 89.4922 16.123V21.043C89.4922 21.5729 89.4779 21.9811 89.4492 22.2676C89.4349 22.4395 89.4062 22.8118 89.3633 23.3848C89.2487 24.0723 89.0267 25.0677 88.6973 26.3711C88.5111 26.9154 88.2747 27.3809 87.9883 27.7676H88.0742C88.4896 27.7676 89.2272 27.3737 90.2871 26.5859C90.4017 26.5143 90.5592 26.3997 90.7598 26.2422C91.1465 25.9414 91.4974 25.6621 91.8125 25.4043L92.5215 24.8242L92.6934 24.6523C92.7507 24.6237 92.8079 24.5879 92.8652 24.5449C92.9225 24.502 92.9798 24.4661 93.0371 24.4375C93.1087 24.4089 93.1732 24.3945 93.2305 24.3945C93.3164 24.3945 93.4023 24.4089 93.4883 24.4375C93.5885 24.5091 93.6602 24.7454 93.7031 25.1465C93.7318 25.2467 93.7461 25.3757 93.7461 25.5332V26.0059C93.7461 26.8079 93.5599 27.474 93.1875 28.0039C92.6862 28.4049 92.0059 28.9421 91.1465 29.6152C90.6452 29.9876 90.2012 30.2812 89.8145 30.4961C89.4421 30.7109 89.0553 30.89 88.6543 31.0332C87.3079 31.5059 86.2194 31.7422 85.3887 31.7422H84.7227C84.4935 31.7565 84.1569 31.7852 83.7129 31.8281C83.541 31.8854 83.3978 31.9427 83.2832 32H83.2402C83.1113 32.0573 82.9753 32.1003 82.832 32.1289C82.6458 32.1862 82.4596 32.2148 82.2734 32.2148C81.8294 32.2148 81.1706 32.1003 80.2969 31.8711C79.8385 31.7565 79.4375 31.3483 79.0938 30.6465C78.9792 30.3314 78.9219 30.0664 78.9219 29.8516V29.7227C78.9219 29.7083 78.9219 29.6868 78.9219 29.6582C78.9505 29.3145 79.0723 29.0853 79.2871 28.9707C79.459 28.8418 79.6595 28.7773 79.8887 28.7773H80.3398C80.4544 28.8203 80.569 28.8561 80.6836 28.8848C82.0156 29.0566 82.5742 29.1426 82.3594 29.1426H82.5312C82.6745 29.1139 82.8965 29.028 83.1973 28.8848C83.8848 28.4837 84.472 27.3092 84.959 25.3613C85.2168 24.3301 85.3457 23.3776 85.3457 22.5039C85.3457 22.0026 85.2884 21.752 85.1738 21.752C84.916 21.752 83.6699 22.9264 81.4355 25.2754C81.3783 25.304 81.3281 25.347 81.2852 25.4043C81.2422 25.4616 81.1921 25.5046 81.1348 25.5332C79.8743 26.8509 78.8717 27.7891 78.127 28.3477H78.084C77.9408 28.3477 77.8691 27.875 77.8691 26.9297V26.457C77.8691 25.5977 77.9121 25.0391 77.998 24.7812C77.998 24.7812 78.3203 24.459 78.9648 23.8145L79.0078 23.7715H79.0508L79.5879 23.2773C79.7025 23.2057 79.8529 23.084 80.0391 22.9121C80.2253 22.7402 80.3685 22.6185 80.4688 22.5469ZM107.668 17.3047C108.241 15.5859 108.986 13.7526 109.902 11.8047C111.592 8.19531 113.411 5.27344 115.359 3.03906C116.047 2.2513 116.856 1.60677 117.787 1.10547C118.604 0.661458 119.57 0.367839 120.688 0.224609C120.788 0.195964 120.895 0.181641 121.01 0.181641H121.311C122.199 0.181641 123.029 0.375 123.803 0.761719C124.59 1.13411 125.299 1.79297 125.93 2.73828C126.66 3.84115 127.025 5.76042 127.025 8.49609V8.77539C127.025 9.00456 127.025 9.11914 127.025 9.11914C126.939 10.8952 126.703 12.5352 126.316 14.0391C125.428 17.3906 123.76 20.3841 121.311 23.0195C119.406 25.082 117.071 26.1133 114.307 26.1133C114.249 26.1133 114.221 26.1133 114.221 26.1133C113.748 26.0846 113.347 25.8555 113.018 25.4258C112.702 24.9961 112.545 24.5449 112.545 24.0723C112.545 23.6139 112.717 23.1556 113.061 22.6973C113.404 22.2389 113.941 21.9954 114.672 21.9668C115.732 21.9095 116.856 21.3652 118.045 20.334C119.334 19.2025 120.408 17.584 121.268 15.4785C122.012 13.6595 122.492 11.7474 122.707 9.74219C122.779 9.08333 122.814 8.55339 122.814 8.15234C122.814 5.6888 122.105 4.45703 120.688 4.45703C120.086 4.45703 119.398 4.73633 118.625 5.29492C117.809 5.88216 117.028 6.79167 116.283 8.02344C115.152 9.88542 113.984 12.306 112.781 15.2852C112.452 16.1159 111.979 17.3477 111.363 18.9805C110.991 20.0547 110.654 21.2005 110.354 22.418C110.182 23.1198 110.081 23.6139 110.053 23.9004L109.967 24.9961C109.967 25.3971 109.902 25.9271 109.773 26.5859C109.673 27.0872 109.394 27.9967 108.936 29.3145C108.792 29.7585 108.535 30.4316 108.162 31.334C108.062 31.5488 107.897 31.8711 107.668 32.3008C107.525 32.5729 107.288 32.9596 106.959 33.4609C106.443 34.0911 105.964 34.4707 105.52 34.5996C105.305 34.6855 105.111 34.7285 104.939 34.7285C104.567 34.7285 104.245 34.5566 103.973 34.2129C103.715 33.8691 103.586 33.3535 103.586 32.666C103.586 32.4655 103.6 32.2578 103.629 32.043C103.643 31.7708 103.672 31.5488 103.715 31.377C103.858 30.804 104.137 29.7083 104.553 28.0898C104.825 27.0156 105.262 25.3685 105.863 23.1484C105.921 22.9479 105.992 22.7474 106.078 22.5469C106.493 20.9714 107.023 19.224 107.668 17.3047ZM130.742 18.5293C131.014 17.7702 131.415 16.6315 131.945 15.1133L132.934 12.3848C133.077 12.0124 133.277 11.4538 133.535 10.709C133.535 10.6517 133.542 10.6087 133.557 10.5801C133.571 10.5514 133.592 10.5228 133.621 10.4941C134.366 8.23112 135.483 5.18034 136.973 1.3418C137.316 0.625651 137.832 0.210286 138.52 0.0957031C138.562 0.0670573 138.605 0.0527344 138.648 0.0527344H138.734C139.637 0.0527344 140.117 0.511068 140.174 1.42773C140.174 1.44206 140.174 1.49935 140.174 1.59961V1.81445C140.174 3.04622 139.866 4.76497 139.25 6.9707C139.092 7.5293 138.699 8.66797 138.068 10.3867C138.025 10.5013 137.968 10.666 137.896 10.8809L137.682 11.3535C137.223 12.2988 136.55 13.724 135.662 15.6289C135.619 15.6862 135.598 15.7435 135.598 15.8008C135.497 16.0013 135.426 16.166 135.383 16.2949C134.624 17.8132 133.757 19.9258 132.783 22.6328C132.225 24.1654 131.816 25.5404 131.559 26.7578C131.53 26.8867 131.508 27.0013 131.494 27.1016C131.48 27.2018 131.473 27.2949 131.473 27.3809C131.473 27.61 131.544 27.7676 131.688 27.8535C131.745 27.9251 131.802 27.9609 131.859 27.9609C131.988 27.9609 132.153 27.8965 132.354 27.7676C132.883 27.4238 133.893 26.6934 135.383 25.5762C135.755 25.304 136.314 24.8815 137.059 24.3086C137.116 24.2799 137.159 24.2656 137.188 24.2656C137.302 24.2656 137.41 24.3659 137.51 24.5664C137.596 24.8815 137.639 25.2754 137.639 25.748V26.3711C137.567 27.0872 137.359 27.6315 137.016 28.0039C136.543 28.5195 135.956 29.0137 135.254 29.4863C134.824 29.7728 134.18 30.1738 133.32 30.6895C132.805 30.9616 131.781 31.3841 130.248 31.957C129.976 32.0143 129.754 32.0573 129.582 32.0859C129.281 32.1432 129.059 32.1719 128.916 32.1719C127.512 32.1719 126.811 31.5703 126.811 30.3672V30.1094C126.811 30.0378 126.825 29.9805 126.854 29.9375C126.968 29.3646 127.305 28.1758 127.863 26.3711V26.3281C127.835 26.3281 127.82 26.3138 127.82 26.2852C127.562 26.4857 127.312 26.6719 127.068 26.8438L126.316 27.3809L126.23 27.4668C126.188 27.4954 126.137 27.5312 126.08 27.5742C126.037 27.6172 125.944 27.696 125.801 27.8105C125.615 27.9681 125.464 28.0898 125.35 28.1758H125.307C125.178 28.1758 125.077 27.8535 125.006 27.209V27.0371C124.977 26.9655 124.963 26.901 124.963 26.8438V26.6289C124.992 26.6003 125.006 26.5716 125.006 26.543V26.457C125.006 26.3711 125.02 26.2852 125.049 26.1992V25.748C125.092 25.4329 125.249 25.0104 125.521 24.4805C126.195 23.8932 127.269 22.8978 128.744 21.4941C128.959 21.2363 129.281 20.8639 129.711 20.377C129.768 20.3197 129.826 20.248 129.883 20.1621C129.969 20.1335 130.012 20.0905 130.012 20.0332C130.112 19.9473 130.191 19.8685 130.248 19.7969C130.305 19.7109 130.47 19.2884 130.742 18.5293ZM150.121 28.1328H150.164V28.1758H150.207H150.25H150.293C150.536 28.1758 151.009 27.9538 151.711 27.5098C152.169 27.2233 153.179 26.4928 154.74 25.3184L155.363 24.7383C155.363 24.7383 155.406 24.6953 155.492 24.6094C155.836 24.4375 155.979 24.3516 155.922 24.3516C156.036 24.3516 156.144 24.4375 156.244 24.6094C156.359 24.9245 156.416 25.3327 156.416 25.834V26.3281C156.387 26.5573 156.352 26.7793 156.309 26.9941C156.266 27.1947 156.208 27.3665 156.137 27.5098C155.993 27.8965 155.349 28.498 154.203 29.3145C153.745 29.6582 153.265 29.9661 152.764 30.2383C152.42 30.4531 151.919 30.7611 151.26 31.1621C150.458 31.6348 149.648 31.9427 148.832 32.0859C148.646 32.1146 148.517 32.1289 148.445 32.1289C148.302 32.1576 148.159 32.1719 148.016 32.1719C147.858 32.1719 147.715 32.1647 147.586 32.1504C147.457 32.1361 147.342 32.1217 147.242 32.1074C147.156 32.0931 147.092 32.0716 147.049 32.043C146.949 32.043 146.87 32.0286 146.812 32C146.383 31.9427 146.168 31.3984 146.168 30.3672V30.0234C145.996 30.1953 145.731 30.446 145.373 30.7754C144.327 31.6634 142.96 32.1289 141.27 32.1719C141.27 32.1719 141.241 32.1719 141.184 32.1719H141.098C140.152 32.1719 139.264 31.8496 138.434 31.2051C137.617 30.5462 137.109 29.5794 136.908 28.3047C136.794 27.5742 136.736 26.8581 136.736 26.1562C136.736 25.4831 136.815 24.8672 136.973 24.3086C137.059 23.9935 137.202 23.5352 137.402 22.9336C137.617 22.4466 138.04 21.7305 138.67 20.7852C139.744 19.6107 141.32 18.5221 143.396 17.5195C144.872 16.8034 146.555 16.3379 148.445 16.123H150.594C150.98 16.1374 151.539 16.166 152.27 16.209C152.671 16.252 152.921 16.3236 153.021 16.4238C153.05 16.4811 153.086 16.6172 153.129 16.832C153.172 17.0326 153.208 17.2474 153.236 17.4766C153.236 17.6484 153.251 17.8275 153.279 18.0137V18.6152C153.279 18.7155 153.294 18.7943 153.322 18.8516V19.2812C153.322 19.6393 153.251 19.8184 153.107 19.8184H153.021C152.95 19.804 152.85 19.7611 152.721 19.6895C152.506 19.6035 152.291 19.5247 152.076 19.4531C151.876 19.3815 151.561 19.2812 151.131 19.1523C150.744 19.0951 150.336 19.0664 149.906 19.0664H149.67C148.739 19.0664 147.672 19.3027 146.469 19.7754C143.303 21.0215 141.527 22.6901 141.141 24.7812C141.055 25.8555 141.012 26.4427 141.012 26.543V26.8008C141.012 27.9753 141.377 28.5625 142.107 28.5625C142.265 28.5625 142.516 28.5195 142.859 28.4336C143.003 28.3763 143.146 28.3047 143.289 28.2188C143.418 28.1758 143.726 27.9824 144.213 27.6387C145.23 26.9225 146.175 25.9414 147.049 24.6953C147.479 24.0794 148.166 22.9479 149.111 21.3008H149.197L149.283 21.3867C149.799 21.5156 150.107 21.5801 150.207 21.5801C150.264 21.6087 150.336 21.623 150.422 21.623H152.85C151.947 23.4421 151.023 25.5404 150.078 27.918C150.078 27.9323 150.078 27.9609 150.078 28.0039C150.078 28.0612 150.092 28.1042 150.121 28.1328ZM161.508 18.2715L161.594 18.0137C161.622 17.9564 161.651 17.8776 161.68 17.7773C161.723 17.7201 161.794 17.5482 161.895 17.2617C161.98 17.0326 162.088 16.8392 162.217 16.6816C162.274 16.5671 162.346 16.5098 162.432 16.5098C162.46 16.5098 162.489 16.5241 162.518 16.5527H166.213C165.926 17.1543 165.504 18.0566 164.945 19.2598L164.709 19.7754C164.48 20.291 164.143 21.0215 163.699 21.9668L163.227 22.9766V23.0195V23.0625C163.241 23.0911 163.284 23.1055 163.355 23.1055H163.484C163.628 23.0768 163.964 22.8477 164.494 22.418C165.683 21.444 166.857 20.5488 168.018 19.7324C168.046 19.7038 168.104 19.6608 168.189 19.6035C168.275 19.5319 168.333 19.4818 168.361 19.4531C169.278 18.7656 170.632 17.8561 172.422 16.7246C173.009 16.4382 173.611 16.2949 174.227 16.2949C174.456 16.2949 174.706 16.3092 174.979 16.3379C175.165 16.3809 175.408 16.4811 175.709 16.6387C175.895 16.7389 176.024 16.875 176.096 17.0469C176.167 17.2188 176.203 17.4193 176.203 17.6484C176.203 18.1927 176.038 18.8587 175.709 19.6465C175.551 19.9473 175.351 20.4128 175.107 21.043C175.05 21.1576 174.986 21.2578 174.914 21.3438C174.613 21.9167 174.176 22.7832 173.604 23.9434C173.36 24.3158 173.009 25.0247 172.551 26.0703C172.422 26.3854 172.243 26.8366 172.014 27.4238V27.5098C171.985 27.5384 171.971 27.5671 171.971 27.5957V27.6816C171.971 27.8535 172.064 27.9609 172.25 28.0039C172.436 28.0039 172.902 27.8105 173.646 27.4238C173.689 27.3952 173.732 27.3665 173.775 27.3379C173.919 27.252 174.126 27.1159 174.398 26.9297C175.516 26.1419 176.382 25.5117 176.998 25.0391L177.879 24.3516H178.008C178.137 24.3516 178.251 24.5521 178.352 24.9531C178.409 25.1966 178.438 25.5475 178.438 26.0059C178.438 27.2233 178.072 28.0612 177.342 28.5195C176.268 29.2357 174.599 30.2168 172.336 31.4629C171.333 31.9069 170.395 32.1289 169.521 32.1289C167.946 32.1289 167.137 31.6133 167.094 30.582C167.079 30.2956 167.223 29.651 167.523 28.6484L167.932 27.7246C168.118 27.3236 168.261 26.987 168.361 26.7148C168.419 26.6146 168.497 26.457 168.598 26.2422C168.927 25.5833 169.407 24.5951 170.037 23.2773C170.209 22.8763 170.295 22.6042 170.295 22.4609C170.295 22.3607 170.266 22.3105 170.209 22.3105C170.166 22.3105 170.109 22.3249 170.037 22.3535C169.622 22.597 169.142 22.9551 168.598 23.4277H168.555C168.512 23.4564 168.49 23.485 168.49 23.5137L168.318 23.5996L168.146 23.7715C166.843 24.8743 164.881 26.5286 162.26 28.7344C162.202 28.763 162.131 28.8132 162.045 28.8848C161.973 28.9421 161.909 28.9993 161.852 29.0566C161.107 29.6582 159.997 30.5677 158.521 31.7852C158.421 31.8711 158.321 31.9355 158.221 31.9785C158.12 32.0215 158.013 32.0645 157.898 32.1074C157.784 32.1504 157.684 32.1719 157.598 32.1719C157.469 32.2005 157.361 32.2148 157.275 32.2148C156.43 32.2148 156.008 31.7493 156.008 30.8184C156.008 30.6608 156.015 30.5176 156.029 30.3887C156.044 30.2598 156.079 30.1237 156.137 29.9805C156.137 29.8659 156.165 29.7441 156.223 29.6152C156.237 29.5579 156.266 29.4577 156.309 29.3145C156.566 28.498 156.889 27.6745 157.275 26.8438H157.189C157.003 27.0299 156.738 27.2806 156.395 27.5957C156.366 27.6243 156.337 27.6387 156.309 27.6387C156.194 27.7676 156.008 27.9466 155.75 28.1758C155.564 28.2904 155.428 28.3477 155.342 28.3477C155.285 28.319 155.249 28.2188 155.234 28.0469C155.22 27.8607 155.199 27.653 155.17 27.4238V26.6719C155.17 25.6263 155.285 24.9531 155.514 24.6523C155.557 24.6094 155.621 24.5521 155.707 24.4805C155.779 24.4089 155.836 24.3516 155.879 24.3086C156.137 24.1224 156.43 23.8861 156.76 23.5996L157.727 22.7617C157.956 22.5612 158.185 22.3392 158.414 22.0957L159.037 21.4297C160.412 19.9258 161.236 18.873 161.508 18.2715ZM193.412 24.4375H193.498C193.756 24.4375 193.885 24.9316 193.885 25.9199V26.3711C193.813 27.1589 193.656 27.6888 193.412 27.9609C191.937 29.3503 190.146 30.4746 188.041 31.334C186.594 31.9355 185.141 32.2435 183.68 32.2578C183.207 32.2578 182.706 32.2148 182.176 32.1289C181.846 32.0716 181.352 31.957 180.693 31.7852C179.39 31.3268 178.609 30.5892 178.352 29.5723C178.094 28.6126 177.951 27.3952 177.922 25.9199C177.893 25.8053 177.879 25.6764 177.879 25.5332V25.0391C177.879 21.6016 180.063 18.9089 184.432 16.9609C185.248 16.6029 185.971 16.3522 186.602 16.209C187.232 16.0658 187.883 15.9941 188.557 15.9941C191.206 15.9941 192.531 17.1328 192.531 19.4102V19.9473C192.531 20.1191 192.503 20.3053 192.445 20.5059C192.259 21.4941 191.772 22.375 190.984 23.1484C190.096 24.0078 189.215 24.6882 188.342 25.1895C188.213 25.2611 187.848 25.4329 187.246 25.7051C186.645 25.9772 185.706 26.2995 184.432 26.6719C183.859 26.7148 183.121 26.8652 182.219 27.123C182.104 27.1803 182.047 27.2663 182.047 27.3809V27.4668C182.133 27.8678 182.562 28.2474 183.336 28.6055C183.766 28.8203 184.26 28.9277 184.818 28.9277H184.99C185.019 28.9277 185.055 28.9134 185.098 28.8848H185.27C185.327 28.8848 185.355 28.8848 185.355 28.8848C186.444 28.7988 188.127 28.0755 190.404 26.7148C191.55 26.0273 192.553 25.2682 193.412 24.4375ZM181.875 24.1582C183.164 23.972 184.403 23.6211 185.592 23.1055C187.11 22.418 188.055 21.6159 188.428 20.6992C188.456 20.5703 188.471 20.4486 188.471 20.334C188.471 19.5462 188.048 19.1523 187.203 19.1523C186.616 19.1523 185.957 19.3887 185.227 19.8613C183.708 20.8496 182.634 22.1243 182.004 23.6855C181.975 23.7572 181.961 23.8288 181.961 23.9004L181.875 24.1582ZM202.178 10.623C202.722 8.36003 203.324 6.52669 203.982 5.12305C204.34 4.34961 204.742 3.66927 205.186 3.08203C205.229 3.02474 205.3 2.92448 205.4 2.78125L205.658 2.52344C205.93 2.19401 206.281 1.92904 206.711 1.72852C206.826 1.67122 206.919 1.62826 206.99 1.59961H207.291H207.334C207.649 1.62826 207.914 1.77148 208.129 2.0293C208.329 2.33008 208.43 2.7168 208.43 3.18945V3.5332C208.372 3.9056 208.243 4.47852 208.043 5.25195C208.029 5.30924 207.835 5.81771 207.463 6.77734C207.406 6.90625 207.363 7.04232 207.334 7.18555L206.453 9.37695C206.324 9.69206 206.16 10.1074 205.959 10.623H208C208.315 10.623 208.501 11.0026 208.559 11.7617C208.559 11.7617 208.559 11.8333 208.559 11.9766C208.559 12.0625 208.544 12.1341 208.516 12.1914C208.458 12.6211 208.337 12.9863 208.15 13.2871C207.979 13.5879 207.706 13.7383 207.334 13.7383H204.906C203.703 16.5312 202.314 19.8757 200.738 23.7715C200.538 24.2728 200.187 25.168 199.686 26.457C199.557 26.7005 199.478 26.9368 199.449 27.166C199.392 27.3379 199.363 27.5241 199.363 27.7246C199.363 27.9395 199.399 28.097 199.471 28.1973C199.542 28.2975 199.643 28.3477 199.771 28.3477C199.958 28.3477 200.266 28.2331 200.695 28.0039C200.91 27.8893 201.218 27.7103 201.619 27.4668C202.436 26.7363 203.696 25.7266 205.4 24.4375L205.443 24.3945H205.486L205.529 24.3516H205.572C205.959 24.3516 206.152 24.8314 206.152 25.791V26.0703C206.124 26.2708 206.095 26.5286 206.066 26.8438C206.023 27.0872 205.93 27.3236 205.787 27.5527C205.715 27.7533 205.63 27.9036 205.529 28.0039C204.942 28.5911 204.004 29.2643 202.715 30.0234C202.385 30.224 201.884 30.5033 201.211 30.8613C200.079 31.4629 199.127 31.8639 198.354 32.0645C197.938 32.1647 197.645 32.2148 197.473 32.2148H197.172C196.37 32.2148 195.761 32.0286 195.346 31.6562C194.945 31.2695 194.73 30.8542 194.701 30.4102C194.701 30.3958 194.701 30.3529 194.701 30.2812C194.701 30.2383 194.708 30.1953 194.723 30.1523C194.737 30.1094 194.758 30.0664 194.787 30.0234V29.9375C195.145 28.9922 195.604 27.5671 196.162 25.6621H196.033C195.432 26.235 194.93 26.6934 194.529 27.0371L193.068 28.3047C193.04 28.3333 193.011 28.3477 192.982 28.3477C192.696 28.3477 192.553 27.8177 192.553 26.7578V26.5859C192.553 26.4857 192.553 26.4284 192.553 26.4141C192.61 25.3828 192.782 24.7812 193.068 24.6094C193.498 24.3516 194.529 23.3704 196.162 21.666C196.291 21.5371 196.477 21.3294 196.721 21.043C197.437 20.2982 198.303 19.2311 199.32 17.8418C199.578 17.2832 199.829 16.6172 200.072 15.8438L200.115 15.8008V15.7578C200.316 15.2995 200.566 14.6263 200.867 13.7383H198.354C198.124 13.7383 198.01 13.459 198.01 12.9004C198.01 12.7858 198.024 12.6712 198.053 12.5566C198.053 12.0697 198.21 11.5827 198.525 11.0957C198.726 10.7806 198.991 10.623 199.32 10.623H202.178Z" fill="url(#paint0_linear_4773_564)"/>
<defs>
<linearGradient id="paint0_linear_4773_564" x1="183.69" y1="4683.51" x2="55.3638" y2="4683.3" gradientUnits="userSpaceOnUse">
<stop stop-color="#2548A9"/>
<stop offset="0.484375" stop-color="#41B4D8"/>
<stop offset="1" stop-color="#BA89C2"/>
</linearGradient>
</defs>
</svg>
