<svg width="48" height="50" viewBox="0 0 48 50" fill="none" xmlns="http://www.w3.org/2000/svg">
<path fill-rule="evenodd" clip-rule="evenodd" d="M32.8177 20.319C33.1227 20.265 33.4189 20.1795 33.705 20.0639C35.0719 19.5115 36.2 18.2762 36.8741 16.5571C37.6012 14.7033 37.7764 12.4106 37.3678 10.1013C36.6978 6.59382 33.3188 0.318678 29.7124 0.82205C28.8835 0.890321 28.2622 1.60968 28.3152 2.43954C28.4453 4.48006 27.9217 6.45524 26.8406 8.00115C25.1415 10.4308 24.9403 13.4533 26.3023 16.0864C27.8765 19.1299 30.373 20.7516 32.8177 20.319ZM11.151 16.5544C11.9844 18.6061 13.3138 19.946 15.2074 20.3163C17.6521 20.7489 20.1486 19.1271 21.7228 16.0838C23.0847 13.4506 22.8836 10.428 21.1846 7.99852C20.1035 6.45261 19.5798 4.47743 19.71 2.43695C19.763 1.60719 19.1417 0.887599 18.3128 0.819461C16.9799 0.709804 14.9555 1.29343 12.88 4.6972C11.7083 6.61866 10.8749 8.86896 10.6574 10.0987C10.2488 12.4078 10.424 14.7006 11.151 16.5544ZM35.1572 30.6741C33.7949 30.0602 32.8276 29.2255 32.0211 27.968C28.2578 21.9062 19.7717 21.9068 16.0089 27.968C15.2022 29.2255 14.235 30.0602 12.8728 30.6741C2.84311 35.338 6.24752 49.728 17.2685 49.8157C18.8385 49.8479 20.012 49.4605 21.1225 49.0938C22.7713 48.5495 24.2814 48.051 26.7446 49.0391C33.3308 51.8485 41.2826 46.8702 41.1622 39.7757C41.1624 35.8906 38.8052 32.3179 35.1572 30.6741ZM9.88858 19.1737C11.4648 21.0787 12.0228 23.4535 11.4599 25.8608C10.648 29.3332 8.40943 31.5783 5.88922 31.4474C2.10994 31.1034 0.665203 26.7185 0.853004 23.2225C1.08044 19.9956 3.37612 14.2083 6.76693 14.5528C6.85558 14.5574 6.94563 14.5662 7.04351 14.5796C7.69252 14.6683 8.21236 15.1615 8.33509 15.805C8.57703 17.0731 9.11423 18.238 9.88858 19.1737ZM40.9772 14.5796C41.0751 14.5661 41.1651 14.5573 41.2527 14.5528C44.6388 14.2068 46.9391 19.9847 47.1677 23.2226C47.3547 26.7207 45.9112 31.1023 42.1314 31.4473C39.6113 31.5782 37.3727 29.3332 36.5608 25.8608C35.998 23.4536 36.556 21.0787 38.1321 19.1737C38.9065 18.238 39.4437 17.0731 39.6856 15.805C39.8085 15.1616 40.3282 14.6683 40.9772 14.5796Z" fill="url(#paint0_linear_3812_21261)"/>
<defs>
<linearGradient id="paint0_linear_3812_21261" x1="43.636" y1="15.5962" x2="35.0181" y2="57.6849" gradientUnits="userSpaceOnUse">
<stop stop-color="#584F88"/>
<stop offset="1" stop-color="#584F88" stop-opacity="0"/>
</linearGradient>
</defs>
</svg>
