<svg width="52" height="49" viewBox="0 0 52 49" fill="none" xmlns="http://www.w3.org/2000/svg">
<path fill-rule="evenodd" clip-rule="evenodd" d="M47.156 16.0031L36.0843 16.146L20.6085 8.77308L13.8461 0.133709L24.9061 -0.000244141L40.3819 7.37267L47.156 16.0031ZM10.917 0.488276L0.957031 5.33668L11.0972 18.2651L18.1653 9.74408L10.917 0.488276ZM1.41452 10.0047L9.77074 20.667L9.77382 20.6758L8.43446 42.4418L1.41452 10.0047ZM12.2143 22.2135L30.6217 30.983L10.5843 48.7068L12.2143 22.2135ZM33.3603 31.9174L16.9151 46.4722L47.0325 31.7425L33.3692 31.9143L33.3603 31.9174ZM13.2541 19.6116L20.1416 11.3241L34.3576 18.0968L31.9884 28.8564L13.0675 19.8422L13.2541 19.6116ZM48.6917 18.4829L51.0312 29.191L34.4649 29.3959L36.8341 18.6363L48.6917 18.4829Z" fill="url(#paint0_linear_3812_21356)"/>
<defs>
<linearGradient id="paint0_linear_3812_21356" x1="50.4604" y1="12.2884" x2="2.10601" y2="56.3753" gradientUnits="userSpaceOnUse">
<stop stop-color="#584F88"/>
<stop offset="1" stop-color="#584F88" stop-opacity="0"/>
</linearGradient>
</defs>
</svg>
