<svg width="317" height="336" viewBox="0 0 317 336" fill="none" xmlns="http://www.w3.org/2000/svg">
<g clip-path="url(#clip0_12634_678)">
<path d="M218.568 53.8495C232.415 53.8495 243.648 42.6264 243.648 28.7788C243.648 14.9312 232.415 3.70801 218.568 3.70801C204.721 3.70801 193.488 14.9312 193.488 28.7788C193.488 42.6264 204.721 53.8495 218.568 53.8495Z" fill="url(#paint0_radial_12634_678)"/>
<path d="M283.835 188.409C314.452 353.406 -40.2245 414.503 3.72236 188.727C25.1143 78.8208 45.4823 0 146.577 0C233.755 0 263.01 76.2263 283.835 188.409Z" fill="url(#paint1_radial_12634_678)"/>
<path d="M185.188 311.913C229.681 331.019 269.234 329.548 304.891 287.558C340.547 245.578 285.407 203.27 285.407 203.27C285.407 203.27 288.877 231.342 243.657 241.671C198.428 251.999 185.188 311.913 185.188 311.913Z" fill="url(#paint2_linear_12634_678)"/>
<path d="M75.7046 64.317C92.8619 64.317 106.769 50.4197 106.769 33.2718C106.769 16.1238 92.8619 2.22656 75.7046 2.22656C58.5474 2.22656 44.6406 16.1238 44.6406 33.2718C44.6406 50.4197 58.5474 64.317 75.7046 64.317Z" fill="url(#paint3_radial_12634_678)"/>
<path d="M224.76 125.534C231.888 150.952 234.711 176.262 182.036 176.262C118.189 176.262 128.994 151.618 137.572 125.583C144.481 104.658 150.575 89.6074 182.036 89.6074C209.174 89.6074 218.746 104.091 224.76 125.524V125.534Z" fill="url(#paint4_radial_12634_678)"/>
<path d="M186.193 109.448C197.525 109.448 206.71 106.705 206.71 103.315C206.71 99.9251 197.525 97.1914 186.193 97.1914C174.861 97.1914 165.676 99.9351 165.676 103.315C165.676 106.695 174.861 109.448 186.193 109.448Z" fill="url(#paint5_linear_12634_678)"/>
<path d="M264.345 68.6309H90.1881C87.1632 68.6309 84.7109 71.0832 84.7109 74.1083C84.7109 77.1333 87.1632 79.5856 90.1881 79.5856H264.345C267.37 79.5856 269.822 77.1333 269.822 74.1083C269.822 71.0832 267.37 68.6309 264.345 68.6309Z" fill="url(#paint6_linear_12634_678)"/>
<path d="M264.345 70.4307H90.1881C87.1632 70.4307 84.7109 72.883 84.7109 75.9081C84.7109 78.9331 87.1632 81.3855 90.1881 81.3855H264.345C267.37 81.3855 269.822 78.9331 269.822 75.9081C269.822 72.883 267.37 70.4307 264.345 70.4307Z" fill="url(#paint7_linear_12634_678)"/>
<path d="M167.782 67.3195C167.782 83.533 154.641 96.6648 138.438 96.6648C122.235 96.6648 109.094 83.523 109.094 67.3195C109.094 51.1159 167.792 51.106 167.792 67.3195H167.782Z" fill="url(#paint8_linear_12634_678)"/>
<path d="M173.118 67.3195C173.118 83.533 159.977 96.6648 143.774 96.6648C127.571 96.6648 114.43 83.523 114.43 67.3195C114.43 51.1159 173.128 51.106 173.128 67.3195H173.118Z" fill="url(#paint9_linear_12634_678)"/>
<path d="M255.872 67.3195C255.872 83.533 242.731 96.6648 226.528 96.6648C210.325 96.6648 197.184 83.523 197.184 67.3195C197.184 51.1159 255.882 51.106 255.882 67.3195H255.872Z" fill="url(#paint10_linear_12634_678)"/>
<path d="M261.212 67.3195C261.212 83.533 248.071 96.6648 231.868 96.6648C215.665 96.6648 202.523 83.523 202.523 67.3195C202.523 51.1159 261.222 51.106 261.222 67.3195H261.212Z" fill="url(#paint11_linear_12634_678)"/>
<path d="M71.1868 30.8723L33.5424 41.6457C27.2087 43.4583 23.5436 50.0624 25.3562 56.3963L45.6031 127.148C47.4157 133.482 54.0195 137.147 60.3533 135.335L97.9976 124.561C104.331 122.749 107.996 116.144 106.184 109.811L85.9369 39.0588C84.1244 32.7249 77.5205 29.0596 71.1868 30.8723Z" fill="url(#paint12_linear_12634_678)"/>
<path d="M65.5852 32.4816L27.9409 43.255C21.6071 45.0677 17.942 51.6718 19.7546 58.0057L40.0015 128.757C41.8141 135.091 48.418 138.757 54.7517 136.944L92.3961 126.171C98.7298 124.358 102.395 117.754 100.582 111.42L80.3354 40.6682C78.5228 34.3342 71.9189 30.669 65.5852 32.4816Z" fill="url(#paint13_linear_12634_678)"/>
<path d="M68.4476 53.67C71.8294 53.67 74.5709 50.9283 74.5709 47.5464C74.5709 44.1645 71.8294 41.4229 68.4476 41.4229C65.0657 41.4229 62.3242 44.1645 62.3242 47.5464C62.3242 50.9283 65.0657 53.67 68.4476 53.67Z" fill="url(#paint14_linear_12634_678)"/>
<path d="M11.637 86.4261C-18.4926 102.113 24.659 158.527 9.27112 190.198C-6.11673 221.87 -6.96167 265.639 41.9355 274.487C77.6318 280.948 112.095 206.054 93.2781 151.628C74.4608 97.202 62.6515 59.8642 11.627 86.4261H11.637Z" fill="url(#paint15_linear_12634_678)"/>
</g>
<defs>
<radialGradient id="paint0_radial_12634_678" cx="0" cy="0" r="1" gradientUnits="userSpaceOnUse" gradientTransform="translate(217.476 41.0719) scale(29.6326 41.7614)">
<stop offset="0.64" stop-color="#080814"/>
<stop offset="0.72" stop-color="#090814"/>
<stop offset="1" stop-color="#3A2E6E"/>
</radialGradient>
<radialGradient id="paint1_radial_12634_678" cx="0" cy="0" r="1" gradientUnits="userSpaceOnUse" gradientTransform="translate(121.787 196.735) scale(151.791 233.649)">
<stop stop-color="#090814"/>
<stop offset="0.85" stop-color="#090814"/>
<stop offset="1" stop-color="#3A2E6E"/>
</radialGradient>
<linearGradient id="paint2_linear_12634_678" x1="237.624" y1="321.546" x2="287.399" y2="194.115" gradientUnits="userSpaceOnUse">
<stop offset="0.39" stop-color="#080713"/>
<stop offset="1" stop-color="#3A2E6E"/>
</linearGradient>
<radialGradient id="paint3_radial_12634_678" cx="0" cy="0" r="1" gradientUnits="userSpaceOnUse" gradientTransform="translate(74.2463 66.4285) scale(38.4199 64.9037)">
<stop offset="0.85" stop-color="#080714"/>
<stop offset="1" stop-color="#3A2E6E"/>
</radialGradient>
<radialGradient id="paint4_radial_12634_678" cx="0" cy="0" r="1" gradientUnits="userSpaceOnUse" gradientTransform="translate(128.795 166.379) scale(104.683 104.637)">
<stop offset="0.85" stop-color="#090814"/>
<stop offset="1" stop-color="#3A2E6E"/>
</radialGradient>
<linearGradient id="paint5_linear_12634_678" x1="185.825" y1="107.51" x2="186.68" y2="97.8674" gradientUnits="userSpaceOnUse">
<stop stop-color="#080714"/>
<stop offset="0.74" stop-color="#3A2E6E"/>
<stop offset="1" stop-color="#533468"/>
</linearGradient>
<linearGradient id="paint6_linear_12634_678" x1="84.7109" y1="74.1083" x2="269.822" y2="74.1083" gradientUnits="userSpaceOnUse">
<stop stop-color="#FF5DAB"/>
<stop offset="0.7" stop-color="#3FA9F5"/>
<stop offset="1" stop-color="#0071BC"/>
</linearGradient>
<linearGradient id="paint7_linear_12634_678" x1="84.7109" y1="75.9081" x2="269.822" y2="75.9081" gradientUnits="userSpaceOnUse">
<stop stop-color="#0071BC"/>
<stop offset="0.3" stop-color="#3FA9F5"/>
<stop offset="1" stop-color="#FF5DAB"/>
</linearGradient>
<linearGradient id="paint8_linear_12634_678" x1="152.285" y1="94.3784" x2="128.307" y2="52.8563" gradientUnits="userSpaceOnUse">
<stop stop-color="#FF5DAB"/>
<stop offset="0.54" stop-color="#00FFFF"/>
<stop offset="0.7" stop-color="#3FA9F5"/>
<stop offset="1" stop-color="#0071BC"/>
</linearGradient>
<linearGradient id="paint9_linear_12634_678" x1="114.45" y1="62.7566" x2="167.642" y2="84.0983" gradientUnits="userSpaceOnUse">
<stop stop-color="#FF5DAB"/>
<stop offset="0.54" stop-color="#00FFFF"/>
<stop offset="0.7" stop-color="#3FA9F5"/>
<stop offset="1" stop-color="#0071BC"/>
</linearGradient>
<linearGradient id="paint10_linear_12634_678" x1="240.375" y1="94.3784" x2="216.397" y2="52.8563" gradientUnits="userSpaceOnUse">
<stop stop-color="#FF5DAB"/>
<stop offset="0.54" stop-color="#00FFFF"/>
<stop offset="0.7" stop-color="#3FA9F5"/>
<stop offset="1" stop-color="#0071BC"/>
</linearGradient>
<linearGradient id="paint11_linear_12634_678" x1="202.553" y1="62.7566" x2="255.745" y2="84.0983" gradientUnits="userSpaceOnUse">
<stop stop-color="#FF5DAB"/>
<stop offset="0.54" stop-color="#00FFFF"/>
<stop offset="0.7" stop-color="#3FA9F5"/>
<stop offset="1" stop-color="#0071BC"/>
</linearGradient>
<linearGradient id="paint12_linear_12634_678" x1="20.3654" y1="78.4113" x2="107.892" y2="87.4522" gradientUnits="userSpaceOnUse">
<stop stop-color="#0071BC"/>
<stop offset="0.3" stop-color="#3FA9F5"/>
<stop offset="0.46" stop-color="#00FFFF"/>
<stop offset="1" stop-color="#FF5DAB"/>
</linearGradient>
<linearGradient id="paint13_linear_12634_678" x1="18.2234" y1="47.2355" x2="98.1315" y2="118.633" gradientUnits="userSpaceOnUse">
<stop stop-color="#FF5DAB"/>
<stop offset="0.54" stop-color="#00FFFF"/>
<stop offset="0.7" stop-color="#3FA9F5"/>
<stop offset="1" stop-color="#0071BC"/>
</linearGradient>
<linearGradient id="paint14_linear_12634_678" x1="63.6447" y1="43.2513" x2="72.7914" y2="51.4385" gradientUnits="userSpaceOnUse">
<stop stop-color="#FF5DAB"/>
<stop offset="0.54" stop-color="#00FFFF"/>
<stop offset="0.7" stop-color="#3FA9F5"/>
<stop offset="1" stop-color="#0071BC"/>
</linearGradient>
<linearGradient id="paint15_linear_12634_678" x1="24.5653" y1="201.854" x2="83.7056" y2="101.371" gradientUnits="userSpaceOnUse">
<stop offset="0.39" stop-color="#080713"/>
<stop offset="1" stop-color="#3A2E6E"/>
</linearGradient>
<clipPath id="clip0_12634_678">
<rect width="317" height="336" fill="white"/>
</clipPath>
</defs>
</svg>
