<svg width="1921" height="488" viewBox="0 0 1921 488" fill="none" xmlns="http://www.w3.org/2000/svg">
<path d="M485.631 285.728C481.241 270.528 476.561 260.458 474.751 277.818C474.751 277.818 463.911 270.038 459.251 282.858C459.251 282.858 450.231 273.598 437.681 282.278C437.681 282.278 422.211 239.078 399.371 266.648L384.391 266.758C384.391 266.758 378.111 231.168 369.641 248.588C361.171 266.008 357.711 267.308 353.801 256.928C350.631 248.508 345.641 236.628 338.111 245.098C334.811 248.818 328.861 248.298 326.331 244.028C317.321 228.818 300.851 203.688 295.191 212.568C287.241 225.048 270.781 223.338 271.191 203.418C271.541 186.098 263.741 186.788 251.031 205.818C248.591 209.468 243.051 208.718 241.671 204.558C237.211 191.138 229.081 172.418 222.671 190.058C213.351 215.708 189.861 201.618 185.671 177.898C181.481 154.168 177.511 160.408 159.101 193.438C140.691 226.468 114.781 283.668 114.781 283.668L464.281 346.618C483.551 332.878 492.201 308.478 485.631 285.748V285.728Z" fill="url(#paint0_linear_12571_615)"/>
<path d="M144.06 241.948C143.27 241.768 142.95 240.818 143.48 240.198C147.94 235.048 163.6 216.948 162.17 218.378C161.03 219.518 155.2 222.218 151.66 223.798C150.74 224.208 149.81 223.238 150.26 222.328L160.85 201.148C161.3 200.248 160.38 199.278 159.46 199.678L153.38 202.278C152.45 202.678 151.53 201.678 152 200.788L163.73 178.638C164.23 177.688 163.18 176.668 162.24 177.198L156.73 180.348C155.83 180.868 154.79 179.928 155.21 178.978L166.04 154.618C166.43 153.738 165.55 152.818 164.66 153.178L161.16 154.578C160.28 154.928 159.41 154.058 159.76 153.188L171.63 122.968C173.79 117.468 181.38 116.968 184.25 122.128L200 150.478C200.53 151.428 199.47 152.478 198.52 151.938L193.8 149.238C192.84 148.688 191.78 149.768 192.34 150.718L204.69 171.708C205.26 172.668 204.16 173.748 203.21 173.178L202.67 172.858C201.68 172.268 200.58 173.428 201.22 174.378L216.68 197.568C217.25 198.418 216.42 199.508 215.44 199.188L207.22 196.448C206.18 196.098 205.35 197.338 206.06 198.168L221.52 216.208C222.17 216.958 221.53 218.118 220.55 217.978L214.23 217.078C213.3 216.948 212.66 217.978 213.19 218.758L227.63 239.768C228.26 240.688 227.26 241.838 226.26 241.338L223.38 239.898C222.42 239.418 221.42 240.488 221.97 241.418L233.65 260.888C234.14 261.708 233.41 262.708 232.48 262.488L144.03 241.958L144.06 241.948Z" fill="url(#paint1_linear_12571_615)"/>
<path d="M220.163 277.788L245.453 216.798C246.503 214.268 250.073 214.208 251.193 216.708L261.143 238.828C262.073 240.888 264.813 241.318 266.323 239.638L289.973 213.368C291.413 211.768 293.993 212.068 295.033 213.938L314.553 249.078C315.833 251.378 319.193 251.168 320.183 248.738L332.863 217.618C333.943 214.968 337.723 215.038 338.703 217.728L353.503 258.438C354.413 260.928 357.813 261.238 359.143 258.948L375.743 230.488C377.053 228.248 380.363 228.478 381.343 230.888L398.453 273.008C399.353 275.218 402.303 275.648 403.793 273.788L410.843 264.978C412.213 263.258 414.893 263.458 415.993 265.368L428.773 287.448C430.063 289.678 433.343 289.478 434.353 287.108L443.433 265.928C444.583 263.248 448.443 263.458 449.303 266.238L456.933 291.038C457.853 294.018 462.073 293.968 462.933 290.978L470.063 266.018C470.943 262.938 475.333 263.008 476.103 266.118L481.203 286.528C481.903 289.318 485.673 289.768 487.013 287.218L498.903 264.518C500.013 262.388 503.013 262.258 504.313 264.288L523.703 294.588C525.223 296.958 528.853 296.278 529.403 293.518C529.983 290.598 533.933 290.068 535.273 292.728L536.503 295.188C537.683 297.548 541.083 297.478 542.163 295.058L549.543 278.448C550.693 275.868 554.393 276.008 555.343 278.658L565.383 306.548C566.273 309.018 569.633 309.358 571.003 307.118L587.263 280.408C588.643 278.128 592.063 278.518 592.903 281.048L633.803 403.748C634.553 405.988 632.643 408.218 630.313 407.818L206.993 336.458C205.153 336.148 203.993 334.308 204.503 332.518L220.043 278.138C220.073 278.018 220.113 277.908 220.163 277.798V277.788Z" fill="url(#paint2_linear_12571_615)"/>
<path d="M634.839 351.458L656.799 298.498C657.709 296.298 660.809 296.258 661.789 298.428L670.429 317.628C671.239 319.418 673.609 319.788 674.929 318.328L695.459 295.518C696.709 294.128 698.949 294.388 699.849 296.018L716.799 326.528C717.909 328.518 720.829 328.348 721.689 326.238L732.699 299.218C733.639 296.918 736.919 296.978 737.769 299.318L750.619 334.658C751.409 336.818 754.359 337.088 755.519 335.098L769.929 310.388C771.069 308.438 773.939 308.648 774.789 310.738L789.639 347.308C790.419 349.228 792.979 349.598 794.279 347.978L800.399 340.328C801.589 338.838 803.909 339.008 804.869 340.668L815.969 359.838C817.089 361.768 819.939 361.598 820.819 359.548L828.699 341.158C829.699 338.838 833.049 339.008 833.789 341.428L840.409 362.958C841.209 365.538 844.879 365.508 845.619 362.908L851.809 341.238C852.569 338.568 856.379 338.628 857.059 341.328L861.489 359.048C862.099 361.468 865.369 361.858 866.529 359.648L876.849 339.938C877.819 338.088 880.419 337.978 881.539 339.738L898.369 366.038C899.689 368.098 902.839 367.508 903.319 365.108C903.829 362.568 907.259 362.108 908.409 364.428L909.479 366.568C910.509 368.618 913.459 368.558 914.389 366.458L920.799 352.038C921.789 349.798 925.009 349.918 925.839 352.218L934.559 376.428C935.329 378.578 938.249 378.868 939.439 376.918L953.559 353.728C954.759 351.748 957.729 352.088 958.459 354.278C962.453 366.26 991.759 425.296 990 425H621.24C619.64 424.73 620.789 400.518 621.239 398.968L634.729 351.748C634.759 351.648 634.789 351.548 634.829 351.458H634.839Z" fill="url(#paint3_linear_12571_615)"/>
<path d="M0 425.238L0.02 6.59782L2.13 0.687816C2.59 -0.252184 3.95 -0.222184 4.36 0.737816L4.72 1.59782L6.61 5.93782L11 16.0778L18.96 34.5078L28.56 56.6778C29.01 57.7078 27.96 58.7278 26.95 58.2978L22.42 56.3478C21.26 55.8478 20.2 57.2078 20.96 58.2178L41.03 84.9878C41.71 85.8978 40.88 87.1578 39.77 86.9078L31.33 85.0378C30.22 84.7878 29.41 86.0478 30.07 86.9578C35.03 93.7078 47.66 111.118 46.32 112.458C45.21 113.568 37.4 109.458 32.37 106.648C31.26 106.018 30.05 107.278 30.73 108.368L52.19 142.708C52.59 143.338 53.45 143.468 54.01 143.008L61.62 136.658C62.25 136.148 63.19 136.358 63.52 137.108L78.13 169.228C78.58 170.238 80.05 170.168 80.4 169.108L103.2 102.218C103.56 101.158 105.04 101.088 105.5 102.118L149.68 203.108C150.06 203.988 151.27 204.098 151.81 203.318L152.52 202.278L164.3 185.248C164.83 184.508 165.95 184.568 166.39 185.368L198.31 244.408C198.46 244.688 198.71 244.888 199.01 244.988L229.66 254.768L230.07 254.898L234.82 256.418L235.43 256.618L316.63 282.548C317.23 282.748 317.87 282.448 318.14 281.868L326.55 262.238C326.96 261.258 326.04 260.248 325.03 260.588L320.58 262.078C319.52 262.428 318.59 261.338 319.09 260.358L321.13 256.418L337.12 225.588L339.68 220.638C339.68 220.638 339.71 220.588 339.73 220.568C340.23 219.728 341.5 219.788 341.9 220.698L342.71 222.568L357.54 256.408L358.81 259.358L362.37 267.468C362.85 268.598 361.58 269.668 360.55 268.988L357.37 266.858C356.36 266.198 355.09 267.208 355.53 268.328C357.98 274.448 362.81 286.198 364.04 286.198C365.4 286.198 374.52 267.348 377.77 260.518C378.22 259.558 379.57 259.588 380 260.548C384.14 270.158 399.01 304.398 400.44 304.398C401.58 304.398 405.11 298.058 407.18 294.158C407.71 293.148 409.2 293.368 409.45 294.468L411.52 303.738C411.74 304.718 412.96 305.048 413.62 304.298L428.55 287.898C428.55 287.898 428.6 287.828 428.62 287.798L428.84 287.518L437.45 276.048C437.88 275.468 438.67 275.398 439.19 275.828C439.31 275.908 439.39 276.008 439.47 276.138L463.83 315.708C464.34 316.538 465.55 316.488 465.98 315.608L480.81 284.808L484.57 276.978C485.12 275.848 483.83 274.748 482.78 275.418L480.12 277.208C479.72 277.468 479.29 277.468 478.93 277.308C478.37 277.048 478.02 276.378 478.32 275.688L478.45 275.388L481.35 268.898V268.878L486.89 256.388L495.36 237.338C495.79 236.378 497.15 236.358 497.59 237.318L506.49 256.378L507.27 258.048L517.76 280.538C518.29 281.668 517 282.768 515.97 282.078L515.57 281.818L513.02 280.118C512.01 279.458 510.74 280.478 511.2 281.608L517.17 296.218L522.6 309.488C523.1 310.698 521.62 311.738 520.65 310.878L516.45 307.188C515.41 306.298 513.9 307.488 514.55 308.698L530.27 337.868L532.37 341.758L533.73 344.288C534.11 345.018 535.09 345.168 535.68 344.568L546.8 333.448C547.3 332.948 548.14 332.988 548.6 333.528L550.69 336.048L553.67 339.618L555.01 341.228C555.52 341.838 556.48 341.808 556.95 341.158L557.84 339.918L563.65 331.938L568.43 325.368C568.88 324.758 569.74 324.688 570.27 325.198L573.91 328.658L575.23 329.928L577.35 331.948L596.74 350.448L597.15 350.848L604.32 357.678C604.95 358.288 606.01 358.058 606.31 357.228L612.66 340.268L614.68 334.908C614.93 334.258 614.6 333.618 614.07 333.368C613.81 333.218 613.47 333.188 613.14 333.298L610.62 334.138L608.67 334.788C607.61 335.148 606.67 334.008 607.21 333.038L609.11 329.648L617.68 314.338L627.48 296.828C627.61 296.568 627.83 296.398 628.06 296.298C628.67 296.038 629.47 296.298 629.71 297.028L630.09 298.158L633.8 308.928L634.96 312.288L635.84 314.838L646.13 344.778C646.48 345.788 645.45 346.718 644.48 346.298L638.04 343.538C637.05 343.128 636.04 344.088 636.4 345.098L650.25 383.588C650.3 383.718 650.38 383.868 650.48 383.988L655.86 390.098L670.65 406.848C671.23 407.506 684.694 425.081 681.5 425.238H0Z" fill="url(#paint4_linear_12571_615)"/>
<path d="M1787.18 94.59C1834.16 76.14 1882.49 53.44 1920.15 35V429.64H1190.15L1189.97 429.91L1189.8 429.64H962.977C964.487 428.44 966.007 427.24 967.567 426.02C970.237 423.93 972.987 421.83 975.847 419.69C980.607 416.09 985.597 412.43 990.777 408.71C995.157 405.59 999.667 402.42 1004.31 399.24C1007.71 396.9 1011.19 394.55 1014.74 392.17C1037.01 377.32 1061.89 361.98 1088.49 346.88C1091.59 345.12 1094.71 343.35 1097.86 341.6C1111.79 333.83 1126.14 326.14 1140.8 318.62C1142.19 317.91 1143.59 317.19 1144.98 316.48C1145.53 316.21 1146.07 315.92 1146.62 315.65C1230.24 273.27 1322.84 236.96 1401.07 224.09C1407.31 223.07 1413.38 222.02 1419.25 220.98C1427.28 219.54 1434.97 218.08 1442.35 216.61C1457.64 213.53 1471.62 210.4 1484.46 207.18C1484.49 207.17 1484.51 207.17 1484.54 207.16C1484.56 207.16 1484.59 207.15 1484.61 207.15C1484.63 207.15 1484.66 207.14 1484.68 207.14C1608.11 176.27 1625.81 140.07 1699.59 123.11C1701.48 122.67 1703.39 122.22 1705.33 121.73H1705.35C1730.29 115.56 1758.49 105.87 1787.19 94.59H1787.18Z" fill="url(#paint5_linear_12571_615)"/>
<path d="M1920.15 82.3599V429.54H1190.6L1190.42 429.92L1190.25 429.54H583C633.73 411.78 685.21 394.79 725.72 383.67H725.74C735.72 380.92 745.03 378.56 753.48 376.6H753.5C756.14 375.99 758.69 375.43 761.16 374.91C768.14 373.44 774.4 372.33 779.87 371.62C803.97 368.51 824.7 366.59 843.84 364.47C881.2 360.37 912.54 355.52 951.04 339.65C962.36 334.98 974.29 329.37 987.19 322.54C991.45 320.29 995.82 317.89 1000.3 315.36C1036.48 294.91 1063.38 301.13 1089 314.27C1090.36 314.97 1091.72 315.68 1093.08 316.42C1118.04 329.92 1142.17 349.02 1172.98 355.18C1176.21 355.84 1179.51 356.34 1182.91 356.67H1182.96C1184.4 356.82 1185.86 356.93 1187.35 357.02C1195.72 357.5 1204.59 356.95 1214.1 355.08C1229.53 352.05 1245.74 348.71 1262.33 345.02C1278.29 341.46 1294.62 337.57 1310.94 333.34C1319.66 331.07 1328.39 328.71 1337.06 326.24C1337.72 326.06 1338.37 325.86 1339.03 325.68H1339.05C1340.91 325.15 1342.76 324.6 1344.62 324.06H1344.64C1349.88 322.52 1355.1 320.95 1360.29 319.33C1406.18 305.03 1449.13 287.59 1480.72 266.38C1484.27 264 1487.66 261.58 1490.9 259.12C1491.63 258.57 1492.36 258.03 1493.09 257.51C1500.15 252.4 1507.61 248.38 1515.43 245.12C1521.38 242.65 1527.53 240.64 1533.86 238.93C1545.63 235.77 1558.01 233.72 1570.84 231.96C1576.46 231.18 1582.14 230.47 1587.93 229.74C1601.22 228.05 1614.91 226.3 1628.85 223.65C1629.94 223.43 1631.04 223.22 1632.15 223C1636.48 222.12 1640.83 221.16 1645.21 220.07C1646.12 219.84 1647.03 219.61 1647.94 219.38C1655.12 217.53 1662.34 215.33 1669.59 212.68C1673.3 211.32 1677.02 209.85 1680.74 208.26H1680.76C1700.38 199.8 1720.11 187.69 1739.51 169.75C1742.54 166.95 1745.79 164.19 1749.24 161.46C1788.95 129.99 1855.23 103.16 1920.17 82.3799L1920.15 82.3599Z" fill="url(#paint6_linear_12571_615)"/>
<path d="M1229.18 391.8L1240.71 416.08H1198.08L1201.04 409.54L1201.42 408.71C1202 407.42 1200.58 406.15 1199.37 406.87L1197.53 407.98L1194.9 409.55L1190.55 412.16C1189.36 412.87 1187.95 411.65 1188.48 410.36L1194.98 394.74L1195.61 393.23L1210.37 357.83C1210.85 356.67 1212.47 356.64 1213 357.76L1229.17 391.78L1229.18 391.8Z" fill="url(#paint7_linear_12571_615)"/>
<path d="M1912.93 181.02L1920.15 172.43V427.4L1893.67 428.84H1239.8L1256.91 401.47L1259.54 397.27C1260.24 396.16 1259.19 394.75 1257.92 395.12L1252.82 396.58C1251.66 396.91 1250.64 395.75 1251.1 394.64L1265.22 360.77C1265.7 359.59 1264.56 358.42 1263.37 358.87L1256.92 361.29C1255.66 361.77 1254.5 360.41 1255.15 359.25L1263.36 344.32L1270.29 331.69C1270.82 330.73 1270.12 329.56 1269.03 329.56H1254.91C1256.2 329.56 1268.51 311.51 1273.91 303.51C1274.7 302.34 1273.53 300.86 1272.21 301.36L1267.1 303.26C1265.81 303.76 1264.65 302.33 1265.36 301.17L1289.87 260.81C1290.47 259.8 1291.97 259.92 1292.42 260.99L1307.55 296.7C1308.11 298.04 1306.56 299.3 1305.38 298.44L1304.59 297.88C1303.28 296.95 1301.64 298.54 1302.55 299.88L1317.92 322.32C1318.57 323.28 1317.89 324.59 1316.73 324.59H1309C1307.84 324.59 1307.15 325.91 1307.83 326.87L1311.9 332.63L1324.69 350.75C1325.32 351.64 1326.68 351.54 1327.16 350.57L1339.95 324.97H1339.97L1341.61 321.68C1342.09 320.72 1343.4 320.6 1344.04 321.43L1345.53 323.35H1345.55L1352.73 332.6C1353.41 333.46 1354.75 333.3 1355.2 332.3L1361.17 318.61L1364.2 311.69C1364.75 310.45 1363.44 309.21 1362.23 309.82L1356.44 312.72C1355.2 313.33 1353.89 312.02 1354.5 310.78L1379.55 260.67C1380.05 259.66 1381.45 259.59 1382.07 260.54L1390.79 274.24C1391.42 275.23 1392.89 275.1 1393.34 274.02L1410.12 233.46C1410.68 232.1 1409.09 230.88 1407.92 231.76L1402.46 235.86C1401.33 236.7 1399.8 235.61 1400.21 234.29L1412.12 195.55C1412.12 195.55 1412.14 195.48 1412.15 195.45L1417.73 171.75C1418.04 170.38 1416.42 169.4 1415.36 170.33L1409.73 175.24C1408.62 176.23 1406.92 175.07 1407.43 173.67L1420.34 138.21L1421.17 135.91L1430.77 109.53C1431.22 108.31 1432.92 108.24 1433.43 109.43L1442.58 130.26L1443.39 132.11L1460.17 170.32C1460.72 171.56 1459.41 172.8 1458.2 172.19L1452.41 169.29C1451.17 168.68 1449.86 169.99 1450.47 171.23L1470.92 212.14C1471.58 213.46 1470.06 214.8 1468.83 213.99L1464 210.76C1462.71 209.9 1461.15 211.41 1461.96 212.73L1487.03 253.12C1487.59 254.01 1487.01 255.19 1485.97 255.3L1476.14 256.39C1474.97 256.52 1474.44 257.93 1475.23 258.79L1481.39 265.62L1486.59 271.41C1487.33 272.22 1488.68 271.94 1489.02 270.9L1493.74 256.75L1502.31 231.05C1502.67 229.97 1504.08 229.71 1504.79 230.6L1516.04 244.35L1531.21 262.9C1531.94 263.78 1533.38 263.51 1533.71 262.4L1540.18 241.73C1540.56 240.51 1539.29 239.43 1538.16 240.01L1535.69 241.23C1534.4 241.88 1533.06 240.44 1533.8 239.19L1534.43 238.15L1554.75 204.28C1555.33 203.32 1556.75 203.35 1557.27 204.35L1571.22 230.84C1571.29 230.96 1571.32 231.07 1571.35 231.19C1571.58 232.17 1570.7 233.13 1569.65 232.93L1567.86 232.57C1566.59 232.32 1565.64 233.75 1566.39 234.82L1577.68 251.12C1578.34 252.08 1579.81 251.9 1580.23 250.81L1588.42 228.98L1593.04 216.65C1593.47 215.49 1592.33 214.35 1591.17 214.78L1584.52 217.28C1583.26 217.76 1582.1 216.42 1582.73 215.24L1602.8 177.97C1603.35 176.96 1604.8 176.96 1605.35 177.99L1629.28 222.89L1629.41 223.12C1629.92 224.08 1631.28 224.16 1631.89 223.25L1632.57 222.24L1639.19 212.29C1639.79 211.4 1641.11 211.45 1641.64 212.39L1645.58 219.27L1645.61 219.3C1646.21 220.33 1647.74 220.18 1648.17 219.05L1648.34 218.6L1656.13 197.85C1656.51 196.81 1657.92 196.58 1658.61 197.47L1669.95 211.9L1673.86 216.86C1674.51 217.69 1675.78 217.57 1676.28 216.65L1681.1 207.48H1681.12L1689.71 191.15C1690.36 189.91 1689.03 188.55 1687.79 189.18L1682.86 191.65C1681.59 192.3 1680.25 190.87 1680.97 189.63L1694.34 166.53C1695.07 165.29 1693.73 163.87 1692.45 164.51L1687.39 167.04C1686.15 167.65 1684.84 166.34 1685.45 165.1L1703.8 128.41C1704.31 127.37 1703.45 126.18 1702.29 126.34L1695.57 127.3C1694.56 127.43 1693.72 126.51 1693.96 125.51L1712.21 54.0599C1712.54 52.6999 1714.41 52.5899 1714.94 53.8599L1741.09 117.8C1741.65 119.16 1740.06 120.38 1738.89 119.49L1736.18 117.45C1734.89 116.49 1733.23 118.03 1734.09 119.39L1750.44 145.07C1751.2 146.28 1749.94 147.75 1748.64 147.17L1742.43 144.41C1741.12 143.83 1739.85 145.29 1740.61 146.5L1749.48 160.68L1760.95 179.03C1761.65 180.14 1760.6 181.55 1759.33 181.18L1754.83 179.89C1753.59 179.53 1752.53 180.9 1753.19 182.01L1771.79 213.47C1772.3 214.35 1773.54 214.43 1774.17 213.62L1794.23 185.22C1795.72 183.12 1794.97 180.19 1792.66 179.05C1791.22 178.34 1789.93 177.83 1790.39 176.83L1804.82 146.55C1805.32 145.51 1806.76 145.44 1807.35 146.42L1830.83 184.56C1831.46 185.6 1830.6 186.91 1829.39 186.74L1827.78 186.51C1826.22 186.28 1825.48 188.35 1826.82 189.17L1849.18 202.82C1849.94 203.28 1850.93 202.97 1851.28 202.14L1874.6 144.6C1875 143.62 1876.29 143.39 1877 144.17L1910.76 180.99C1911.34 181.64 1912.37 181.6 1912.93 180.94V181.02Z" fill="url(#paint8_linear_12571_615)"/>
<path d="M1196.6 424.77L1192.63 423L1189.12 421.44L1187.23 420.6C1186.44 420.25 1185.62 421.05 1185.97 421.84L1186.48 423.01L1189.31 429.53H1068.81L1077.83 412.1C1078.24 411.31 1077.42 410.43 1076.59 410.81L1063.6 416.7C1062.76 417.08 1061.93 416.15 1062.39 415.36L1068.99 404.04L1083.22 379.65C1083.58 379.02 1083.12 378.23 1082.39 378.23H1075.97C1075.19 378.23 1074.75 377.35 1075.21 376.72L1093.36 351.58C1093.94 350.77 1093.06 349.73 1092.17 350.17L1081.79 355.35C1080.96 355.76 1080.09 354.87 1080.53 354.04L1097.62 322.71C1098.05 321.92 1097.24 321.02 1096.4 321.37L1089.9 324.17C1089.07 324.52 1088.26 323.62 1088.71 322.83L1092.28 316.39L1097.56 306.89L1100.6 301.41C1101.13 300.43 1099.87 299.49 1099.09 300.27C1098.89 300.47 1098.64 300.57 1098.43 300.57C1097.77 300.57 1097.19 299.84 1097.6 299.13L1111.04 275.9C1111.45 275.19 1110.81 274.31 1109.98 274.51L1100.93 276.78C1100.15 276.98 1099.49 276.15 1099.85 275.42L1124.51 226.11C1124.86 225.4 1125.9 225.41 1126.23 226.16L1146.19 270.69C1146.19 270.69 1146.21 270.74 1146.21 270.76C1146.47 271.44 1145.91 272.15 1145.17 272.02L1144.57 271.92L1139.46 271.08C1138.6 270.93 1138.02 271.94 1138.57 272.62L1140.41 274.9L1163.2 303.02C1163.78 303.75 1163.08 304.81 1162.19 304.54L1152.19 301.53C1151.25 301.25 1150.55 302.42 1151.25 303.12L1169.54 321.41C1170.2 322.07 1169.61 323.2 1168.68 323.02L1157.94 320.87C1157.05 320.69 1156.45 321.75 1157.03 322.43L1186.25 356.02C1186.51 356.33 1186.53 356.7 1186.42 357.01C1186.24 357.41 1185.79 357.71 1185.28 357.56L1182.04 356.67H1181.99L1173.29 354.29C1172.63 354.11 1172.1 354.62 1172.08 355.18C1172.06 355.41 1172.15 355.66 1172.33 355.86L1186.18 370.95C1186.81 371.65 1186.16 372.74 1185.25 372.52L1171.05 368.96C1170.17 368.74 1169.53 369.74 1170.06 370.45L1186.28 392.08C1186.86 392.86 1186.06 393.88 1185.17 393.54L1174.88 389.42C1173.99 389.07 1173.19 390.1 1173.75 390.88L1185.48 406.75L1186.57 408.22L1197.76 423.35C1198.34 424.13 1197.5 425.19 1196.6 424.79V424.77Z" fill="url(#paint9_linear_12571_615)"/>
<path d="M1920.01 487.5H0V200.97C32.83 216.33 67.01 231.22 101.1 244.43C133.39 256.96 165.59 267.96 196.52 276.42C203.05 278.21 209.51 279.88 215.9 281.42C217.94 281.92 219.99 282.4 222.01 282.86C246.3 288.49 269.52 292.26 291.06 293.63C294.03 293.83 296.94 293.98 299.84 294.08C352.74 295.88 405.75 306.08 459.6 320.03C460.61 320.29 461.64 320.56 462.65 320.82H462.73C462.73 320.82 462.76 320.84 462.78 320.84C477.04 324.58 491.32 328.57 505.7 332.74C519.96 336.86 534.28 341.16 548.69 345.55C559.77 348.91 570.92 352.33 582.1 355.78C585 356.66 587.91 357.55 590.81 358.43C597.88 360.61 604.97 362.78 612.1 364.93C617.07 366.45 622.04 367.94 627.03 369.43C636.82 372.38 646.68 375.29 656.57 378.15C683.66 385.98 711.12 393.39 739.04 399.94C739.06 399.96 739.07 399.96 739.09 399.96C744.01 401.12 748.93 402.23 753.88 403.32H753.9C807.72 415.25 873.18 412.65 931 413.9C948.48 414.28 968.62 415.33 984.7 415.93C988.51 416.06 992.27 416.21 996 416.36C999.02 416.48 1002 416.61 1004.98 416.72C1032.83 417.89 1060.87 417.45 1085.44 418.6C1136 421.004 1188.43 417.211 1239 413.9C1250.36 413.16 1301.58 409.84 1313 408.5C1349.94 404.18 1372.21 404.39 1413.5 391.5C1440.32 383.14 1443.82 383.2 1474.5 370C1579.15 324.96 1756.26 269.79 1920.01 226V487.5Z" fill="#100D23"/>
<defs>
<linearGradient id="paint0_linear_12571_615" x1="299.071" y1="304.228" x2="372.941" y2="34.5178" gradientUnits="userSpaceOnUse">
<stop stop-color="#5B47A8"/>
<stop offset="0.07" stop-color="#4B3B8C"/>
<stop offset="0.18" stop-color="#392D6C"/>
<stop offset="0.29" stop-color="#2A2151"/>
<stop offset="0.42" stop-color="#1F193D"/>
<stop offset="0.56" stop-color="#17122F"/>
<stop offset="0.73" stop-color="#120F26"/>
<stop offset="1" stop-color="#110E24"/>
</linearGradient>
<linearGradient id="paint1_linear_12571_615" x1="184.43" y1="313.878" x2="207.88" y2="-44.9521" gradientUnits="userSpaceOnUse">
<stop stop-color="#5B47A8"/>
<stop offset="0.07" stop-color="#4B3B8C"/>
<stop offset="0.18" stop-color="#392D6C"/>
<stop offset="0.29" stop-color="#2A2151"/>
<stop offset="0.42" stop-color="#1F193D"/>
<stop offset="0.56" stop-color="#17122F"/>
<stop offset="0.73" stop-color="#120F26"/>
<stop offset="1" stop-color="#110E24"/>
</linearGradient>
<linearGradient id="paint2_linear_12571_615" x1="417.323" y1="377.398" x2="478.293" y2="103.778" gradientUnits="userSpaceOnUse">
<stop stop-color="#5B47A8"/>
<stop offset="0.07" stop-color="#4B3B8C"/>
<stop offset="0.18" stop-color="#392D6C"/>
<stop offset="0.29" stop-color="#2A2151"/>
<stop offset="0.42" stop-color="#1F193D"/>
<stop offset="0.56" stop-color="#17122F"/>
<stop offset="0.73" stop-color="#120F26"/>
<stop offset="1" stop-color="#110E24"/>
</linearGradient>
<linearGradient id="paint3_linear_12571_615" x1="805.87" y1="446.618" x2="824.63" y2="277.758" gradientUnits="userSpaceOnUse">
<stop stop-color="#5B47A8"/>
<stop offset="0.07" stop-color="#4B3B8C"/>
<stop offset="0.18" stop-color="#392D6C"/>
<stop offset="0.29" stop-color="#2A2151"/>
<stop offset="0.42" stop-color="#1F193D"/>
<stop offset="0.56" stop-color="#17122F"/>
<stop offset="0.73" stop-color="#120F26"/>
<stop offset="1" stop-color="#110E24"/>
</linearGradient>
<linearGradient id="paint4_linear_12571_615" x1="267.26" y1="446.108" x2="368.11" y2="102.528" gradientUnits="userSpaceOnUse">
<stop stop-color="#5B47A8"/>
<stop offset="0.07" stop-color="#4B3B8C"/>
<stop offset="0.18" stop-color="#392D6C"/>
<stop offset="0.29" stop-color="#2A2151"/>
<stop offset="0.42" stop-color="#1F193D"/>
<stop offset="0.56" stop-color="#17122F"/>
<stop offset="0.73" stop-color="#120F26"/>
<stop offset="1" stop-color="#110E24"/>
</linearGradient>
<linearGradient id="paint5_linear_12571_615" x1="1492.5" y1="375.06" x2="1373.53" y2="41.62" gradientUnits="userSpaceOnUse">
<stop stop-color="#5B47A8"/>
<stop offset="0.07" stop-color="#4B3B8C"/>
<stop offset="0.18" stop-color="#392D6C"/>
<stop offset="0.29" stop-color="#2A2151"/>
<stop offset="0.42" stop-color="#1F193D"/>
<stop offset="0.56" stop-color="#17122F"/>
<stop offset="0.73" stop-color="#120F26"/>
<stop offset="1" stop-color="#110E24"/>
</linearGradient>
<linearGradient id="paint6_linear_12571_615" x1="1307.16" y1="473.53" x2="1214.81" y2="111.99" gradientUnits="userSpaceOnUse">
<stop stop-color="#5B47A8"/>
<stop offset="0.07" stop-color="#4B3B8C"/>
<stop offset="0.18" stop-color="#392D6C"/>
<stop offset="0.29" stop-color="#2A2151"/>
<stop offset="0.42" stop-color="#1F193D"/>
<stop offset="0.56" stop-color="#17122F"/>
<stop offset="0.73" stop-color="#120F26"/>
<stop offset="1" stop-color="#110E24"/>
</linearGradient>
<linearGradient id="paint7_linear_12571_615" x1="1217.15" y1="570.98" x2="1211.29" y2="216.83" gradientUnits="userSpaceOnUse">
<stop stop-color="#5B47A8"/>
<stop offset="0.07" stop-color="#4B3B8C"/>
<stop offset="0.18" stop-color="#392D6C"/>
<stop offset="0.29" stop-color="#2A2151"/>
<stop offset="0.42" stop-color="#1F193D"/>
<stop offset="0.56" stop-color="#17122F"/>
<stop offset="0.73" stop-color="#120F26"/>
<stop offset="1" stop-color="#110E24"/>
</linearGradient>
<linearGradient id="paint8_linear_12571_615" x1="1603.72" y1="377.89" x2="1520.07" y2="105.83" gradientUnits="userSpaceOnUse">
<stop stop-color="#5B47A8"/>
<stop offset="0.07" stop-color="#4B3B8C"/>
<stop offset="0.18" stop-color="#392D6C"/>
<stop offset="0.29" stop-color="#2A2151"/>
<stop offset="0.42" stop-color="#1F193D"/>
<stop offset="0.56" stop-color="#17122F"/>
<stop offset="0.73" stop-color="#120F26"/>
<stop offset="1" stop-color="#110E24"/>
</linearGradient>
<linearGradient id="paint9_linear_12571_615" x1="1132.63" y1="572.37" x2="1126.77" y2="218.23" gradientUnits="userSpaceOnUse">
<stop stop-color="#5B47A8"/>
<stop offset="0.07" stop-color="#4B3B8C"/>
<stop offset="0.18" stop-color="#392D6C"/>
<stop offset="0.29" stop-color="#2A2151"/>
<stop offset="0.42" stop-color="#1F193D"/>
<stop offset="0.56" stop-color="#17122F"/>
<stop offset="0.73" stop-color="#120F26"/>
<stop offset="1" stop-color="#110E24"/>
</linearGradient>
</defs>
</svg>
