<svg width="16" height="16" viewBox="0 0 16 16" fill="none" xmlns="http://www.w3.org/2000/svg">
<g opacity="0.6">
<path d="M8 1C4.13111 1 1 4.13075 1 8C1 11.8688 4.13075 15 8 15C11.8689 15 15 11.8693 15 8C15 4.13116 11.8693 1 8 1ZM8.71884 10.7787C8.71884 10.9999 8.39635 11.221 8.00014 11.221C7.5855 11.221 7.29068 10.9999 7.29068 10.7787V7.26812C7.29068 7.01013 7.58552 6.83502 8.00014 6.83502C8.39635 6.83502 8.71884 7.01013 8.71884 7.26812V10.7787ZM8.00016 5.98739C7.57631 5.98739 7.24463 5.67411 7.24463 5.32395C7.24463 4.97381 7.57634 4.66975 8.00016 4.66975C8.4148 4.66975 8.74654 4.97381 8.74654 5.32395C8.74654 5.67411 8.41478 5.98739 8.00016 5.98739Z" fill="#584F88"/>
</g>
</svg>
