<svg width="225" height="239" viewBox="0 0 225 239" fill="none" xmlns="http://www.w3.org/2000/svg">
<path d="M154.26 38.3023C164.17 38.3023 172.204 30.3188 172.204 20.4706C172.204 10.6224 164.17 2.63892 154.26 2.63892C144.35 2.63892 136.316 10.6224 136.316 20.4706C136.316 30.3188 144.35 38.3023 154.26 38.3023Z" fill="url(#paint0_radial_3812_30027)"/>
<path d="M203.098 134.018C225.01 251.387 -28.732 294.839 2.70445 134.245C18.0032 56.065 32.5715 0 104.9 0C167.27 0 188.194 54.2139 203.088 134.018H203.098Z" fill="url(#paint1_radial_3812_30027)"/>
<path d="M52.045 45.7461C64.3209 45.7461 74.2725 35.8581 74.2725 23.6608C74.2725 11.4634 64.3209 1.57544 52.045 1.57544C39.769 1.57544 29.8174 11.4634 29.8174 23.6608C29.8174 35.8581 39.769 45.7461 52.045 45.7461Z" fill="url(#paint2_radial_3812_30027)"/>
<path fill-rule="evenodd" clip-rule="evenodd" d="M105.818 37.9379C92.9477 40.8721 96.7871 62.5144 109.52 59.7574C114.395 58.7038 118.166 53.2588 117.258 46.9769C116.518 41.8272 111.938 36.5496 105.818 37.9379ZM139.406 37.9379C126.536 40.8721 130.375 62.5144 143.108 59.7574C147.984 58.7038 151.754 53.2588 150.846 46.9769C150.106 41.8272 145.526 36.5496 139.406 37.9379ZM86.1965 17.6643C87.5092 17.1917 88.9108 16.3449 90.2531 15.7148C107.704 7.42415 126.634 5.17919 145.319 10.5257C153.807 12.9578 160.025 16.788 162.345 17.5068C159.127 12.3965 144.628 6.26228 138.735 5.18903L139.87 2.67822C144.006 2.50098 151.803 5.16934 155.11 6.71521C159.137 8.59586 161.032 9.71835 164.496 11.9928C169.619 15.3406 175.827 36.1459 177.505 43.1663C178.779 48.4834 179.746 54.0761 180.397 59.6983C181.641 70.3717 182.43 68.9736 176.508 74.0247C170.517 79.135 158.614 84.6489 147.796 84.7868C146.987 84.1566 144.351 80.4445 143.562 79.2925C145.111 78.298 148.023 77.274 149.81 76.4962C152.968 75.0291 163.5 68.0382 165.069 64.8578C162.503 66.2855 160.815 67.7526 156.729 69.8991C147.036 74.9995 135.241 77.1953 123.9 77.0869C106.884 76.9196 94.0432 72.2622 83.3539 64.5526C83.8276 64.9366 84.8443 66.2461 85.4167 66.8369C94.3591 75.3638 104.377 78.5245 105.236 79.2827C104.121 81.1141 102.186 83.0243 101.239 84.8065C90.9539 84.2748 73.4048 78.4654 67.5518 69.2296C68.4796 53.633 71.6479 37.8592 77.0764 24.7438C78.5076 21.2779 81.37 13.9621 84.3606 11.8845C90.8256 7.40446 101.179 2.8653 108.898 2.61914L110.141 5.05118C102.838 7.52261 90.9835 11.1854 86.1965 17.6348V17.6643Z" fill="url(#paint3_linear_3812_30027)"/>
<path fill-rule="evenodd" clip-rule="evenodd" d="M108.632 37.9379C95.7611 40.8721 99.6006 62.5144 112.333 59.7574C117.209 58.7038 120.979 53.2588 120.071 46.9769C119.331 41.8272 114.751 36.5496 108.632 37.9379ZM142.22 37.9379C129.349 40.8721 133.189 62.5144 145.921 59.7574C150.797 58.7038 154.567 53.2588 153.659 46.9769C152.919 41.8272 148.339 36.5496 142.22 37.9379ZM89.01 17.6643C90.3227 17.1917 91.7242 16.3449 93.0666 15.7148C110.517 7.42415 129.448 5.17919 148.132 10.5257C156.62 12.9578 162.839 16.788 165.158 17.5068C161.941 12.3965 147.441 6.26228 141.549 5.18903L142.684 2.67822C146.819 2.50098 154.617 5.16934 157.923 6.71521C161.95 8.59586 163.845 9.71835 167.31 11.9928C172.432 15.3406 178.641 36.1459 180.319 43.1663C181.592 48.4834 182.559 54.0761 183.211 59.6983C184.454 70.3717 185.244 68.9736 179.322 74.0247C173.331 79.135 161.427 84.6489 150.61 84.7868C149.8 84.1566 147.165 80.4445 146.375 79.2925C147.925 78.298 150.837 77.274 152.623 76.4962C155.782 75.0291 166.313 68.0382 167.882 64.8578C165.316 66.2855 163.628 67.7526 159.542 69.8991C149.85 74.9995 138.055 77.1953 126.714 77.0869C109.698 76.9196 96.8567 72.2622 86.1674 64.5526C86.6411 64.9366 87.6577 66.2461 88.2302 66.8369C97.1726 75.3638 107.191 78.5245 108.049 79.2827C106.934 81.1141 105 83.0243 104.052 84.8065C93.7674 84.2748 76.2182 78.4654 70.3652 69.2296C71.293 53.633 74.4613 37.8592 79.8899 24.7438C81.3211 21.2779 84.1834 13.9621 87.1741 11.8845C93.6391 7.40446 103.993 2.8653 111.711 2.61914L112.955 5.05118C105.651 7.52261 93.797 11.1854 89.01 17.6348V17.6643Z" fill="url(#paint4_linear_3812_30027)"/>
<path d="M43.0532 175.727C45.8464 159.058 83.6984 123.119 134.48 150.639C185.262 178.16 101.761 194.13 70.66 189.276C39.5591 184.412 43.0532 175.737 43.0532 175.737V175.727Z" fill="url(#paint5_linear_3812_30027)"/>
<path d="M160.834 89.2964C165.937 107.384 167.951 125.383 130.276 125.383C84.6073 125.383 92.3257 107.847 98.465 89.3357C103.4 74.4579 107.763 63.7451 130.276 63.7451C149.691 63.7451 156.541 74.0444 160.834 89.2964Z" fill="url(#paint6_radial_3812_30027)"/>
<path d="M133.247 77.855C141.353 77.855 147.924 75.9021 147.924 73.493C147.924 71.084 141.353 69.1311 133.247 69.1311C125.141 69.1311 118.57 71.084 118.57 73.493C118.57 75.9021 125.141 77.855 133.247 77.855Z" fill="url(#paint7_linear_3812_30027)"/>
<path d="M130.375 221.867C162.206 235.455 190.504 234.412 216.009 204.548C241.513 174.684 204.658 143.294 204.658 143.294C204.658 143.294 204.549 164.572 172.195 171.907C139.841 179.253 130.365 221.867 130.365 221.867H130.375Z" fill="url(#paint8_linear_3812_30027)"/>
<path d="M36.0651 174.339C16.8775 178.632 9.68214 213.921 50.13 229.902C90.568 245.873 122.014 233.023 140.886 212.188C159.758 191.354 162.63 175.727 172.204 171.907C172.204 171.907 158.623 138.567 118.135 154.893C77.648 171.208 81.8428 183.368 64.3727 179.548C46.9025 175.727 50.0511 171.218 36.0749 174.339H36.0651Z" fill="url(#paint9_linear_3812_30027)"/>
<defs>
<radialGradient id="paint0_radial_3812_30027" cx="0" cy="0" r="1" gradientUnits="userSpaceOnUse" gradientTransform="translate(152.748 29.8148) scale(21.1002 29.5636)">
<stop offset="0.72" stop-color="#141225"/>
<stop offset="1" stop-color="#5B47A8"/>
</radialGradient>
<radialGradient id="paint1_radial_3812_30027" cx="0" cy="0" r="1" gradientUnits="userSpaceOnUse" gradientTransform="translate(87.164 139.513) scale(108.075 167.172)">
<stop stop-color="#141225"/>
<stop offset="0.85" stop-color="#141225"/>
<stop offset="1" stop-color="#5B47A8"/>
</radialGradient>
<radialGradient id="paint2_radial_3812_30027" cx="0" cy="0" r="1" gradientUnits="userSpaceOnUse" gradientTransform="translate(50.761 46.3508) scale(27.3547 46.2988)">
<stop offset="0.85" stop-color="#141225"/>
<stop offset="1" stop-color="#5B47A8"/>
</radialGradient>
<linearGradient id="paint3_linear_3812_30027" x1="85.6043" y1="87.8391" x2="162.957" y2="10.2896" gradientUnits="userSpaceOnUse">
<stop stop-color="#FF5DAB"/>
<stop offset="0.54" stop-color="#00FFFF"/>
<stop offset="0.7" stop-color="#3FA9F5"/>
<stop offset="1" stop-color="#0071BC"/>
</linearGradient>
<linearGradient id="paint4_linear_3812_30027" x1="88.4474" y1="10.5159" x2="165.731" y2="87.9865" gradientUnits="userSpaceOnUse">
<stop stop-color="#0071BC"/>
<stop offset="0.3" stop-color="#3FA9F5"/>
<stop offset="0.46" stop-color="#00FFFF"/>
<stop offset="1" stop-color="#FF5DAB"/>
</linearGradient>
<linearGradient id="paint5_linear_3812_30027" x1="95.138" y1="183.821" x2="103.969" y2="117.648" gradientUnits="userSpaceOnUse">
<stop offset="0.39" stop-color="#141225"/>
<stop offset="1" stop-color="#5B47A8"/>
</linearGradient>
<radialGradient id="paint6_radial_3812_30027" cx="0" cy="0" r="1" gradientUnits="userSpaceOnUse" gradientTransform="translate(91.0558 119.5) scale(74.5359 74.356)">
<stop offset="0.85" stop-color="#141225"/>
<stop offset="1" stop-color="#5B47A8"/>
</radialGradient>
<linearGradient id="paint7_linear_3812_30027" x1="132.981" y1="76.4765" x2="133.59" y2="69.6133" gradientUnits="userSpaceOnUse">
<stop stop-color="#110E24"/>
<stop offset="0.74" stop-color="#5B47A8"/>
<stop offset="1" stop-color="#9D3DDA"/>
</linearGradient>
<linearGradient id="paint8_linear_3812_30027" x1="167.921" y1="228.78" x2="203.315" y2="138.007" gradientUnits="userSpaceOnUse">
<stop offset="0.39" stop-color="#141225"/>
<stop offset="1" stop-color="#5B47A8"/>
</linearGradient>
<linearGradient id="paint9_linear_3812_30027" x1="92.9665" y1="232.994" x2="100.756" y2="120.989" gradientUnits="userSpaceOnUse">
<stop offset="0.39" stop-color="#141225"/>
<stop offset="1" stop-color="#5B47A8"/>
</linearGradient>
</defs>
</svg>
