<svg width="36" height="36" viewBox="0 0 36 36" fill="none" xmlns="http://www.w3.org/2000/svg">
<path d="M31.7227 22.8603C30.7802 24.9122 27.5532 26.0938 23.0003 27.2276C19.9491 27.994 14.0223 29 10.7714 29C9.99656 29 9.37353 28.9361 8.97415 28.8084C7.60828 28.3533 6.62581 27.4351 6.21046 26.2296C5.76315 24.9122 6.03473 23.4192 6.96927 22.022L7.2089 21.6627C8.30328 20.0499 9.24573 18.6607 8.43899 12.9921C8.11948 10.7646 8.56679 8.84041 9.75693 7.27555C11.2826 5.27955 13.7347 4.32946 15.5239 4.1059C22.0338 3.29154 23.7272 7.30749 25.5164 11.563C25.6522 11.8903 25.7959 12.2256 25.9397 12.5689C27.2417 15.6029 28.2322 16.3374 29.1987 17.048C29.9575 17.6068 30.7562 18.1977 31.5071 19.7066C32.0822 20.8563 32.154 21.9182 31.7227 22.8603Z" fill="#6F6969"/>
<path d="M11.8501 7C11.5434 7 11.2576 6.78808 11.1557 6.45089C11.1313 6.37014 10.9202 5.63984 11.0329 4.77055C11.1931 3.54205 11.924 2.63057 13.0909 2.20359C15.2229 1.42368 16.5735 3.0469 16.962 4.32704C17.0905 4.74966 16.8823 5.20657 16.4974 5.34758C16.109 5.4898 15.6961 5.25973 15.5676 4.83751C15.4455 4.45506 14.9299 3.23123 13.5562 3.7342C12.1775 4.23838 12.4389 5.55474 12.5524 5.9459C12.6744 6.36852 12.4633 6.82269 12.0791 6.95975C12.0037 6.98693 11.9262 7 11.8501 7Z" fill="#6F6969"/>
<path d="M19 31C18.8494 31.2558 18.6569 31.5051 18.4142 31.734C17.5272 32.5758 16.1967 33 14.4728 33C12.9916 33 11.8619 32.6296 11.1172 31.9024C11.0753 31.862 11.0335 31.8148 11 31.7677C11.8368 31.7475 12.7741 31.6869 13.7615 31.6061C14.6066 31.532 15.4854 31.4444 16.364 31.3434C17.2594 31.2357 18.1464 31.1211 19 31Z" fill="#6F6969"/>
<circle cx="30" cy="7" r="4" fill="#2F57E5"/>
</svg>
