<svg width="34" height="34" viewBox="0 0 34 34" fill="none" xmlns="http://www.w3.org/2000/svg">
<g clip-path="url(#clip0_3812_33422)">
<circle cx="17" cy="17" r="17" fill="#8247E5"/>
<path d="M23.2524 13.4174C22.7996 13.1839 22.2102 13.1839 21.7119 13.4174L18.1783 15.2088L15.7772 16.3767L12.2435 18.168C11.7901 18.4016 11.2014 18.4016 10.703 18.168L7.89407 16.7665C7.44131 16.5324 7.12384 16.1045 7.12384 15.6367V12.8724C7.12384 12.4053 7.39577 11.9767 7.89407 11.7432L10.6575 10.3803C11.1109 10.1468 11.6997 10.1468 12.198 10.3803L14.9614 11.7432C15.4148 11.9767 15.7316 12.4053 15.7316 12.8724V14.6638L18.1327 13.4567V11.6653C18.1327 11.1981 17.8608 10.7702 17.3625 10.5366L12.2435 7.96669C11.7901 7.73311 11.2014 7.73311 10.703 7.96669L5.49297 10.5366C5.2581 10.6445 5.06188 10.807 4.92597 11.0062C4.79007 11.2053 4.71974 11.4334 4.72275 11.6653V16.8444C4.72275 17.3116 4.99467 17.7395 5.49297 17.9731L10.703 20.543C11.1558 20.7766 11.7452 20.7766 12.2435 20.543L15.7772 18.7909L18.1783 17.5838L21.7119 15.8317C22.1653 15.5981 22.7541 15.5981 23.2524 15.8317L26.0158 17.1945C26.4692 17.4281 26.786 17.8566 26.786 18.3237V21.088C26.786 21.5552 26.5141 21.9837 26.0158 22.2173L23.2524 23.6188C22.7996 23.8523 22.2102 23.8523 21.7119 23.6188L18.9485 22.2559C18.4957 22.0224 18.1783 21.5938 18.1783 21.1267V19.3359L15.7772 20.543V22.3338C15.7772 22.801 16.0491 23.2295 16.5474 23.463L21.7575 26.033C22.2102 26.2666 22.7996 26.2666 23.2979 26.033L28.508 23.463C28.9607 23.2295 29.2782 22.801 29.2782 22.3338V17.1558C29.2782 16.6887 29.0063 16.2607 28.508 16.0272L23.2524 13.4174Z" fill="white"/>
</g>
<defs>
<clipPath id="clip0_3812_33422">
<rect width="34" height="34" fill="white"/>
</clipPath>
</defs>
</svg>
