<svg width="36" height="36" viewBox="0 0 36 36" fill="none" xmlns="http://www.w3.org/2000/svg">
<g clip-path="url(#clip0_3812_33426)">
<path d="M18 36C27.9411 36 36 27.9411 36 18C36 8.05887 27.9411 0 18 0C8.05887 0 0 8.05887 0 18C0 27.9411 8.05887 36 18 36Z" fill="#F30504"/>
<path d="M25.0876 19.4164C25.0876 19.4654 24.892 19.7099 24.6963 19.8567C24.1094 20.2969 23.0822 20.6882 22.0061 20.8838C21.4192 20.9817 20.7833 21.0306 20.6366 20.9327C20.5387 20.8838 20.4898 20.8349 20.5387 20.6882C20.6365 20.3947 20.93 20.0034 21.3702 19.7099C21.6148 19.5632 22.5442 18.9762 22.9355 18.7317C23.6692 18.3404 24.2072 18.0958 24.5985 18.0469C24.7452 18.0469 24.892 18.0469 24.892 18.0469C24.9898 18.0958 25.0387 18.2914 25.0876 18.5849C25.1365 18.6338 25.0876 19.2697 25.0876 19.4164Z" fill="#1C1931"/>
<path d="M15.1116 20.788C15.0627 20.837 14.9648 20.8859 14.8181 20.9348C14.6713 20.9348 14.2312 20.9348 13.9866 20.9348C13.1062 20.837 12.1279 20.5435 11.4431 20.2011C11.0518 20.0054 10.7583 19.8098 10.5627 19.6141L10.4648 19.4674V19.3207C10.4648 19.0272 10.4648 18.587 10.4648 18.4402C10.4648 18.2935 10.5138 18.1957 10.6116 18.0489C10.6605 18 10.6605 18 10.8072 18C11.0029 18 11.1496 18.0489 11.3942 18.0978C11.9322 18.2446 12.6659 18.6359 13.6442 19.2228C14.4268 19.712 14.7203 19.9076 14.9159 20.25C15.0627 20.4457 15.1605 20.6902 15.1116 20.788Z" fill="#1C1931"/>
<path d="M21.1126 26.7024C21.1126 26.7024 21.0637 26.8981 21.0148 27.1427C20.9659 27.3872 20.9169 27.5829 20.9169 27.5829C20.868 27.5829 20.8191 27.5829 20.7702 27.5829H20.6235L20.4278 28.0231C20.33 28.2677 20.2322 28.5122 20.2322 28.5122L20.1832 28.5611L20.0854 28.4144L19.9876 28.2677V27.0937H19.9387C19.8898 27.0937 19.3517 27.1916 19.1072 27.1916C18.1778 27.2894 17.2485 27.2405 16.3191 27.1427C16.1724 27.1427 16.0256 27.0937 16.0256 27.0937C16.0256 27.0937 16.0256 27.3872 16.0256 27.6807V28.2677L15.9767 28.3655C15.9278 28.4144 15.8789 28.4633 15.8789 28.4633C15.8789 28.4633 15.83 28.4144 15.7322 28.2188C15.6343 28.0231 15.5365 27.7785 15.4876 27.5829L15.4387 27.4361H15.2919H15.1452L15.0963 27.2894C15.0963 27.1916 15.0474 27.0938 15.0474 26.9959V26.8492L14.9496 26.7514C14.9007 26.7024 14.8028 26.6535 14.8028 26.6535L14.7539 26.6046V26.5557H15.2919H15.83V26.6046V26.6535H16.0256C16.1235 26.6535 16.4659 26.6535 16.7593 26.6535H17.2974L17.4441 26.4579L17.5909 26.2622H17.7865V25.822V25.3818L17.542 25.284C16.8083 24.9416 16.368 24.5992 16.1724 24.11C16.1235 24.0122 16.1235 23.9633 16.1235 23.572C16.1235 23.1318 16.1235 23.1318 16.1724 23.034C16.2213 22.8383 16.4169 22.6427 16.6126 22.5938C16.6615 22.5938 16.8572 22.5938 17.8844 22.5938H19.0582L19.205 22.6427C19.3517 22.7405 19.4496 22.7894 19.4985 22.8872C19.5963 23.034 19.6452 23.1318 19.6452 23.3763C19.6452 23.7677 19.5963 24.0611 19.5963 24.2079C19.5474 24.4035 19.4496 24.5503 19.3517 24.697C19.1561 24.9905 18.7648 25.235 18.4224 25.3818L18.3246 25.4307V25.8709V26.3111H18.4224H18.5202L18.6669 26.5068L18.8137 26.7024H19.4006C19.6941 26.7024 19.9876 26.7024 20.0365 26.7024C20.0854 26.7024 20.0854 26.7024 20.1343 26.6535L20.1832 26.5557H20.6724C20.9659 26.6535 21.1126 26.6535 21.1126 26.7024Z" fill="#1C1931"/>
<path d="M18.859 27.8835C18.7612 27.9324 18.7123 27.9324 18.7123 27.9324C18.7123 27.9324 18.6634 27.8835 18.5655 27.8346L18.4677 27.7368L18.3699 27.8835C18.1253 28.177 18.1253 28.177 18.0275 28.177C17.9297 28.177 17.8808 28.177 17.734 27.9324C17.6362 27.8346 17.5873 27.7368 17.5873 27.7368C17.5873 27.7368 17.5384 27.7368 17.4895 27.7368H17.3917L17.3427 27.8346L17.2938 27.9324L17.196 27.8835C17.0982 27.8346 17.0492 27.8346 16.9514 27.7857L16.8047 27.7368V27.4922H17.9297H19.0547V27.59C19.0547 27.7857 19.0547 27.7857 18.859 27.8835Z" fill="#1C1931"/>
<path d="M29.4409 22.7418C29.4409 22.7418 29.4409 22.6928 29.4409 22.6439C28.4137 22.5461 25.5278 22.4483 22.8376 24.6983C22.8376 24.6983 21.9572 20.7363 17.8974 20.7363C13.8376 20.7363 12.3213 24.6983 12.3213 24.6983C10.0224 22.2526 6.98981 22.4483 5.91372 22.595C5.91372 22.6439 5.91372 22.6439 5.91372 22.6928C5.86481 23.3287 5.9137 23.6222 6.01153 23.9646C6.305 25.1874 7.28329 26.5081 8.84851 27.7798C11.3431 29.932 14.767 31.4483 17.3105 31.6439C20.0007 31.8396 23.9626 30.2744 26.6039 27.9755C26.9952 27.5842 27.3865 27.2418 27.7778 26.8015C28.0224 26.5081 28.4137 25.97 28.4137 25.97C28.4137 25.97 28.4626 25.97 28.4137 25.9211C28.4137 25.9211 28.4137 25.9211 28.4137 25.8722C28.4137 25.8233 28.4626 25.8233 28.4626 25.7744C28.5115 25.6766 28.7561 25.2363 28.805 25.1385C29.0496 24.6005 29.1963 24.1113 29.2942 23.6222C29.4409 23.2798 29.4409 22.8396 29.4409 22.7418ZM18.8757 27.8776C18.7779 27.9265 18.7289 27.9266 18.7289 27.9266C18.7289 27.9266 18.68 27.8776 18.5822 27.8287L18.4844 27.7309L18.3866 27.8776C18.142 28.1711 18.142 28.1711 18.0442 28.1711C17.9463 28.1711 17.8974 28.1711 17.7507 27.9266C17.6528 27.8287 17.6039 27.7309 17.6039 27.7309C17.6039 27.7309 17.555 27.7309 17.5061 27.7309H17.4083L17.3594 27.8287L17.3105 27.9266L17.2126 27.8776C17.1148 27.8287 17.0659 27.8287 16.9681 27.7798L16.8213 27.7309V27.4863H17.9463H19.0713V27.5842C19.0713 27.7798 19.0713 27.7798 18.8757 27.8776ZM20.9789 27.1439C20.93 27.3885 20.8811 27.5842 20.8811 27.5842C20.8322 27.5842 20.7833 27.5842 20.7344 27.5842H20.5876L20.392 28.0244C20.2941 28.2689 20.1963 28.5135 20.1963 28.5135L20.1474 28.5624L20.0496 28.4157L19.9517 28.2689V27.095H19.9028C19.8539 27.095 19.3159 27.1929 19.0713 27.1929C18.142 27.2907 17.2126 27.2418 16.2833 27.1439C16.1365 27.1439 15.9898 27.095 15.9898 27.095C15.9898 27.095 15.9898 27.3885 15.9898 27.682V28.2689L15.9409 28.3668C15.892 28.4157 15.8431 28.4646 15.8431 28.4646C15.8431 28.4646 15.7942 28.4157 15.6963 28.22C15.5985 28.0244 15.5007 27.7798 15.4518 27.5842L15.4028 27.4374H15.2561H15.1094L15.0604 27.2907C15.0604 27.1928 15.0115 27.095 15.0115 26.9972V26.8505L14.9137 26.7526C14.8648 26.7037 14.767 26.6548 14.767 26.6548L14.7181 26.6059V26.557H15.2561H15.7941V26.6059V26.6548H15.9898C16.0876 26.6548 16.43 26.6548 16.7235 26.6548H17.2615L17.4083 26.4592L17.555 26.2635H17.7507V25.8233V25.3831L17.5061 25.2853C16.7724 24.9429 16.3322 24.6005 16.1365 24.1113C16.0876 24.0135 16.0876 23.9646 16.0876 23.5733C16.0876 23.1331 16.0876 23.1331 16.1365 23.0352C16.1854 22.8396 16.3811 22.6439 16.5768 22.595C16.6257 22.595 16.8213 22.595 17.8485 22.595H19.0224L19.1691 22.6439C19.3159 22.7418 19.4137 22.7907 19.4626 22.8885C19.5604 23.0352 19.6094 23.1331 19.6094 23.3776C19.6094 23.7689 19.5604 24.0624 19.5604 24.2092C19.5115 24.4048 19.4137 24.5515 19.3159 24.6983C19.1202 24.9918 18.7289 25.2363 18.3866 25.3831L18.2887 25.432V25.8722V26.3124H18.3866H18.4844L18.6311 26.5081L18.7779 26.7037H19.3648C19.6583 26.7037 19.9518 26.7037 20.0007 26.7037C20.0496 26.7037 20.0496 26.7037 20.0985 26.6548L20.1474 26.557H20.6365C21.0278 26.557 21.1257 26.557 21.1257 26.557C21.1257 26.7037 21.0768 26.8994 20.9789 27.1439Z" fill="white"/>
<path d="M29.3866 22.3034C29.3866 22.1077 29.3376 21.8632 29.3376 21.7164C29.142 19.8088 28.6529 18.2436 27.7235 16.5805C27.6746 16.5316 27.6746 16.4338 27.6257 16.3849V16.336C27.7724 15.9447 28.3105 14.2816 28.7018 12.4229C29.2887 9.87946 29.6311 6.89576 28.5061 5.96641C28.5061 5.96641 26.5496 5.81968 23.9572 8.36316C23.2724 9.04794 22.5877 9.83055 22.0496 10.6621L21.8539 10.6132C20.8268 10.2708 19.7018 10.0751 18.6257 9.97728C18.2833 9.92837 17.0605 9.92837 16.6692 9.97728C15.4463 10.0751 14.517 10.2218 13.4898 10.6132C13.4409 10.6132 13.392 10.6621 13.392 10.6621C12.805 9.83055 12.1202 9.09685 11.3865 8.41207C8.69633 5.86859 6.642 6.01533 6.642 6.01533C5.46809 6.94468 5.85937 10.0751 6.49524 12.7164C6.88654 14.4773 7.37568 15.9936 7.57133 16.5316C7.57133 16.5805 7.52243 16.5805 7.52243 16.6295C6.54417 18.6349 6.00611 20.5425 5.85938 22.5969C6.98438 22.4501 10.017 22.2545 12.267 24.7001C12.267 24.7001 13.7833 20.7382 17.8431 20.7382C21.9029 20.7382 22.7833 24.7001 22.7833 24.7001C25.4735 22.499 28.3594 22.5479 29.3866 22.6458C29.4355 22.5479 29.4355 22.4501 29.3866 22.3034ZM8.40286 14.9175C8.40286 14.9175 6.83763 10.9555 7.22893 8.70555C7.27785 8.31424 7.42461 7.97185 7.62026 7.72729C7.62026 7.72729 9.43003 7.92294 12.3159 11.1023C12.3159 11.1023 11.7779 11.3468 11.0442 11.9338C10.2127 12.5697 9.18547 13.5479 8.40286 14.9175ZM15.104 20.7871C15.055 20.836 14.9572 20.8849 14.8105 20.9338C14.6637 20.9338 14.2235 20.9338 13.979 20.9338C13.0985 20.836 12.1203 20.5425 11.4355 20.2001C11.0442 20.0045 10.7507 19.8088 10.555 19.6132L10.4572 19.4664V19.3197C10.4572 19.0262 10.4572 18.586 10.4572 18.4392C10.4572 18.2925 10.5061 18.1947 10.6039 18.0479C10.6529 17.999 10.6529 17.999 10.7996 17.999C10.9953 17.999 11.142 18.0479 11.3865 18.0968C11.9246 18.2436 12.6583 18.6349 13.6366 19.2218C14.4192 19.711 14.7126 19.9066 14.9083 20.249C15.055 20.4447 15.1529 20.6892 15.104 20.7871ZM25.0822 19.4175C25.0822 19.4664 24.8865 19.711 24.6909 19.8577C24.1039 20.2979 23.0768 20.6892 22.0007 20.8849C21.4137 20.9827 20.7779 21.0316 20.6311 20.9338C20.5333 20.8849 20.4844 20.836 20.5333 20.6892C20.6311 20.3958 20.9246 20.0045 21.3648 19.711C21.6094 19.5642 22.5387 18.9773 22.93 18.7327C23.6637 18.3414 24.2018 18.0968 24.5931 18.0479C24.7398 18.0479 24.8866 18.0479 24.8866 18.0479C24.9844 18.0968 25.0333 18.2925 25.0822 18.586C25.1311 18.6349 25.0822 19.2708 25.0822 19.4175ZM24.3974 11.9827C23.6637 11.3958 23.1257 11.1512 23.1257 11.1512C25.9137 7.92294 27.6746 7.77619 27.6746 7.77619C27.8703 8.02076 27.9681 8.36315 28.0659 8.75446C28.4572 11.0045 26.9409 14.9664 26.9409 14.9664C26.2561 13.7925 25.4246 12.7653 24.3974 11.9827Z" fill="#FF8300"/>
<path d="M28.0124 8.70474C27.67 8.65583 26.1048 8.65583 24.3439 11.9819C23.6102 11.395 23.1211 11.1504 23.1211 11.1504C25.9091 7.92213 27.67 7.77539 27.67 7.77539C27.8168 8.01996 27.9635 8.31344 28.0124 8.70474Z" fill="#FF8300"/>
<path d="M26.895 14.9173C26.2592 13.7923 25.3787 12.7651 24.3516 11.9825C26.1124 8.65641 27.6776 8.65641 28.02 8.70532C28.4113 10.9553 26.895 14.9173 26.895 14.9173Z" fill="#FF8300"/>
<path d="M12.3037 11.1524C12.3037 11.1524 11.7656 11.397 11.0319 11.9839C9.22215 8.65786 7.60802 8.65786 7.26562 8.70678C7.31454 8.31547 7.46127 7.97308 7.65692 7.72852C7.60801 7.72852 9.41779 7.92417 12.3037 11.1524Z" fill="#FF8300"/>
<path d="M10.9893 11.9825C10.2067 12.6184 9.17949 13.5477 8.39688 14.9173C8.39688 14.9173 6.83165 10.9553 7.22296 8.70532C7.56535 8.65641 9.17949 8.65641 10.9893 11.9825Z" fill="#FF8300"/>
<path d="M22.6383 17.119C22.6383 17.119 21.2688 17.2168 21.4644 16.1407C21.6112 15.0646 22.6873 14.9668 22.9807 15.0157C23.2742 15.0646 24.4481 15.5048 24.2525 16.3853C24.0568 17.2657 23.7634 17.119 23.5677 17.1679C23.372 17.1679 22.6383 17.119 22.6383 17.119Z" fill="white"/>
<path d="M12.654 17.119C12.654 17.119 11.2844 17.2168 11.4801 16.1407C11.6268 15.0646 12.7029 14.9668 12.9964 15.0157C13.2899 15.0646 14.4638 15.5048 14.2681 16.3853C14.0725 17.2657 13.779 17.119 13.5833 17.1679C13.3877 17.1679 12.654 17.119 12.654 17.119Z" fill="white"/>
</g>
<defs>
<clipPath id="clip0_3812_33426">
<rect width="36" height="36" fill="white"/>
</clipPath>
</defs>
</svg>
