<svg width="319" height="369" viewBox="0 0 319 369" fill="none" xmlns="http://www.w3.org/2000/svg">
<g clip-path="url(#clip0_12628_600)">
<path d="M219.929 85.3004C233.859 85.3004 245.159 74.0104 245.159 60.0804C245.159 46.1504 233.859 34.8604 219.929 34.8604C205.999 34.8604 194.699 46.1504 194.699 60.0804C194.699 74.0104 205.999 85.3004 219.929 85.3004Z" fill="url(#paint0_radial_12628_600)"/>
<path d="M285.59 220.66C316.39 386.64 -40.4103 448.1 3.79967 220.98C25.3197 110.42 45.8097 31.1299 147.51 31.1299C235.21 31.1299 264.64 107.81 285.59 220.66Z" fill="url(#paint1_radial_12628_600)"/>
<path fill-rule="evenodd" clip-rule="evenodd" d="M95.8798 225.18C85.9198 211.05 81.0898 198.45 81.4098 187.39C82.1398 176.26 86.1798 157.92 78.3098 148.97C71.0398 140.7 59.1298 134.66 45.0498 135.29C44.3076 135.325 43.5842 136.53 43.2044 137.281C43.0259 137.634 43.11 138.059 43.3831 138.344C54.771 150.258 60.4698 156.21 60.4698 156.21C49.7898 166.58 44.4398 171.76 44.4398 171.76C38.5198 178.21 32.8298 184.43 26.5398 190.55C30.3498 192.68 33.7998 194.33 36.8998 195.5C36.5898 196.36 36.9898 197.31 37.8198 197.68C38.6498 198.05 39.6298 197.72 40.0598 196.92C54.9398 204.16 65.1598 212.74 70.7098 222.64C87.8898 255.04 104.6 288.49 121.9 320.59C125.63 327.51 134.18 330.58 141.27 327.17C148.84 323.53 151.76 314.36 147.82 307.05C134.21 281.8 111.76 250.43 95.8798 225.18ZM46.6798 169.3C45.9498 171.77 42.0598 175.91 42.0598 175.91L30.9798 187.11C25.0998 178.39 21.2598 164.23 28.5098 149.67L44.4598 166.91L46.6698 169.3H46.6798ZM142.73 309.79C145.04 314.08 143.44 319.44 139.15 321.75C134.86 324.06 129.5 322.46 127.19 318.17C124.88 313.88 126.48 308.52 130.77 306.21C135.06 303.9 140.42 305.5 142.73 309.79Z" fill="url(#paint2_linear_12628_600)"/>
<path fill-rule="evenodd" clip-rule="evenodd" d="M98.1094 222.72C88.1494 208.59 83.3194 195.99 83.6394 184.93C84.3694 173.8 88.4094 155.46 80.5394 146.51C72.6894 137.58 60.8594 133.83 45.0494 135.29C56.8194 147.6 62.6994 153.75 62.6994 153.75C52.0194 164.12 46.6694 169.3 46.6694 169.3C40.7494 175.75 35.2895 181.88 28.9995 188C32.8095 190.13 36.0294 191.87 39.1294 193.04C38.8194 193.9 39.2194 194.85 40.0494 195.22C40.8794 195.59 41.8594 195.26 42.2894 194.46C57.1694 201.7 67.3894 210.28 72.9394 220.18C90.1794 252.69 106.949 286.27 124.309 318.46C128.139 325.57 137.009 328.22 144.119 324.39C151.229 320.56 153.879 311.69 150.049 304.58C136.439 279.33 113.989 247.96 98.1094 222.71V222.72ZM63.8394 195.78L61.5694 193.53L63.5494 191.51C64.8294 192.35 65.9294 192.99 66.5694 193.17C67.5594 193.45 67.5094 192.44 67.0194 191.89C66.8794 191.74 66.0294 191.07 64.8594 190.17L66.9294 188.06C68.0894 188.81 69.0794 189.37 69.6794 189.54C70.6694 189.82 70.6194 188.81 70.1294 188.26C69.9994 188.12 69.2594 187.53 68.2194 186.74L70.3094 184.61C71.3494 185.27 72.2394 185.76 72.7794 185.91C73.7694 186.19 73.7194 185.18 73.2294 184.63C73.1194 184.5 72.4794 184 71.5794 183.3L73.3094 181.53L77.1594 185.71L65.9294 195.84C65.1794 196.09 64.4794 196.07 63.8194 195.77L63.8394 195.78ZM62.8794 172.47C63.9894 172.22 65.1294 172.71 66.3194 173.93L69.2594 177.12L66.6694 179.58C64.6094 178.04 62.8694 176.75 62.8694 176.75C61.8294 176 60.9594 176.61 61.3594 177.51C61.5294 177.9 63.1994 179.35 65.2394 180.95L63.1694 182.92C61.2894 181.51 59.7594 180.38 59.7594 180.38C58.7194 179.63 57.8494 180.24 58.2494 181.14C58.4094 181.5 59.8894 182.8 61.7494 184.28L59.6694 186.26C57.9694 184.99 56.6494 184.01 56.6494 184.01C55.6094 183.26 54.7394 183.87 55.1394 184.77C55.2794 185.09 56.4494 186.14 57.9994 187.4L56.8994 188.91L51.2594 183.33L62.8894 172.48L62.8794 172.47ZM44.4594 166.91C43.7294 169.38 42.5894 172.57 42.5894 172.57L34.0594 181.15C28.1794 172.43 26.3294 161.93 28.5094 149.66L44.4594 166.9V166.91ZM144.949 307.33C147.259 311.62 145.659 316.98 141.369 319.29C137.079 321.6 131.719 320 129.409 315.71C127.099 311.42 128.699 306.06 132.989 303.75C137.279 301.44 142.639 303.04 144.949 307.33Z" fill="url(#paint3_linear_12628_600)"/>
<path d="M63.5723 279.65C67.5023 256.07 120.722 205.25 192.132 244.17C263.532 283.09 146.112 305.68 102.382 298.8C58.6522 291.92 63.5723 279.65 63.5723 279.65Z" fill="url(#paint4_linear_12628_600)"/>
<path d="M186.352 344.9C231.112 364.12 270.902 362.64 306.772 320.4C342.642 278.17 287.172 235.61 287.172 235.61C287.172 235.61 290.662 263.85 245.172 274.24C199.672 284.63 186.352 344.9 186.352 344.9Z" fill="url(#paint5_linear_12628_600)"/>
<path d="M50.7217 277.68C23.7317 283.75 13.6217 333.66 70.5017 356.25C127.372 378.84 171.592 360.67 198.122 331.2C224.652 301.74 228.702 279.63 242.152 274.24C242.152 274.24 223.052 227.1 166.122 250.18C109.192 273.26 115.092 290.45 90.5217 285.05C65.9517 279.65 70.3717 273.26 50.7217 277.68Z" fill="url(#paint6_linear_12628_600)"/>
<path d="M226.162 157.41C233.332 182.98 236.172 208.44 183.182 208.44C118.952 208.44 129.822 183.65 138.452 157.46C145.402 136.41 151.532 121.27 183.182 121.27C210.482 121.27 220.112 135.84 226.162 157.4V157.41Z" fill="url(#paint7_radial_12628_600)"/>
<path d="M187.359 141.23C198.759 141.23 207.999 138.47 207.999 135.06C207.999 131.65 198.759 128.9 187.359 128.9C175.959 128.9 166.719 131.66 166.719 135.06C166.719 138.46 175.959 141.23 187.359 141.23Z" fill="url(#paint8_linear_12628_600)"/>
<path d="M235.261 62.9198C216.371 65.6898 225.261 64.5998 196.891 58.6798C175.291 54.1698 133.511 69.5598 133.511 69.5598C102.881 68.0698 82.1914 58.4998 82.1914 58.4998C82.1914 58.4998 88.0914 3.82981 116.041 1.62981C143.991 -0.570189 196.871 -8.10019 195.991 46.0998C195.991 46.0998 242.251 40.9098 249.241 49.5398C256.231 58.1698 240.481 62.1598 235.261 62.9198Z" fill="url(#paint9_linear_12628_600)"/>
<path d="M76.2109 95.8204C93.4709 95.8204 107.461 81.8403 107.461 64.5903C107.461 47.3403 93.4709 33.3604 76.2109 33.3604C58.9509 33.3604 44.9609 47.3403 44.9609 64.5903C44.9609 81.8403 58.9509 95.8204 76.2109 95.8204Z" fill="url(#paint10_radial_12628_600)"/>
<path d="M225.438 41.2399C203.548 40.4099 155.508 36.4799 133.508 69.5599C133.508 69.5599 149.178 68.6199 156.868 62.8099C164.558 56.9999 167.018 53.8499 190.768 48.7099C214.518 43.5699 225.438 41.2399 225.438 41.2399Z" fill="url(#paint11_linear_12628_600)"/>
<path d="M133.508 69.5599C160.588 69.5599 173.908 46.9899 222.168 46.9899C270.428 46.9899 235.268 62.9199 235.268 62.9199C246.618 62.5299 283.458 43.2799 225.438 41.2399C168.258 39.2299 171.498 57.6099 133.508 69.5599Z" fill="url(#paint12_linear_12628_600)"/>
</g>
<defs>
<radialGradient id="paint0_radial_12628_600" cx="0" cy="0" r="1" gradientUnits="userSpaceOnUse" gradientTransform="translate(218.634 73.151) scale(29.81 42.01)">
<stop offset="0.64" stop-color="#080814"/>
<stop offset="0.72" stop-color="#090814"/>
<stop offset="1" stop-color="#3A2E6E"/>
</radialGradient>
<radialGradient id="paint1_radial_12628_600" cx="0" cy="0" r="1" gradientUnits="userSpaceOnUse" gradientTransform="translate(120.663 227.58) scale(152.7 235.04)">
<stop stop-color="#090814"/>
<stop offset="0.85" stop-color="#090814"/>
<stop offset="1" stop-color="#3A2E6E"/>
</radialGradient>
<linearGradient id="paint2_linear_12628_600" x1="34.366" y1="139.388" x2="145.126" y2="324.041" gradientUnits="userSpaceOnUse">
<stop stop-color="#0071BC"/>
<stop offset="0.36" stop-color="#3FA9F5"/>
<stop offset="0.54" stop-color="#00FFFF"/>
<stop offset="1" stop-color="#FF5DAB"/>
</linearGradient>
<linearGradient id="paint3_linear_12628_600" x1="39.6651" y1="145.949" x2="154.851" y2="309.23" gradientUnits="userSpaceOnUse">
<stop stop-color="#FF5DAB"/>
<stop offset="0.54" stop-color="#00FFFF"/>
<stop offset="0.7" stop-color="#3FA9F5"/>
<stop offset="1" stop-color="#0071BC"/>
</linearGradient>
<linearGradient id="paint4_linear_12628_600" x1="136.812" y1="291.08" x2="149.322" y2="197.53" gradientUnits="userSpaceOnUse">
<stop offset="0.39" stop-color="#090814"/>
<stop offset="1" stop-color="#3A2E6E"/>
</linearGradient>
<linearGradient id="paint5_linear_12628_600" x1="239.102" y1="354.59" x2="289.172" y2="226.41" gradientUnits="userSpaceOnUse">
<stop offset="0.39" stop-color="#080713"/>
<stop offset="1" stop-color="#3A2E6E"/>
</linearGradient>
<linearGradient id="paint6_linear_12628_600" x1="130.722" y1="360.63" x2="141.762" y2="202.26" gradientUnits="userSpaceOnUse">
<stop offset="0.39" stop-color="#080713"/>
<stop offset="1" stop-color="#3A2E6E"/>
</linearGradient>
<radialGradient id="paint7_radial_12628_600" cx="0" cy="0" r="1" gradientUnits="userSpaceOnUse" gradientTransform="translate(130.739 199.809) scale(105.31 105.26)">
<stop offset="0.85" stop-color="#090814"/>
<stop offset="1" stop-color="#3A2E6E"/>
</radialGradient>
<linearGradient id="paint8_linear_12628_600" x1="186.989" y1="139.28" x2="187.849" y2="129.59" gradientUnits="userSpaceOnUse">
<stop stop-color="#080714"/>
<stop offset="0.74" stop-color="#3A2E6E"/>
<stop offset="1" stop-color="#533468"/>
</linearGradient>
<linearGradient id="paint9_linear_12628_600" x1="76.7814" y1="20.6198" x2="240.731" y2="58.1798" gradientUnits="userSpaceOnUse">
<stop stop-color="#FF5DAB"/>
<stop offset="0.54" stop-color="#00FFFF"/>
<stop offset="0.7" stop-color="#3FA9F5"/>
<stop offset="1" stop-color="#0071BC"/>
</linearGradient>
<radialGradient id="paint10_radial_12628_600" cx="0" cy="0" r="1" gradientUnits="userSpaceOnUse" gradientTransform="translate(75.0704 97.2844) scale(38.65 65.29)">
<stop offset="0.85" stop-color="#080714"/>
<stop offset="1" stop-color="#3A2E6E"/>
</radialGradient>
<linearGradient id="paint11_linear_12628_600" x1="134.078" y1="55.1099" x2="224.198" y2="55.1099" gradientUnits="userSpaceOnUse">
<stop stop-color="#FF5DAB"/>
<stop offset="0.54" stop-color="#00FFFF"/>
<stop offset="0.7" stop-color="#3FA9F5"/>
<stop offset="1" stop-color="#0071BC"/>
</linearGradient>
<linearGradient id="paint12_linear_12628_600" x1="134.278" y1="55.3299" x2="255.598" y2="55.3299" gradientUnits="userSpaceOnUse">
<stop stop-color="#0071BC"/>
<stop offset="0.3" stop-color="#3FA9F5"/>
<stop offset="0.46" stop-color="#00FFFF"/>
<stop offset="1" stop-color="#FF5DAB"/>
</linearGradient>
<clipPath id="clip0_12628_600">
<rect width="319" height="369" fill="white"/>
</clipPath>
</defs>
</svg>
