<svg width="820" height="820" viewBox="0 0 820 820" fill="none" xmlns="http://www.w3.org/2000/svg">
<path d="M409.998 0.400391C183.77 0.400391 0.398438 183.772 0.398438 410C0.398438 636.229 183.77 819.6 409.998 819.6C636.227 819.6 819.598 636.229 819.598 410C819.598 183.772 636.205 0.400391 409.998 0.400391ZM622.333 517.71C607.863 546.474 584.359 569.712 555.461 583.894H555.417C553.264 585.115 503.26 613.213 409.998 613.213C316.737 613.213 265.623 584.494 263.537 583.295C238.901 571.177 218.171 552.356 203.745 529.007C189.296 505.659 181.728 478.715 181.883 451.26C181.883 442.072 182.749 432.905 184.413 423.894C188.874 394.02 198.218 365.101 212.09 338.268C200.371 321.289 195.355 300.581 197.996 280.118C200.637 259.655 210.714 240.9 226.339 227.428C241.964 213.956 262.005 206.743 282.646 207.165C303.265 207.586 323.018 215.599 338.088 229.692C384.763 214.001 435.278 214.001 481.931 229.692C496.979 215.465 516.776 207.342 537.484 206.876C558.191 206.41 578.322 213.645 594.013 227.162C609.683 240.701 619.803 259.566 622.356 280.118C624.93 300.67 619.781 321.444 607.907 338.423C621.845 365.434 631.233 394.575 635.672 424.627C641.487 456.298 636.804 488.991 622.333 517.755V517.71Z" fill="url(#paint0_radial_6519_5031)"/>
<defs>
<radialGradient id="paint0_radial_6519_5031" cx="0" cy="0" r="1" gradientUnits="userSpaceOnUse" gradientTransform="translate(538.527 146.418) scale(674.78)">
<stop stop-color="#FF5DAB"/>
<stop offset="0.54" stop-color="#00FFFF"/>
<stop offset="0.7" stop-color="#3FA9F5"/>
<stop offset="1" stop-color="#0071BC"/>
</radialGradient>
</defs>
</svg>
