<svg width="1920" height="678" viewBox="0 0 1920 678" fill="none" xmlns="http://www.w3.org/2000/svg">
<g clipPath="url(#clip0_3833_2182)">
<path d="M485.631 285.73C481.241 270.53 476.561 260.46 474.751 277.82C474.751 277.82 463.911 270.04 459.251 282.86C459.251 282.86 450.231 273.6 437.681 282.28C437.681 282.28 422.211 239.08 399.371 266.65L384.391 266.76C384.391 266.76 378.111 231.17 369.641 248.59C361.171 266.01 357.711 267.31 353.801 256.93C350.631 248.51 345.641 236.63 338.111 245.1C334.811 248.82 328.861 248.3 326.331 244.03C317.321 228.82 300.851 203.69 295.191 212.57C287.241 225.05 270.781 223.34 271.191 203.42C271.541 186.1 263.741 186.79 251.031 205.82C248.591 209.47 243.051 208.72 241.671 204.56C237.211 191.14 229.081 172.42 222.671 190.06C213.351 215.71 189.861 201.62 185.671 177.9C181.481 154.17 177.511 160.41 159.101 193.44C140.691 226.47 114.781 283.67 114.781 283.67L464.281 346.62C483.551 332.88 492.201 308.48 485.631 285.75V285.73Z" fill="url(#paint0_linear_3833_2182)"/>
<path d="M144.06 241.95C143.27 241.77 142.95 240.82 143.48 240.2C147.94 235.05 163.6 216.95 162.17 218.38C161.03 219.52 155.2 222.22 151.66 223.8C150.74 224.21 149.81 223.24 150.26 222.33L160.85 201.15C161.3 200.25 160.38 199.28 159.46 199.68L153.38 202.28C152.45 202.68 151.53 201.68 152 200.79L163.73 178.64C164.23 177.69 163.18 176.67 162.24 177.2L156.73 180.35C155.83 180.87 154.79 179.93 155.21 178.98L166.04 154.62C166.43 153.74 165.55 152.82 164.66 153.18L161.16 154.58C160.28 154.93 159.41 154.06 159.76 153.19L171.63 122.97C173.79 117.47 181.38 116.97 184.25 122.13L200 150.48C200.53 151.43 199.47 152.48 198.52 151.94L193.8 149.24C192.84 148.69 191.78 149.77 192.34 150.72L204.69 171.71C205.26 172.67 204.16 173.75 203.21 173.18L202.67 172.86C201.68 172.27 200.58 173.43 201.22 174.38L216.68 197.57C217.25 198.42 216.42 199.51 215.44 199.19L207.22 196.45C206.18 196.1 205.35 197.34 206.06 198.17L221.52 216.21C222.17 216.96 221.53 218.12 220.55 217.98L214.23 217.08C213.3 216.95 212.66 217.98 213.19 218.76L227.63 239.77C228.26 240.69 227.26 241.84 226.26 241.34L223.38 239.9C222.42 239.42 221.42 240.49 221.97 241.42L233.65 260.89C234.14 261.71 233.41 262.71 232.48 262.49L144.03 241.96L144.06 241.95Z" fill="url(#paint1_linear_3833_2182)"/>
<path d="M220.163 277.79L245.453 216.8C246.503 214.27 250.073 214.21 251.193 216.71L261.143 238.83C262.073 240.89 264.813 241.32 266.323 239.64L289.973 213.37C291.413 211.77 293.993 212.07 295.033 213.94L314.553 249.08C315.833 251.38 319.193 251.17 320.183 248.74L332.863 217.62C333.943 214.97 337.723 215.04 338.703 217.73L353.503 258.44C354.413 260.93 357.813 261.24 359.143 258.95L375.743 230.49C377.053 228.25 380.363 228.48 381.343 230.89L398.453 273.01C399.353 275.22 402.303 275.65 403.793 273.79L410.843 264.98C412.213 263.26 414.893 263.46 415.993 265.37L428.773 287.45C430.063 289.68 433.343 289.48 434.353 287.11L443.433 265.93C444.583 263.25 448.443 263.46 449.303 266.24L456.933 291.04C457.853 294.02 462.073 293.97 462.933 290.98L470.063 266.02C470.943 262.94 475.333 263.01 476.103 266.12L481.203 286.53C481.903 289.32 485.673 289.77 487.013 287.22L498.903 264.52C500.013 262.39 503.013 262.26 504.313 264.29L523.703 294.59C525.223 296.96 528.853 296.28 529.403 293.52C529.983 290.6 533.933 290.07 535.273 292.73L536.503 295.19C537.683 297.55 541.083 297.48 542.163 295.06L549.543 278.45C550.693 275.87 554.393 276.01 555.343 278.66L565.383 306.55C566.273 309.02 569.633 309.36 571.003 307.12L587.263 280.41C588.643 278.13 592.063 278.52 592.903 281.05L633.803 403.75C634.553 405.99 632.643 408.22 630.313 407.82L206.993 336.46C205.153 336.15 203.993 334.31 204.503 332.52L220.043 278.14C220.073 278.02 220.113 277.91 220.163 277.8V277.79Z" fill="url(#paint2_linear_3833_2182)"/>
<path d="M634.84 351.46L656.8 298.5C657.71 296.3 660.81 296.26 661.79 298.43L670.43 317.63C671.24 319.42 673.61 319.79 674.93 318.33L695.46 295.52C696.71 294.13 698.95 294.39 699.85 296.02L716.8 326.53C717.91 328.52 720.83 328.35 721.69 326.24L732.7 299.22C733.64 296.92 736.92 296.98 737.77 299.32L750.62 334.66C751.41 336.82 754.36 337.09 755.52 335.1L769.93 310.39C771.07 308.44 773.94 308.65 774.79 310.74L789.64 347.31C790.42 349.23 792.98 349.6 794.28 347.98L800.4 340.33C801.59 338.84 803.91 339.01 804.87 340.67L815.97 359.84C817.09 361.77 819.94 361.6 820.82 359.55L828.7 341.16C829.7 338.84 833.05 339.01 833.79 341.43L840.41 362.96C841.21 365.54 844.88 365.51 845.62 362.91L851.81 341.24C852.57 338.57 856.38 338.63 857.06 341.33L861.49 359.05C862.1 361.47 865.37 361.86 866.53 359.65L876.85 339.94C877.82 338.09 880.42 337.98 881.54 339.74L898.37 366.04C899.69 368.1 902.84 367.51 903.32 365.11C903.83 362.57 907.26 362.11 908.41 364.43L909.48 366.57C910.51 368.62 913.46 368.56 914.39 366.46L920.8 352.04C921.79 349.8 925.01 349.92 925.84 352.22L934.56 376.43C935.33 378.58 938.25 378.87 939.44 376.92L953.56 353.73C954.76 351.75 957.73 352.09 958.46 354.28L993.97 460.81C994.62 462.75 992.96 464.69 990.94 464.35L623.4 402.39C621.8 402.12 620.79 400.52 621.24 398.97L634.73 351.75C634.76 351.65 634.79 351.55 634.83 351.46H634.84Z" fill="url(#paint3_linear_3833_2182)"/>
<path d="M1787.03 133.31C1834.01 114.86 1882.34 92.16 1920 73.72V468.36H1190L1189.82 468.63L1189.65 468.36H962.828C964.338 467.16 965.858 465.96 967.418 464.74C970.088 462.65 972.838 460.55 975.698 458.41C980.458 454.81 985.448 451.15 990.628 447.43C995.008 444.31 999.518 441.14 1004.16 437.96C1007.56 435.62 1011.04 433.27 1014.59 430.89C1036.86 416.04 1061.74 400.7 1088.34 385.6C1091.44 383.84 1094.56 382.07 1097.71 380.32C1111.64 372.55 1125.99 364.86 1140.65 357.34C1142.04 356.63 1143.44 355.91 1144.83 355.2C1145.38 354.93 1145.92 354.64 1146.47 354.37C1230.09 311.99 1322.69 275.68 1400.92 262.81C1407.16 261.79 1413.23 260.74 1419.1 259.7C1427.13 258.26 1434.82 256.8 1442.2 255.33C1457.49 252.25 1471.47 249.12 1484.31 245.9C1484.34 245.89 1484.36 245.89 1484.39 245.88C1484.41 245.88 1484.44 245.87 1484.46 245.87C1484.48 245.87 1484.51 245.86 1484.53 245.86C1607.96 214.99 1625.66 178.79 1699.44 161.83C1701.33 161.39 1703.24 160.94 1705.18 160.45H1705.2C1730.14 154.28 1758.34 144.59 1787.04 133.31H1787.03Z" fill="url(#paint4_linear_3833_2182)"/>
<path d="M672.63 412.13L666.46 412.46H666.41L547.73 418.62L479.52 422.16L445.13 423.95L431.08 424.68L420.32 425.24H0L0.02 6.60001L2.13 0.690013C2.59 -0.249987 3.95 -0.219987 4.36 0.740013L4.72 1.60001L6.61 5.94001L11 16.08L18.96 34.51L28.56 56.68C29.01 57.71 27.96 58.73 26.95 58.3L22.42 56.35C21.26 55.85 20.2 57.21 20.96 58.22L41.03 84.99C41.71 85.9 40.88 87.16 39.77 86.91L31.33 85.04C30.22 84.79 29.41 86.05 30.07 86.96C35.03 93.71 47.66 111.12 46.32 112.46C45.21 113.57 37.4 109.46 32.37 106.65C31.26 106.02 30.05 107.28 30.73 108.37L52.19 142.71C52.59 143.34 53.45 143.47 54.01 143.01L61.62 136.66C62.25 136.15 63.19 136.36 63.52 137.11L78.13 169.23C78.58 170.24 80.05 170.17 80.4 169.11L103.2 102.22C103.56 101.16 105.04 101.09 105.5 102.12L149.68 203.11C150.06 203.99 151.27 204.1 151.81 203.32L152.52 202.28L164.3 185.25C164.83 184.51 165.95 184.57 166.39 185.37L198.31 244.41C198.46 244.69 198.71 244.89 199.01 244.99L229.66 254.77L230.07 254.9L234.82 256.42L235.43 256.62L316.63 282.55C317.23 282.75 317.87 282.45 318.14 281.87L326.55 262.24C326.96 261.26 326.04 260.25 325.03 260.59L320.58 262.08C319.52 262.43 318.59 261.34 319.09 260.36L321.13 256.42L337.12 225.59L339.68 220.64C339.68 220.64 339.71 220.59 339.73 220.57C340.23 219.73 341.5 219.79 341.9 220.7L342.71 222.57L357.54 256.41L358.81 259.36L362.37 267.47C362.85 268.6 361.58 269.67 360.55 268.99L357.37 266.86C356.36 266.2 355.09 267.21 355.53 268.33C357.98 274.45 362.81 286.2 364.04 286.2C365.4 286.2 374.52 267.35 377.77 260.52C378.22 259.56 379.57 259.59 380 260.55C384.14 270.16 399.01 304.4 400.44 304.4C401.58 304.4 405.11 298.06 407.18 294.16C407.71 293.15 409.2 293.37 409.45 294.47L411.52 303.74C411.74 304.72 412.96 305.05 413.62 304.3L428.55 287.9C428.55 287.9 428.6 287.83 428.62 287.8L428.84 287.52L437.45 276.05C437.88 275.47 438.67 275.4 439.19 275.83C439.31 275.91 439.39 276.01 439.47 276.14L463.83 315.71C464.34 316.54 465.55 316.49 465.98 315.61L480.81 284.81L484.57 276.98C485.12 275.85 483.83 274.75 482.78 275.42L480.12 277.21C479.72 277.47 479.29 277.47 478.93 277.31C478.37 277.05 478.02 276.38 478.32 275.69L478.45 275.39L481.35 268.9V268.88L486.89 256.39L495.36 237.34C495.79 236.38 497.15 236.36 497.59 237.32L506.49 256.38L507.27 258.05L517.76 280.54C518.29 281.67 517 282.77 515.97 282.08L515.57 281.82L513.02 280.12C512.01 279.46 510.74 280.48 511.2 281.61L517.17 296.22L522.6 309.49C523.1 310.7 521.62 311.74 520.65 310.88L516.45 307.19C515.41 306.3 513.9 307.49 514.55 308.7L530.27 337.87L532.37 341.76L533.73 344.29C534.11 345.02 535.09 345.17 535.68 344.57L546.8 333.45C547.3 332.95 548.14 332.99 548.6 333.53L550.69 336.05L553.67 339.62L555.01 341.23C555.52 341.84 556.48 341.81 556.95 341.16L557.84 339.92L563.65 331.94L568.43 325.37C568.88 324.76 569.74 324.69 570.27 325.2L573.91 328.66L575.23 329.93L577.35 331.95L596.74 350.45L597.15 350.85L604.32 357.68C604.95 358.29 606.01 358.06 606.31 357.23L612.66 340.27L614.68 334.91C614.93 334.26 614.6 333.62 614.07 333.37C613.81 333.22 613.47 333.19 613.14 333.3L610.62 334.14L608.67 334.79C607.61 335.15 606.67 334.01 607.21 333.04L609.11 329.65L617.68 314.34L627.48 296.83C627.61 296.57 627.83 296.4 628.06 296.3C628.67 296.04 629.47 296.3 629.71 297.03L630.09 298.16L633.8 308.93L634.96 312.29L635.84 314.84L646.13 344.78C646.48 345.79 645.45 346.72 644.48 346.3L638.04 343.54C637.05 343.13 636.04 344.09 636.4 345.1L650.25 383.59C650.3 383.72 650.38 383.87 650.48 383.99L655.86 390.1L670.65 406.85L673.46 410.04C674.14 410.8 673.64 412.03 672.62 412.08L672.63 412.13Z" fill="url(#paint5_linear_3833_2182)"/>
<path d="M1920 121.08V468.26H1190.45L1190.27 468.64L1190.1 468.26H582.852C633.582 450.5 685.062 433.51 725.572 422.39H725.592C735.572 419.64 744.882 417.28 753.332 415.32H753.352C755.992 414.71 758.542 414.15 761.012 413.63C767.992 412.16 774.252 411.05 779.722 410.34C803.822 407.23 824.552 405.31 843.692 403.19C881.052 399.09 912.392 394.24 950.892 378.37C962.212 373.7 974.142 368.09 987.042 361.26C991.302 359.01 995.672 356.61 1000.15 354.08C1036.33 333.63 1063.23 339.85 1088.85 352.99C1090.21 353.69 1091.57 354.4 1092.93 355.14C1117.89 368.64 1142.02 387.74 1172.83 393.9C1176.06 394.56 1179.36 395.06 1182.76 395.39H1182.81C1184.25 395.54 1185.71 395.65 1187.2 395.74C1195.57 396.22 1204.44 395.67 1213.95 393.8C1229.38 390.77 1245.59 387.43 1262.18 383.74C1278.14 380.18 1294.47 376.29 1310.79 372.06C1319.51 369.79 1328.24 367.43 1336.91 364.96C1337.57 364.78 1338.22 364.58 1338.88 364.4H1338.9C1340.76 363.87 1342.61 363.32 1344.47 362.78H1344.49C1349.73 361.24 1354.95 359.67 1360.14 358.05C1406.03 343.75 1448.98 326.31 1480.57 305.1C1484.12 302.72 1487.51 300.3 1490.75 297.84C1491.48 297.29 1492.21 296.75 1492.94 296.23C1500 291.12 1507.46 287.1 1515.28 283.84C1521.23 281.37 1527.38 279.36 1533.71 277.65C1545.48 274.49 1557.86 272.44 1570.69 270.68C1576.31 269.9 1581.99 269.19 1587.78 268.46C1601.07 266.77 1614.76 265.02 1628.7 262.37C1629.79 262.15 1630.89 261.94 1632 261.72C1636.33 260.84 1640.68 259.88 1645.06 258.79C1645.97 258.56 1646.88 258.33 1647.79 258.1C1654.97 256.25 1662.19 254.05 1669.44 251.4C1673.15 250.04 1676.87 248.57 1680.59 246.98H1680.61C1700.23 238.52 1719.96 226.41 1739.36 208.47C1742.39 205.67 1745.64 202.91 1749.09 200.18C1788.8 168.71 1855.08 141.88 1920.02 121.1L1920 121.08Z" fill="url(#paint6_linear_3833_2182)"/>
<path d="M1229.03 430.52L1240.56 454.8H1197.93L1200.89 448.26L1201.27 447.43C1201.85 446.14 1200.43 444.87 1199.22 445.59L1197.38 446.7L1194.75 448.27L1190.4 450.88C1189.21 451.59 1187.8 450.37 1188.33 449.08L1194.83 433.46L1195.46 431.95L1210.22 396.55C1210.7 395.39 1212.32 395.36 1212.85 396.48L1229.02 430.5L1229.03 430.52Z" fill="url(#paint7_linear_3833_2182)"/>
<path d="M1912.79 219.74L1920.01 211.15V466.12L1893.53 467.56H1239.66L1256.77 440.19L1259.4 435.99C1260.1 434.88 1259.05 433.47 1257.78 433.84L1252.68 435.3C1251.52 435.63 1250.5 434.47 1250.96 433.36L1265.08 399.49C1265.56 398.31 1264.42 397.14 1263.23 397.59L1256.78 400.01C1255.52 400.49 1254.36 399.13 1255.01 397.97L1263.22 383.04L1270.15 370.41C1270.68 369.45 1269.98 368.28 1268.89 368.28H1254.77C1256.06 368.28 1268.37 350.23 1273.77 342.23C1274.56 341.06 1273.39 339.58 1272.07 340.08L1266.96 341.98C1265.67 342.48 1264.51 341.05 1265.22 339.89L1289.73 299.53C1290.33 298.52 1291.83 298.64 1292.28 299.71L1307.41 335.42C1307.97 336.76 1306.42 338.02 1305.24 337.16L1304.45 336.6C1303.14 335.67 1301.5 337.26 1302.41 338.6L1317.78 361.04C1318.43 362 1317.75 363.31 1316.59 363.31H1308.86C1307.7 363.31 1307.01 364.63 1307.69 365.59L1311.76 371.35L1324.55 389.47C1325.18 390.36 1326.54 390.26 1327.02 389.29L1339.81 363.69H1339.83L1341.47 360.4C1341.95 359.44 1343.26 359.32 1343.9 360.15L1345.39 362.07H1345.41L1352.59 371.32C1353.27 372.18 1354.61 372.02 1355.06 371.02L1361.03 357.33L1364.06 350.41C1364.61 349.17 1363.3 347.93 1362.09 348.54L1356.3 351.44C1355.06 352.05 1353.75 350.74 1354.36 349.5L1379.41 299.39C1379.91 298.38 1381.31 298.31 1381.93 299.26L1390.65 312.96C1391.28 313.95 1392.75 313.82 1393.2 312.74L1409.98 272.18C1410.54 270.82 1408.95 269.6 1407.78 270.48L1402.32 274.58C1401.19 275.42 1399.66 274.33 1400.07 273.01L1411.98 234.27C1411.98 234.27 1412 234.2 1412.01 234.17L1417.59 210.47C1417.9 209.1 1416.28 208.12 1415.22 209.05L1409.59 213.96C1408.48 214.95 1406.78 213.79 1407.29 212.39L1420.2 176.93L1421.03 174.63L1430.63 148.25C1431.08 147.03 1432.78 146.96 1433.29 148.15L1442.44 168.98L1443.25 170.83L1460.03 209.04C1460.58 210.28 1459.27 211.52 1458.06 210.91L1452.27 208.01C1451.03 207.4 1449.72 208.71 1450.33 209.95L1470.78 250.86C1471.44 252.18 1469.92 253.52 1468.69 252.71L1463.86 249.48C1462.57 248.62 1461.01 250.13 1461.82 251.45L1486.89 291.84C1487.45 292.73 1486.87 293.91 1485.83 294.02L1476 295.11C1474.83 295.24 1474.3 296.65 1475.09 297.51L1481.25 304.34L1486.45 310.13C1487.19 310.94 1488.54 310.66 1488.88 309.62L1493.6 295.47L1502.17 269.77C1502.53 268.69 1503.94 268.43 1504.65 269.32L1515.9 283.07L1531.07 301.62C1531.8 302.5 1533.24 302.23 1533.57 301.12L1540.04 280.45C1540.42 279.23 1539.15 278.15 1538.02 278.73L1535.55 279.95C1534.26 280.6 1532.92 279.16 1533.66 277.91L1534.29 276.87L1554.61 243C1555.19 242.04 1556.61 242.07 1557.13 243.07L1571.08 269.56C1571.15 269.68 1571.18 269.79 1571.21 269.91C1571.44 270.89 1570.56 271.85 1569.51 271.65L1567.72 271.29C1566.45 271.04 1565.5 272.47 1566.25 273.54L1577.54 289.84C1578.2 290.8 1579.67 290.62 1580.09 289.53L1588.28 267.7L1592.9 255.37C1593.33 254.21 1592.19 253.07 1591.03 253.5L1584.38 256C1583.12 256.48 1581.96 255.14 1582.59 253.96L1602.66 216.69C1603.21 215.68 1604.66 215.68 1605.21 216.71L1629.14 261.61L1629.27 261.84C1629.78 262.8 1631.14 262.88 1631.75 261.97L1632.43 260.96L1639.05 251.01C1639.65 250.12 1640.97 250.17 1641.5 251.11L1645.44 257.99L1645.47 258.02C1646.07 259.05 1647.6 258.9 1648.03 257.77L1648.2 257.32L1655.99 236.57C1656.37 235.53 1657.78 235.3 1658.47 236.19L1669.81 250.62L1673.72 255.58C1674.37 256.41 1675.64 256.29 1676.14 255.37L1680.96 246.2H1680.98L1689.57 229.87C1690.22 228.63 1688.89 227.27 1687.65 227.9L1682.72 230.37C1681.45 231.02 1680.11 229.59 1680.83 228.35L1694.2 205.25C1694.93 204.01 1693.59 202.59 1692.31 203.23L1687.25 205.76C1686.01 206.37 1684.7 205.06 1685.31 203.82L1703.66 167.13C1704.17 166.09 1703.31 164.9 1702.15 165.06L1695.43 166.02C1694.42 166.15 1693.58 165.23 1693.82 164.23L1712.07 92.7799C1712.4 91.4199 1714.27 91.3099 1714.8 92.5799L1740.95 156.52C1741.51 157.88 1739.92 159.1 1738.75 158.21L1736.04 156.17C1734.75 155.21 1733.09 156.75 1733.95 158.11L1750.3 183.79C1751.06 185 1749.8 186.47 1748.5 185.89L1742.29 183.13C1740.98 182.55 1739.71 184.01 1740.47 185.22L1749.34 199.4L1760.81 217.75C1761.51 218.86 1760.46 220.27 1759.19 219.9L1754.69 218.61C1753.45 218.25 1752.39 219.62 1753.05 220.73L1771.65 252.19C1772.16 253.07 1773.4 253.15 1774.03 252.34L1794.09 223.94C1795.58 221.84 1794.83 218.91 1792.52 217.77C1791.08 217.06 1789.79 216.55 1790.25 215.55L1804.68 185.27C1805.18 184.23 1806.62 184.16 1807.21 185.14L1830.69 223.28C1831.32 224.32 1830.46 225.63 1829.25 225.46L1827.64 225.23C1826.08 225 1825.34 227.07 1826.68 227.89L1849.04 241.54C1849.8 242 1850.79 241.69 1851.14 240.86L1874.46 183.32C1874.86 182.34 1876.15 182.11 1876.86 182.89L1910.62 219.71C1911.2 220.36 1912.23 220.32 1912.79 219.66V219.74Z" fill="url(#paint8_linear_3833_2182)"/>
<path d="M1196.45 463.49L1192.48 461.72L1188.97 460.16L1187.08 459.32C1186.29 458.97 1185.47 459.77 1185.82 460.56L1186.33 461.73L1189.16 468.25H1068.66L1077.68 450.82C1078.09 450.03 1077.27 449.15 1076.44 449.53L1063.45 455.42C1062.61 455.8 1061.78 454.87 1062.24 454.08L1068.84 442.76L1083.07 418.37C1083.43 417.74 1082.97 416.95 1082.24 416.95H1075.82C1075.04 416.95 1074.6 416.07 1075.06 415.44L1093.21 390.3C1093.79 389.49 1092.91 388.45 1092.02 388.89L1081.64 394.07C1080.81 394.48 1079.94 393.59 1080.38 392.76L1097.47 361.43C1097.9 360.64 1097.09 359.74 1096.25 360.09L1089.75 362.89C1088.92 363.24 1088.11 362.34 1088.56 361.55L1092.13 355.11L1097.41 345.61L1100.45 340.13C1100.98 339.15 1099.72 338.21 1098.94 338.99C1098.74 339.19 1098.49 339.29 1098.28 339.29C1097.62 339.29 1097.04 338.56 1097.45 337.85L1110.89 314.62C1111.3 313.91 1110.66 313.03 1109.83 313.23L1100.78 315.5C1100 315.7 1099.34 314.87 1099.7 314.14L1124.36 264.83C1124.71 264.12 1125.75 264.13 1126.08 264.88L1146.04 309.41C1146.04 309.41 1146.06 309.46 1146.06 309.48C1146.32 310.16 1145.76 310.87 1145.02 310.74L1144.42 310.64L1139.31 309.8C1138.45 309.65 1137.87 310.66 1138.42 311.34L1140.26 313.62L1163.05 341.74C1163.63 342.47 1162.93 343.53 1162.04 343.26L1152.04 340.25C1151.1 339.97 1150.4 341.14 1151.1 341.84L1169.39 360.13C1170.05 360.79 1169.46 361.92 1168.53 361.74L1157.79 359.59C1156.9 359.41 1156.3 360.47 1156.88 361.15L1186.1 394.74C1186.36 395.05 1186.38 395.42 1186.27 395.73C1186.09 396.13 1185.64 396.43 1185.13 396.28L1181.89 395.39H1181.84L1173.14 393.01C1172.48 392.83 1171.95 393.34 1171.93 393.9C1171.91 394.13 1172 394.38 1172.18 394.58L1186.03 409.67C1186.66 410.37 1186.01 411.46 1185.1 411.24L1170.9 407.68C1170.02 407.46 1169.38 408.46 1169.91 409.17L1186.13 430.8C1186.71 431.58 1185.91 432.6 1185.02 432.26L1174.73 428.14C1173.84 427.79 1173.04 428.82 1173.6 429.6L1185.33 445.47L1186.42 446.94L1197.61 462.07C1198.19 462.85 1197.35 463.91 1196.45 463.51V463.49Z" fill="url(#paint9_linear_3833_2182)"/>
<path d="M1920 239.08V768.26H0V212.99C32.83 228.35 67.01 243.24 101.1 256.45C133.39 268.98 165.59 279.98 196.52 288.44C203.05 290.23 209.51 291.9 215.9 293.44C217.94 293.94 219.99 294.42 222.01 294.88C246.3 300.51 269.52 304.28 291.06 305.65C294.03 305.85 296.94 306 299.84 306.1C352.74 307.9 405.75 318.1 459.6 332.05C460.61 332.31 461.64 332.58 462.65 332.84H462.73C462.73 332.84 462.76 332.86 462.78 332.86C477.04 336.6 491.32 340.59 505.7 344.76C519.96 348.88 534.28 353.18 548.69 357.57C559.77 360.93 570.92 364.35 582.1 367.8C585 368.68 587.91 369.57 590.81 370.45C597.88 372.63 604.97 374.8 612.1 376.95C617.07 378.47 622.04 379.96 627.03 381.45C636.82 384.4 646.68 387.31 656.57 390.17C683.66 398 711.12 405.41 739.04 411.96C739.06 411.98 739.07 411.98 739.09 411.98C744.01 413.14 748.93 414.25 753.88 415.34H753.9C807.72 427.27 863.25 435.59 921.07 436.84C938.55 437.22 955.28 437.73 971.36 438.33C975.17 438.46 978.93 438.61 982.66 438.76C985.68 438.88 988.66 439.01 991.64 439.12C1019.49 440.29 1045.43 441.64 1070 442.79C1111.85 444.78 1149.77 446.25 1186.61 445.47C1187.19 445.47 1187.77 445.45 1188.33 445.44C1199.59 445.19 1210.78 444.73 1221.93 444C1233.29 443.26 1244.64 442.25 1256.06 440.91C1293 436.59 1330.67 428.88 1371.96 415.99C1398.78 407.63 1427.14 397.09 1457.82 383.89C1562.47 338.85 1756.26 282.9 1920.01 239.11L1920 239.08Z" fill="url(#paint10_linear_3833_2182)"/>
</g>
<defs>
<linearGradient id="paint0_linear_3833_2182" x1="299.071" y1="304.23" x2="372.941" y2="34.52" gradientUnits="userSpaceOnUse">
<stop stopColor="#5B47A8"/>
<stop offset="0.07" stopColor="#4B3B8C"/>
<stop offset="0.18" stopColor="#392D6C"/>
<stop offset="0.29" stopColor="#2A2151"/>
<stop offset="0.42" stopColor="#1F193D"/>
<stop offset="0.56" stopColor="#17122F"/>
<stop offset="0.73" stopColor="#120F26"/>
<stop offset="1" stopColor="#110E24"/>
</linearGradient>
<linearGradient id="paint1_linear_3833_2182" x1="184.43" y1="313.88" x2="207.88" y2="-44.9499" gradientUnits="userSpaceOnUse">
<stop stopColor="#5B47A8"/>
<stop offset="0.07" stopColor="#4B3B8C"/>
<stop offset="0.18" stopColor="#392D6C"/>
<stop offset="0.29" stopColor="#2A2151"/>
<stop offset="0.42" stopColor="#1F193D"/>
<stop offset="0.56" stopColor="#17122F"/>
<stop offset="0.73" stopColor="#120F26"/>
<stop offset="1" stopColor="#110E24"/>
</linearGradient>
<linearGradient id="paint2_linear_3833_2182" x1="417.323" y1="377.4" x2="478.293" y2="103.78" gradientUnits="userSpaceOnUse">
<stop stopColor="#5B47A8"/>
<stop offset="0.07" stopColor="#4B3B8C"/>
<stop offset="0.18" stopColor="#392D6C"/>
<stop offset="0.29" stopColor="#2A2151"/>
<stop offset="0.42" stopColor="#1F193D"/>
<stop offset="0.56" stopColor="#17122F"/>
<stop offset="0.73" stopColor="#120F26"/>
<stop offset="1" stopColor="#110E24"/>
</linearGradient>
<linearGradient id="paint3_linear_3833_2182" x1="805.87" y1="446.62" x2="824.63" y2="277.76" gradientUnits="userSpaceOnUse">
<stop stopColor="#5B47A8"/>
<stop offset="0.07" stopColor="#4B3B8C"/>
<stop offset="0.18" stopColor="#392D6C"/>
<stop offset="0.29" stopColor="#2A2151"/>
<stop offset="0.42" stopColor="#1F193D"/>
<stop offset="0.56" stopColor="#17122F"/>
<stop offset="0.73" stopColor="#120F26"/>
<stop offset="1" stopColor="#110E24"/>
</linearGradient>
<linearGradient id="paint4_linear_3833_2182" x1="1492.35" y1="413.78" x2="1373.38" y2="80.34" gradientUnits="userSpaceOnUse">
<stop stopColor="#5B47A8"/>
<stop offset="0.07" stopColor="#4B3B8C"/>
<stop offset="0.18" stopColor="#392D6C"/>
<stop offset="0.29" stopColor="#2A2151"/>
<stop offset="0.42" stopColor="#1F193D"/>
<stop offset="0.56" stopColor="#17122F"/>
<stop offset="0.73" stopColor="#120F26"/>
<stop offset="1" stopColor="#110E24"/>
</linearGradient>
<linearGradient id="paint5_linear_3833_2182" x1="267.26" y1="446.11" x2="368.11" y2="102.53" gradientUnits="userSpaceOnUse">
<stop stopColor="#5B47A8"/>
<stop offset="0.07" stopColor="#4B3B8C"/>
<stop offset="0.18" stopColor="#392D6C"/>
<stop offset="0.29" stopColor="#2A2151"/>
<stop offset="0.42" stopColor="#1F193D"/>
<stop offset="0.56" stopColor="#17122F"/>
<stop offset="0.73" stopColor="#120F26"/>
<stop offset="1" stopColor="#110E24"/>
</linearGradient>
<linearGradient id="paint6_linear_3833_2182" x1="1307.01" y1="512.25" x2="1214.66" y2="150.71" gradientUnits="userSpaceOnUse">
<stop stopColor="#5B47A8"/>
<stop offset="0.07" stopColor="#4B3B8C"/>
<stop offset="0.18" stopColor="#392D6C"/>
<stop offset="0.29" stopColor="#2A2151"/>
<stop offset="0.42" stopColor="#1F193D"/>
<stop offset="0.56" stopColor="#17122F"/>
<stop offset="0.73" stopColor="#120F26"/>
<stop offset="1" stopColor="#110E24"/>
</linearGradient>
<linearGradient id="paint7_linear_3833_2182" x1="1217" y1="609.7" x2="1211.14" y2="255.55" gradientUnits="userSpaceOnUse">
<stop stopColor="#5B47A8"/>
<stop offset="0.07" stopColor="#4B3B8C"/>
<stop offset="0.18" stopColor="#392D6C"/>
<stop offset="0.29" stopColor="#2A2151"/>
<stop offset="0.42" stopColor="#1F193D"/>
<stop offset="0.56" stopColor="#17122F"/>
<stop offset="0.73" stopColor="#120F26"/>
<stop offset="1" stopColor="#110E24"/>
</linearGradient>
<linearGradient id="paint8_linear_3833_2182" x1="1603.58" y1="416.61" x2="1519.93" y2="144.55" gradientUnits="userSpaceOnUse">
<stop stopColor="#5B47A8"/>
<stop offset="0.07" stopColor="#4B3B8C"/>
<stop offset="0.18" stopColor="#392D6C"/>
<stop offset="0.29" stopColor="#2A2151"/>
<stop offset="0.42" stopColor="#1F193D"/>
<stop offset="0.56" stopColor="#17122F"/>
<stop offset="0.73" stopColor="#120F26"/>
<stop offset="1" stopColor="#110E24"/>
</linearGradient>
<linearGradient id="paint9_linear_3833_2182" x1="1132.48" y1="611.09" x2="1126.62" y2="256.95" gradientUnits="userSpaceOnUse">
<stop stopColor="#5B47A8"/>
<stop offset="0.07" stopColor="#4B3B8C"/>
<stop offset="0.18" stopColor="#392D6C"/>
<stop offset="0.29" stopColor="#2A2151"/>
<stop offset="0.42" stopColor="#1F193D"/>
<stop offset="0.56" stopColor="#17122F"/>
<stop offset="0.73" stopColor="#120F26"/>
<stop offset="1" stopColor="#110E24"/>
</linearGradient>
<linearGradient id="paint10_linear_3833_2182" x1="960.005" y1="480" x2="960.005" y2="678.26" gradientUnits="userSpaceOnUse">
<stop stopColor="#110E24"/>
<stop offset="1" stopColor="#110E24" stopOpacity="0"/>
</linearGradient>
<clipPath id="clip0_3833_2182">
<rect width="1920" height="678" fill="white"/>
</clipPath>
</defs>
</svg>
