<svg width="370" height="507" viewBox="0 0 370 507" fill="none" xmlns="http://www.w3.org/2000/svg">
<g clip-path="url(#clip0_3833_2196)">
<path d="M259.726 60.071C275.174 60.071 287.697 47.5512 287.697 32.1073C287.697 16.6633 275.174 4.14355 259.726 4.14355C244.277 4.14355 231.754 16.6633 231.754 32.1073C231.754 47.5512 244.277 60.071 259.726 60.071Z" fill="url(#paint0_radial_3833_2196)"/>
<path d="M335.852 210.158C361.391 358.914 371.513 507 182.779 507C-45.991 507 -7.29714 362.778 23.4578 210.499C48.1858 88.0947 70.0307 0 182.779 0C280.009 0 314.318 84.7218 335.852 210.158Z" fill="url(#paint1_radial_3833_2196)"/>
<path d="M100.385 71.7311C119.516 71.7311 135.025 56.2271 135.025 37.1018C135.025 17.9765 119.516 2.47241 100.385 2.47241C81.2546 2.47241 65.7461 17.9765 65.7461 37.1018C65.7461 56.2271 81.2546 71.7311 100.385 71.7311Z" fill="url(#paint2_radial_3833_2196)"/>
<path d="M86.3669 275.574C90.7219 249.432 149.719 193.074 228.889 236.23C308.049 279.387 177.871 304.438 129.396 296.812C80.9207 289.185 86.3669 275.574 86.3669 275.574Z" fill="url(#paint3_linear_3833_2196)"/>
<path d="M303.092 77.7759H103.726C100.231 77.7759 97.3984 80.6078 97.3984 84.1012V84.1113C97.3984 87.6047 100.231 90.4366 103.726 90.4366H303.092C306.586 90.4366 309.419 87.6047 309.419 84.1113V84.1012C309.419 80.6078 306.586 77.7759 303.092 77.7759Z" fill="url(#paint4_linear_3833_2196)"/>
<path d="M303.092 79.8577H103.726C100.231 79.8577 97.3984 82.6896 97.3984 86.183V86.193C97.3984 89.6864 100.231 92.5184 103.726 92.5184H303.092C306.586 92.5184 309.419 89.6864 309.419 86.193V86.183C309.419 82.6896 306.586 79.8577 303.092 79.8577Z" fill="url(#paint5_linear_3833_2196)"/>
<path d="M260.39 115.108C277.873 115.108 292.046 100.939 292.046 83.4608C292.046 65.9827 277.873 51.814 260.39 51.814C242.907 51.814 228.734 65.9827 228.734 83.4608C228.734 100.939 242.907 115.108 260.39 115.108Z" fill="url(#paint6_linear_3833_2196)"/>
<path d="M263.394 118.28C280.877 118.28 295.05 104.111 295.05 86.6334C295.05 69.1553 280.877 54.9866 263.394 54.9866C245.911 54.9866 231.738 69.1553 231.738 86.6334C231.738 104.111 245.911 118.28 263.394 118.28Z" fill="url(#paint7_linear_3833_2196)"/>
<path d="M269.968 140.029C277.917 168.383 281.061 196.617 222.324 196.617C151.123 196.617 163.167 169.123 172.738 140.089C180.437 116.749 187.234 99.9548 222.324 99.9548C252.588 99.9548 263.261 116.109 269.968 140.019V140.029Z" fill="url(#paint8_radial_3833_2196)"/>
<path d="M226.96 122.083C239.6 122.083 249.846 119.023 249.846 115.248C249.846 111.472 239.6 108.412 226.96 108.412C214.321 108.412 204.074 111.472 204.074 115.248C204.074 119.023 214.321 122.083 226.96 122.083Z" fill="url(#paint9_linear_3833_2196)"/>
<path d="M222.48 347.925C272.097 369.233 316.217 367.592 355.982 320.762C395.747 273.932 338.292 224.7 338.292 224.7C338.292 224.7 338.122 258.059 287.694 269.579C237.257 281.098 222.49 347.925 222.49 347.925H222.48Z" fill="url(#paint10_linear_3833_2196)"/>
<path d="M75.4777 273.392C45.5537 280.118 34.351 335.465 97.4026 360.516C160.454 385.567 209.47 365.42 238.883 332.742C268.297 300.075 272.782 275.564 287.699 269.579C287.699 269.579 266.525 217.304 203.413 242.896C140.301 268.488 146.839 287.544 119.598 281.559C92.3669 275.574 97.2624 268.488 75.4777 273.392Z" fill="url(#paint11_linear_3833_2196)"/>
<path d="M164.808 115.108C182.291 115.108 196.464 100.939 196.464 83.4608C196.464 65.9827 182.291 51.814 164.808 51.814C147.325 51.814 133.152 65.9827 133.152 83.4608C133.152 100.939 147.325 115.108 164.808 115.108Z" fill="url(#paint12_linear_3833_2196)"/>
<path d="M167.812 118.28C185.295 118.28 199.468 104.111 199.468 86.6334C199.468 69.1553 185.295 54.9866 167.812 54.9866C150.329 54.9866 136.156 69.1553 136.156 86.6334C136.156 104.111 150.329 118.28 167.812 118.28Z" fill="url(#paint13_linear_3833_2196)"/>
</g>
<defs>
<radialGradient id="paint0_radial_3833_2196" cx="0" cy="0" r="1" gradientUnits="userSpaceOnUse" gradientTransform="translate(258.494 46.9155) scale(33.0475 46.5836)">
<stop offset="0.64" stop-color="#110E24"/>
<stop offset="0.72" stop-color="#1C1637"/>
<stop offset="1" stop-color="#5B47A8"/>
</radialGradient>
<radialGradient id="paint1_radial_3833_2196" cx="0" cy="0" r="1" gradientUnits="userSpaceOnUse" gradientTransform="translate(144.664 314.767) rotate(-36.9714) scale(288.929 444.847)">
<stop stop-color="#100D23"/>
<stop offset="0.703684" stop-color="#110E24"/>
<stop offset="1" stop-color="#5B47A8"/>
</radialGradient>
<radialGradient id="paint2_radial_3833_2196" cx="0" cy="0" r="1" gradientUnits="userSpaceOnUse" gradientTransform="translate(98.7536 72.355) scale(42.8486 72.3934)">
<stop offset="0.85" stop-color="#110E24"/>
<stop offset="1" stop-color="#5B47A8"/>
</radialGradient>
<linearGradient id="paint3_linear_3833_2196" x1="167.549" y1="288.244" x2="181.427" y2="184.505" gradientUnits="userSpaceOnUse">
<stop offset="0.39" stop-color="#110E24"/>
<stop offset="1" stop-color="#5B47A8"/>
</linearGradient>
<linearGradient id="paint4_linear_3833_2196" x1="97.3984" y1="84.1012" x2="309.409" y2="84.1012" gradientUnits="userSpaceOnUse">
<stop stop-color="#FF5DAB"/>
<stop offset="0.7" stop-color="#3FA9F5"/>
<stop offset="1" stop-color="#0071BC"/>
</linearGradient>
<linearGradient id="paint5_linear_3833_2196" x1="97.3984" y1="86.193" x2="309.409" y2="86.193" gradientUnits="userSpaceOnUse">
<stop stop-color="#0071BC"/>
<stop offset="0.3" stop-color="#3FA9F5"/>
<stop offset="1" stop-color="#FF5DAB"/>
</linearGradient>
<linearGradient id="paint6_linear_3833_2196" x1="238.005" y1="105.84" x2="282.763" y2="61.069" gradientUnits="userSpaceOnUse">
<stop stop-color="#0071BC"/>
<stop offset="0.3" stop-color="#3FA9F5"/>
<stop offset="0.46" stop-color="#00FFFF"/>
<stop offset="1" stop-color="#FF5DAB"/>
</linearGradient>
<linearGradient id="paint7_linear_3833_2196" x1="241.009" y1="64.2544" x2="285.767" y2="109.025" gradientUnits="userSpaceOnUse">
<stop stop-color="#0071BC"/>
<stop offset="0.3" stop-color="#3FA9F5"/>
<stop offset="0.46" stop-color="#00FFFF"/>
<stop offset="1" stop-color="#FF5DAB"/>
</linearGradient>
<radialGradient id="paint8_radial_3833_2196" cx="0" cy="0" r="1" gradientUnits="userSpaceOnUse" gradientTransform="translate(161.865 187.539) scale(116.753 116.719)">
<stop offset="0.85" stop-color="#110E24"/>
<stop offset="1" stop-color="#5B47A8"/>
</radialGradient>
<linearGradient id="paint9_linear_3833_2196" x1="226.55" y1="119.922" x2="227.5" y2="109.172" gradientUnits="userSpaceOnUse">
<stop stop-color="#110E24"/>
<stop offset="0.74" stop-color="#5B47A8"/>
<stop offset="1" stop-color="#9D3DDA"/>
</linearGradient>
<linearGradient id="paint10_linear_3833_2196" x1="280.997" y1="358.684" x2="336.522" y2="216.553" gradientUnits="userSpaceOnUse">
<stop offset="0.39" stop-color="#110E24"/>
<stop offset="1" stop-color="#5B47A8"/>
</linearGradient>
<linearGradient id="paint11_linear_3833_2196" x1="164.148" y1="365.36" x2="176.395" y2="189.75" gradientUnits="userSpaceOnUse">
<stop offset="0.39" stop-color="#110E24"/>
<stop offset="1" stop-color="#5B47A8"/>
</linearGradient>
<linearGradient id="paint12_linear_3833_2196" x1="142.423" y1="105.84" x2="187.181" y2="61.069" gradientUnits="userSpaceOnUse">
<stop stop-color="#0071BC"/>
<stop offset="0.3" stop-color="#3FA9F5"/>
<stop offset="0.46" stop-color="#00FFFF"/>
<stop offset="1" stop-color="#FF5DAB"/>
</linearGradient>
<linearGradient id="paint13_linear_3833_2196" x1="145.427" y1="64.2544" x2="190.185" y2="109.025" gradientUnits="userSpaceOnUse">
<stop stop-color="#0071BC"/>
<stop offset="0.3" stop-color="#3FA9F5"/>
<stop offset="0.46" stop-color="#00FFFF"/>
<stop offset="1" stop-color="#FF5DAB"/>
</linearGradient>
<clipPath id="clip0_3833_2196">
<rect width="370" height="507" fill="white"/>
</clipPath>
</defs>
</svg>
