<svg width="24" height="24" viewBox="0 0 24 24" fill="none" xmlns="http://www.w3.org/2000/svg">
<path d="M12 1.00049C5.9255 1.00049 1 5.92524 1 12.0005C1 18.0757 5.92502 23.0005 12 23.0005C18.0755 23.0005 23 18.0757 23 12.0005C23 5.92524 18.0755 1.00049 12 1.00049ZM12 4.28962C14.01 4.28962 15.6388 5.91896 15.6388 7.9281C15.6388 9.93772 14.01 11.5666 12 11.5666C9.99095 11.5666 8.36216 9.93772 8.36216 7.9281C8.36216 5.91896 9.99095 4.28962 12 4.28962ZM11.9976 20.1245C9.99288 20.1245 8.15681 19.3944 6.74062 18.1859C6.39563 17.8916 6.19656 17.4601 6.19656 17.0074C6.19656 14.9697 7.84565 13.3389 9.88369 13.3389H14.1173C16.1558 13.3389 17.7986 14.9697 17.7986 17.0074C17.7986 17.4606 17.6005 17.8912 17.255 18.1854C15.8393 19.3944 14.0028 20.1245 11.9976 20.1245Z" fill="url(#paint0_linear_3812_28582)"/>
<defs>
<linearGradient id="paint0_linear_3812_28582" x1="12" y1="1.00049" x2="5.5" y2="25.5005" gradientUnits="userSpaceOnUse">
<stop stop-color="#584F88"/>
<stop offset="1" stop-color="#584F88" stop-opacity="0"/>
</linearGradient>
</defs>
</svg>
