<svg width="84" height="84" viewBox="0 0 84 84" fill="none" xmlns="http://www.w3.org/2000/svg">
<g clip-path="url(#clip0_3628_948)">
<path d="M59.3746 49.9694C57.1975 48.9883 55.6519 47.6545 54.363 45.6449C48.3491 35.9581 34.7882 35.959 28.7752 45.6449C27.4861 47.6545 25.9404 48.9883 23.7636 49.9694C7.73594 57.4224 13.1763 80.4178 30.7881 80.5581C37.0218 80.6856 39.3434 76.6745 45.9311 79.3169C56.456 83.8065 69.1631 75.851 68.9707 64.5139C68.971 58.3053 65.2041 52.5962 59.3746 49.9694Z" fill="#584F88"/>
<path d="M22.9561 29.1537C24.9385 32.0851 27.4606 33.7394 30.5437 33.691C34.5088 33.5574 37.8743 30.195 39.3271 24.9159C40.5839 20.3482 39.268 15.6896 35.8072 12.4544C33.6049 10.3958 32.1319 7.48147 31.6595 4.24844C31.4674 2.93373 30.2577 2.01462 28.9394 2.18269C26.8193 2.45282 23.8479 4.03585 21.7308 10.0446C20.5357 13.4366 19.9784 17.2305 20.0456 19.225C20.1719 22.9703 21.2054 26.4966 22.9561 29.1537Z" fill="#322193"/>
<path d="M18.8107 41.1418C19.1816 37.2086 17.7847 33.569 14.8773 30.8936C13.449 29.5794 12.3466 27.8511 11.6894 25.8956C11.356 24.9032 10.4263 24.2346 9.37955 24.2345C9.22168 24.2344 9.07719 24.2399 8.93583 24.2518C3.4926 24.4394 1.10873 34.0988 1.44614 39.2572C1.90448 44.8332 5.1398 51.4636 11.198 51.1914C15.2167 50.8539 18.2758 46.8153 18.8107 41.1418Z" fill="#D8DFDF"/>
<path d="M53.113 33.6944C53.6078 33.6943 54.0978 33.6422 54.5802 33.54C56.8849 33.0515 59.0041 31.4218 60.5437 28.9044C62.204 26.1899 63.1183 22.6309 63.1185 18.8833C63.0411 13.1775 59.4717 2.36205 53.6566 2.14975C52.3332 2.02631 51.1552 2.98525 51.0074 4.30583C50.6439 7.55296 49.2698 10.5152 47.1381 12.6467C43.7879 15.9967 42.6295 20.6967 44.0393 25.2195C45.6689 30.447 49.1456 33.6942 53.113 33.6944Z" fill="#F00AE7"/>
<path d="M75.4129 24.4184C75.2749 24.3943 75.1314 24.376 74.9742 24.3621C73.9315 24.2695 72.9463 24.8533 72.5261 25.8119C71.6982 27.7015 70.447 29.3253 68.9078 30.5078C65.7749 32.9151 64.0609 36.4166 64.0817 40.367C64.1116 46.0656 66.8009 50.3593 70.7736 51.0517C76.785 51.8583 80.5921 45.5454 81.5448 40.0291C82.3402 34.9033 80.8113 25.0836 75.4129 24.4184Z" fill="#1C9DE6"/>
</g>
<defs>
<clipPath id="clip0_3628_948">
<rect width="83.1333" height="83.1333" fill="white"/>
</clipPath>
</defs>
</svg>
