<svg width="24" height="24" viewBox="0 0 24 24" fill="none" xmlns="http://www.w3.org/2000/svg">
<path d="M21.9 4H2.1C1.80826 4 1.52847 4.11775 1.32218 4.32735C1.11589 4.53695 1 4.82123 1 5.11765C1 5.41407 1.11589 5.69834 1.32218 5.90794C1.52847 6.11754 1.80826 6.23529 2.1 6.23529H4.3V19.6471C4.30026 20.5362 4.64802 21.3889 5.26684 22.0177C5.88565 22.6464 6.72487 22.9997 7.6 23H16.4C17.2751 22.9998 18.1144 22.6464 18.7332 22.0177C19.352 21.3889 19.6998 20.5362 19.7 19.6471V6.23529H21.9C22.1917 6.23529 22.4715 6.11754 22.6778 5.90794C22.8841 5.69834 23 5.41407 23 5.11765C23 4.82123 22.8841 4.53695 22.6778 4.32735C22.4715 4.11775 22.1917 4 21.9 4ZM10.9 16.2941C10.9 16.5905 10.7841 16.8748 10.5778 17.0844C10.3715 17.294 10.0917 17.4118 9.8 17.4118C9.50826 17.4118 9.22847 17.294 9.02218 17.0844C8.81589 16.8748 8.7 16.5905 8.7 16.2941V10.7059C8.7 10.4095 8.81589 10.1252 9.02218 9.91559C9.22847 9.70599 9.50826 9.58824 9.8 9.58824C10.0917 9.58824 10.3715 9.70599 10.5778 9.91559C10.7841 10.1252 10.9 10.4095 10.9 10.7059V16.2941ZM15.3 16.2941C15.3 16.5905 15.1841 16.8748 14.9778 17.0844C14.7715 17.294 14.4917 17.4118 14.2 17.4118C13.9083 17.4118 13.6285 17.294 13.4222 17.0844C13.2159 16.8748 13.1 16.5905 13.1 16.2941V10.7059C13.1 10.4095 13.2159 10.1252 13.4222 9.91559C13.6285 9.70599 13.9083 9.58824 14.2 9.58824C14.4917 9.58824 14.7715 9.70599 14.9778 9.91559C15.1841 10.1252 15.3 10.4095 15.3 10.7059V16.2941Z" fill="#584F88"/>
<path d="M10 3H14C14.2652 3 14.5196 2.89464 14.7071 2.70711C14.8946 2.51957 15 2.26522 15 2C15 1.73478 14.8946 1.48043 14.7071 1.29289C14.5196 1.10536 14.2652 1 14 1H10C9.73478 1 9.48043 1.10536 9.29289 1.29289C9.10536 1.48043 9 1.73478 9 2C9 2.26522 9.10536 2.51957 9.29289 2.70711C9.48043 2.89464 9.73478 3 10 3Z" fill="#584F88"/>
</svg>
