<svg width="24" height="24" viewBox="0 0 24 24" fill="none" xmlns="http://www.w3.org/2000/svg">
<path d="M9.77783 18.9737C7.69515 18.9737 6 17.2674 6 15.171V6H4.4445C3.09603 6 2 7.10308 2 8.46042V20.5394C2 21.8968 3.09603 23 4.4445 23H15.5555C16.904 23 18 21.8968 18 20.5394V18.9737H9.77783Z" fill="#584F88"/>
<path d="M22 3.4445C22 2.09424 20.8459 1 19.422 1H9.57819C8.15408 1 7 2.09424 7 3.4445V14.5555C7 15.9058 8.15408 17 9.57819 17H19.422C20.8459 17 22 15.9058 22 14.5555V3.4445Z" fill="#584F88"/>
</svg>
