<svg width="24" height="24" viewBox="0 0 24 24" fill="none" xmlns="http://www.w3.org/2000/svg">
<path d="M17.4966 2C19.9985 2 22 4 22 6.5C22 7.8 21.3995 9 20.4989 9.9C20.8992 10.9 20.9992 11.9 20.9992 13C20.9992 18 16.9962 22 11.9924 22C6.98867 22 2.98565 18 2.98565 13C2.98565 11.9 3.1858 10.9 3.48603 9.9C1.68467 8.3 1.48452 5.4 3.08573 3.6C4.68694 1.8 7.58913 1.5 9.39049 3.2C9.69071 3.5 9.99094 3.9 10.2912 4.2C11.392 4 12.4928 4 13.5937 4.2C14.4943 2.8 15.8954 2 17.4966 2ZM10.239 13.9586C9.97128 13.4751 9.54289 13 8.99018 13C8.43748 13 7.97667 13.4551 8.11441 13.9904C8.55833 15.7155 10.1326 17 11.9924 17C13.8204 17 15.4119 15.6922 15.866 13.9866C16.0077 13.4541 15.5488 13 14.9977 13C14.4443 13 14.0053 13.4772 13.7268 13.9554C13.3795 14.5518 12.7295 15 11.9924 15C11.2436 15 10.5818 14.5779 10.239 13.9586Z" fill="url(#paint0_linear_3812_29234)"/>
<defs>
<linearGradient id="paint0_linear_3812_29234" x1="12" y1="2" x2="9" y2="24.5" gradientUnits="userSpaceOnUse">
<stop stop-color="#584F88"/>
<stop offset="1" stop-color="#584F88" stop-opacity="0"/>
</linearGradient>
</defs>
</svg>
