<svg width="24" height="24" viewBox="0 0 24 24" fill="none" xmlns="http://www.w3.org/2000/svg">
<path fill-rule="evenodd" clip-rule="evenodd" d="M18.8498 8.61865C20.0605 9.73008 21.4212 10.6662 22.892 11.3996C23.0667 11.4755 23.025 11.9618 22.8046 12.2277C20.596 14.868 17.5655 14.5651 14.535 14.2622C11.6438 13.9732 8.75265 13.6842 6.57507 15.9508L3.56623 5.17671C3.53637 5.06724 3.49432 4.96147 3.44086 4.86139C5.61963 2.56178 8.52341 2.85206 11.4275 3.14236C14.4582 3.44532 17.4892 3.74831 19.697 1.10793C19.9173 0.841994 20.1263 0.955965 20.0807 1.34347C19.7926 3.67316 19.3471 5.98066 18.7472 8.25014C18.7082 8.38248 18.748 8.52549 18.8498 8.61865ZM6.96419 22.8847L6.55853 22.9981C6.16833 23.1071 5.76362 22.8791 5.65459 22.4889L1.01648 5.89135C0.880196 5.40356 1.16515 4.89765 1.65293 4.76136L1.70532 4.74674C1.93955 4.68128 2.19019 4.71155 2.4021 4.8309C2.61401 4.95024 2.76983 5.14888 2.83527 5.38312L7.47327 21.9807C7.5823 22.3709 7.35439 22.7756 6.96419 22.8847Z" fill="url(#paint0_linear_3812_29186)"/>
<defs>
<linearGradient id="paint0_linear_3812_29186" x1="13.2206" y1="0.963379" x2="19.8035" y2="22.0986" gradientUnits="userSpaceOnUse">
<stop stop-color="#584F88"/>
<stop offset="1" stop-color="#584F88" stop-opacity="0"/>
</linearGradient>
</defs>
</svg>
