<svg width="317" height="336" viewBox="0 0 317 336" fill="none" xmlns="http://www.w3.org/2000/svg">
<g clip-path="url(#clip0_12637_600)">
<path d="M218.654 53.8495C232.503 53.8495 243.738 42.6264 243.738 28.7788C243.738 14.9312 232.503 3.70801 218.654 3.70801C204.805 3.70801 193.57 14.9312 193.57 28.7788C193.57 42.6264 204.805 53.8495 218.654 53.8495Z" fill="url(#paint0_radial_12637_600)"/>
<path d="M283.933 188.409C314.554 353.406 -40.1759 414.503 3.77762 188.727C25.1728 78.8208 45.5439 0 146.654 0C233.845 0 263.104 76.2263 283.933 188.409Z" fill="url(#paint1_radial_12637_600)"/>
<path d="M63.2002 247.049C67.1074 223.609 120.019 173.089 191.014 211.779C262 250.469 145.261 272.925 101.785 266.086C58.3087 259.247 63.2002 247.049 63.2002 247.049Z" fill="url(#paint2_linear_12637_600)"/>
<path d="M185.27 311.914C229.77 331.02 269.329 329.549 304.991 287.559C340.653 245.579 285.505 203.271 285.505 203.271C285.505 203.271 288.974 231.343 243.748 241.672C198.512 252 185.27 311.914 185.27 311.914Z" fill="url(#paint3_linear_12637_600)"/>
<path d="M50.4241 245.101C23.5907 251.135 13.5394 300.75 70.0893 323.206C126.629 345.663 170.593 327.6 196.969 298.304C223.345 269.019 227.371 247.04 240.743 241.681C240.743 241.681 221.754 194.82 165.155 217.764C108.555 240.707 114.421 257.796 89.9932 252.428C65.5657 247.059 69.9601 240.707 50.4241 245.101Z" fill="url(#paint4_linear_12637_600)"/>
<path d="M75.7679 64.317C92.9278 64.317 106.837 50.4197 106.837 33.2718C106.837 16.1238 92.9278 2.22656 75.7679 2.22656C58.608 2.22656 44.6992 16.1238 44.6992 33.2718C44.6992 50.4197 58.608 64.317 75.7679 64.317Z" fill="url(#paint5_radial_12637_600)"/>
<path d="M253.591 68.7803H78.413C75.341 68.7803 72.8555 71.2655 72.8555 74.3273C72.8555 77.399 75.341 79.8742 78.413 79.8742H253.591C256.663 79.8742 259.148 77.389 259.148 74.3273C259.148 71.2555 256.663 68.7803 253.591 68.7803Z" fill="url(#paint6_linear_12637_600)"/>
<path d="M253.591 70.6094H78.413C75.341 70.6094 72.8555 73.0946 72.8555 76.1564C72.8555 79.2281 75.341 81.7033 78.413 81.7033H253.591C256.663 81.7033 259.148 79.2181 259.148 76.1564C259.148 73.0846 256.663 70.6094 253.591 70.6094Z" fill="url(#paint7_linear_12637_600)"/>
<path d="M216.079 101.496C231.44 101.496 243.897 89.0801 243.897 73.7613C243.897 58.4425 231.44 46.0264 216.079 46.0264C200.719 46.0264 188.262 58.4425 188.262 73.7613C188.262 89.0801 200.719 101.496 216.079 101.496Z" fill="url(#paint8_linear_12637_600)"/>
<path d="M218.712 104.279C234.073 104.279 246.53 91.8633 246.53 76.5445C246.53 61.2257 234.073 48.8096 218.712 48.8096C203.352 48.8096 190.895 61.2257 190.895 76.5445C190.895 91.8633 203.352 104.279 218.712 104.279Z" fill="url(#paint9_linear_12637_600)"/>
<path d="M132.079 101.496C147.44 101.496 159.897 89.0801 159.897 73.7613C159.897 58.4425 147.44 46.0264 132.079 46.0264C116.719 46.0264 104.262 58.4425 104.262 73.7613C104.262 89.0801 116.719 101.496 132.079 101.496Z" fill="url(#paint10_linear_12637_600)"/>
<path d="M134.724 104.279C150.084 104.279 162.542 91.8633 162.542 76.5445C162.542 61.2257 150.084 48.8096 134.724 48.8096C119.364 48.8096 106.906 61.2257 106.906 76.5445C106.906 91.8633 119.364 104.279 134.724 104.279Z" fill="url(#paint11_linear_12637_600)"/>
<path d="M224.849 125.533C231.977 150.951 234.801 176.261 182.118 176.261C118.261 176.261 129.068 151.617 137.648 125.582C144.557 104.657 150.652 89.6064 182.118 89.6064C209.26 89.6064 218.834 104.09 224.849 125.523V125.533Z" fill="url(#paint12_radial_12637_600)"/>
<path d="M186.274 109.448C197.608 109.448 206.794 106.705 206.794 103.315C206.794 99.9251 197.608 97.1914 186.274 97.1914C174.94 97.1914 165.754 99.9351 165.754 103.315C165.754 106.695 174.94 109.448 186.274 109.448Z" fill="url(#paint13_linear_12637_600)"/>
<path d="M55.516 73.9697C50.0678 91.7539 32.4406 145.693 88.5929 156.071" stroke="url(#paint14_linear_12637_600)" stroke-width="3" stroke-miterlimit="10" stroke-linecap="round"/>
<path d="M66.4138 28.5298C49.4229 32.9137 49.2937 72.1999 55.5174 73.9694C61.741 75.7388 61.2738 56.901 75.7692 56.3343C90.2646 55.7677 98.5661 20.2392 66.4038 28.5298H66.4138Z" fill="url(#paint15_linear_12637_600)"/>
<path d="M63.7184 28.5298C46.7276 32.9137 46.5984 72.1999 52.822 73.9694C59.0457 75.7388 58.5785 56.901 73.0739 56.3343C87.5693 55.7677 95.8708 20.2392 63.7085 28.5298H63.7184Z" fill="url(#paint16_linear_12637_600)"/>
<path d="M112.263 158.378C112.581 154.52 107.258 150.933 100.374 150.366C93.4896 149.799 87.6512 152.466 87.3333 156.324C87.0155 160.181 92.3385 163.768 99.2226 164.335C106.107 164.903 111.945 162.235 112.263 158.378Z" fill="url(#paint17_linear_12637_600)"/>
</g>
<defs>
<radialGradient id="paint0_radial_12637_600" cx="0" cy="0" r="1" gradientUnits="userSpaceOnUse" gradientTransform="translate(217.43 41.0719) scale(29.637 41.7614)">
<stop offset="0.64" stop-color="#080814"/>
<stop offset="0.72" stop-color="#090814"/>
<stop offset="1" stop-color="#3A2E6E"/>
</radialGradient>
<radialGradient id="paint1_radial_12637_600" cx="0" cy="0" r="1" gradientUnits="userSpaceOnUse" gradientTransform="translate(120.518 196.735) scale(151.814 233.649)">
<stop stop-color="#090814"/>
<stop offset="0.85" stop-color="#090814"/>
<stop offset="1" stop-color="#3A2E6E"/>
</radialGradient>
<linearGradient id="paint2_linear_12637_600" x1="136.015" y1="258.411" x2="148.45" y2="165.415" gradientUnits="userSpaceOnUse">
<stop offset="0.39" stop-color="#090814"/>
<stop offset="1" stop-color="#3A2E6E"/>
</linearGradient>
<linearGradient id="paint3_linear_12637_600" x1="237.713" y1="321.546" x2="287.483" y2="194.111" gradientUnits="userSpaceOnUse">
<stop offset="0.39" stop-color="#080713"/>
<stop offset="1" stop-color="#3A2E6E"/>
</linearGradient>
<linearGradient id="paint4_linear_12637_600" x1="129.96" y1="327.54" x2="140.933" y2="170.107" gradientUnits="userSpaceOnUse">
<stop offset="0.39" stop-color="#080713"/>
<stop offset="1" stop-color="#3A2E6E"/>
</linearGradient>
<radialGradient id="paint5_radial_12637_600" cx="0" cy="0" r="1" gradientUnits="userSpaceOnUse" gradientTransform="translate(74.7489 66.4285) scale(38.4257 64.9037)">
<stop offset="0.85" stop-color="#080714"/>
<stop offset="1" stop-color="#3A2E6E"/>
</radialGradient>
<linearGradient id="paint6_linear_12637_600" x1="72.8654" y1="74.3273" x2="259.158" y2="74.3273" gradientUnits="userSpaceOnUse">
<stop stop-color="#FF5DAB"/>
<stop offset="0.7" stop-color="#3FA9F5"/>
<stop offset="1" stop-color="#0071BC"/>
</linearGradient>
<linearGradient id="paint7_linear_12637_600" x1="72.8654" y1="76.1564" x2="259.158" y2="76.1564" gradientUnits="userSpaceOnUse">
<stop stop-color="#0071BC"/>
<stop offset="0.3" stop-color="#3FA9F5"/>
<stop offset="1" stop-color="#FF5DAB"/>
</linearGradient>
<linearGradient id="paint8_linear_12637_600" x1="196.474" y1="93.4342" x2="235.69" y2="54.0938" gradientUnits="userSpaceOnUse">
<stop stop-color="#0071BC"/>
<stop offset="0.3" stop-color="#3FA9F5"/>
<stop offset="0.46" stop-color="#00FFFF"/>
<stop offset="1" stop-color="#FF5DAB"/>
</linearGradient>
<linearGradient id="paint9_linear_12637_600" x1="199.107" y1="56.8815" x2="238.323" y2="96.212" gradientUnits="userSpaceOnUse">
<stop stop-color="#0071BC"/>
<stop offset="0.3" stop-color="#3FA9F5"/>
<stop offset="0.46" stop-color="#00FFFF"/>
<stop offset="1" stop-color="#FF5DAB"/>
</linearGradient>
<linearGradient id="paint10_linear_12637_600" x1="112.474" y1="93.4242" x2="151.7" y2="54.0938" gradientUnits="userSpaceOnUse">
<stop stop-color="#0071BC"/>
<stop offset="0.3" stop-color="#3FA9F5"/>
<stop offset="0.46" stop-color="#00FFFF"/>
<stop offset="1" stop-color="#FF5DAB"/>
</linearGradient>
<linearGradient id="paint11_linear_12637_600" x1="115.118" y1="56.8815" x2="154.335" y2="96.212" gradientUnits="userSpaceOnUse">
<stop stop-color="#0071BC"/>
<stop offset="0.3" stop-color="#3FA9F5"/>
<stop offset="0.46" stop-color="#00FFFF"/>
<stop offset="1" stop-color="#FF5DAB"/>
</linearGradient>
<radialGradient id="paint12_radial_12637_600" cx="0" cy="0" r="1" gradientUnits="userSpaceOnUse" gradientTransform="translate(130.339 166.378) scale(104.699 104.637)">
<stop offset="0.85" stop-color="#090814"/>
<stop offset="1" stop-color="#3A2E6E"/>
</radialGradient>
<linearGradient id="paint13_linear_12637_600" x1="185.906" y1="107.51" x2="186.761" y2="97.8674" gradientUnits="userSpaceOnUse">
<stop stop-color="#080714"/>
<stop offset="0.74" stop-color="#3A2E6E"/>
<stop offset="1" stop-color="#533468"/>
</linearGradient>
<linearGradient id="paint14_linear_12637_600" x1="47.0752" y1="115.015" x2="90.0842" y2="115.015" gradientUnits="userSpaceOnUse">
<stop stop-color="#FF5DAB"/>
<stop offset="0.54" stop-color="#00FFFF"/>
<stop offset="0.7" stop-color="#3FA9F5"/>
<stop offset="1" stop-color="#0071BC"/>
</linearGradient>
<linearGradient id="paint15_linear_12637_600" x1="60.9357" y1="56.6326" x2="81.8506" y2="29.1041" gradientUnits="userSpaceOnUse">
<stop stop-color="#FF5DAB"/>
<stop offset="0.54" stop-color="#00FFFF"/>
<stop offset="0.7" stop-color="#3FA9F5"/>
<stop offset="1" stop-color="#0071BC"/>
</linearGradient>
<linearGradient id="paint16_linear_12637_600" x1="58.2504" y1="56.6326" x2="79.1652" y2="29.1041" gradientUnits="userSpaceOnUse">
<stop stop-color="#0071BC"/>
<stop offset="0.3" stop-color="#3FA9F5"/>
<stop offset="0.46" stop-color="#00FFFF"/>
<stop offset="1" stop-color="#FF5DAB"/>
</linearGradient>
<linearGradient id="paint17_linear_12637_600" x1="99.0815" y1="165.862" x2="100.384" y2="150.305" gradientUnits="userSpaceOnUse">
<stop stop-color="#0071BC"/>
<stop offset="0.3" stop-color="#3FA9F5"/>
<stop offset="0.46" stop-color="#00FFFF"/>
<stop offset="1" stop-color="#FF5DAB"/>
</linearGradient>
<clipPath id="clip0_12637_600">
<rect width="317" height="336" fill="white"/>
</clipPath>
</defs>
</svg>
