<svg width="995" height="465" viewBox="0 0 995 465" fill="none" xmlns="http://www.w3.org/2000/svg">
<path d="M485.631 285.728C481.241 270.528 476.561 260.458 474.751 277.818C474.751 277.818 463.911 270.038 459.251 282.858C459.251 282.858 450.231 273.598 437.681 282.278C437.681 282.278 422.211 239.078 399.371 266.648L384.391 266.758C384.391 266.758 378.111 231.168 369.641 248.588C361.171 266.008 357.711 267.308 353.801 256.928C350.631 248.508 345.641 236.628 338.111 245.098C334.811 248.818 328.861 248.298 326.331 244.028C317.321 228.818 300.851 203.688 295.191 212.568C287.241 225.048 270.781 223.338 271.191 203.418C271.541 186.098 263.741 186.788 251.031 205.818C248.591 209.468 243.051 208.718 241.671 204.558C237.211 191.138 229.081 172.418 222.671 190.058C213.351 215.708 189.861 201.618 185.671 177.898C181.481 154.168 177.511 160.408 159.101 193.438C140.691 226.468 114.781 283.668 114.781 283.668L464.281 346.618C483.551 332.878 492.201 308.478 485.631 285.748V285.728Z" fill="url(#paint0_linear_4879_568)"/>
<path d="M144.06 241.948C143.27 241.768 142.95 240.818 143.48 240.198C147.94 235.048 163.6 216.948 162.17 218.378C161.03 219.518 155.2 222.218 151.66 223.798C150.74 224.208 149.81 223.238 150.26 222.328L160.85 201.148C161.3 200.248 160.38 199.278 159.46 199.678L153.38 202.278C152.45 202.678 151.53 201.678 152 200.788L163.73 178.638C164.23 177.688 163.18 176.668 162.24 177.198L156.73 180.348C155.83 180.868 154.79 179.928 155.21 178.978L166.04 154.618C166.43 153.738 165.55 152.818 164.66 153.178L161.16 154.578C160.28 154.928 159.41 154.058 159.76 153.188L171.63 122.968C173.79 117.468 181.38 116.968 184.25 122.128L200 150.478C200.53 151.428 199.47 152.478 198.52 151.938L193.8 149.238C192.84 148.688 191.78 149.768 192.34 150.718L204.69 171.708C205.26 172.668 204.16 173.748 203.21 173.178L202.67 172.858C201.68 172.268 200.58 173.428 201.22 174.378L216.68 197.568C217.25 198.418 216.42 199.508 215.44 199.188L207.22 196.448C206.18 196.098 205.35 197.338 206.06 198.168L221.52 216.208C222.17 216.958 221.53 218.118 220.55 217.978L214.23 217.078C213.3 216.948 212.66 217.978 213.19 218.758L227.63 239.768C228.26 240.688 227.26 241.838 226.26 241.338L223.38 239.898C222.42 239.418 221.42 240.488 221.97 241.418L233.65 260.888C234.14 261.708 233.41 262.708 232.48 262.488L144.03 241.958L144.06 241.948Z" fill="url(#paint1_linear_4879_568)"/>
<path d="M220.163 277.788L245.453 216.798C246.503 214.268 250.073 214.208 251.193 216.708L261.143 238.828C262.073 240.888 264.813 241.318 266.323 239.638L289.973 213.368C291.413 211.768 293.993 212.068 295.033 213.938L314.553 249.078C315.833 251.378 319.193 251.168 320.183 248.738L332.863 217.618C333.943 214.968 337.723 215.038 338.703 217.728L353.503 258.438C354.413 260.928 357.813 261.238 359.143 258.948L375.743 230.488C377.053 228.248 380.363 228.478 381.343 230.888L398.453 273.008C399.353 275.218 402.303 275.648 403.793 273.788L410.843 264.978C412.213 263.258 414.893 263.458 415.993 265.368L428.773 287.448C430.063 289.678 433.343 289.478 434.353 287.108L443.433 265.928C444.583 263.248 448.443 263.458 449.303 266.238L456.933 291.038C457.853 294.018 462.073 293.968 462.933 290.978L470.063 266.018C470.943 262.938 475.333 263.008 476.103 266.118L481.203 286.528C481.903 289.318 485.673 289.768 487.013 287.218L498.903 264.518C500.013 262.388 503.013 262.258 504.313 264.288L523.703 294.588C525.223 296.958 528.853 296.278 529.403 293.518C529.983 290.598 533.933 290.068 535.273 292.728L536.503 295.188C537.683 297.548 541.083 297.478 542.163 295.058L549.543 278.448C550.693 275.868 554.393 276.008 555.343 278.658L565.383 306.548C566.273 309.018 569.633 309.358 571.003 307.118L587.263 280.408C588.643 278.128 592.063 278.518 592.903 281.048L633.803 403.748C634.553 405.988 632.643 408.218 630.313 407.818L206.993 336.458C205.153 336.148 203.993 334.308 204.503 332.518L220.043 278.138C220.073 278.018 220.113 277.908 220.163 277.798V277.788Z" fill="url(#paint2_linear_4879_568)"/>
<path d="M634.84 351.458L656.8 298.498C657.71 296.298 660.81 296.258 661.79 298.428L670.43 317.628C671.24 319.418 673.61 319.788 674.93 318.328L695.46 295.518C696.71 294.128 698.95 294.388 699.85 296.018L716.8 326.528C717.91 328.518 720.83 328.348 721.69 326.238L732.7 299.218C733.64 296.918 736.92 296.978 737.77 299.318L750.62 334.658C751.41 336.818 754.36 337.088 755.52 335.098L769.93 310.388C771.07 308.438 773.94 308.648 774.79 310.738L789.64 347.308C790.42 349.228 792.98 349.598 794.28 347.978L800.4 340.328C801.59 338.838 803.91 339.008 804.87 340.668L815.97 359.838C817.09 361.768 819.94 361.598 820.82 359.548L828.7 341.158C829.7 338.838 833.05 339.008 833.79 341.428L840.41 362.958C841.21 365.538 844.88 365.508 845.62 362.908L851.81 341.238C852.57 338.568 856.38 338.628 857.06 341.328L861.49 359.048C862.1 361.468 865.37 361.858 866.53 359.648L876.85 339.938C877.82 338.088 880.42 337.978 881.54 339.738L898.37 366.038C899.69 368.098 902.84 367.508 903.32 365.108C903.83 362.568 907.26 362.108 908.41 364.428L909.48 366.568C910.51 368.618 913.46 368.558 914.39 366.458L920.8 352.038C921.79 349.798 925.01 349.918 925.84 352.218L934.56 376.428C935.33 378.578 938.25 378.868 939.44 376.918L953.56 353.728C954.76 351.748 957.73 352.088 958.46 354.278L993.97 460.808C994.62 462.748 992.96 464.688 990.94 464.348L623.4 402.388C621.8 402.118 620.79 400.518 621.24 398.968L634.73 351.748C634.76 351.648 634.79 351.548 634.83 351.458H634.84Z" fill="url(#paint3_linear_4879_568)"/>
<path d="M672.63 412.128L666.46 412.458H666.41L547.73 418.618L479.52 422.158L445.13 423.948L431.08 424.678L420.32 425.238H0L0.02 6.59782L2.13 0.687816C2.59 -0.252184 3.95 -0.222184 4.36 0.737816L4.72 1.59782L6.61 5.93782L11 16.0778L18.96 34.5078L28.56 56.6778C29.01 57.7078 27.96 58.7278 26.95 58.2978L22.42 56.3478C21.26 55.8478 20.2 57.2078 20.96 58.2178L41.03 84.9878C41.71 85.8978 40.88 87.1578 39.77 86.9078L31.33 85.0378C30.22 84.7878 29.41 86.0478 30.07 86.9578C35.03 93.7078 47.66 111.118 46.32 112.458C45.21 113.568 37.4 109.458 32.37 106.648C31.26 106.018 30.05 107.278 30.73 108.368L52.19 142.708C52.59 143.338 53.45 143.468 54.01 143.008L61.62 136.658C62.25 136.148 63.19 136.358 63.52 137.108L78.13 169.228C78.58 170.238 80.05 170.168 80.4 169.108L103.2 102.218C103.56 101.158 105.04 101.088 105.5 102.118L149.68 203.108C150.06 203.988 151.27 204.098 151.81 203.318L152.52 202.278L164.3 185.248C164.83 184.508 165.95 184.568 166.39 185.368L198.31 244.408C198.46 244.688 198.71 244.888 199.01 244.988L229.66 254.768L230.07 254.898L234.82 256.418L235.43 256.618L316.63 282.548C317.23 282.748 317.87 282.448 318.14 281.868L326.55 262.238C326.96 261.258 326.04 260.248 325.03 260.588L320.58 262.078C319.52 262.428 318.59 261.338 319.09 260.358L321.13 256.418L337.12 225.588L339.68 220.638C339.68 220.638 339.71 220.588 339.73 220.568C340.23 219.728 341.5 219.788 341.9 220.698L342.71 222.568L357.54 256.408L358.81 259.358L362.37 267.468C362.85 268.598 361.58 269.668 360.55 268.988L357.37 266.858C356.36 266.198 355.09 267.208 355.53 268.328C357.98 274.448 362.81 286.198 364.04 286.198C365.4 286.198 374.52 267.348 377.77 260.518C378.22 259.558 379.57 259.588 380 260.548C384.14 270.158 399.01 304.398 400.44 304.398C401.58 304.398 405.11 298.058 407.18 294.158C407.71 293.148 409.2 293.368 409.45 294.468L411.52 303.738C411.74 304.718 412.96 305.048 413.62 304.298L428.55 287.898C428.55 287.898 428.6 287.828 428.62 287.798L428.84 287.518L437.45 276.048C437.88 275.468 438.67 275.398 439.19 275.828C439.31 275.908 439.39 276.008 439.47 276.138L463.83 315.708C464.34 316.538 465.55 316.488 465.98 315.608L480.81 284.808L484.57 276.978C485.12 275.848 483.83 274.748 482.78 275.418L480.12 277.208C479.72 277.468 479.29 277.468 478.93 277.308C478.37 277.048 478.02 276.378 478.32 275.688L478.45 275.388L481.35 268.898V268.878L486.89 256.388L495.36 237.338C495.79 236.378 497.15 236.358 497.59 237.318L506.49 256.378L507.27 258.048L517.76 280.538C518.29 281.668 517 282.768 515.97 282.078L515.57 281.818L513.02 280.118C512.01 279.458 510.74 280.478 511.2 281.608L517.17 296.218L522.6 309.488C523.1 310.698 521.62 311.738 520.65 310.878L516.45 307.188C515.41 306.298 513.9 307.488 514.55 308.698L530.27 337.868L532.37 341.758L533.73 344.288C534.11 345.018 535.09 345.168 535.68 344.568L546.8 333.448C547.3 332.948 548.14 332.988 548.6 333.528L550.69 336.048L553.67 339.618L555.01 341.228C555.52 341.838 556.48 341.808 556.95 341.158L557.84 339.918L563.65 331.938L568.43 325.368C568.88 324.758 569.74 324.688 570.27 325.198L573.91 328.658L575.23 329.928L577.35 331.948L596.74 350.448L597.15 350.848L604.32 357.678C604.95 358.288 606.01 358.058 606.31 357.228L612.66 340.268L614.68 334.908C614.93 334.258 614.6 333.618 614.07 333.368C613.81 333.218 613.47 333.188 613.14 333.298L610.62 334.138L608.67 334.788C607.61 335.148 606.67 334.008 607.21 333.038L609.11 329.648L617.68 314.338L627.48 296.828C627.61 296.568 627.83 296.398 628.06 296.298C628.67 296.038 629.47 296.298 629.71 297.028L630.09 298.158L633.8 308.928L634.96 312.288L635.84 314.838L646.13 344.778C646.48 345.788 645.45 346.718 644.48 346.298L638.04 343.538C637.05 343.128 636.04 344.088 636.4 345.098L650.25 383.588C650.3 383.718 650.38 383.868 650.48 383.988L655.86 390.098L670.65 406.848L673.46 410.038C674.14 410.798 673.64 412.028 672.62 412.078L672.63 412.128Z" fill="url(#paint4_linear_4879_568)"/>
<defs>
<linearGradient id="paint0_linear_4879_568" x1="299.071" y1="304.228" x2="372.941" y2="34.5178" gradientUnits="userSpaceOnUse">
<stop stop-color="#5B47A8"/>
<stop offset="0.07" stop-color="#4B3B8C"/>
<stop offset="0.18" stop-color="#392D6C"/>
<stop offset="0.29" stop-color="#2A2151"/>
<stop offset="0.42" stop-color="#1F193D"/>
<stop offset="0.56" stop-color="#17122F"/>
<stop offset="0.73" stop-color="#120F26"/>
<stop offset="1" stop-color="#110E24"/>
</linearGradient>
<linearGradient id="paint1_linear_4879_568" x1="184.43" y1="313.878" x2="207.88" y2="-44.9521" gradientUnits="userSpaceOnUse">
<stop stop-color="#5B47A8"/>
<stop offset="0.07" stop-color="#4B3B8C"/>
<stop offset="0.18" stop-color="#392D6C"/>
<stop offset="0.29" stop-color="#2A2151"/>
<stop offset="0.42" stop-color="#1F193D"/>
<stop offset="0.56" stop-color="#17122F"/>
<stop offset="0.73" stop-color="#120F26"/>
<stop offset="1" stop-color="#110E24"/>
</linearGradient>
<linearGradient id="paint2_linear_4879_568" x1="417.323" y1="377.398" x2="478.293" y2="103.778" gradientUnits="userSpaceOnUse">
<stop stop-color="#5B47A8"/>
<stop offset="0.07" stop-color="#4B3B8C"/>
<stop offset="0.18" stop-color="#392D6C"/>
<stop offset="0.29" stop-color="#2A2151"/>
<stop offset="0.42" stop-color="#1F193D"/>
<stop offset="0.56" stop-color="#17122F"/>
<stop offset="0.73" stop-color="#120F26"/>
<stop offset="1" stop-color="#110E24"/>
</linearGradient>
<linearGradient id="paint3_linear_4879_568" x1="805.87" y1="446.618" x2="824.63" y2="277.758" gradientUnits="userSpaceOnUse">
<stop stop-color="#5B47A8"/>
<stop offset="0.07" stop-color="#4B3B8C"/>
<stop offset="0.18" stop-color="#392D6C"/>
<stop offset="0.29" stop-color="#2A2151"/>
<stop offset="0.42" stop-color="#1F193D"/>
<stop offset="0.56" stop-color="#17122F"/>
<stop offset="0.73" stop-color="#120F26"/>
<stop offset="1" stop-color="#110E24"/>
</linearGradient>
<linearGradient id="paint4_linear_4879_568" x1="267.26" y1="446.108" x2="368.11" y2="102.528" gradientUnits="userSpaceOnUse">
<stop stop-color="#5B47A8"/>
<stop offset="0.07" stop-color="#4B3B8C"/>
<stop offset="0.18" stop-color="#392D6C"/>
<stop offset="0.29" stop-color="#2A2151"/>
<stop offset="0.42" stop-color="#1F193D"/>
<stop offset="0.56" stop-color="#17122F"/>
<stop offset="0.73" stop-color="#120F26"/>
<stop offset="1" stop-color="#110E24"/>
</linearGradient>
</defs>
</svg>
