<svg width="1338" height="396" viewBox="0 0 1338 396" fill="none" xmlns="http://www.w3.org/2000/svg">
<path d="M1205.03 60.3078C1252.01 41.8578 1300.34 19.1578 1338 0.717773V395.358H607.998L607.818 395.628L607.648 395.358H380.828C382.338 394.158 383.858 392.958 385.418 391.738C388.088 389.648 390.838 387.548 393.698 385.408C398.458 381.808 403.448 378.148 408.628 374.428C413.008 371.308 417.518 368.138 422.158 364.958C425.558 362.618 429.038 360.268 432.588 357.888C454.858 343.038 479.738 327.698 506.338 312.598C509.438 310.838 512.558 309.068 515.708 307.318C529.638 299.548 543.988 291.858 558.648 284.338C560.038 283.628 561.438 282.908 562.828 282.198C563.378 281.928 563.918 281.638 564.468 281.368C648.088 238.988 740.688 202.678 818.918 189.808C825.158 188.788 831.228 187.738 837.098 186.698C845.128 185.258 852.818 183.798 860.198 182.328C875.488 179.248 889.468 176.118 902.308 172.898C902.338 172.888 902.358 172.888 902.388 172.878C902.408 172.878 902.438 172.868 902.458 172.868C902.478 172.868 902.508 172.858 902.528 172.858C1025.96 141.988 1043.66 105.788 1117.44 88.8278C1119.33 88.3878 1121.24 87.9378 1123.18 87.4478H1123.2C1148.14 81.2778 1176.34 71.5878 1205.04 60.3078H1205.03Z" fill="url(#paint0_linear_4879_567)"/>
<path d="M1338 48.0776V395.258H608.452L608.272 395.638L608.102 395.258H0.851562C51.5816 377.498 103.062 360.508 143.572 349.388H143.592C153.572 346.638 162.882 344.278 171.332 342.318H171.352C173.992 341.708 176.542 341.148 179.012 340.628C185.992 339.158 192.252 338.048 197.722 337.338C221.822 334.228 242.552 332.308 261.692 330.188C299.052 326.088 330.392 321.238 368.892 305.368C380.212 300.698 392.142 295.088 405.042 288.258C409.302 286.008 413.672 283.608 418.152 281.078C454.332 260.628 481.232 266.848 506.852 279.988C508.212 280.688 509.572 281.398 510.932 282.138C535.892 295.638 560.022 314.738 590.832 320.898C594.062 321.558 597.362 322.058 600.762 322.388H600.812C602.252 322.538 603.712 322.648 605.202 322.738C613.572 323.218 622.442 322.668 631.952 320.798C647.382 317.768 663.592 314.428 680.182 310.738C696.142 307.178 712.472 303.288 728.792 299.058C737.512 296.788 746.242 294.428 754.912 291.958C755.572 291.778 756.222 291.578 756.882 291.398H756.902C758.762 290.868 760.612 290.318 762.472 289.778H762.492C767.732 288.238 772.952 286.668 778.142 285.048C824.032 270.748 866.982 253.308 898.572 232.098C902.122 229.718 905.512 227.298 908.752 224.838C909.482 224.288 910.212 223.748 910.942 223.228C918.002 218.118 925.462 214.098 933.282 210.838C939.232 208.368 945.382 206.358 951.712 204.648C963.482 201.488 975.862 199.438 988.692 197.678C994.312 196.898 999.992 196.188 1005.78 195.458C1019.07 193.768 1032.76 192.018 1046.7 189.368C1047.79 189.148 1048.89 188.938 1050 188.718C1054.33 187.838 1058.68 186.878 1063.06 185.788C1063.97 185.558 1064.88 185.328 1065.79 185.098C1072.97 183.248 1080.19 181.048 1087.44 178.398C1091.15 177.038 1094.87 175.568 1098.59 173.978H1098.61C1118.23 165.518 1137.96 153.408 1157.36 135.468C1160.39 132.668 1163.64 129.908 1167.09 127.178C1206.8 95.7076 1273.08 68.8776 1338.02 48.0976L1338 48.0776Z" fill="url(#paint1_linear_4879_567)"/>
<path d="M647.034 357.518L658.564 381.798H615.934L618.894 375.258L619.274 374.428C619.854 373.138 618.434 371.868 617.224 372.588L615.384 373.698L612.754 375.268L608.404 377.878C607.214 378.588 605.804 377.368 606.334 376.078L612.834 360.458L613.464 358.948L628.224 323.548C628.704 322.388 630.324 322.358 630.854 323.478L647.024 357.498L647.034 357.518Z" fill="url(#paint2_linear_4879_567)"/>
<path d="M1330.79 146.738L1338.01 138.148V393.118L1311.53 394.558H657.656L674.766 367.188L677.396 362.988C678.096 361.878 677.046 360.468 675.776 360.838L670.676 362.298C669.516 362.628 668.496 361.468 668.956 360.358L683.076 326.488C683.556 325.308 682.416 324.138 681.226 324.588L674.776 327.008C673.516 327.488 672.356 326.128 673.006 324.968L681.216 310.038L688.146 297.408C688.676 296.448 687.976 295.278 686.886 295.278H672.766C674.056 295.278 686.366 277.228 691.766 269.228C692.556 268.058 691.386 266.578 690.066 267.078L684.956 268.978C683.666 269.478 682.506 268.048 683.216 266.888L707.726 226.528C708.326 225.518 709.826 225.638 710.276 226.708L725.406 262.418C725.966 263.758 724.416 265.018 723.236 264.158L722.446 263.598C721.136 262.668 719.496 264.258 720.406 265.598L735.776 288.038C736.426 288.998 735.746 290.308 734.586 290.308H726.856C725.696 290.308 725.006 291.628 725.686 292.588L729.756 298.348L742.546 316.468C743.176 317.358 744.536 317.258 745.016 316.288L757.806 290.688H757.826L759.466 287.398C759.946 286.438 761.256 286.318 761.896 287.148L763.386 289.068H763.406L770.586 298.318C771.266 299.178 772.606 299.018 773.056 298.018L779.026 284.328L782.056 277.408C782.606 276.168 781.296 274.928 780.086 275.538L774.296 278.438C773.056 279.048 771.746 277.738 772.356 276.498L797.406 226.388C797.906 225.378 799.306 225.308 799.926 226.258L808.646 239.958C809.276 240.948 810.746 240.818 811.196 239.738L827.976 199.178C828.536 197.818 826.946 196.598 825.776 197.478L820.316 201.578C819.186 202.418 817.656 201.328 818.066 200.008L829.976 161.268C829.976 161.268 829.996 161.198 830.006 161.168L835.586 137.468C835.896 136.098 834.276 135.118 833.216 136.048L827.586 140.958C826.476 141.948 824.776 140.788 825.286 139.388L838.196 103.928L839.026 101.628L848.626 75.2477C849.076 74.0277 850.776 73.9577 851.286 75.1477L860.436 95.9777L861.246 97.8277L878.026 136.038C878.576 137.278 877.266 138.518 876.056 137.908L870.266 135.008C869.026 134.398 867.716 135.708 868.326 136.948L888.776 177.858C889.436 179.178 887.916 180.518 886.686 179.708L881.856 176.478C880.566 175.618 879.006 177.128 879.816 178.448L904.886 218.838C905.446 219.728 904.866 220.908 903.826 221.018L893.996 222.108C892.826 222.238 892.296 223.648 893.086 224.508L899.246 231.338L904.446 237.128C905.186 237.938 906.536 237.658 906.876 236.618L911.596 222.468L920.166 196.768C920.526 195.688 921.936 195.428 922.646 196.318L933.896 210.068L949.066 228.618C949.796 229.498 951.236 229.228 951.566 228.118L958.036 207.448C958.416 206.228 957.146 205.148 956.016 205.728L953.546 206.948C952.256 207.598 950.916 206.158 951.656 204.908L952.286 203.868L972.606 169.998C973.186 169.038 974.606 169.068 975.126 170.068L989.076 196.558C989.146 196.678 989.176 196.788 989.206 196.908C989.436 197.888 988.556 198.848 987.506 198.648L985.716 198.288C984.446 198.038 983.496 199.468 984.246 200.538L995.536 216.838C996.196 217.798 997.666 217.618 998.086 216.528L1006.28 194.698L1010.9 182.368C1011.33 181.208 1010.19 180.068 1009.03 180.498L1002.38 182.998C1001.12 183.478 999.956 182.138 1000.59 180.958L1020.66 143.688C1021.21 142.678 1022.66 142.678 1023.21 143.708L1047.14 188.608L1047.27 188.838C1047.78 189.798 1049.14 189.878 1049.75 188.968L1050.43 187.958L1057.05 178.008C1057.65 177.118 1058.97 177.168 1059.5 178.108L1063.44 184.988L1063.47 185.018C1064.07 186.048 1065.6 185.898 1066.03 184.768L1066.2 184.318L1073.99 163.568C1074.37 162.528 1075.78 162.298 1076.47 163.188L1087.81 177.618L1091.72 182.578C1092.37 183.408 1093.64 183.288 1094.14 182.368L1098.96 173.198H1098.98L1107.57 156.868C1108.22 155.628 1106.89 154.268 1105.65 154.898L1100.72 157.368C1099.45 158.018 1098.11 156.588 1098.83 155.348L1112.2 132.248C1112.93 131.008 1111.59 129.588 1110.31 130.228L1105.25 132.758C1104.01 133.368 1102.7 132.058 1103.31 130.818L1121.66 94.1277C1122.17 93.0877 1121.31 91.8977 1120.15 92.0577L1113.43 93.0177C1112.42 93.1477 1111.58 92.2277 1111.82 91.2277L1130.07 19.7777C1130.4 18.4177 1132.27 18.3077 1132.8 19.5777L1158.95 83.5177C1159.51 84.8777 1157.92 86.0977 1156.75 85.2077L1154.04 83.1677C1152.75 82.2077 1151.09 83.7477 1151.95 85.1077L1168.3 110.788C1169.06 111.998 1167.8 113.468 1166.5 112.888L1160.29 110.128C1158.98 109.548 1157.71 111.008 1158.47 112.218L1167.34 126.398L1178.81 144.748C1179.51 145.858 1178.46 147.268 1177.19 146.898L1172.69 145.608C1171.45 145.248 1170.39 146.618 1171.05 147.728L1189.65 179.188C1190.16 180.068 1191.4 180.148 1192.03 179.338L1212.09 150.938C1213.58 148.838 1212.83 145.908 1210.52 144.768C1209.08 144.058 1207.79 143.548 1208.25 142.548L1222.68 112.268C1223.18 111.228 1224.62 111.158 1225.21 112.138L1248.69 150.278C1249.32 151.318 1248.46 152.628 1247.25 152.458L1245.64 152.228C1244.08 151.998 1243.34 154.068 1244.68 154.888L1267.04 168.538C1267.8 168.998 1268.79 168.688 1269.14 167.858L1292.46 110.318C1292.86 109.338 1294.15 109.108 1294.86 109.888L1328.62 146.708C1329.2 147.358 1330.23 147.318 1330.79 146.658V146.738Z" fill="url(#paint3_linear_4879_567)"/>
<path d="M614.451 390.488L610.481 388.718L606.971 387.158L605.081 386.318C604.291 385.968 603.471 386.768 603.821 387.558L604.331 388.728L607.161 395.248H486.661L495.681 377.818C496.091 377.028 495.271 376.148 494.441 376.528L481.451 382.418C480.611 382.798 479.781 381.868 480.241 381.078L486.841 369.758L501.071 345.368C501.431 344.738 500.971 343.948 500.241 343.948H493.821C493.041 343.948 492.601 343.068 493.061 342.438L511.211 317.298C511.791 316.488 510.911 315.448 510.021 315.888L499.641 321.068C498.811 321.478 497.941 320.588 498.381 319.758L515.471 288.428C515.901 287.638 515.091 286.738 514.251 287.088L507.751 289.888C506.921 290.238 506.111 289.338 506.561 288.548L510.131 282.108L515.411 272.608L518.451 267.128C518.981 266.148 517.721 265.208 516.941 265.988C516.741 266.188 516.491 266.288 516.281 266.288C515.621 266.288 515.041 265.558 515.451 264.848L528.891 241.618C529.301 240.908 528.661 240.028 527.831 240.228L518.781 242.498C518.001 242.698 517.341 241.868 517.701 241.138L542.361 191.828C542.711 191.118 543.751 191.128 544.081 191.878L564.041 236.408C564.041 236.408 564.061 236.458 564.061 236.478C564.321 237.158 563.761 237.868 563.021 237.738L562.421 237.638L557.311 236.798C556.451 236.648 555.871 237.658 556.421 238.338L558.261 240.618L581.051 268.738C581.631 269.468 580.931 270.528 580.041 270.258L570.041 267.248C569.101 266.968 568.401 268.138 569.101 268.838L587.391 287.128C588.051 287.788 587.461 288.918 586.531 288.738L575.791 286.588C574.901 286.408 574.301 287.468 574.881 288.148L604.101 321.738C604.361 322.048 604.381 322.418 604.271 322.728C604.091 323.128 603.641 323.428 603.131 323.278L599.891 322.388H599.841L591.141 320.008C590.481 319.828 589.951 320.338 589.931 320.898C589.911 321.128 590.001 321.378 590.181 321.578L604.031 336.668C604.661 337.368 604.011 338.458 603.101 338.238L588.901 334.678C588.021 334.458 587.381 335.458 587.911 336.168L604.131 357.798C604.711 358.578 603.911 359.598 603.021 359.258L592.731 355.138C591.841 354.788 591.041 355.818 591.601 356.598L603.331 372.468L604.421 373.938L615.611 389.068C616.191 389.848 615.351 390.908 614.451 390.508V390.488Z" fill="url(#paint4_linear_4879_567)"/>
<defs>
<linearGradient id="paint0_linear_4879_567" x1="910.348" y1="340.778" x2="791.378" y2="7.33779" gradientUnits="userSpaceOnUse">
<stop stop-color="#5B47A8"/>
<stop offset="0.07" stop-color="#4B3B8C"/>
<stop offset="0.18" stop-color="#392D6C"/>
<stop offset="0.29" stop-color="#2A2151"/>
<stop offset="0.42" stop-color="#1F193D"/>
<stop offset="0.56" stop-color="#17122F"/>
<stop offset="0.73" stop-color="#120F26"/>
<stop offset="1" stop-color="#110E24"/>
</linearGradient>
<linearGradient id="paint1_linear_4879_567" x1="725.012" y1="439.248" x2="632.662" y2="77.7076" gradientUnits="userSpaceOnUse">
<stop stop-color="#5B47A8"/>
<stop offset="0.07" stop-color="#4B3B8C"/>
<stop offset="0.18" stop-color="#392D6C"/>
<stop offset="0.29" stop-color="#2A2151"/>
<stop offset="0.42" stop-color="#1F193D"/>
<stop offset="0.56" stop-color="#17122F"/>
<stop offset="0.73" stop-color="#120F26"/>
<stop offset="1" stop-color="#110E24"/>
</linearGradient>
<linearGradient id="paint2_linear_4879_567" x1="635.004" y1="536.698" x2="629.144" y2="182.548" gradientUnits="userSpaceOnUse">
<stop stop-color="#5B47A8"/>
<stop offset="0.07" stop-color="#4B3B8C"/>
<stop offset="0.18" stop-color="#392D6C"/>
<stop offset="0.29" stop-color="#2A2151"/>
<stop offset="0.42" stop-color="#1F193D"/>
<stop offset="0.56" stop-color="#17122F"/>
<stop offset="0.73" stop-color="#120F26"/>
<stop offset="1" stop-color="#110E24"/>
</linearGradient>
<linearGradient id="paint3_linear_4879_567" x1="1021.58" y1="343.608" x2="937.926" y2="71.5476" gradientUnits="userSpaceOnUse">
<stop stop-color="#5B47A8"/>
<stop offset="0.07" stop-color="#4B3B8C"/>
<stop offset="0.18" stop-color="#392D6C"/>
<stop offset="0.29" stop-color="#2A2151"/>
<stop offset="0.42" stop-color="#1F193D"/>
<stop offset="0.56" stop-color="#17122F"/>
<stop offset="0.73" stop-color="#120F26"/>
<stop offset="1" stop-color="#110E24"/>
</linearGradient>
<linearGradient id="paint4_linear_4879_567" x1="550.481" y1="538.088" x2="544.621" y2="183.948" gradientUnits="userSpaceOnUse">
<stop stop-color="#5B47A8"/>
<stop offset="0.07" stop-color="#4B3B8C"/>
<stop offset="0.18" stop-color="#392D6C"/>
<stop offset="0.29" stop-color="#2A2151"/>
<stop offset="0.42" stop-color="#1F193D"/>
<stop offset="0.56" stop-color="#17122F"/>
<stop offset="0.73" stop-color="#120F26"/>
<stop offset="1" stop-color="#110E24"/>
</linearGradient>
</defs>
</svg>
