<svg width="1921" height="556" viewBox="0 0 1921 556" fill="none" xmlns="http://www.w3.org/2000/svg">
<path d="M1920 26.09V555.27H0V0C32.83 15.36 67.01 30.25 101.1 43.46C133.39 55.99 165.59 66.99 196.52 75.45C203.05 77.24 209.51 78.91 215.9 80.45C217.94 80.95 219.99 81.43 222.01 81.89C246.3 87.52 269.52 91.29 291.06 92.66C294.03 92.86 296.94 93.01 299.84 93.11C352.74 94.91 405.75 105.11 459.6 119.06C460.61 119.32 461.64 119.59 462.65 119.85H462.73C462.73 119.85 462.76 119.87 462.78 119.87C477.04 123.61 491.32 127.6 505.7 131.77C519.96 135.89 534.28 140.19 548.69 144.58C559.77 147.94 570.92 151.36 582.1 154.81C585 155.69 587.91 156.58 590.81 157.46C597.88 159.64 604.97 161.81 612.1 163.96C617.07 165.48 622.04 166.97 627.03 168.46C636.82 171.41 646.68 174.32 656.57 177.18C683.66 185.01 711.12 192.42 739.04 198.97C739.06 198.99 739.07 198.99 739.09 198.99C744.01 200.15 748.93 201.26 753.88 202.35H753.9C807.72 214.28 863.25 222.6 921.07 223.85C938.55 224.23 955.28 224.74 971.36 225.34C975.17 225.47 978.93 225.62 982.66 225.77C985.68 225.89 988.66 226.02 991.64 226.13C1019.49 227.3 1045.43 228.65 1070 229.8C1111.85 231.79 1149.77 233.26 1186.61 232.48C1187.19 232.48 1187.77 232.46 1188.33 232.45C1199.59 232.2 1210.78 231.74 1221.93 231.01C1233.29 230.27 1244.64 229.26 1256.06 227.92C1293 223.6 1330.67 215.89 1371.96 203C1398.78 194.64 1427.14 184.1 1457.82 170.9C1562.47 125.86 1756.26 69.91 1920.01 26.12L1920 26.09Z" fill="#14112C"/>
</svg>
