<svg width="60" height="60" viewBox="0 0 60 60" fill="none" xmlns="http://www.w3.org/2000/svg">
<path fill-rule="evenodd" clip-rule="evenodd" d="M38.8177 25.319C39.1227 25.265 39.4189 25.1795 39.705 25.0639C41.0719 24.5115 42.2 23.2762 42.8741 21.5571C43.6012 19.7033 43.7764 17.4106 43.3678 15.1013C42.6978 11.5938 39.3188 5.31868 35.7124 5.82205C34.8835 5.89032 34.2622 6.60968 34.3152 7.43954C34.4453 9.48006 33.9217 11.4552 32.8406 13.0012C31.1415 15.4308 30.9403 18.4533 32.3023 21.0864C33.8765 24.1299 36.373 25.7516 38.8177 25.319ZM17.151 21.5544C17.9844 23.6061 19.3138 24.946 21.2074 25.3163C23.6521 25.7489 26.1486 24.1271 27.7228 21.0838C29.0847 18.4506 28.8836 15.428 27.1846 12.9985C26.1035 11.4526 25.5798 9.47743 25.71 7.43695C25.763 6.60719 25.1417 5.8876 24.3128 5.81946C22.9799 5.7098 20.9555 6.29343 18.88 9.6972C17.7083 11.6187 16.8749 13.869 16.6574 15.0987C16.2488 17.4078 16.424 19.7006 17.151 21.5544ZM41.1572 35.6741C39.7949 35.0602 38.8276 34.2255 38.0211 32.968C34.2578 26.9062 25.7717 26.9068 22.0089 32.968C21.2022 34.2255 20.235 35.0602 18.8728 35.6741C8.84311 40.338 12.2475 54.728 23.2685 54.8157C24.8385 54.8479 26.012 54.4605 27.1225 54.0938C28.7713 53.5495 30.2814 53.051 32.7446 54.0391C39.3308 56.8485 47.2826 51.8702 47.1622 44.7757C47.1624 40.8906 44.8052 37.3179 41.1572 35.6741ZM15.8886 24.1737C17.4648 26.0787 18.0228 28.4535 17.4599 30.8608C16.648 34.3332 14.4094 36.5783 11.8892 36.4474C8.10994 36.1034 6.6652 31.7185 6.853 28.2225C7.08044 24.9956 9.37612 19.2083 12.7669 19.5528C12.8556 19.5574 12.9456 19.5662 13.0435 19.5796C13.6925 19.6683 14.2124 20.1615 14.3351 20.805C14.577 22.0731 15.1142 23.238 15.8886 24.1737ZM46.9772 19.5796C47.0751 19.5661 47.1651 19.5573 47.2527 19.5528C50.6388 19.2068 52.9391 24.9847 53.1677 28.2226C53.3547 31.7207 51.9112 36.1023 48.1314 36.4473C45.6113 36.5782 43.3727 34.3332 42.5608 30.8608C41.998 28.4536 42.556 26.0787 44.1321 24.1737C44.9065 23.238 45.4437 22.0731 45.6856 20.805C45.8085 20.1616 46.3282 19.6683 46.9772 19.5796Z" fill="url(#paint0_linear_3812_21260)"/>
<defs>
<linearGradient id="paint0_linear_3812_21260" x1="49.636" y1="20.5962" x2="41.0181" y2="62.6849" gradientUnits="userSpaceOnUse">
<stop stop-color="#584F88"/>
<stop offset="1" stop-color="#584F88" stop-opacity="0"/>
</linearGradient>
</defs>
</svg>
