<svg width="16" height="16" viewBox="0 0 16 16" fill="none" xmlns="http://www.w3.org/2000/svg">
<g clipPath="url(#clip0_3812_30122)">
<path fillRule="evenodd" clipRule="evenodd" d="M15.4969 7.99643C15.4949 3.85893 12.1339 0.50143 7.99643 0.50293C3.85893 0.50493 0.50143 3.86593 0.50293 8.00343C0.50493 12.1409 3.86593 15.4984 8.00343 15.4969C12.1409 15.4949 15.4984 12.1339 15.4969 7.99643ZM4.53243 5.60343C3.40143 7.23693 3.55543 9.49693 5.00193 10.9614C5.81743 11.7874 6.89093 12.2049 7.96793 12.2134C8.24393 12.2154 8.46943 11.9929 8.47143 11.7174C8.47393 11.4414 8.25143 11.2154 7.97543 11.2134C7.15443 11.2069 6.33543 10.8884 5.71343 10.2589C4.67143 9.20393 4.50893 7.60843 5.22043 6.38493C5.25393 6.62643 5.46093 6.81343 5.71243 6.81493C5.98843 6.81693 6.21393 6.59443 6.21543 6.31843L6.22343 5.00793C6.22443 4.87143 6.16993 4.74693 6.08193 4.65643C5.98093 4.55193 5.83643 4.49243 5.68093 4.50493L4.44893 4.60693C4.17393 4.62993 3.96943 4.87143 3.99193 5.14643C4.01493 5.42193 4.25693 5.62643 4.53193 5.60393L4.53243 5.60343ZM10.7904 9.59643C10.7739 9.33693 10.5584 9.13043 10.2944 9.12893C10.0184 9.12743 9.79293 9.34993 9.79143 9.62593L9.78343 10.9364C9.78243 11.0744 9.83793 11.1999 9.92793 11.2909C10.0234 11.3884 10.1584 11.4464 10.3049 11.4404L11.5624 11.3889C11.8379 11.3779 12.0529 11.1449 12.0414 10.8689C12.0299 10.5934 11.7969 10.3784 11.5214 10.3899L11.4704 10.3919C12.5979 8.75843 12.4434 6.50143 10.9979 5.03843C10.2744 4.30593 9.34793 3.89443 8.39593 3.80493C8.12143 3.77893 7.87743 3.98143 7.85143 4.25593C7.82593 4.53093 8.02793 4.77493 8.30243 4.80043C9.02843 4.86843 9.73493 5.18243 10.2864 5.74093C11.3234 6.79043 11.4894 8.37543 10.7904 9.59643Z" fill="#584F88"/>
</g>
<defs>
<clipPath id="clip0_3812_30122">
<rect width="16" height="16" fill="white"/>
</clipPath>
</defs>
</svg>
